<?xml version="1.0" encoding="UTF-8"?>
<svg viewBox="0 0 244 76" xmlns="http://www.w3.org/2000/svg" xmlns:xlink="http://www.w3.org/1999/xlink">
  <defs>
    <style>
    :root {
      --paneLeft₀: 28px;
      --paneSize₀: 64px;
      --paneΔ: 6px;
      --paneLeft: calc(var(--paneLeft₀) + var(--paneΔ));
      --paneSize: calc(var(--paneSize₀) + var(--paneΔ));
    }

    #basePane,
    .headPane {
      fill: #fafafaff;
      stroke-width: 0;
      filter: url(#shadow);
    }

    #baseGrid {
      fill: none;
      stroke: #4f4f4f;
      stroke-opacity: .4;
    }

    .grid,
    .pane {
      --paneᶦLeft: calc(var(--paneLeft) + var(--paneᶦ) * (var(--paneSize)));
      transform: translate(var(--paneᶦLeft), var(--paneΔ));
    }

    .outline {
      fill: none
    }

    .body {
      stroke: none;
    }

    .headPane {
      transform: translate(6px, 6px);
    }

    .magenta {
      fill: #fc40f2a0;

    }

    .magentaOutline {
      stroke: #640062a0;
    }

    .cyan {
      fill: #25c9e0a0;
    }

    .cyanOutline {
      stroke: #003949c0;
    }

    .blue {
      fill: #4000ffc0;
    }

    .blueOutline {
      stroke: #0000afa0;
    }
    </style>
    <filter id="shadow" width="1.2" height="1.2" x="-.2" y="-.2" color-interpolation-filters="sRGB">
      <feFlood flood-color="#111" flood-opacity=".6" result="flood" />
      <feComposite in="flood" in2="SourceGraphic" operator="out" result="shadowCompose" />
      <feGaussianBlur in="shadowCompose" result="blur" stdDeviation="1.5" />
      <feOffset dx="1" dy="2" result="offset" />
      <feComposite in="offset" in2="SourceGraphic" operator="atop" />
    </filter>
    <filter id="bar" color-interpolation-filters="sRGB">
      <feGaussianBlur in="SourceAlpha" result="barResult0" stdDeviation="0.6" />
      <feMorphology in="SourceAlpha" radius="3" result="barResult1" />
      <feGaussianBlur in="barResult1" stdDeviation="1" />
      <feComposite in="barResult0" in2="brResult2" operator="out" />
      <feGaussianBlur result="barResult3" stdDeviation="0.5" />
      <feDiffuseLighting diffuseConstant="1.5" surfaceScale="10">
        <feDistantLight azimuth="225" elevation="65" />
      </feDiffuseLighting>
      <feBlend in2="SourceGraphic" mode="darken" />
      <feComposite in2="SourceAlpha" operator="in" result="barResult4" />
      <feSpecularLighting in="barResult3" specularConstant="1" specularExponent="10" surfaceScale="10">
        <feDistantLight azimuth="225" elevation="55" />
      </feSpecularLighting>
      <feComposite in2="barResult4" operator="atop" />
    </filter>
    <rect id="basePane" width="64" height="64" />
    <path id="baseGrid"
      d="m 16 0 v 64 m -8 0 v -64 m 24 0 v 64 m -8 0 v -64 m 24 0 v 64 m -8 0 v -64 m 16 64 v -64 m 8 0 v 64 h -64 v -64 z m 0 16 h -64 m 0 -8 h 64 m 0 24 h -64 m 0 -8 h 64 m 0 24 h -64 m 0 -8 h 64 m -64 16 h 64" />
  </defs>

  <path class="headPane" d="m 13 64 h 9 l 0 -64 h -8 c -8 0 -16 4 -14 16 v 39 c 0 0 1 9 13 9 z" />
  <use class="pane" style="--paneᶦ: 0" href="#basePane" />
  <use class="pane" style="--paneᶦ: 1" href="#basePane" />
  <use class="pane" style="--paneᶦ: 2" href="#basePane" />

  <use class="grid" style="--paneᶦ: 0" href="#baseGrid" />
  <use class="grid" style="--paneᶦ: 1" href="#baseGrid" />
  <use class="grid" style="--paneᶦ: 2" href="#baseGrid" />

  <path fill="black" stroke="none"
    d="m 19.9 11.9 c -1 0 -1.6 0.6 -1.9 1.9 l -0.3 1.1 c -0.2 0.8 -0.5 1.1 -0.9 1.1 c -0.5 0 -0.9 -0.6 -0.9 -1.4 c 0 -0.9 0.5 -1.3 0.9 -1.4 l -0.2 -1.3 c -1.1 0.3 -1.8 1.1 -1.8 2.7 c 0 1.6 0.8 2.7 2.1 2.7 c 1 0 1.7 -0.6 2 -1.9 l 0.3 -1.2 c 0.1 -0.7 0.5 -1 0.9 -1 c 0.6 0 1 0.6 1 1.5 c 0 0.8 -0.3 1.4 -1.1 1.5 l 0.2 1.3 c 1.3 -0.2 2 -1.3 2 -2.9 c 0 -1.7 -0.9 -2.9 -2.2 -2.7 z m -2.5 7.3 c -1.8 0 -2.7 1 -2.7 2.4 c 0 1.1 0.5 1.8 1.3 2.1 v 0.1 h -1.2 v 1.3 h 7.1 v -1.4 h -4.2 c -1.1 0 -1.8 -0.7 -1.8 -1.6 c 0 -0.9 0.6 -1.5 1.6 -1.5 h 4.4 v -1.4 z m 1 7.5 c -2.2 0 -3.7 1.3 -3.7 3.3 c 0 2 1.5 3.3 3.7 3.3 c 2.2 0 3.7 -1.3 3.7 -3.3 c 0 -2 -1.5 -3.3 -3.7 -3.3 z m 0 1.4 c 1.4 0 2.5 0.6 2.5 1.9 c 0 1.3 -1.1 1.9 -2.5 1.9 c -1.4 0 -2.5 -0.6 -2.5 -1.9 c 0 -1.3 1.1 -1.9 2.5 -1.9 z m -5.5 6.6 c -0.5 0 -0.8 0.4 -0.8 0.9 c 0 0.5 0.4 0.9 0.8 0.9 c 0.5 0 0.8 -0.4 0.8 -0.9 c 0 -0.5 -0.4 -0.9 -0.8 -0.9 z m 1.9 0.2 v 1.4 h 7.1 v -1.4 z m 2.6 3.2 c -1.8 0 -2.7 1 -2.7 2.4 c 0 1.1 0.5 1.8 1.3 2.1 v 0.1 h -1.2 v 1.3 h 7.1 v -1.4 h -4.2 c -1.1 0 -1.8 -0.7 -1.8 -1.6 c 0 -0.9 0.6 -1.5 1.6 -1.5 h 4.4 v -1.4 z m -2.6 7.8 v 1.4 h 4.2 c 1.2 0 1.8 0.9 1.8 1.7 c 0 0.8 -0.6 1.4 -1.6 1.4 h -4.4 v 1.4 h 4.5 c 1.8 0 2.7 -1 2.7 -2.3 c 0 -1.1 -0.6 -1.8 -1.3 -2.1 v -0.1 h 1.2 v -1.4 z m 3.5 7.4 c -2.6 0 -3.6 1.5 -3.6 3.1 c 0 2 1.5 3.3 3.7 3.3 c 2.2 0 3.6 -1.3 3.6 -3.4 c 0 -1.6 -0.8 -2.6 -1.9 -3 l -0.2 1.3 c 0.7 0.3 1 0.8 1 1.6 c 0 1.2 -0.8 2 -2.1 2 v -5 z m -0.6 1.4 v 3.7 c -1 -0.1 -1.9 -0.8 -1.9 -1.9 c 0 -1.1 0.8 -1.8 1.9 -1.8 z m -3 5.7 c 0 0.1 0 0.4 0 0.6 c 0 0.8 0.5 1.5 1.2 1.8 v 0.1 h -1.1 v 1.3 h 7.1 v -1.4 h -4.3 c -0.9 0 -1.6 -0.7 -1.6 -1.7 c 0 -0.3 0.1 -0.6 0.1 -0.7 z" />

  <path class="magenta body" d="M174 30h16v16h-16z" />
  <path class="magenta body" d="M103 30h66v16h-66z" />
  <path class="magentaOutline outline" d="M174 30h16v16h-16z" />
  <path class="magentaOutline outline" d="M103 30h66v16h-66z" />

  <path class="cyan body" d="M82 4v18h18v32H50V4zM222 5v17h17v8h-49V5z" />
  <path class="cyan body" d="M238 54h-48v-8h48z" />
  <path class="cyanOutline outline" d="M82 4v18h18v32H50V4zM222 5v17h17v8h-49V5z" />
  <path class="cyanOutline outline" d="M238 54h-48v-8h48z" />

  <path class="blue body" d="M238 46h-48V30h48z" />
  <path class="blueOutline outline" d="M238 46h-48V30h48z" />

  <path fill="#a0a0a0ff"
    d="M938 108h-9a19 19 0 0 1-19-19V50c0-10 9-18 19-18h225v76zm-9-6H939l-1-64h-9c-7 0-13 6-13 12v39c0 7 6 13 13 13zm79 0v-64h-64v64zm6 0h64v-64h-64zm70 0h64v-64h-64"
    filter="url(#bar)" transform="matrix(1 0 0 1 -910 -32)" />
</svg>
