<?xml version="1.0" encoding="UTF-8" standalone="no"?>
<svg xmlns="http://www.w3.org/2000/svg" fill-rule="evenodd" stroke-linecap="round" stroke-linejoin="round" clip-rule="evenodd" viewBox="0 0 328 318">
  <path fill="none" d="M-9631.8-2363h32861.3v24204.4H-9631.8z"/>
  <path fill="none" d="M4 314h320V4H4z"/>
  <path fill="#0f0f0f" d="M24 254h280V24H24z"/>
  <path fill="none" stroke="#999" stroke-linecap="butt" d="M145.3 198v32h-32v-32z"/>
  <path fill="none" stroke="#ccc" stroke-linecap="butt" stroke-opacity=".8" stroke-width=".7" d="M113.3 226h32m0-12h-32m0-4h32m0 12h-32m0-4h32m0-12h-32m0-4h32m-4 28v-32m-12 0v32m-4 0v-32m12 0v32m-4 0v-32m-12 0v32m-4 0v-32m-4 0v32h32v-32z"/>
  <path fill="none" stroke="#000" d="M125.3 198v12h-12v8h12v12h8v-12h12v-8h-12v-12z"/>
  <path fill="#fff" fill-opacity=".9" stroke="#000" d="M125.3 198v12h-12v8h12v12h8v-12h12v-8h-12v-12z"/>
  <path fill="#242424" d="M24 254h280v40H24z"/>
  <path fill="none" stroke="#666" stroke-linecap="square" stroke-linejoin="bevel" stroke-width="2" d="M294 254H34"/>
  <path fill="#bfbfbf" d="M81.1 54.5c-.4 0-.8.1-1.1.4-.3.3-.5.7-.5 1.2 0 .4.2.8.5 1.1.3.3.7.5 1.1.5.5 0 .9-.2 1.2-.5l.1-.1v.4a7 7 0 0 1-2 5.2c-.3.2-.4.4-.4.5 0 .2.1.3.3.3l.6-.5a7.4 7.4 0 0 0 2.3-5.4c0-.7-.2-1.4-.5-2-.3-.7-.9-1.1-1.6-1.1zm5.9 0c-1 0-1.6.7-1.6 1.6 0 .4.1.8.4 1.1a1.7 1.7 0 0 0 2.5-.1v.4c0 2-.7 3.8-2 5.2-.3.2-.4.4-.4.5 0 .2 0 .3.3.3l.6-.5a7.3 7.3 0 0 0 2.2-5.4c0-.7-.1-1.4-.4-2-.4-.7-1-1.1-1.6-1.1zm65.1 0c-.4 0-.8.1-1.1.4-.3.3-.5.7-.5 1.2 0 .4.2.8.5 1.1.3.3.7.5 1.1.5.5 0 .9-.2 1.2-.5l.1-.1v.4a7 7 0 0 1-2 5.2c-.3.2-.4.4-.4.5 0 .2.1.3.3.3l.6-.5a7.4 7.4 0 0 0 2.3-5.4c0-.7-.2-1.4-.5-2-.3-.7-.9-1.1-1.6-1.1zm5.9 0c-1 0-1.6.7-1.6 1.6 0 .4.1.8.4 1.1a1.7 1.7 0 0 0 2.5-.1v.4c0 2-.7 3.8-2 5.2-.3.2-.4.4-.4.5 0 .2 0 .3.3.3l.6-.5a7.3 7.3 0 0 0 2.2-5.4c0-.7-.1-1.4-.4-2-.4-.7-1-1.1-1.6-1.1zm63.6 0c-.5 0-.9.1-1.2.4-.3.3-.4.7-.4 1.2 0 .4.1.8.4 1.1.3.3.7.5 1.2.5.4 0 .8-.2 1.2-.5V57l.1.4a7 7 0 0 1-2 5.2c-.3.2-.4.4-.4.5 0 .2 0 .3.3.3l.5-.5a7.4 7.4 0 0 0 2.3-5.4c0-.7-.2-1.4-.4-2-.4-.7-1-1.1-1.6-1.1zm5.8 0c-.9 0-1.6.7-1.6 1.6 0 .4.2.8.5 1.1a1.7 1.7 0 0 0 2.4-.1v.4c.1 2-.6 3.8-2 5.2-.3.2-.4.4-.4.5 0 .2.1.3.3.3l.6-.5a7.3 7.3 0 0 0 2.2-5.4c0-.7-.1-1.4-.4-2-.3-.7-.9-1.1-1.6-1.1zm64.2 0c-.5 0-.9.1-1.2.4-.3.3-.4.7-.4 1.2 0 .4.1.8.4 1.1.3.3.7.5 1.2.5.4 0 .8-.2 1.2-.5V57l.1.4a7 7 0 0 1-2 5.2c-.3.2-.4.4-.4.5 0 .2 0 .3.3.3l.6-.5a7.4 7.4 0 0 0 2.2-5.4c0-.7-.1-1.4-.4-2-.4-.7-1-1.1-1.6-1.1zm5.8 0c-.9 0-1.6.7-1.6 1.6 0 .4.2.8.5 1.1a1.7 1.7 0 0 0 2.4-.1v.4c.1 2-.6 3.8-2 5.2-.3.2-.4.4-.4.5 0 .2.1.3.3.3l.6-.5a7.3 7.3 0 0 0 2.2-5.4c0-.7-.1-1.4-.4-2-.3-.7-.9-1.1-1.6-1.1zm-265.3 0l-.6.4a7.3 7.3 0 0 0-2.2 5.4c0 .8.1 1.5.4 2.1.4.8.9 1.1 1.6 1.1 1 0 1.6-.7 1.6-1.6 0-.9-.7-1.6-1.6-1.6-.4 0-.8.2-1.2.5l-.1.1v-.4c-.1-2 .7-3.8 2-5.2.3-.2.4-.4.4-.5 0-.2 0-.3-.3-.3zm5.9 0l-.6.4a7.4 7.4 0 0 0-2.2 5.4c0 .8 0 1.5.3 2.1.4.8 1 1.1 1.6 1.1.5 0 .9-.1 1.2-.4.3-.3.5-.7.5-1.2 0-.4-.2-.8-.5-1.1a1.7 1.7 0 0 0-2.4.1c0-.1-.1-.2 0-.4a7 7 0 0 1 2-5.2c.3-.2.4-.4.4-.5 0-.2-.1-.3-.3-.3zm64.8 0l-.6.4a7.3 7.3 0 0 0-2.3 5.4c0 .8.2 1.5.5 2.1.3.8.9 1.1 1.6 1.1.9 0 1.6-.7 1.6-1.6 0-.4-.2-.8-.5-1.1-.3-.3-.7-.5-1.1-.5-.5 0-.9.2-1.2.5l-.1.1-.1-.4a7 7 0 0 1 2.1-5.2c.3-.2.4-.4.4-.5 0-.2-.1-.3-.3-.3zm5.8 0l-.6.4a7.4 7.4 0 0 0-2.2 5.4c0 .8.1 1.5.4 2.1.4.8.9 1.1 1.6 1.1 1 0 1.6-.7 1.6-1.6 0-.9-.7-1.6-1.6-1.6-.5 0-1 .2-1.3.6v-.4c0-2 .7-3.8 2-5.2.3-.2.4-.4.4-.5 0-.2 0-.3-.3-.3zm63.2 0l-.6.4a7.3 7.3 0 0 0-2.3 5.4c0 .8.2 1.5.5 2.1.3.8.9 1.1 1.6 1.1.9 0 1.6-.7 1.6-1.6 0-.4-.2-.8-.5-1.1-.3-.3-.7-.5-1.1-.5-.5 0-.9.2-1.2.5l-.1.1-.1-.4a7 7 0 0 1 2.1-5.2c.3-.2.4-.4.4-.5 0-.2-.1-.3-.3-.3zm5.8 0l-.6.4a7.4 7.4 0 0 0-2.2 5.4c0 .8.1 1.5.4 2.1.4.8.9 1.1 1.6 1.1 1 0 1.6-.7 1.6-1.6 0-.9-.7-1.6-1.6-1.6-.5 0-1 .2-1.3.6v-.4c0-2 .7-3.8 2-5.2.3-.2.4-.4.4-.5 0-.2 0-.3-.3-.3zm61.6 0l-.6.4a7.3 7.3 0 0 0-2.2 5.4c0 .8.1 1.5.4 2.1.4.8.9 1.1 1.6 1.1 1 0 1.6-.7 1.6-1.6 0-.4-.1-.8-.4-1.1-.3-.3-.7-.5-1.2-.5-.4 0-.8.2-1.2.5v.1l-.2-.4a7 7 0 0 1 2.2-5.2l.3-.5c0-.2 0-.3-.3-.3zm5.9 0l-.6.4a7.4 7.4 0 0 0-2.2 5.4c0 .8 0 1.5.4 2.1.3.8.8 1.1 1.6 1.1.9 0 1.6-.7 1.6-1.6 0-.9-.7-1.6-1.6-1.6-.5 0-1 .2-1.3.6v-.4c-.1-2 .6-3.8 2-5.2.3-.2.4-.4.4-.5 0-.2-.1-.3-.3-.3zM96 72c-.5 0-.9.2-1.2.5-.3.3-.5.7-.5 1.2 0 .4.2.9.5 1.2.3.3.7.5 1.2.5s1-.2 1.3-.6v.6c0 2-.8 4-2.3 5.5l-.2.3c0 .3.1.4.3.4l.7-.5a7.9 7.9 0 0 0 2.2-5.7c0-.9 0-1.6-.4-2.2-.3-.8-.9-1.2-1.6-1.2zm68 0c-.5 0-.9.2-1.2.5-.3.3-.5.7-.5 1.2 0 .4.2.9.5 1.2.3.3.7.5 1.2.5s1-.2 1.3-.6v.6c0 2-.8 4-2.3 5.5l-.2.3c0 .3.1.4.3.4l.7-.5a7.9 7.9 0 0 0 2.2-5.7c0-.9 0-1.6-.4-2.2-.3-.8-.9-1.2-1.6-1.2zm68.4 0c-.4 0-.8.2-1.2.5-.3.3-.5.7-.5 1.2 0 .4.2.9.5 1.2.4.3.8.5 1.2.5.5 0 1-.2 1.3-.6v.6c0 2-.8 4-2.2 5.5-.2.1-.2.2-.2.3 0 .3 0 .4.3.4l.6-.5a7.9 7.9 0 0 0 2.3-5.7c0-.9-.1-1.6-.4-2.2-.4-.8-1-1.2-1.7-1.2z"/>
  <path fill="none" d="M292.5 282h-256"/>
  <path fill="none" stroke="#999" stroke-linecap="butt" d="M284 46v32h-32V46z"/>
  <path fill="none" stroke="#ccc" stroke-linecap="butt" stroke-opacity=".8" stroke-width=".7" d="M252 74h32m0-12h-32m0-4h32m0 12h-32m0-4h32m0-12h-32m0-4h32m-4 28V46m-12 0v32m-4 0V46m12 0v32m-4 0V46m-12 0v32m-4 0V46m-4 0v32h32V46z"/>
  <path fill="#fff" fill-opacity=".9" d="M264 46h8v32h-8z"/>
  <path fill="none" stroke="#000" d="M264 46h8v32h-8z"/>
  <path fill="#fff" d="M38.4 281l1.1-3.3h4.7l1.2 3.3H47l-4.3-11.6h-1.4L36.9 281zm1.6-4.6l1.9-5.2 1.9 5.3zm22.6-3.4a4.5 4.5 0 0 0-4.7-3.8c-3 0-5.1 2.3-5.1 6s2.1 6 5 6c2.4 0 4.3-1.4 4.8-3.8h-1.4c-.4 1.6-1.8 2.4-3.3 2.4-2.1 0-3.8-1.6-3.8-4.6 0-3 1.7-4.7 3.8-4.7 1.5 0 3 .9 3.3 2.5zm8.6-.7h1.4c0-1.8-1.7-3.1-4-3.1-2.2 0-4 1.3-4 3.3 0 1.5 1.2 2.4 3 3l1.5.4c1.2.3 2.3.8 2.3 2s-1.3 2-2.9 2c-1.4 0-2.6-.6-2.7-1.9h-1.5c.2 2 1.7 3.2 4.2 3.2 2.7 0 4.2-1.5 4.2-3.4 0-2.1-2-2.9-3.2-3.2l-1.2-.3c-.9-.2-2.3-.7-2.3-2 0-1 1-1.9 2.6-1.9 1.4 0 2.5.7 2.6 1.9zm4.3-3h-1.4l4.2 11.7h1.5l4.2-11.6h-1.4l-3.5 9.8zm21 5c-.6-1.3-1.5-2.1-3.2-2.1-1.9 0-3.2 1-3.2 2.5 0 1.2.7 2 2.3 2.4l1.4.3c1 .2 1.3.6 1.3 1.2 0 .8-.8 1.4-2 1.4-1 0-1.8-.5-2-1.4l-1.3.3c.3 1.5 1.5 2.3 3.3 2.3 2 0 3.4-1.1 3.4-2.6 0-1.3-.7-2-2.3-2.4l-1.3-.3c-1-.3-1.5-.6-1.5-1.3 0-.7.8-1.3 2-1.3 1 0 1.5.7 1.8 1.3zm5.8-2h-1.8v-2.1h-1.4v2h-1.3v1.2h1.3v5.5c0 1.5 1.3 2.2 2.4 2.2.5 0 .8 0 1-.2l-.3-1.1h-.6c-.6 0-1-.2-1-1.3v-5h1.7zm4.6 8.9c1.6 0 2.3-.8 2.6-1.4h.1v1.2h1.3v-5.8c0-2.7-2-3-3.2-3-1.3 0-2.8.4-3.5 2l1.3.5c.3-.7 1-1.4 2.2-1.4 1.3 0 2 .7 2 1.8 0 .7-.8.6-2.4.8-1.6.3-3.3.6-3.3 2.6 0 1.7 1.3 2.7 3 2.7zm.2-1.2c-1 0-1.8-.5-1.8-1.4 0-1 1-1.4 2-1.5.5 0 2.1-.2 2.3-.5v1.2c0 1.1-.9 2.2-2.5 2.2zm9.8 1.2c2 0 3.2-1.2 3.5-2.8H119c-.2 1-1 1.6-2 1.6-1.7 0-2.7-1.3-2.7-3.4 0-2 1.1-3.2 2.6-3.2 1.2 0 2 .7 2.1 1.5h1.4c-.3-1.6-1.7-2.7-3.5-2.7-2.4 0-3.9 1.8-3.9 4.5 0 2.6 1.5 4.5 4 4.5zm5.4-.2h1.4v-3.3l1-.8 3.2 4.1h1.7l-4-5 3.7-3.7h-1.7l-3.8 3.9v-6.8h-1.5zm17-8.7h-1.8v-2.1h-1.4v2h-1.3v1.2h1.3v5.5c0 1.5 1.2 2.2 2.4 2.2.5 0 .8 0 1-.2l-.3-1.1h-.6c-.6 0-1-.2-1-1.3v-5h1.7zm4.6 8.9c1.5 0 2.3-.8 2.6-1.4h.1v1.2h1.3v-5.8c0-2.7-2-3-3.2-3-1.3 0-2.8.4-3.5 2l1.3.5c.2-.7 1-1.4 2.2-1.4 1.3 0 2 .7 2 1.8 0 .7-.8.6-2.4.8-1.6.3-3.4.6-3.4 2.6 0 1.7 1.3 2.7 3 2.7zm.2-1.2c-1 0-1.8-.5-1.8-1.4 0-1 1-1.4 2-1.5.5 0 2-.2 2.3-.5v1.2c0 1.1-.9 2.2-2.5 2.2zm6.4 1h1.3v-1.3h.2c.3.4 1 1.5 2.5 1.5 2.2 0 3.7-1.8 3.7-4.5 0-2.8-1.5-4.5-3.7-4.5-1.7 0-2.2 1-2.5 1.5v-4.3h-1.5zm1.4-4.4c0-2 .8-3.2 2.5-3.2s2.5 1.4 2.5 3.2c0 1.9-.9 3.4-2.5 3.4-1.7 0-2.5-1.4-2.5-3.4zm9.7-7.2h-1.3V281h1.3zm6.1 11.8c1.8 0 3.1-.9 3.5-2.2l-1.3-.4c-.3 1-1 1.4-2.2 1.4-1.5 0-2.6-1-2.7-3h6.4v-.5c0-3.2-2-4.3-3.8-4.3-2.4 0-3.9 1.8-3.9 4.5s1.5 4.5 4 4.5zm-2.7-5.3c.1-1.3 1.1-2.5 2.6-2.5s2.4 1 2.4 2.5zm16.5 5.3c2.3 0 4-1.8 4-4.5 0-2.8-1.7-4.5-4-4.5-2.4 0-4 1.8-4 4.5s1.6 4.5 4 4.5zm0-1.2c-1.8 0-2.7-1.6-2.7-3.3 0-1.8 1-3.3 2.7-3.3 1.7 0 2.6 1.5 2.6 3.3 0 1.7-.9 3.3-2.6 3.3zm9.8-7.7h-1.9v-1c0-.8.3-1.2 1.2-1.2l.8.1.4-1.1a3 3 0 0 0-1.3-.3c-1.3 0-2.5.8-2.5 2.3v1.2h-1.4v1.1h1.4v7.6h1.4v-7.6h2zm10.3 8.9c2.3 0 4-1.5 4-3.4 0-1.4-.9-2.5-2.4-2.8 1.2-.4 2-1.4 2-2.7 0-1.6-1.4-3.1-3.5-3.1-2 0-3.7 1.2-3.8 3h1.4c0-1 1.1-1.8 2.4-1.8 1.2 0 2.1.8 2.1 2s-1 2-2.4 2h-.9v1.3h1c1.7 0 2.7.9 2.7 2.1 0 1.3-1 2.1-2.6 2.1-1.3 0-2.4-.7-2.5-1.8h-1.4c.1 1.8 1.7 3 4 3zm14.4 0c2 0 3.2-1.2 3.4-2.8H218c-.2 1-1 1.6-2 1.6-1.6 0-2.7-1.3-2.7-3.4 0-2 1.1-3.2 2.7-3.2a2 2 0 0 1 2 1.5h1.4c-.2-1.6-1.6-2.7-3.5-2.7-2.3 0-3.9 1.8-3.9 4.5 0 2.6 1.5 4.5 4 4.5zm6.7-5.4c0-1.6 1-2.4 2.3-2.4 1.2 0 2 .8 2 2.2v5.4h1.3v-5.6c0-2.2-1.2-3.2-2.9-3.2-1.4 0-2.2.5-2.6 1.4v-4.2h-1.5V281h1.4zm10.7 5.4c1.5 0 2.3-.8 2.6-1.4v1.2h1.4v-5.8c0-2.7-2.2-3-3.3-3-1.3 0-2.8.4-3.5 2l1.3.5c.3-.7 1-1.4 2.3-1.4 1.2 0 1.8.7 1.8 1.8 0 .7-.6.6-2.2.8-1.7.3-3.4.6-3.4 2.6 0 1.7 1.3 2.7 3 2.7zm.2-1.2c-1 0-1.9-.5-1.9-1.4 0-1 1-1.4 2-1.5.6 0 2.1-.2 2.3-.5v1.2c0 1.1-.8 2.2-2.4 2.2zm6.2 1h1.4v-5.5c0-1.2 1-2 2.2-2h.8v-1.3h-.7c-1 0-2 .5-2.3 1.4v-1.3h-1.4zm8.5.2c1.6 0 2.4-.8 2.6-1.4h.1v1.2h1.3v-5.8c0-2.7-2-3-3.2-3-1.3 0-2.8.4-3.5 2l1.3.5c.3-.7 1-1.4 2.3-1.4 1.2 0 1.8.7 1.8 1.8 0 .7-.7.6-2.3.8-1.6.3-3.3.6-3.3 2.6 0 1.7 1.3 2.7 3 2.7zm.2-1.2c-1 0-1.8-.5-1.8-1.4 0-1 1-1.4 2-1.5.5 0 2.1-.2 2.3-.5v1.2c0 1.1-.9 2.2-2.5 2.2zm9.8 1.2c2 0 3.2-1.2 3.5-2.8h-1.4c-.2 1-1 1.6-2 1.6-1.7 0-2.7-1.3-2.7-3.4 0-2 1.1-3.2 2.6-3.2 1.2 0 2 .7 2.1 1.5h1.4c-.3-1.6-1.6-2.7-3.5-2.7-2.3 0-3.9 1.8-3.9 4.5 0 2.6 1.5 4.5 4 4.5zm9.2-9h-1.8v-2h-1.4v2H263v1.2h1.3v5.5c0 1.5 1.2 2.2 2.4 2.2.5 0 .8 0 1-.2l-.3-1.1h-.6c-.6 0-1-.2-1-1.3v-5h1.7zm5.6 9c1.8 0 3.1-.9 3.5-2.2l-1.3-.4c-.3 1-1 1.4-2.2 1.4-1.6 0-2.6-1-2.7-3h6.3v-.5c0-3.2-1.9-4.3-3.7-4.3-2.4 0-4 1.8-4 4.5s1.6 4.5 4.1 4.5zm-2.7-5.3c.1-1.3 1-2.5 2.6-2.5 1.4 0 2.4 1 2.4 2.5zm8.4 5.1h1.3v-5.5c0-1.2 1-2 2.2-2h.8v-1.3h-.7c-1 0-1.9.5-2.2 1.4v-1.3h-1.4zm12.1-6.8c-.4-1.2-1.4-2-3-2-1.9 0-3.3 1-3.3 2.5 0 1.2.7 2 2.3 2.4l1.5.3c1 .2 1.3.6 1.3 1.2 0 .8-.8 1.4-2 1.4s-1.9-.5-2-1.4l-1.4.3c.3 1.5 1.6 2.3 3.4 2.3 2 0 3.4-1.1 3.4-2.6 0-1.3-.8-2-2.4-2.4l-1.2-.3c-1-.3-1.5-.6-1.5-1.3 0-.7.7-1.3 1.8-1.3 1.2 0 1.7.7 2 1.3z"/>
  <path fill="#1a1a1a" stroke="#999" stroke-linecap="butt" d="M76 46v32H44V46z"/>
  <path fill="none" stroke="#999" stroke-linecap="butt" d="M145.3 46v32h-32V46z"/>
  <path fill="none" stroke="#ccc" stroke-linecap="butt" stroke-opacity=".8" stroke-width=".7" d="M113.3 74h32m0-12h-32m0-4h32m0 12h-32m0-4h32m0-12h-32m0-4h32m-4 28V46m-12 0v32m-4 0V46m12 0v32m-4 0V46m-12 0v32m-4 0V46m-4 0v32h32V46z"/>
  <path fill="#fff" fill-opacity=".9" d="M145.3 58v8h-32v-8z"/>
  <path fill="none" stroke="#000" d="M145.3 58v8h-32v-8z"/>
  <path fill="none" stroke="#999" stroke-linecap="butt" d="M214.7 46v32h-32V46z"/>
  <path fill="none" stroke="#ccc" stroke-linecap="butt" stroke-opacity=".8" stroke-width=".7" d="M182.7 74h32m0-12h-32m0-4h32m0 12h-32m0-4h32m0-12h-32m0-4h32m-4 28V46m-12 0v32m-4 0V46m12 0v32m-4 0V46m-12 0v32m-4 0V46m-4 0v32h32V46z"/>
  <path fill="#fff" fill-opacity=".9" d="M214.7 54v16h-32V54z"/>
  <path fill="none" stroke="#000" d="M214.7 54v16h-32V54z"/>
  <path fill="none" stroke="#ccc" stroke-linecap="butt" stroke-opacity=".8" stroke-width=".7" d="M258 148v32m12 0v-32m4 0v32m-12 0v-32m4 0v32m12 0v-32m4 0v32m-28-4h32m0-12h-32m0-4h32m0 12h-32m0-4h32m0-12h-32m0-4h32m0-4h-32v32h32z"/>
  <path fill="none" stroke="#999" stroke-linecap="butt" d="M284 148v32h-32v-32z"/>
  <path fill="none" stroke="#ccc" stroke-linecap="butt" stroke-opacity=".8" stroke-width=".7" d="M252 176h32m0-12h-32m0-4h32m0 12h-32m0-4h32m0-12h-32m0-4h32m-4 28v-32m-12 0v32m-4 0v-32m12 0v32m-4 0v-32m-12 0v32m-4 0v-32m-4 0v32h32v-32z"/>
  <path fill="#fff" fill-opacity=".9" d="M264 148v8h-12v16h12v8h8v-8h12v-16h-12v-8z"/>
  <path fill="none" stroke="#000" d="M264 148v8h-12v16h12v8h8v-8h12v-16h-12v-8z"/>
  <path fill="none" stroke="#999" stroke-linecap="butt" d="M145.3 96v32h-32V96z"/>
  <path fill="none" stroke="#ccc" stroke-linecap="butt" stroke-opacity=".8" stroke-width=".7" d="M113.3 124h32m0-12h-32m0-4h32m0 12h-32m0-4h32m0-12h-32m0-4h32m-4 28V96m-12 0v32m-4 0V96m12 0v32m-4 0V96m-12 0v32m-4 0V96m-4 0v32h32V96z"/>
  <path fill="#fff" fill-opacity=".9" d="M145.3 108v8h-32v-8z"/>
  <path fill="none" stroke="#000" d="M145.3 108v8h-32v-8z"/>
  <path fill="none" stroke="#999" stroke-linecap="butt" d="M76 96v32H44V96z"/>
  <path fill="none" stroke="#ccc" stroke-linecap="butt" stroke-opacity=".8" stroke-width=".7" d="M44 124h32m0-12H44m0-4h32m0 12H44m0-4h32m0-12H44m0-4h32m-4 28V96m-12 0v32m-4 0V96m12 0v32m-4 0V96m-12 0v32m-4 0V96m-4 0v32h32V96z"/>
  <path fill="#fff" fill-opacity=".9" d="M76 108v8H44v-8z"/>
  <path fill="none" stroke="#000" d="M76 108v8H44v-8z"/>
  <path fill="none" stroke="#999" stroke-linecap="butt" d="M214.7 96v32h-32V96z"/>
  <path fill="none" stroke="#ccc" stroke-linecap="butt" stroke-opacity=".8" stroke-width=".7" d="M182.7 124h32m0-12h-32m0-4h32m0 12h-32m0-4h32m0-12h-32m0-4h32m-4 28V96m-12 0v32m-4 0V96m12 0v32m-4 0V96m-12 0v32m-4 0V96m-4 0v32h32V96z"/>
  <path fill="#fff" fill-opacity=".9" d="M214.7 104v16h-32v-16z"/>
  <path fill="none" stroke="#000" d="M214.7 104v16h-32v-16z"/>
  <path fill="none" stroke="#999" stroke-linecap="butt" d="M284 96v32h-32V96z"/>
  <path fill="none" stroke="#ccc" stroke-linecap="butt" stroke-opacity=".8" stroke-width=".7" d="M252 124h32m0-12h-32m0-4h32m0 12h-32m0-4h32m0-12h-32m0-4h32m-4 28V96m-12 0v32m-4 0V96m12 0v32m-4 0V96m-12 0v32m-4 0V96m-4 0v32h32V96z"/>
  <path fill="none" stroke="#000" d="M264 96v12h-12v8h12v12h8v-12h12v-8h-12V96z"/>
  <path fill="#fff" fill-opacity=".9" stroke="#000" d="M264 96v12h-12v8h12v12h8v-12h12v-8h-12V96z"/>
  <path fill="none" stroke="#999" stroke-linecap="butt" d="M76 96v32H44V96z"/>
  <path fill="none" stroke="#ccc" stroke-linecap="butt" stroke-opacity=".8" stroke-width=".7" d="M44 124h32m0-12H44m0-4h32m0 12H44m0-4h32m0-12H44m0-4h32m-4 28V96m-12 0v32m-4 0V96m12 0v32m-4 0V96m-12 0v32m-4 0V96m-4 0v32h32V96z"/>
  <path fill="#fff" fill-opacity=".9" d="M76 108v8H44v-8z"/>
  <path fill="none" stroke="#000" d="M76 108v8H44v-8z"/>
  <path fill="none" stroke="#999" stroke-linecap="butt" d="M214.7 148v32h-32v-32z"/>
  <path fill="none" stroke="#ccc" stroke-linecap="butt" stroke-opacity=".8" stroke-width=".7" d="M182.7 176h32m0-12h-32m0-4h32m0 12h-32m0-4h32m0-12h-32m0-4h32m-4 28v-32m-12 0v32m-4 0v-32m12 0v32m-4 0v-32m-12 0v32m-4 0v-32m-4 0v32h32v-32z"/>
  <path fill="#fff" fill-opacity=".9" d="M214.7 156v16h-32v-16z"/>
  <path fill="none" stroke="#000" d="M214.7 156v16h-32v-16z"/>
  <path fill="none" stroke="#999" stroke-linecap="butt" d="M76 148v32H44v-32z"/>
  <path fill="none" stroke="#ccc" stroke-linecap="butt" stroke-opacity=".8" stroke-width=".7" d="M44 176h32m0-12H44m0-4h32m0 12H44m0-4h32m0-12H44m0-4h32m-4 28v-32m-12 0v32m-4 0v-32m12 0v32m-4 0v-32m-12 0v32m-4 0v-32m-4 0v32h32v-32z"/>
  <path fill="#fff" fill-opacity=".9" d="M76 156v16H44v-16z"/>
  <path fill="none" stroke="#000" d="M76 156v16H44v-16z"/>
  <path fill="none" stroke="#999" stroke-linecap="butt" d="M145.3 148v32h-32v-32z"/>
  <path fill="none" stroke="#ccc" stroke-linecap="butt" stroke-opacity=".8" stroke-width=".7" d="M113.3 176h32m0-12h-32m0-4h32m0 12h-32m0-4h32m0-12h-32m0-4h32m-4 28v-32m-12 0v32m-4 0v-32m12 0v32m-4 0v-32m-12 0v32m-4 0v-32m-4 0v32h32v-32z"/>
  <path fill="#fff" fill-opacity=".9" d="M145.3 156v16h-32v-16z"/>
  <path fill="none" stroke="#000" d="M145.3 156v16h-32v-16z"/>
  <path fill="none" stroke="#999" stroke-linecap="butt" d="M284 198v32h-32v-32z"/>
  <path fill="none" stroke="#ccc" stroke-linecap="butt" stroke-opacity=".8" stroke-width=".7" d="M252 226h32m0-12h-32m0-4h32m0 12h-32m0-4h32m0-12h-32m0-4h32m-4 28v-32m-12 0v32m-4 0v-32m12 0v32m-4 0v-32m-12 0v32m-4 0v-32m-4 0v32h32v-32z"/>
  <path fill="#fff" fill-opacity=".9" d="M264 198h8v32h-8z"/>
  <path fill="none" stroke="#000" d="M264 198h8v32h-8z"/>
  <path fill="none" stroke="#999" stroke-linecap="butt" d="M76 198v32H44v-32z"/>
  <path fill="none" stroke="#ccc" stroke-linecap="butt" stroke-opacity=".8" stroke-width=".7" d="M44 226h32m0-12H44m0-4h32m0 12H44m0-4h32m0-12H44m0-4h32m-4 28v-32m-12 0v32m-4 0v-32m12 0v32m-4 0v-32m-12 0v32m-4 0v-32m-4 0v32h32v-32z"/>
  <path fill="#fff" fill-opacity=".9" d="M56 198h8v32h-8z"/>
  <path fill="none" stroke="#000" d="M56 198h8v32h-8z"/>
  <path fill="#bfbfbf" d="M81.1 206.5c-.4 0-.8.1-1.1.4-.3.3-.5.7-.5 1.2 0 .4.2.8.5 1.1.3.3.7.5 1.1.5.5 0 .9-.2 1.2-.5l.1-.1v.4a7 7 0 0 1-2 5.2c-.3.2-.4.4-.4.5 0 .2.1.3.3.3l.6-.5a7.4 7.4 0 0 0 2.3-5.4c0-.7-.2-1.4-.5-2-.3-.8-.9-1.1-1.6-1.1zm5.9 0c-1 0-1.6.7-1.6 1.6 0 .4.1.8.4 1.1a1.7 1.7 0 0 0 2.5-.1v.4c0 2-.7 3.8-2 5.2-.3.2-.4.4-.4.5 0 .2 0 .3.3.3l.6-.5a7.3 7.3 0 0 0 2.2-5.4 5 5 0 0 0-.4-2c-.4-.8-1-1.1-1.6-1.1zm65.1 0c-.4 0-.8.1-1.1.4-.3.3-.5.7-.5 1.2 0 .4.2.8.5 1.1.3.3.7.5 1.1.5.5 0 .9-.2 1.2-.5l.1-.1v.4a7 7 0 0 1-2 5.2c-.3.2-.4.4-.4.5 0 .2.1.3.3.3l.6-.5a7.4 7.4 0 0 0 2.3-5.4c0-.7-.2-1.4-.5-2-.3-.8-.9-1.1-1.6-1.1zm5.9 0c-1 0-1.6.7-1.6 1.6 0 .4.1.8.4 1.1a1.7 1.7 0 0 0 2.5-.1v.4c0 2-.7 3.8-2 5.2-.3.2-.4.4-.4.5 0 .2 0 .3.3.3l.6-.5a7.3 7.3 0 0 0 2.2-5.4 5 5 0 0 0-.4-2c-.4-.8-1-1.1-1.6-1.1zm63.6 0c-.5 0-.9.1-1.2.4-.3.3-.4.7-.4 1.2 0 .4.1.8.4 1.1.3.3.7.5 1.2.5.4 0 .8-.2 1.2-.5v-.1l.1.4a7 7 0 0 1-2 5.2c-.3.2-.4.4-.4.5 0 .2 0 .3.3.3l.5-.5a7.4 7.4 0 0 0 2.3-5.4c0-.7-.2-1.4-.4-2-.4-.8-1-1.1-1.6-1.1zm5.8 0c-.9 0-1.6.7-1.6 1.6 0 .4.2.8.5 1.1a1.7 1.7 0 0 0 2.4-.1v.4c.1 2-.6 3.8-2 5.2-.3.2-.4.4-.4.5 0 .2.1.3.3.3l.6-.5a7.3 7.3 0 0 0 2.2-5.4c0-.7-.1-1.4-.4-2-.3-.8-.9-1.1-1.6-1.1zm64.2 0c-.5 0-.9.1-1.2.4-.3.3-.4.7-.4 1.2 0 .4.1.8.4 1.1.3.3.7.5 1.2.5.4 0 .8-.2 1.2-.5v-.1l.1.4a7 7 0 0 1-2 5.2c-.3.2-.4.4-.4.5 0 .2 0 .3.3.3l.6-.5a7.4 7.4 0 0 0 2.2-5.4c0-.7-.1-1.4-.4-2-.4-.8-1-1.1-1.6-1.1zm5.8 0c-.9 0-1.6.7-1.6 1.6 0 .4.2.8.5 1.1a1.7 1.7 0 0 0 2.4-.1v.4c.1 2-.6 3.8-2 5.2-.3.2-.4.4-.4.5 0 .2.1.3.3.3l.6-.5a7.3 7.3 0 0 0 2.2-5.4 5 5 0 0 0-.4-2c-.3-.8-.9-1.1-1.6-1.1zm-265.3 0l-.6.4a7.3 7.3 0 0 0-2.2 5.4c0 .8.1 1.5.4 2.1.4.8.9 1.1 1.6 1.1 1 0 1.6-.7 1.6-1.6 0-.9-.7-1.6-1.6-1.6-.4 0-.8.2-1.2.5l-.1.1v-.4c-.1-2 .7-3.8 2-5.2.3-.2.4-.4.4-.5 0-.2 0-.3-.3-.3zm5.9 0l-.6.4a7.4 7.4 0 0 0-2.2 5.4c0 .8 0 1.5.3 2.1.4.8 1 1.1 1.6 1.1.5 0 .9-.1 1.2-.4.3-.3.5-.7.5-1.2 0-.4-.2-.8-.5-1.1a1.7 1.7 0 0 0-2.4.1c0-.1-.1-.2 0-.4a7 7 0 0 1 2-5.2c.3-.2.4-.4.4-.5 0-.2-.1-.3-.3-.3zm64.8 0l-.6.4a7.3 7.3 0 0 0-2.3 5.4c0 .8.2 1.5.5 2.1.3.8.9 1.1 1.6 1.1.9 0 1.6-.7 1.6-1.6 0-.4-.2-.8-.5-1.1-.3-.3-.7-.5-1.1-.5-.5 0-.9.2-1.2.5l-.1.1-.1-.4a7 7 0 0 1 2.1-5.2c.3-.2.4-.4.4-.5 0-.2-.1-.3-.3-.3zm5.8 0l-.6.4a7.4 7.4 0 0 0-2.2 5.4c0 .8.1 1.5.4 2.1.4.8.9 1.1 1.6 1.1 1 0 1.6-.7 1.6-1.6 0-.9-.7-1.6-1.6-1.6-.5 0-1 .2-1.3.6v-.4c0-2 .7-3.8 2-5.2.3-.2.4-.4.4-.5 0-.2 0-.3-.3-.3zm63.2 0l-.6.4a7.3 7.3 0 0 0-2.3 5.4c0 .8.2 1.5.5 2.1.3.8.9 1.1 1.6 1.1.9 0 1.6-.7 1.6-1.6 0-.4-.2-.8-.5-1.1-.3-.3-.7-.5-1.1-.5-.5 0-.9.2-1.2.5l-.1.1-.1-.4a7 7 0 0 1 2.1-5.2c.3-.2.4-.4.4-.5 0-.2-.1-.3-.3-.3zm5.8 0l-.6.4a7.4 7.4 0 0 0-2.2 5.4c0 .8.1 1.5.4 2.1.4.8.9 1.1 1.6 1.1 1 0 1.6-.7 1.6-1.6 0-.9-.7-1.6-1.6-1.6-.5 0-1 .2-1.3.6v-.4c0-2 .7-3.8 2-5.2.3-.2.4-.4.4-.5 0-.2 0-.3-.3-.3zm61.6 0l-.6.4a7.3 7.3 0 0 0-2.2 5.4c0 .8.1 1.5.4 2.1.4.8.9 1.1 1.6 1.1 1 0 1.6-.7 1.6-1.6 0-.4-.1-.8-.4-1.1-.3-.3-.7-.5-1.2-.5-.4 0-.8.2-1.2.5v.1l-.2-.4a7 7 0 0 1 2.2-5.2l.3-.5c0-.2 0-.3-.3-.3zm5.9 0l-.6.4a7.4 7.4 0 0 0-2.2 5.4c0 .8 0 1.5.4 2.1.3.8.8 1.1 1.6 1.1.9 0 1.6-.7 1.6-1.6 0-.9-.7-1.6-1.6-1.6-.5 0-1 .2-1.3.6v-.4c-.1-2 .6-3.8 2-5.2.3-.2.4-.4.4-.5 0-.2-.1-.3-.3-.3zM96 224c-.5 0-.9.2-1.2.5-.3.3-.5.7-.5 1.2 0 .4.2.9.5 1.2.3.3.7.5 1.2.5s1-.2 1.3-.6v.6c0 2-.8 4-2.3 5.5l-.2.3c0 .3.1.4.3.4l.7-.5a7.9 7.9 0 0 0 2.2-5.7c0-.9 0-1.6-.4-2.2-.3-.8-.9-1.2-1.6-1.2zm68 0c-.5 0-.9.2-1.2.5-.3.3-.5.7-.5 1.2 0 .4.2.9.5 1.2.3.3.7.5 1.2.5s1-.2 1.3-.6v.6c0 2-.8 4-2.3 5.5l-.2.3c0 .3.1.4.3.4l.7-.5a7.9 7.9 0 0 0 2.2-5.7c0-.9 0-1.6-.4-2.2-.3-.8-.9-1.2-1.6-1.2zm68.4 0c-.4 0-.8.2-1.2.5-.3.3-.5.7-.5 1.2 0 .4.2.9.5 1.2.4.3.8.5 1.2.5.5 0 1-.2 1.3-.6v.6c0 2-.8 4-2.2 5.5-.2.1-.2.2-.2.3 0 .3 0 .4.3.4l.6-.5a7.9 7.9 0 0 0 2.3-5.7c0-.9-.1-1.6-.4-2.2-.4-.8-1-1.2-1.7-1.2zM81.1 155.8c-.4 0-.8.2-1.1.5-.3.3-.5.6-.5 1 0 .5.2 1 .5 1.3.3.3.7.4 1.1.4.5 0 .9-.2 1.2-.5h.1v.3a7 7 0 0 1-2 5.2c-.3.2-.4.4-.4.5 0 .2.1.3.3.3l.6-.4a7.4 7.4 0 0 0 2.3-5.4c0-.8-.2-1.5-.5-2-.3-.8-.9-1.2-1.6-1.2zm5.9 0c-1 0-1.6.7-1.6 1.6 0 .5.1.9.4 1.2a1.7 1.7 0 0 0 2.5-.2v.4c0 2-.7 3.8-2 5.2-.3.2-.4.4-.4.5 0 .2 0 .3.3.3l.6-.4A7.3 7.3 0 0 0 89 159a5 5 0 0 0-.4-2c-.4-.8-1-1.2-1.6-1.2zm65.1 0c-.4 0-.8.2-1.1.5-.3.3-.5.6-.5 1 0 .5.2 1 .5 1.3.3.3.7.4 1.1.4.5 0 .9-.2 1.2-.5h.1v.3a7 7 0 0 1-2 5.2c-.3.2-.4.4-.4.5 0 .2.1.3.3.3l.6-.4a7.4 7.4 0 0 0 2.3-5.4c0-.8-.2-1.5-.5-2-.3-.8-.9-1.2-1.6-1.2zm5.9 0c-1 0-1.6.7-1.6 1.6 0 .5.1.9.4 1.2a1.7 1.7 0 0 0 2.5-.2v.4c0 2-.7 3.8-2 5.2-.3.2-.4.4-.4.5 0 .2 0 .3.3.3l.6-.4a7.3 7.3 0 0 0 2.2-5.4 5 5 0 0 0-.4-2c-.4-.8-1-1.2-1.6-1.2zm63.6 0c-.5 0-.9.2-1.2.5-.3.3-.4.6-.4 1 0 .5.1 1 .4 1.3.3.3.7.4 1.2.4.4 0 .8-.2 1.2-.5l.1.3a7 7 0 0 1-2 5.2c-.3.2-.4.4-.4.5 0 .2 0 .3.3.3 0 0 .3-.1.5-.4a7.4 7.4 0 0 0 2.3-5.4c0-.8-.2-1.5-.4-2-.4-.8-1-1.2-1.6-1.2zm5.8 0c-.9 0-1.6.7-1.6 1.6 0 .5.2.9.5 1.2a1.7 1.7 0 0 0 2.4-.2v.4c.1 2-.6 3.8-2 5.2-.3.2-.4.4-.4.5 0 .2.1.3.3.3l.6-.4a7.3 7.3 0 0 0 2.2-5.4c0-.8-.1-1.5-.4-2-.3-.8-.9-1.2-1.6-1.2zm64.2 0c-.5 0-.9.2-1.2.5-.3.3-.4.6-.4 1 0 .5.1 1 .4 1.3.3.3.7.4 1.2.4.4 0 .8-.2 1.2-.5l.1.3a7 7 0 0 1-2 5.2c-.3.2-.4.4-.4.5 0 .2 0 .3.3.3l.6-.4a7.4 7.4 0 0 0 2.2-5.4c0-.8-.1-1.5-.4-2-.4-.8-1-1.2-1.6-1.2zm5.8 0c-.9 0-1.6.7-1.6 1.6 0 .5.2.9.5 1.2a1.7 1.7 0 0 0 2.4-.2v.4c.1 2-.6 3.8-2 5.2-.3.2-.4.4-.4.5 0 .2.1.3.3.3l.6-.4a7.3 7.3 0 0 0 2.2-5.4 5 5 0 0 0-.4-2c-.3-.8-.9-1.2-1.6-1.2zm-265.3 0l-.6.5a7.3 7.3 0 0 0-2.2 5.4c0 .7.1 1.4.4 2 .4.8.9 1.1 1.6 1.1 1 0 1.6-.6 1.6-1.5 0-1-.7-1.7-1.6-1.6-.4 0-.8.1-1.2.4l-.1.1v-.3c-.1-2 .7-3.9 2-5.2l.4-.5c0-.3 0-.4-.3-.4zm5.9 0l-.6.5a7.4 7.4 0 0 0-2.2 5.4c0 .7 0 1.4.3 2 .4.8 1 1.1 1.6 1.1.5 0 .9-.1 1.2-.4a1.6 1.6 0 0 0 0-2.3c-.3-.3-.7-.4-1.2-.4s-1 .2-1.2.5v-.3a7 7 0 0 1 2-5.2l.4-.5c0-.3-.1-.4-.3-.4zm64.8 0l-.6.5a7.3 7.3 0 0 0-2.3 5.4c0 .7.2 1.4.5 2 .3.8.9 1.1 1.6 1.1.9 0 1.6-.6 1.6-1.5 0-.5-.2-.9-.5-1.2-.3-.3-.7-.4-1.1-.4-.5 0-.9.1-1.2.4l-.1.1-.1-.3a7 7 0 0 1 2.1-5.2l.4-.5c0-.3-.1-.4-.3-.4zm5.8 0l-.6.5a7.4 7.4 0 0 0-2.2 5.4c0 .7.1 1.4.4 2 .4.8.9 1.1 1.6 1.1 1 0 1.6-.6 1.6-1.5 0-1-.7-1.7-1.6-1.6-.5 0-1 .2-1.3.5v-.3c0-2 .7-3.9 2-5.2l.4-.5c0-.3 0-.4-.3-.4zm63.2 0l-.6.5a7.3 7.3 0 0 0-2.3 5.4c0 .7.2 1.4.5 2 .3.8.9 1.1 1.6 1.1.9 0 1.6-.6 1.6-1.5 0-.5-.2-.9-.5-1.2-.3-.3-.7-.4-1.1-.4-.5 0-.9.1-1.2.4l-.1.1-.1-.3a7 7 0 0 1 2.1-5.2l.4-.5c0-.3-.1-.4-.3-.4zm5.8 0l-.6.5a7.4 7.4 0 0 0-2.2 5.4c0 .7.1 1.4.4 2 .4.8.9 1.1 1.6 1.1 1 0 1.6-.6 1.6-1.5 0-1-.7-1.7-1.6-1.6-.5 0-1 .2-1.3.5v-.3c0-2 .7-3.9 2-5.2l.4-.5c0-.3 0-.4-.3-.4zm61.6 0l-.6.5a7.3 7.3 0 0 0-2.2 5.4c0 .7.1 1.4.4 2 .4.8.9 1.1 1.6 1.1 1 0 1.6-.6 1.6-1.5 0-.5-.1-.9-.4-1.2-.3-.3-.7-.4-1.2-.4-.4 0-.8.1-1.2.4v.1l-.2-.3a7 7 0 0 1 2.2-5.2l.3-.5c0-.3 0-.4-.3-.4zm5.9 0l-.6.5a7.4 7.4 0 0 0-2.2 5.4c0 .7 0 1.4.4 2 .3.8.8 1.1 1.6 1.1.9 0 1.6-.6 1.6-1.5 0-1-.7-1.7-1.6-1.6-.5 0-1 .2-1.3.5v-.3c-.1-2 .6-3.9 2-5.2l.4-.5c0-.3-.1-.4-.3-.4zM96 173.3c-.5 0-.9.2-1.2.5-.3.4-.5.8-.5 1.2 0 .5.2.9.5 1.2.3.4.7.5 1.2.5s1-.2 1.3-.6v.6c0 2-.8 4-2.3 5.5l-.2.4c0 .2.1.3.3.3l.7-.5a7.9 7.9 0 0 0 2.2-5.7c0-.9 0-1.6-.4-2.2-.3-.8-.9-1.2-1.6-1.2zm68 0c-.5 0-.9.2-1.2.5-.3.4-.5.8-.5 1.2 0 .5.2.9.5 1.2.3.4.7.5 1.2.5s1-.2 1.3-.6v.6c0 2-.8 4-2.3 5.5l-.2.4c0 .2.1.3.3.3l.7-.5a7.9 7.9 0 0 0 2.2-5.7c0-.9 0-1.6-.4-2.2-.3-.8-.9-1.2-1.6-1.2zm68.4 0c-.4 0-.8.2-1.2.5-.3.4-.5.8-.5 1.2 0 .5.2.9.5 1.2.4.4.8.5 1.2.5.5 0 1-.2 1.3-.6v.6c0 2-.8 4-2.2 5.5-.2.1-.2.3-.2.4 0 .2 0 .3.3.3l.6-.5a7.9 7.9 0 0 0 2.3-5.7c0-.9-.1-1.6-.4-2.2-.4-.8-1-1.2-1.7-1.2zM81.1 105.1c-.4 0-.8.2-1.1.5-.3.3-.5.7-.5 1.1 0 .5.2.9.5 1.2.3.3.7.4 1.1.4.5 0 .9-.1 1.2-.4l.1-.1v.3a7 7 0 0 1-2 5.2l-.4.5c0 .2.1.3.3.3.1 0 .3 0 .6-.4a7.4 7.4 0 0 0 2.3-5.4c0-.8-.2-1.5-.5-2-.3-.8-.9-1.2-1.6-1.2zm5.9 0c-1 0-1.6.7-1.6 1.6 0 .5.1.9.4 1.2a1.7 1.7 0 0 0 2.5-.1v.3c0 2-.7 3.9-2 5.2l-.4.5c0 .2 0 .3.3.3 0 0 .3 0 .6-.4a7.3 7.3 0 0 0 2.2-5.4 5 5 0 0 0-.4-2c-.4-.8-1-1.2-1.6-1.2zm65.1 0c-.4 0-.8.2-1.1.5-.3.3-.5.7-.5 1.1 0 .5.2.9.5 1.2.3.3.7.4 1.1.4.5 0 .9-.1 1.2-.4l.1-.1v.3a7 7 0 0 1-2 5.2l-.4.5c0 .2.1.3.3.3.1 0 .3 0 .6-.4a7.4 7.4 0 0 0 2.3-5.4c0-.8-.2-1.5-.5-2-.3-.8-.9-1.2-1.6-1.2zm5.9 0c-1 0-1.6.7-1.6 1.6 0 .5.1.9.4 1.2a1.7 1.7 0 0 0 2.5-.1v.3c0 2-.7 3.9-2 5.2l-.4.5c0 .2 0 .3.3.3 0 0 .3 0 .6-.4a7.3 7.3 0 0 0 2.2-5.4 5 5 0 0 0-.4-2c-.4-.8-1-1.2-1.6-1.2zm63.6 0c-.5 0-.9.2-1.2.5-.3.3-.4.7-.4 1.1 0 .5.1.9.4 1.2.3.3.7.4 1.2.4.4 0 .8-.1 1.2-.4v-.1l.1.3a7 7 0 0 1-2 5.2l-.4.5c0 .2 0 .3.3.3 0 0 .3 0 .5-.4a7.4 7.4 0 0 0 2.3-5.4c0-.8-.2-1.5-.4-2-.4-.8-1-1.2-1.6-1.2zm5.8 0c-.9 0-1.6.7-1.6 1.6 0 .5.2.9.5 1.2a1.7 1.7 0 0 0 2.4-.1v.3c.1 2-.6 3.9-2 5.2l-.4.5c0 .2.1.3.3.3.1 0 .3 0 .6-.4a7.3 7.3 0 0 0 2.2-5.4c0-.8-.1-1.5-.4-2-.3-.8-.9-1.2-1.6-1.2zm64.2 0c-.5 0-.9.2-1.2.5-.3.3-.4.7-.4 1.1 0 .5.1.9.4 1.2.3.3.7.4 1.2.4.4 0 .8-.1 1.2-.4v-.1l.1.3a7 7 0 0 1-2 5.2l-.4.5c0 .2 0 .3.3.3 0 0 .3 0 .6-.4a7.4 7.4 0 0 0 2.2-5.4c0-.8-.1-1.5-.4-2-.4-.8-1-1.2-1.6-1.2zm5.8 0c-.9 0-1.6.7-1.6 1.6 0 .5.2.9.5 1.2a1.7 1.7 0 0 0 2.4-.1v.3c.1 2-.6 3.9-2 5.2l-.4.5c0 .2.1.3.3.3.1 0 .3 0 .6-.4a7.3 7.3 0 0 0 2.2-5.4 5 5 0 0 0-.4-2c-.3-.8-.9-1.2-1.6-1.2zm-265.3 0l-.6.5a7.3 7.3 0 0 0-2.2 5.4c0 .7.1 1.4.4 2 .4.8.9 1.2 1.6 1.2 1 0 1.6-.7 1.6-1.6 0-.9-.7-1.6-1.6-1.6-.4 0-.8.2-1.2.5H30v-.3c-.1-2 .7-3.8 2-5.2.3-.2.4-.4.4-.5 0-.2 0-.3-.3-.3zm5.9 0l-.6.5a7.4 7.4 0 0 0-2.2 5.4c0 .7 0 1.4.3 2 .4.8 1 1.2 1.6 1.2.5 0 .9-.2 1.2-.5.3-.3.5-.6.5-1 0-.6-.2-1-.5-1.3-.3-.3-.7-.4-1.2-.4s-1 .2-1.2.6c0-.1-.1-.3 0-.4a7 7 0 0 1 2-5.2c.3-.2.4-.4.4-.5 0-.2-.1-.3-.3-.3zm64.8 0l-.6.5a7.3 7.3 0 0 0-2.3 5.4c0 .7.2 1.4.5 2 .3.8.9 1.2 1.6 1.2.9 0 1.6-.7 1.6-1.6 0-.5-.2-.9-.5-1.2-.3-.3-.7-.4-1.1-.4-.5 0-.9.2-1.2.5h-.1l-.1-.3a7 7 0 0 1 2.1-5.2c.3-.2.4-.4.4-.5 0-.2-.1-.3-.3-.3zm5.8 0l-.6.5a7.4 7.4 0 0 0-2.2 5.4c0 .7.1 1.4.4 2 .4.8.9 1.2 1.6 1.2 1 0 1.6-.7 1.6-1.6 0-.9-.7-1.6-1.6-1.6-.5 0-1 .2-1.3.6v-.4c0-2 .7-3.8 2-5.2.3-.2.4-.4.4-.5 0-.2 0-.3-.3-.3zm63.2 0l-.6.5a7.3 7.3 0 0 0-2.3 5.4c0 .7.2 1.4.5 2 .3.8.9 1.2 1.6 1.2.9 0 1.6-.7 1.6-1.6 0-.5-.2-.9-.5-1.2-.3-.3-.7-.4-1.1-.4-.5 0-.9.2-1.2.5h-.1l-.1-.3a7 7 0 0 1 2.1-5.2c.3-.2.4-.4.4-.5 0-.2-.1-.3-.3-.3zm5.8 0l-.6.5a7.4 7.4 0 0 0-2.2 5.4c0 .7.1 1.4.4 2 .4.8.9 1.2 1.6 1.2 1 0 1.6-.7 1.6-1.6 0-.9-.7-1.6-1.6-1.6-.5 0-1 .2-1.3.6v-.4c0-2 .7-3.8 2-5.2.3-.2.4-.4.4-.5 0-.2 0-.3-.3-.3zm61.6 0l-.6.5a7.3 7.3 0 0 0-2.2 5.4c0 .7.1 1.4.4 2 .4.8.9 1.2 1.6 1.2 1 0 1.6-.7 1.6-1.6 0-.5-.1-.9-.4-1.2-.3-.3-.7-.4-1.2-.4-.4 0-.8.2-1.2.5-.1 0-.2-.1-.2-.3a7 7 0 0 1 2.2-5.2l.3-.5c0-.2 0-.3-.3-.3zm5.9 0l-.6.5a7.4 7.4 0 0 0-2.2 5.4c0 .7 0 1.4.4 2 .3.8.8 1.2 1.6 1.2.9 0 1.6-.7 1.6-1.6 0-.9-.7-1.6-1.6-1.6-.5 0-1 .2-1.3.6v-.4c-.1-2 .6-3.8 2-5.2.3-.2.4-.4.4-.5 0-.2-.1-.3-.3-.3zM96 122.8c-.5 0-.9.1-1.2.5-.3.3-.5.7-.5 1.1 0 .5.2 1 .5 1.2.3.4.7.6 1.2.6s1-.2 1.3-.6v.5c0 2-.8 4-2.3 5.5l-.2.4c0 .2.1.3.3.3.1 0 .4-.1.7-.5A7.9 7.9 0 0 0 98 126c0-.8 0-1.5-.4-2.1-.3-.8-.9-1.2-1.6-1.2zm68 0c-.5 0-.9.1-1.2.5-.3.3-.5.7-.5 1.1 0 .5.2 1 .5 1.2.3.4.7.6 1.2.6s1-.2 1.3-.6v.5c0 2-.8 4-2.3 5.5l-.2.4c0 .2.1.3.3.3.1 0 .4-.1.7-.5a7.9 7.9 0 0 0 2.2-5.7c0-.8 0-1.5-.4-2.1-.3-.8-.9-1.2-1.6-1.2zm68.4 0c-.4 0-.8.1-1.2.5-.3.3-.5.7-.5 1.1 0 .5.2 1 .5 1.2.4.4.8.6 1.2.6.5 0 1-.2 1.3-.6v.5c0 2-.8 4-2.2 5.5l-.2.4c0 .2 0 .3.3.3 0 0 .3-.1.6-.5a7.9 7.9 0 0 0 2.3-5.7c0-.8-.1-1.5-.4-2.1-.4-.8-1-1.2-1.7-1.2z"/>
  <path fill="none" stroke="#999" stroke-linecap="butt" d="M214.7 198v32h-32v-32z"/>
  <path fill="none" stroke="#ccc" stroke-linecap="butt" stroke-opacity=".8" stroke-width=".7" d="M182.7 226h32m0-12h-32m0-4h32m0 12h-32m0-4h32m0-12h-32m0-4h32m-4 28v-32m-12 0v32m-4 0v-32m12 0v32m-4 0v-32m-12 0v32m-4 0v-32m-4 0v32h32v-32z"/>
  <path fill="#fff" fill-opacity=".9" d="M194.7 198v8h-12v16h11.9v8h8v-8h12v-16h-12v-8z"/>
  <path fill="none" stroke="#000" d="M194.7 198v8h-12v16h11.9v8h8v-8h12v-16h-12v-8z"/>
</svg>
