<?xml version="1.0" encoding="UTF-8" standalone="no"?>
<svg xmlns="http://www.w3.org/2000/svg" fill-rule="evenodd" stroke-linecap="round" stroke-linejoin="round" clip-rule="evenodd" viewBox="0 0 320 340">
  <path fill="none" d="M-9635.8-2367h32861.3v24204.4H-9635.8z"/>
  <path fill="none" d="M0 339.8h320V0H0z"/>
  <path fill="none" stroke="#000" d="M16.5 16h287v266h-287z"/>
  <path fill="#0f0f0f" d="M16.5 282h287V16h-287z"/>
  <path fill="#242424" d="M16.5 282h287v42h-287z"/>
  <path fill="none" stroke="#666" stroke-width="2" d="M288.5 50H32.2"/>
  <path fill="none" stroke="#ccc" stroke-linecap="butt" stroke-opacity=".8" stroke-width=".7" d="M111.2 162h32m0-12h-32m0-4h32m0 12h-32m0-4h32m0-12h-32m0-4h32m-4 28v-32m-12 0v32m-4 0v-32m12 0v32m-4 0v-32m-12 0v32m-4 0v-32m-4 0v32h32v-32z"/>
  <path fill="none" stroke="#999" stroke-linecap="butt" d="M143.2 134v32h-32v-32z"/>
  <path fill="#fff" fill-opacity=".9" d="M143.2 154v-8h-32v8z"/>
  <path fill="none" stroke="#000" stroke-linecap="butt" d="M143.2 154v-8h-32v8z"/>
  <path fill="none" stroke="#ccc" stroke-linecap="butt" stroke-opacity=".8" stroke-width=".7" d="M239.2 162h32m0-12h-32m0-4h32m0 12h-32m0-4h32m0-12h-32m0-4h32m-4 28v-32m-12 0v32m-4 0v-32m12 0v32m-4 0v-32m-12 0v32m-4 0v-32m-4 0v32h32v-32z"/>
  <path fill="none" stroke="#999" stroke-linecap="butt" d="M271.2 134v32h-32v-32z"/>
  <path fill="#fff" fill-opacity=".9" d="M247.2 146v-12h16v12h8v8h-8v12h-16v-12h-8v-8z"/>
  <path fill="none" stroke="#000" stroke-linecap="butt" d="M247.2 146v-12h16v12h8v8h-8v12h-16v-12h-8v-8z"/>
  <path fill="none" stroke="#ccc" stroke-linecap="butt" stroke-opacity=".8" stroke-width=".7" d="M175.2 162h32m0-12h-32m0-4h32m0 12h-32m0-4h32m0-12h-32m0-4h32m-4 28v-32m-12 0v32m-4 0v-32m12 0v32m-4 0v-32m-12 0v32m-4 0v-32m-4 0v32h32v-32z"/>
  <path fill="none" stroke="#999" stroke-linecap="butt" d="M207.2 134v32h-32v-32z"/>
  <path fill="#fff" fill-opacity=".9" d="M183.2 166h16v-32h-16z"/>
  <path fill="none" stroke="#000" stroke-linecap="butt" stroke-width=".9" d="M183.2 166h16v-32h-16z"/>
  <path fill="none" stroke="#ccc" stroke-linecap="butt" stroke-opacity=".8" stroke-width=".7" d="M111.2 239.7h32m0-12h-32m0-4h32m0 12h-32m0-4h32m0-12h-32m0-4h32m-4 28v-32m-12 0v32m-4 0v-32m12 0v32m-4 0v-32m-12 0v32m-4 0v-32m-4 0v32h32v-32z"/>
  <path fill="none" stroke="#999" stroke-linecap="butt" d="M143.2 211.7v32h-32v-32z"/>
  <path fill="#fff" fill-opacity=".9" d="M143.2 235.4v-15.5h-32v15.5z"/>
  <path fill="none" stroke="#000" stroke-linecap="butt" stroke-width=".9" d="M143.2 235.7v-16h-32v16z"/>
  <path fill="none" stroke="#ccc" stroke-linecap="butt" stroke-opacity=".8" stroke-width=".7" d="M267.2 243.7v-32m-12 0v32m-4 0v-32m12 0v32m-4 0v-32m-12 0v32m-4 0v-32m28 4h-32m0 12h32m0 4h-32m0-12h32m0 4h-32m0 12h32m0 4h-32m0 4h32v-32h-32z"/>
  <path fill="none" stroke="#999" stroke-linecap="butt" d="M239.2 211.7h32v32h-32z"/>
  <path fill="#fff" fill-opacity=".9" d="M251.2 235.7h-12v-16h12v-8h8v8h12v16h-12v8h-8z"/>
  <path fill="none" stroke="#000" stroke-linecap="butt" d="M251.2 235.7h-12v-16h12v-8h8v8h12v16h-12v8h-8z"/>
  <path fill="none" stroke="#ccc" stroke-linecap="butt" stroke-opacity=".8" stroke-width=".7" d="M175.2 239.7h32m0-12h-32m0-4h32m0 12h-32m0-4h32m0-12h-32m0-4h32m-4 28v-32m-12 0v32m-4 0v-32m12 0v32m-4 0v-32m-12 0v32m-4 0v-32m-4 0v32h32v-32z"/>
  <path fill="none" stroke="#999" stroke-linecap="butt" d="M207.2 211.7v32h-32v-32z"/>
  <path fill="#fff" fill-opacity=".9" d="M187.2 243.7h8v-32h-8z"/>
  <path fill="none" stroke="#000" stroke-linecap="butt" d="M187.2 243.7h8v-32h-8z"/>
  <path fill="#ececec" fill-rule="nonzero" d="M40.3 40h1.8v-4.5h2.5L47 40h2l-2.6-4.7c1.4-.5 2.1-1.7 2.1-3.2 0-2.2-1.3-3.7-4-3.7h-4.2zm1.8-6v-4.2h2.2c1.7 0 2.5.8 2.5 2.2 0 1.3-.8 2-2.5 2zm12 6.1c2.5 0 4-1.8 4-4.5s-1.5-4.5-4-4.5-4 1.8-4 4.5 1.5 4.5 4 4.5zm0-1.4c-1.6 0-2.4-1.4-2.4-3 0-1.8.8-3.2 2.4-3.2 1.6 0 2.4 1.4 2.4 3.1 0 1.7-.8 3-2.4 3zm7.6 1.2h1.7l1.8-6.3h.1l1.8 6.3h1.7l2.6-8.7h-1.8L68 37.6 66 31.2h-1.7l-1.7 6.4h-.1l-1.7-6.4H59zm19.9 0H83l.5-3H85l.3-1.4h-1.7l.4-2.7h1.7l.2-1.4h-1.7l.6-3.1h-1.4l-.5 3.1h-2.7l.5-3.1h-1.4l-.5 3.1h-1.7l-.2 1.4h1.7l-.5 2.7h-1.7l-.2 1.3H78l-.5 3.1h1.4l.5-3H82l-.5 3zm-2-4.4l.4-2.7h2.8l-.5 2.7h-2.7zm31.7 4.4h7v-1.5h-5.2V28.3h-1.8v11.6zm12.7.2c1.9 0 3.2-1 3.6-2.3l-1.6-.3c-.3.8-1 1.2-2 1.2-1.5 0-2.4-1-2.5-2.6h6.2v-.6c0-3.2-1.9-4.4-3.8-4.4-2.5 0-4 1.9-4 4.5 0 2.7 1.5 4.5 4 4.5zm-2.5-5.3c0-1.2 1-2.3 2.4-2.3 1.3 0 2.1 1 2.1 2.3zm12.3-3.6h-2v-.8c0-.7.4-1.2 1.2-1.2l.8.2.4-1.4a4.1 4.1 0 0 0-1.4-.2c-1.4 0-2.6.8-2.6 2.4v1h-1.4v1.4h1.4v7.3h1.7v-7.3h1.9zm5.8 0h-1.8v-2H136v2h-1.3v1.4h1.3v5.1c0 1.6 1.2 2.4 2.5 2.4a3 3 0 0 0 1.1-.2l-.3-1.4h-.6c-.5 0-1-.1-1-1.1v-4.8h1.8zm29.3 8.7h1.8v-4.4h2.5l2.3 4.4h2l-2.6-4.7c1.5-.5 2.2-1.7 2.2-3.2 0-2.2-1.4-3.7-4-3.7h-4.2v11.6zm1.8-5.9v-4.2h2.2c1.7 0 2.4.8 2.4 2.2 0 1.3-.7 2-2.4 2zm8.4 6h1.7v-8.8H179V40zm.8-10.1c.6 0 1.1-.5 1.1-1 0-.6-.5-1-1-1-.7 0-1.1.4-1.1 1 0 .5.4 1 1 1zm6.8 13.5c2.2 0 4-1 4-3.3v-8.9H189v1.4h-.1c-.3-.5-1-1.5-2.6-1.5-2 0-3.6 1.7-3.6 4.4 0 2.8 1.6 4.3 3.6 4.3 1.6 0 2.3-.9 2.6-1.4V40c0 1.3-.9 2-2.2 2-1.4 0-2-.8-2.2-1.3l-1.5.6c.5 1 1.6 2 3.7 2zm0-5c-1.5 0-2.3-1.2-2.3-2.9s.8-3 2.3-3c1.5 0 2.3 1.2 2.3 3s-.8 2.9-2.3 2.9zm8-3.6c0-1.4.8-2.2 2-2.2s1.9.7 1.9 2v5.3h1.7v-5.5c0-2.2-1.2-3.3-3-3.3-1.4 0-2.2.6-2.6 1.5v-4.3h-1.8v11.6h1.7v-5.1zm12-3.6h-1.8v-2h-1.7v2h-1.3v1.4h1.3v5.1c0 1.6 1.2 2.4 2.5 2.4a3 3 0 0 0 1-.2l-.2-1.4h-.6c-.6 0-1-.1-1-1.1v-4.8h1.7v-1.4zm20.6 8.7h1.7v-4.4h2.5L234 40h2l-2.6-4.7c1.5-.5 2.2-1.7 2.2-3.2 0-2.2-1.4-3.7-4-3.7h-4.2v11.6zM229 34v-4.2h2.2c1.8 0 2.5.8 2.5 2.2 0 1.3-.7 2-2.4 2zm12.1 6.1c2 0 3.3-1 3.7-2.3l-1.7-.3c-.3.8-1 1.2-2 1.2-1.4 0-2.4-1-2.4-2.6h6.2v-.6c0-3.2-2-4.4-3.9-4.4-2.4 0-4 1.9-4 4.5 0 2.7 1.5 4.5 4.1 4.5zm-2.4-5.3c0-1.2 1-2.3 2.3-2.3 1.3 0 2.2 1 2.2 2.3zm14.6-1.5c-.4-1.3-1.4-2.2-3.3-2.2-2 0-3.4 1-3.4 2.6 0 1.2.8 2 2.4 2.4l1.5.3c.8.2 1.2.6 1.2 1.1 0 .7-.7 1.3-1.8 1.3-1 0-1.7-.5-1.9-1.3l-1.6.2c.3 1.6 1.5 2.4 3.5 2.4s3.6-1.1 3.6-2.7c0-1.2-.8-2-2.4-2.3l-1.4-.4c-1-.2-1.4-.5-1.4-1.1 0-.7.7-1.1 1.7-1.1s1.6.5 1.8 1.1zm7.6 3a2 2 0 0 1-2.1 2.2c-1 0-1.8-.7-1.8-2v-5.3h-1.7v5.6c0 2.1 1.2 3.3 2.9 3.3 1.3 0 2.2-.7 2.6-1.7V40h1.8v-8.7h-1.7v5.1zm5.6-8h-1.7v11.6h1.7zm6.4 2.9H271v-2h-1.7v2H268v1.4h1.3v5.1c0 1.6 1.2 2.4 2.6 2.4a3 3 0 0 0 1-.2l-.2-1.4h-.6c-.6 0-1.1-.1-1.1-1.1v-4.8h1.8v-1.4z"/>
  <path fill="#f2f2f2" fill-rule="nonzero" d="M27.3 297.5h3.6V308h1.4v-10.4H36v-1.2h-8.7zm12 5.2c0-1.5 1-2.4 2.3-2.4 1.3 0 2 .8 2 2.2v5.4H45v-5.5c0-2.3-1.2-3.3-3-3.3-1.4 0-2.2.6-2.6 1.5v-4.3H38v11.6h1.3zm8.1 5.2h1.4v-5.5c0-1.2 1-2 2.2-2h.8v-1.3a15.1 15.1 0 0 0-.7 0c-1 0-2 .6-2.3 1.4v-1.3h-1.4zm9.4.2c1.8 0 3-.9 3.5-2.2l-1.3-.4c-.4 1-1.2 1.4-2.2 1.4-1.6 0-2.7-1-2.7-2.9h6.3v-.6c0-3.2-2-4.3-3.8-4.3-2.3 0-3.9 1.8-3.9 4.5s1.6 4.5 4 4.5zM54 303c0-1.4 1-2.6 2.5-2.6s2.4 1 2.4 2.6zm12 5.2c1.8 0 3-.9 3.5-2.2l-1.3-.4c-.4 1-1.2 1.4-2.2 1.4-1.6 0-2.7-1-2.7-2.9h6.3v-.6c0-3.2-2-4.3-3.7-4.3-2.4 0-4 1.8-4 4.5s1.6 4.5 4.1 4.5zm-2.7-5.2c0-1.4 1-2.6 2.6-2.6 1.4 0 2.3 1 2.3 2.6zm12.9 5h1.3v-5.5c0-1.2 1-2 2.2-2h.8v-1.3a15.1 15.1 0 0 0-.7 0c-1 0-2 .6-2.3 1.4v-1.3h-1.3zm9.2.2c2.3 0 4-1.8 4-4.5s-1.7-4.5-4-4.5c-2.4 0-4 1.8-4 4.5s1.6 4.5 4 4.5zm0-1.2c-1.8 0-2.6-1.5-2.6-3.3 0-1.7.8-3.3 2.6-3.3s2.6 1.6 2.6 3.3c0 1.8-.8 3.3-2.6 3.3zm7.7 1h1.3l2-6.7 2 6.7h1.3l2.6-8.7H101l-1.9 6.7-1.9-6.7h-1.4l-1.9 6.7-2-6.7h-1.4l2.7 8.7zm17.2-6.7c-.5-1.3-1.4-2.1-3.1-2.1-1.9 0-3.2 1-3.2 2.5 0 1.2.7 2 2.3 2.4l1.4.3c1 .2 1.4.7 1.4 1.3 0 .7-.9 1.3-2.1 1.3-1 0-1.8-.4-2-1.4l-1.3.3c.3 1.5 1.5 2.3 3.3 2.3 2 0 3.4-1.1 3.4-2.6 0-1.2-.7-2-2.3-2.4l-1.3-.3c-1-.2-1.5-.6-1.5-1.3 0-.7.8-1.3 1.9-1.3 1.2 0 1.6.7 1.9 1.3l1.2-.3zm10.5-2h-2v-.9c0-.9.4-1.3 1.3-1.3l.8.1.4-1.1c-.2-.1-.6-.3-1.3-.3-1.3 0-2.4.8-2.4 2.3v1.2h-1.5v1.1h1.5v7.6h1.3v-7.6h2zm2 8.7h1.3v-5.5c0-1.2.9-2 2.2-2h.8v-1.3h-.7c-1 0-2 .6-2.3 1.4v-1.3h-1.4v8.7zm9.2.2c2.3 0 4-1.8 4-4.5s-1.7-4.5-4-4.5c-2.4 0-4 1.8-4 4.5s1.6 4.5 4 4.5zm0-1.2c-1.8 0-2.7-1.5-2.7-3.3 0-1.7.9-3.3 2.7-3.3 1.8 0 2.6 1.6 2.6 3.3 0 1.8-.9 3.3-2.6 3.3zm6 1h1.3v-5.4c0-1.3 1-2.2 2-2.2s1.7.7 1.7 1.6v6h1.4v-5.7c0-1 .7-2 1.9-2 1 0 1.8.6 1.8 1.9v5.8h1.3v-5.8c0-2-1-3-2.7-3-1.2 0-2.1.6-2.6 1.5a2.4 2.4 0 0 0-2.4-1.5c-1.1 0-2 .5-2.3 1.5h-.2v-1.4h-1.2zm25-2l.2.8c.1.1.3.3.6.3l-.4 1.1c-.9 0-1.4-.5-1.7-1.2-.3.4-.7.7-1.2 1a3.8 3.8 0 0 1-3-.1 2.3 2.3 0 0 1-1-1c-.2-.3-.3-.8-.3-1.4 0-.9.3-1.6 1-2 .7-.5 1.7-.8 3-.8h1.3v-.6c0-.6-.2-1-.5-1.3a2.4 2.4 0 0 0-1.5-.4 7.7 7.7 0 0 0-2.3.5l-.4-1.2c1-.3 2-.5 3-.5s1.9.2 2.4.7c.6.5.9 1.2.9 2.1v4zm-3.6 1a2.6 2.6 0 0 0 2.1-1.1v-2.1h-1.1c-1 0-1.6.1-2 .4-.3.3-.6.7-.6 1.3 0 .5.2.9.4 1.2.3.2.7.3 1.2.3zm10.7-1.2c0 .4.1.7.4.9l1 .2c.4 0 1 0 1.4-.3l.4 1.2a4.8 4.8 0 0 1-2.1.4 3 3 0 0 1-1.4-.3c-.4-.2-.7-.5-1-.9a2.8 2.8 0 0 1-.3-1.3V297H166v-1.2h4.2zm9.9 0c0 .4 0 .7.3.9l1 .2c.5 0 1 0 1.4-.3l.5 1.2a5 5 0 0 1-2.2.4 3 3 0 0 1-1.4-.3c-.4-.2-.7-.5-.9-.9a2.7 2.7 0 0 1-.3-1.3V297h-2.7v-1.2h4.3zm13-1.6h-6.7v-1.3h6.6v1.3zm6.1 2.8c.6 0 1.1-.1 1.5-.4.4-.2.6-.5.6-.9l-.2-.7-.6-.4a7 7 0 0 0-1.3-.5 9.7 9.7 0 0 1-1.6-.5c-.4-.2-.8-.5-1-.8a2 2 0 0 1-.3-1.2c0-.5.1-1 .4-1.3.2-.4.6-.6 1.1-.8.6-.2 1.1-.3 1.8-.3 1.3 0 2.3.3 3.2 1l-.7 1a4.4 4.4 0 0 0-2.4-.8c-.6 0-1.1.1-1.4.3a.9.9 0 0 0-.4.8c0 .2 0 .4.2.6.1.1.3.3.7.4l1.3.4 1.6.6 1 .8.2 1.3a2.2 2.2 0 0 1-.5 1.5c-.3.4-.8.7-1.3.9a6 6 0 0 1-1.9.2c-.7 0-1.4 0-2-.3a4.9 4.9 0 0 1-1.4-.9l.8-1a4.2 4.2 0 0 0 2.6 1zm13.9.6a4.8 4.8 0 0 1-2.4.6c-.7 0-1.2 0-1.7-.3a2.4 2.4 0 0 1-1-1c-.2-.4-.3-.8-.3-1.4v-5h-2v-1.1h2v-2l1.6-.2v2.2h3l-.3 1.2h-2.8v4.9c0 .5.2.8.4 1 .3.3.7.4 1.2.4.6 0 1.2-.1 1.7-.4l.6 1zm9.2-1.6l.1.8c.1.1.3.3.5.3l-.3 1.1c-.9 0-1.4-.5-1.7-1.2a3 3 0 0 1-1.2 1 3.9 3.9 0 0 1-3-.1 2.3 2.3 0 0 1-1-1c-.2-.3-.4-.8-.4-1.4 0-.9.4-1.6 1.1-2a5.4 5.4 0 0 1 3-.8h1.3v-.6c0-.6-.2-1-.5-1.3a2.4 2.4 0 0 0-1.5-.4 7.7 7.7 0 0 0-2.3.5l-.4-1.2c1-.3 2-.5 3-.5s1.8.2 2.4.7c.6.5.9 1.2.9 2.1zm-3.7 1c.4 0 .8 0 1.2-.3l.9-.8v-2.1h-1.2c-.8 0-1.5.1-1.9.4-.4.3-.6.7-.6 1.3 0 .5.2.9.4 1.2.3.2.7.3 1.2.3zm11.2 0c.7 0 1.4-.4 2.1-.9l.8 1a4.8 4.8 0 0 1-5.2.6 3.6 3.6 0 0 1-1.4-1.6 5.4 5.4 0 0 1-.5-2.4c0-.8.2-1.6.5-2.3.3-.7.8-1.2 1.4-1.6a4.6 4.6 0 0 1 5.2.4l-.8 1a3.8 3.8 0 0 0-2.1-.7 2.2 2.2 0 0 0-2.2 1.4c-.2.5-.3 1.1-.3 1.8 0 1.1.2 2 .7 2.4.4.5 1 .8 1.8.8zm5.8-11.1l1.6-.2v12.3h-1.5zm5.5 3.5h1.9l-3.7 3.9 4.1 4.7h-2l-4-4.7 3.6-4zm7.3 7.6c.7 0 1.2-.1 1.5-.4.4-.2.6-.5.6-.9 0-.3 0-.5-.2-.7l-.6-.4-1.3-.5a9.7 9.7 0 0 1-1.6-.5l-1-.8a2 2 0 0 1-.3-1.2c0-.5.1-1 .4-1.3.3-.4.7-.6 1.2-.8.5-.2 1-.3 1.7-.3a5.2 5.2 0 0 1 3.3 1l-.7 1a4.4 4.4 0 0 0-2.5-.8c-.6 0-1 .1-1.4.3a.9.9 0 0 0-.4.8c0 .2 0 .4.2.6l.7.4 1.4.4 1.5.6 1 .8c.2.3.3.8.3 1.3a2.2 2.2 0 0 1-.5 1.5c-.4.4-.8.7-1.4.9a6 6 0 0 1-1.9.2c-.7 0-1.3 0-2-.3a4.7 4.7 0 0 1-1.4-.9l.9-1a4.2 4.2 0 0 0 2.6 1zm8.7-.3a1.5 1.5 0 0 1 .7-1.3 1.6 1.6 0 0 1 1.6 0c.2.2.4.3.5.6.2.2.2.4.2.7a1.5 1.5 0 0 1-.7 1.3c-.3.2-.5.2-.8.2-.3 0-.5 0-.8-.2a1.5 1.5 0 0 1-.7-1.3zm12 .2a3.8 3.8 0 0 0 2.2-.8l.8 1a4.8 4.8 0 0 1-5.2.6 3.6 3.6 0 0 1-1.4-1.6 5.3 5.3 0 0 1-.5-2.4c0-.8.2-1.6.5-2.3.3-.7.8-1.2 1.4-1.6a4 4 0 0 1 2.2-.6c1.2 0 2.1.3 3 1l-.8 1a3.9 3.9 0 0 0-2.2-.7 2.3 2.3 0 0 0-2.1 1.4c-.2.5-.3 1.1-.3 1.8 0 1.1.2 2 .6 2.4.5.5 1 .8 1.8.8zm8.9 0c.6 0 1.1 0 1.5-.3.3-.2.5-.5.5-.9l-.1-.7-.6-.4a7 7 0 0 0-1.4-.5 9.7 9.7 0 0 1-1.5-.5c-.5-.2-.8-.5-1-.8a2 2 0 0 1-.4-1.2c0-.5.2-1 .4-1.3a2.6 2.6 0 0 1 1.2-.8c.5-.2 1.1-.3 1.8-.3 1.2 0 2.3.3 3.2 1l-.7 1a4.4 4.4 0 0 0-2.5-.8c-.6 0-1 .1-1.3.3a.9.9 0 0 0-.5.8l.3.6.6.4 1.4.4 1.5.6 1 .8c.2.3.3.8.3 1.3a2.2 2.2 0 0 1-.5 1.5c-.3.4-.8.7-1.4.9a6 6 0 0 1-1.8.2c-.8 0-1.4 0-2-.3a4.8 4.8 0 0 1-1.5-.9l.9-1a4.2 4.2 0 0 0 2.6 1zm12.6-7.5h1.6l-3.1 8.6h-1.9l-3-8.6h1.6l2.4 7.3z"/>
  <path fill="#bfbfbf" fill-rule="nonzero" d="M53.2 63c0 .5-.2 1-.6 1.3-.3.3-.7.5-1.2.5s-1-.2-1.3-.5c-.3-.3-.5-.8-.5-1.3s.2-.9.5-1.2c.4-.3.8-.5 1.3-.5s.9.2 1.2.5c.4.4.6.8.6 1.2zm0 7.9c0 .4-.2.8-.6 1.2-.3.3-.7.5-1.2.5s-1-.2-1.3-.5c-.3-.3-.5-.8-.5-1.2 0-1 .8-1.8 1.8-1.8.5 0 .9.2 1.2.5.4.4.6.8.6 1.3zm0 7.8c0 .4-.2.9-.6 1.2-.3.4-.7.5-1.2.5s-1-.1-1.3-.5c-.3-.3-.5-.8-.5-1.2 0-.5.2-1 .5-1.3.4-.3.8-.5 1.3-.5s.9.2 1.2.5c.4.4.6.8.6 1.3zm0 25l-.7 4.2h-9.1v-.2c0-.2 0-.5.3-.7l4.7-5.2c1.7-1.9 2.5-3.7 2.5-5.4 0-1-.3-2-.8-2.7a2.9 2.9 0 0 0-2.5-1.3c-.7 0-1.4.3-2 .7-.6.5-1 1.1-1.3 1.8h.2c1 0 1.5.4 1.5 1.3 0 .3-.2.6-.4.9-.3.2-.6.4-1 .4-.8 0-1.2-.5-1.2-1.4 0-1.2.4-2.3 1.3-3.1.9-.9 2-1.3 3.3-1.3 1.3 0 2.6.4 3.6 1.2 1.7 1.6 2 4.3.6 6.2-.3.5-1 1.2-2 2.1l-5 4.9h5c1 0 1.6-.1 1.8-.2l.5-2.2zm12 0l-.7 4.2h-9.1v-.2c0-.2 0-.5.3-.7l4.7-5.2c1.7-1.9 2.5-3.7 2.5-5.4 0-1-.3-2-.8-2.7a2.9 2.9 0 0 0-2.5-1.3c-.7 0-1.4.3-2 .7-.6.5-1 1.1-1.3 1.8h.2c1 0 1.5.4 1.5 1.3 0 .3-.2.6-.4.9-.3.2-.6.4-1 .4-.8 0-1.2-.5-1.2-1.4 0-1.2.4-2.3 1.3-3.1.9-.9 2-1.3 3.3-1.3 1.3 0 2.6.4 3.6 1.2 1.7 1.6 2 4.3.6 6.2-.3.5-1 1.2-2 2.1l-5 4.9h5c1 0 1.6-.1 1.8-.2l.5-2.2zm5.3 3c0 .3 0 .6-.3.9-.3.2-.6.4-1 .3-.3 0-.6 0-.8-.3-.3-.3-.4-.6-.4-1a1.3 1.3 0 0 1 1.3-1.2c.3 0 .6.1.9.4.2.2.3.5.3.9zm-17.4 51l-.6 4.2h-9.1v-.2c0-.2 0-.5.3-.7l4.7-5.2c1.7-1.9 2.5-3.7 2.5-5.4 0-1-.3-2-.8-2.7a2.9 2.9 0 0 0-2.5-1.3c-.7 0-1.4.3-2 .7-.6.5-1 1.1-1.3 1.8h.2c1 0 1.5.4 1.5 1.3 0 .3-.2.6-.4.9-.3.2-.6.4-1 .4-.8 0-1.2-.5-1.2-1.4 0-1.2.4-2.3 1.3-3.1.9-.9 2-1.3 3.3-1.3 1.3 0 2.6.4 3.6 1.2 1.7 1.6 2 4.3.6 6.2-.3.5-1 1.2-2 2.1l-5 4.9h5c1 0 1.6-.1 1.8-.2l.5-2.2zm12.2 0c0 1.4-.5 2.5-1.6 3.5a5.9 5.9 0 0 1-6.9.3c-1-.7-1.6-1.7-1.6-2.8 0-.5.1-.8.4-1 .2-.3.5-.5 1-.5.7 0 1.3.6 1.3 1.4 0 .4-.1.7-.4 1-.2.2-.6.4-1 .4h-.2c.4.5.9 1 1.6 1.3a5 5 0 0 0 2.2.5c1 0 1.7-.4 2.1-1.4.4-.7.6-1.6.6-2.6 0-1.2-.2-2-.6-2.8a2.4 2.4 0 0 0-2.3-1.3h-1.3c-.2 0-.4-.1-.4-.3l.6-.3h.8c.9 0 1.7-.5 2.1-1.3.5-.7.7-1.7.7-2.8a3 3 0 0 0-.5-2 2 2 0 0 0-1.8-.7c-1.5 0-2.6.5-3.3 1.5 1 0 1.5.4 1.5 1.2 0 .4 0 .7-.3 1-.2.1-.5.3-1 .3-.6 0-1.2-.6-1.2-1.3 0-1 .5-1.9 1.5-2.5.8-.6 1.9-.8 2.9-.8s2 .3 3 .8c1 .7 1.5 1.5 1.5 2.5a4 4 0 0 1-1 2.7c-.7.8-1.5 1.3-2.5 1.6 1.2.3 2.1.8 2.9 1.5a4 4 0 0 1 1.2 3zm5.2 3c0 .3 0 .6-.3.9-.3.2-.6.3-1 .3-.3 0-.6 0-.8-.3-.3-.3-.4-.6-.4-1a1.3 1.3 0 0 1 1.3-1.2c.3 0 .6.1.9.4.2.2.3.5.3.9zM53.2 183c0 .5-.2 1-.6 1.3-.3.3-.7.5-1.2.5s-1-.2-1.3-.5c-.3-.3-.5-.8-.5-1.3s.2-.9.5-1.2c.4-.3.8-.5 1.3-.5s.9.2 1.2.5c.4.4.6.8.6 1.2zm0 7.9c0 .4-.2.8-.6 1.2-.3.3-.7.5-1.2.5s-1-.2-1.3-.5c-.3-.3-.5-.8-.5-1.2 0-1 .8-1.8 1.8-1.8.5 0 .9.2 1.2.5.4.4.6.8.6 1.3zm0 7.8c0 .4-.2.9-.6 1.2-.3.4-.7.5-1.2.5s-1-.1-1.3-.5c-.3-.3-.5-.8-.5-1.2 0-.5.2-1 .5-1.3.4-.3.8-.5 1.3-.5s.9.2 1.2.5c.4.4.6.8.6 1.3zm0 54.3c0 .5-.2 1-.6 1.3-.3.3-.7.5-1.2.5s-1-.2-1.3-.5c-.3-.3-.5-.8-.5-1.3s.2-.9.5-1.2c.4-.3.8-.5 1.3-.5s.9.2 1.2.5c.4.4.6.8.6 1.2zm0 7.9c0 .4-.2.8-.6 1.2-.3.3-.7.5-1.2.5s-1-.2-1.3-.5c-.3-.3-.5-.8-.5-1.2 0-1 .8-1.8 1.8-1.8.5 0 .9.2 1.2.5.4.4.6.8.6 1.3zm0 7.8c0 .4-.2.9-.6 1.2-.3.4-.7.5-1.2.5s-1-.1-1.3-.5c-.3-.3-.5-.8-.5-1.2 0-.5.2-1 .5-1.3.4-.3.8-.5 1.3-.5s.9.2 1.2.5c.4.4.6.8.6 1.3zm-13-28.8H32.5v-.7h.9c1.2 0 1.9-.1 2-.5l.1-.6v-12.7c-.8.4-1.9.6-3.2.6v-.8c2 0 3.5-.5 4.5-1.5h.1l.4.1v14.3l.1.6c.2.3.6.4 1.4.5h1.6zm13-4.9c0 1.5-.6 2.8-1.6 3.9a5 5 0 0 1-3.8 1.6c-1.2 0-2.3-.5-3.1-1.4-.9-.8-1.3-2-1.3-3.1 0-.9.4-1.3 1.2-1.3.3 0 .6.1.8.3.3.3.4.5.4.9 0 .3-.1.6-.4.9-.2.2-.5.3-.8.3h-.4c.2.7.7 1.4 1.3 2 .7.4 1.4.7 2.3.7 1 0 2-.5 2.6-1.6.4-.7.6-1.8.6-3.3 0-1-.1-2.1-.5-3.1s-1.1-1.6-2-1.6c-.7 0-1.4.2-2 .5l-1 1-.5.5c-.3 0-.4-.2-.4-.5V224c0-.3.1-.4.3-.4h.3c1.3.5 2.4.8 3.2.8a8.4 8.4 0 0 0 3.5-.8c.2 0 .3 0 .3.2l-.4.7c-1.1 1.2-2.7 2-4.3 1.9l-2.1-.3v4.7c.8-.8 2-1.2 3-1.2 1.5 0 2.6.5 3.5 1.7.8 1 1.2 2.3 1.2 3.6zm12.2-2.9c0 2.4-.3 4.3-1 5.5-.8 2-2.3 2.9-4.2 2.9-1.7 0-3.2-1-4-2.5-.7-1.3-1-3.2-1-5.9 0-2.4.2-4.3.8-5.5 1-2 2.3-3 4.3-3 1.8 0 3.2 1 4.1 2.8.7 1.3 1 3.2 1 5.7zm-2 1.2v-3c0-1.7-.2-3-.5-3.9-.4-1.5-1.3-2.2-2.7-2.2-1.3 0-2.2.8-2.6 2.2-.3 1-.5 2.2-.5 3.9v2.8c0 1.5.1 2.9.4 4.3.5 1.7 1.4 2.5 2.7 2.5 1.4 0 2.3-.8 2.8-2.4.2-1 .4-2.4.4-4.2zm7.1 5.4c0 .3 0 .6-.3.9-.3.2-.6.3-1 .3-.3 0-.6 0-.8-.3-.3-.3-.4-.6-.4-1a1.3 1.3 0 0 1 1.3-1.2c.3 0 .6.1.9.4.2.2.3.5.3.9z"/>
  <path fill="#bfbfbf" d="M148.4 87.2c-.5 0-.8.1-1.1.4-.3.3-.5.7-.5 1.2 0 .4.2.8.5 1.1.3.3.6.5 1 .5.6 0 1-.2 1.3-.5l.1-.1v.4a7 7 0 0 1-2 5.2c-.3.2-.4.4-.4.5 0 .2 0 .3.3.3l.6-.5a7.4 7.4 0 0 0 2.2-5.4c0-.7-.1-1.4-.4-2-.4-.7-.9-1.1-1.6-1.1zm5.9 0c-1 0-1.7.7-1.7 1.6 0 .4.2.8.5 1.1a1.7 1.7 0 0 0 2.4-.1l.1.4c0 2-.7 3.8-2.1 5.2l-.4.5c0 .2.1.3.3.3l.6-.5a7.3 7.3 0 0 0 2.3-5.4c0-.7-.2-1.4-.4-2-.4-.7-1-1.1-1.6-1.1zm58 0c-.4 0-.7.1-1 .4-.3.3-.5.7-.5 1.2 0 .4.2.8.5 1.1.3.3.6.5 1 .5.6 0 1-.2 1.3-.5l.1-.1v.4a7 7 0 0 1-2 5.2c-.3.2-.4.4-.4.5 0 .2 0 .3.3.3l.6-.5a7.4 7.4 0 0 0 2.2-5.4c0-.7-.1-1.4-.4-2-.4-.7-.9-1.1-1.6-1.1zm6 0c-1 0-1.7.7-1.7 1.6 0 .4.2.8.5 1.1a1.7 1.7 0 0 0 2.4-.1l.1.4c0 2-.7 3.8-2.1 5.2l-.4.5c0 .2.1.3.3.3l.6-.5a7.3 7.3 0 0 0 2.3-5.4c0-.7-.2-1.4-.4-2-.4-.7-1-1.1-1.6-1.1zm60.5 0c-.4 0-.8.1-1.1.4-.3.3-.4.7-.4 1.2 0 .4.1.8.4 1.1.3.3.7.5 1.1.5.5 0 .9-.2 1.2-.5l.1-.1.1.4a7 7 0 0 1-2.1 5.2c-.3.2-.4.4-.4.5 0 .2.1.3.3.3l.6-.5a7.4 7.4 0 0 0 2.3-5.4c0-.7-.2-1.4-.5-2-.3-.7-.9-1.1-1.6-1.1zm5.9 0c-.9 0-1.6.7-1.6 1.6 0 .4.1.8.4 1.1a1.7 1.7 0 0 0 2.5-.1v.4c0 2-.7 3.8-2 5.2-.3.2-.4.4-.4.5 0 .2 0 .3.3.3l.6-.5a7.3 7.3 0 0 0 2.2-5.4c0-.7-.1-1.4-.4-2-.4-.7-1-1.1-1.6-1.1zm-185.3 0l-.6.4a7.3 7.3 0 0 0-2.2 5.4c0 .8 0 1.5.4 2.1.3.8.9 1.1 1.6 1.1.9 0 1.6-.7 1.6-1.6 0-.9-.7-1.6-1.6-1.6-.5 0-.9.2-1.2.5l-.1.1v-.4c-.1-2 .6-3.8 2-5.2.3-.2.4-.4.4-.5 0-.2-.1-.3-.3-.3zm5.8 0l-.6.4a7.4 7.4 0 0 0-2.2 5.4c0 .8.1 1.5.4 2.1.4.8 1 1.1 1.6 1.1.5 0 .9-.1 1.2-.4.3-.3.4-.7.4-1.2 0-.4-.1-.8-.4-1.1a1.7 1.7 0 0 0-2.4.1l-.1-.4a7 7 0 0 1 2-5.2c.3-.2.4-.4.4-.5 0-.2 0-.3-.3-.3zm59.9 0l-.6.4a7.3 7.3 0 0 0-2.3 5.4c0 .8.2 1.5.5 2.1.3.8.8 1.1 1.6 1.1s1.6-.7 1.5-1.6c0-.4-.1-.8-.4-1.1-.3-.3-.7-.5-1.1-.5-.5 0-.9.2-1.2.5l-.2.1v-.4A7 7 0 0 1 165 88l.4-.5c0-.2-.1-.3-.3-.3zm5.8 0l-.6.4a7.4 7.4 0 0 0-2.2 5.4c0 .8.1 1.5.4 2.1.3.8.9 1.1 1.6 1.1.9 0 1.6-.7 1.6-1.6 0-.9-.7-1.6-1.6-1.6-.5 0-1 .2-1.3.6v-.4c0-2 .7-3.8 2-5.2.3-.2.4-.4.4-.5 0-.2-.1-.3-.3-.3zm58.2 0l-.6.4a7.3 7.3 0 0 0-2.3 5.4c0 .8.2 1.5.5 2.1.3.8.8 1.1 1.6 1.1s1.6-.7 1.5-1.6c0-.4-.1-.8-.4-1.1-.3-.3-.7-.5-1.1-.5-.5 0-.9.2-1.2.5l-.2.1v-.4A7 7 0 0 1 229 88l.4-.5c0-.2-.1-.3-.3-.3zm5.8 0l-.6.4a7.4 7.4 0 0 0-2.2 5.4c0 .8.1 1.5.4 2.1.3.8.9 1.1 1.6 1.1.9 0 1.6-.7 1.6-1.6 0-.9-.7-1.6-1.6-1.6-.5 0-1 .2-1.3.6v-.4c0-2 .7-3.8 2-5.2.3-.2.4-.4.4-.5 0-.2-.1-.3-.3-.3zm-76.6 17.5c-.5 0-.9.2-1.2.5-.4.3-.5.7-.5 1.2 0 .4.1.9.5 1.2.3.3.7.5 1.2.5s1-.2 1.3-.6v.6c0 2-.8 4-2.3 5.5l-.2.3c0 .3 0 .4.3.4l.6-.5a7.9 7.9 0 0 0 2.3-5.7c0-.9-.1-1.6-.4-2.2-.3-.8-.9-1.2-1.6-1.2zm64 0c-.5 0-.9.2-1.2.5-.4.3-.5.7-.5 1.2 0 .4.1.9.5 1.2.3.3.7.5 1.2.5s1-.2 1.3-.6v.6c0 2-.8 4-2.3 5.5l-.2.3c0 .3 0 .4.3.4l.6-.5a7.9 7.9 0 0 0 2.3-5.7c0-.9-.1-1.6-.4-2.2-.3-.8-.9-1.2-1.6-1.2zm-74 36c-.4 0-.7.1-1 .4-.3.3-.5.7-.5 1.1 0 .5.2.9.5 1.2.3.3.6.5 1 .5.6 0 1-.2 1.3-.5l.1-.1v.3a7 7 0 0 1-2 5.2l-.4.5c0 .3 0 .4.3.4l.6-.5a7.4 7.4 0 0 0 2.2-5.4c0-.8-.1-1.4-.4-2-.4-.8-.9-1.1-1.6-1.1zm6 0c-1 0-1.7.7-1.7 1.5 0 .5.2 1 .5 1.2a1.7 1.7 0 0 0 2.4-.1l.1.3c0 2-.7 3.9-2.1 5.2l-.4.5c0 .3.1.4.3.4l.6-.5a7.3 7.3 0 0 0 2.3-5.4c0-.8-.2-1.4-.4-2-.4-.8-1-1.1-1.6-1.1zm58 0c-.4 0-.7.1-1 .4-.3.3-.5.7-.5 1.1 0 .5.2.9.5 1.2.3.3.6.5 1 .5.6 0 1-.2 1.3-.5l.1-.1v.3a7 7 0 0 1-2 5.2l-.4.5c0 .3 0 .4.3.4l.6-.5a7.4 7.4 0 0 0 2.2-5.4c0-.8-.1-1.4-.4-2-.4-.8-.9-1.1-1.6-1.1zm6 0c-1 0-1.7.7-1.7 1.5 0 .5.2 1 .5 1.2a1.7 1.7 0 0 0 2.4-.1l.1.3c0 2-.7 3.9-2.1 5.2l-.4.5c0 .3.1.4.3.4l.6-.5a7.3 7.3 0 0 0 2.3-5.4c0-.8-.2-1.4-.4-2-.4-.8-1-1.1-1.6-1.1zm60.5 0c-.4 0-.8.1-1.1.4-.3.3-.4.7-.4 1.1 0 .5.1.9.4 1.2.3.3.7.5 1.1.5.5 0 .9-.2 1.2-.5l.1-.1.1.3a7 7 0 0 1-2.1 5.2l-.4.5c0 .3.1.4.3.4l.6-.5a7.4 7.4 0 0 0 2.3-5.4c0-.8-.2-1.4-.5-2-.3-.8-.9-1.1-1.6-1.1zm5.9 0c-.9 0-1.6.7-1.6 1.5 0 .5.1 1 .4 1.2a1.7 1.7 0 0 0 2.5-.1v.3c0 2-.7 3.9-2 5.2l-.4.5c0 .3 0 .4.3.4l.6-.5a7.3 7.3 0 0 0 2.2-5.4c0-.8-.1-1.4-.4-2-.4-.8-1-1.1-1.6-1.1zm-185.3 0l-.6.4a7.3 7.3 0 0 0-2.2 5.4c0 .7 0 1.4.4 2.1.3.7.9 1.1 1.6 1.1.9 0 1.6-.7 1.6-1.6 0-.9-.7-1.6-1.6-1.6-.5 0-.9.2-1.2.5l-.1.1v-.4c-.1-2 .6-3.8 2-5.2.3-.2.4-.4.4-.5 0-.2-.1-.3-.3-.3zm5.8 0l-.6.4a7.4 7.4 0 0 0-2.2 5.4c0 .7.1 1.4.4 2.1.4.7 1 1.1 1.6 1.1.5 0 .9-.1 1.2-.4.3-.3.4-.7.4-1.2 0-.4-.1-.8-.4-1.1a1.7 1.7 0 0 0-2.4.1l-.1-.4a7 7 0 0 1 2-5.2c.3-.2.4-.4.4-.5 0-.2 0-.3-.3-.3zm59.9 0l-.6.4a7.4 7.4 0 0 0-2.3 5.4c0 .7.2 1.4.5 2.1.3.7.8 1.1 1.6 1.1s1.6-.7 1.5-1.6c0-.4-.1-.8-.4-1.1-.3-.3-.7-.5-1.1-.5-.5 0-.9.2-1.2.5l-.2.1v-.4a7 7 0 0 1 2.1-5.2l.4-.5c0-.2-.1-.3-.3-.3zm5.8 0l-.6.4a7.4 7.4 0 0 0-2.2 5.4c0 .7.1 1.4.4 2.1.3.7.9 1.1 1.6 1.1.9 0 1.6-.7 1.6-1.6 0-.9-.7-1.6-1.6-1.6-.5 0-1 .2-1.3.6v-.4c0-2 .7-3.8 2-5.2.3-.2.4-.4.4-.5 0-.2-.1-.3-.3-.3zm58.2 0l-.6.4a7.4 7.4 0 0 0-2.3 5.4c0 .7.2 1.4.5 2.1.3.7.8 1.1 1.6 1.1s1.6-.7 1.5-1.6c0-.4-.1-.8-.4-1.1-.3-.3-.7-.5-1.1-.5-.5 0-.9.2-1.2.5l-.2.1v-.4a7 7 0 0 1 2.1-5.2l.4-.5c0-.2-.1-.3-.3-.3zm5.8 0l-.6.4a7.4 7.4 0 0 0-2.2 5.4c0 .7.1 1.4.4 2.1.3.7.9 1.1 1.6 1.1.9 0 1.6-.7 1.6-1.6 0-.9-.7-1.6-1.6-1.6-.5 0-1 .2-1.3.6v-.4c0-2 .7-3.8 2-5.2.3-.2.4-.4.4-.5 0-.2-.1-.3-.3-.3zm-76.6 17.5c-.5 0-.9.2-1.2.5-.4.3-.5.7-.5 1.2 0 .4.1.9.5 1.2.3.3.7.5 1.2.5s1-.2 1.3-.6v.5c0 2.1-.8 4-2.3 5.5l-.2.4c0 .2 0 .3.3.3l.6-.4a7.9 7.9 0 0 0 2.3-5.8c0-.8-.1-1.5-.4-2.1-.3-.8-.9-1.2-1.6-1.2zm64 0c-.5 0-.9.2-1.2.5-.4.3-.5.7-.5 1.2 0 .4.1.9.5 1.2.3.3.7.5 1.2.5s1-.2 1.3-.6v.5c0 2.1-.8 4-2.3 5.5l-.2.4c0 .2 0 .3.3.3l.6-.4a7.9 7.9 0 0 0 2.3-5.8c0-.8-.1-1.5-.4-2.1-.3-.8-.9-1.2-1.6-1.2zm-74 60.7c-.4 0-.7.1-1 .4-.3.3-.5.7-.5 1.2 0 .4.2.8.5 1.1.3.3.6.5 1 .5.6 0 1-.2 1.3-.5l.1-.1v.4a7 7 0 0 1-2 5.2c-.3.2-.4.4-.4.5 0 .2 0 .3.3.3l.6-.4a7.4 7.4 0 0 0 2.2-5.4c0-.8-.1-1.5-.4-2.1-.4-.7-.9-1.1-1.6-1.1zm6 0c-1 0-1.7.7-1.7 1.6 0 .4.2.8.5 1.1a1.7 1.7 0 0 0 2.4-.1l.1.4c0 2-.7 3.8-2.1 5.2l-.4.5c0 .2.1.3.3.3l.6-.4a7.3 7.3 0 0 0 2.3-5.4c0-.8-.2-1.5-.4-2.1-.4-.7-1-1.1-1.6-1.1zm58 0c-.4 0-.7.1-1 .4-.3.3-.5.7-.5 1.2 0 .4.2.8.5 1.1.3.3.6.5 1 .5.6 0 1-.2 1.3-.5l.1-.1v.4a7 7 0 0 1-2 5.2c-.3.2-.4.4-.4.5 0 .2 0 .3.3.3l.6-.4a7.4 7.4 0 0 0 2.2-5.4c0-.8-.1-1.5-.4-2.1-.4-.7-.9-1.1-1.6-1.1zm6 0c-1 0-1.7.7-1.7 1.6 0 .4.2.8.5 1.1a1.7 1.7 0 0 0 2.4-.1l.1.4c0 2-.7 3.8-2.1 5.2l-.4.5c0 .2.1.3.3.3l.6-.4a7.3 7.3 0 0 0 2.3-5.4c0-.8-.2-1.5-.4-2.1-.4-.7-1-1.1-1.6-1.1zm60.5 0c-.4 0-.8.1-1.1.4-.3.3-.4.7-.4 1.2 0 .4.1.8.4 1.1.3.3.7.5 1.1.5.5 0 1-.2 1.2-.5l.1-.1.1.4a7 7 0 0 1-2.1 5.2c-.3.2-.4.4-.4.5 0 .2.1.3.3.3l.6-.4a7.4 7.4 0 0 0 2.3-5.4c0-.8-.2-1.5-.5-2.1-.3-.7-.9-1.1-1.6-1.1zm5.9 0c-.9 0-1.6.7-1.6 1.6 0 .4.1.8.4 1.1a1.7 1.7 0 0 0 2.5-.1v.4c0 2-.7 3.8-2 5.2-.3.2-.4.4-.4.5 0 .2 0 .3.3.3l.6-.4a7.3 7.3 0 0 0 2.2-5.4c0-.8-.1-1.5-.4-2.1-.4-.7-1-1.1-1.6-1.1zm-185.3 0l-.6.5a7.3 7.3 0 0 0-2.2 5.4c0 .7 0 1.4.4 2 .3.8.9 1.1 1.6 1.1.9 0 1.6-.7 1.6-1.5 0-1-.7-1.7-1.6-1.7-.5 0-.9.2-1.2.5l-.1.1v-.4c-.1-2 .6-3.8 2-5.1l.4-.5c0-.3-.1-.4-.3-.4zm5.8 0l-.6.5a7.4 7.4 0 0 0-2.2 5.4c0 .7.1 1.4.4 2 .4.8 1 1.1 1.6 1.1.5 0 .9-.1 1.2-.4.3-.3.4-.7.4-1.1 0-.5-.1-1-.4-1.2a1.7 1.7 0 0 0-2.4.1l-.1-.4a7 7 0 0 1 2-5.1l.4-.5c0-.3 0-.4-.3-.4zm59.9 0l-.6.5a7.3 7.3 0 0 0-2.3 5.4c0 .7.2 1.4.5 2 .3.8.8 1.1 1.6 1.1s1.6-.7 1.5-1.5c0-.5-.1-1-.4-1.2-.3-.3-.7-.5-1.1-.5-.5 0-.9.2-1.2.5l-.2.1v-.4a7 7 0 0 1 2.1-5.1l.4-.5c0-.3-.1-.4-.3-.4zm5.8 0l-.6.5a7.4 7.4 0 0 0-2.2 5.4c0 .7.1 1.4.4 2 .3.8.9 1.1 1.6 1.1.9 0 1.6-.7 1.6-1.5 0-1-.7-1.7-1.6-1.7-.5 0-1 .3-1.3.6v-.4c0-1.9.7-3.8 2-5.1l.4-.5c0-.3-.1-.4-.3-.4zm58.2 0l-.6.5a7.3 7.3 0 0 0-2.3 5.4c0 .7.2 1.4.5 2 .3.8.8 1.1 1.6 1.1s1.6-.7 1.5-1.5c0-.5-.1-1-.4-1.2-.3-.3-.7-.5-1.1-.5-.5 0-.9.2-1.2.5l-.2.1v-.4a7 7 0 0 1 2.1-5.1l.4-.5c0-.3-.1-.4-.3-.4zm5.8 0l-.6.5a7.4 7.4 0 0 0-2.2 5.4c0 .7.1 1.4.4 2 .3.8.9 1.1 1.6 1.1.9 0 1.6-.7 1.6-1.5 0-1-.7-1.7-1.6-1.7-.5 0-1 .3-1.3.6v-.4c0-1.9.7-3.8 2-5.1l.4-.5c0-.3-.1-.4-.3-.4zm-76.6 17.5c-.5 0-.9.2-1.2.5-.4.3-.5.7-.5 1.2 0 .4.1.9.5 1.2.3.3.7.5 1.2.5s1-.2 1.3-.6v.6c0 2-.8 4-2.3 5.5l-.2.3c0 .3 0 .4.3.4l.6-.5a7.9 7.9 0 0 0 2.3-5.7c0-.9-.1-1.6-.4-2.2-.3-.8-.9-1.2-1.6-1.2zm64 0c-.5 0-.9.2-1.2.5-.4.3-.5.7-.5 1.2 0 .4.1.9.5 1.2.3.3.7.5 1.2.5s1-.2 1.3-.6v.6c0 2-.8 4-2.3 5.5l-.2.3c0 .3 0 .4.3.4l.6-.5a7.9 7.9 0 0 0 2.3-5.7c0-.9-.1-1.6-.4-2.2-.3-.8-.9-1.2-1.6-1.2z"/>
  <path fill="none" stroke="#666" stroke-linecap="square" stroke-linejoin="bevel" stroke-width="2" d="M303.5 282h-287"/>
  <path fill="none" d="M288.5 308h-256"/>
  <path fill="none" stroke="#ccc" stroke-linecap="butt" stroke-opacity=".8" stroke-width=".7" d="M175.2 108h32m0-12h-32m0-4h32m0 12h-32m0-4h32m0-12h-32m0-4h32m-4 28V80m-12 0v32m-4 0V80m12 0v32m-4 0V80m-12 0v32m-4 0V80m-4 0v32h32V80z"/>
  <path fill="none" stroke="#999" stroke-linecap="butt" d="M207.2 80v32h-32V80z"/>
  <path fill="#fff" fill-opacity=".9" d="M187.2 112h8V80h-8z"/>
  <path fill="none" stroke="#000" stroke-linecap="butt" d="M187.2 112h8V80h-8z"/>
  <path fill="none" stroke="#999" stroke-linecap="butt" d="M143.2 80v32h-32V80z"/>
  <path fill="none" stroke="#ccc" stroke-linecap="butt" stroke-opacity=".8" stroke-width=".7" d="M111.2 108h32m0-12h-32m0-4h32m0 12h-32m0-4h32m0-12h-32m0-4h32m-4 28V80m-12 0v32m-4 0V80m12 0v32m-4 0V80m-12 0v32m-4 0V80m-4 0v32h32V80z"/>
  <path fill="#fff" fill-opacity=".9" d="M111.2 100v-8h32v8z"/>
  <path fill="none" stroke="#000" stroke-linecap="butt" d="M143.2 92v8h-32v-8z"/>
  <path fill="none" stroke="#ccc" stroke-linecap="butt" stroke-opacity=".8" stroke-width=".7" d="M239.2 108h32m0-12h-32m0-4h32m0 12h-32m0-4h32m0-12h-32m0-4h32m-4 28V80m-12 0v32m-4 0V80m12 0v32m-4 0V80m-12 0v32m-4 0V80m-4 0v32h32V80z"/>
  <path fill="none" stroke="#999" stroke-linecap="butt" d="M271.2 80v32h-32V80z"/>
  <path fill="#fff" fill-opacity=".9" d="M251.2 92V80h8v12h12v8h-12v12h-8v-12h-12v-8z"/>
  <path fill="none" stroke="#000" stroke-linecap="butt" d="M251.2 92V80h8v12h12v8h-12v12h-8v-12h-12v-8z"/>
</svg>
