<svg xmlns="http://www.w3.org/2000/svg" xmlns:xlink="http://www.w3.org/1999/xlink" viewBox="0 0 434 347" fill-rule="evenodd" stroke-miterlimit="1.5" xmlns:v="https://vecta.io/nano"><style><![CDATA[.B{fill-rule:nonzero}.C{fill:none}.D{stroke-linecap:round}.E{stroke:gray}.F{fill:#141414}.G{stroke-width:.142}.H{stroke-miterlimit:10}.I{fill:#fff}.J{stroke-opacity:.4}.K{stroke-linejoin:round}.L{stroke:#1a1a1a}.M{stroke:#e6e6e6}.N{fill:#e6e6e6}.O{fill:#f2f2f2}.P{stroke-width:1.3}.Q{stroke-width:2.6}.R{stroke-miterlimit:4}.S{stroke-width:.135}]]></style><g transform="matrix(10.4463 0 0 8.26445 .45 .45)"><clipPath id="A"><path d="M0 0h1754v1320H0z"/></clipPath><g clip-path="url(#A)"><path d="M0 0h41.355v41.866H0z" fill="#404040" stroke-opacity=".5" stroke-width=".06" class="E"/><path d="M0 38.72h41.355v3.146H0z" class="F"/><g class="C D G M"><path d="M6.91 34.078l.485.178-.057-.634" class="H"/><path d="M7.395 34.255c-.283-.384-.757-.618-1.268-.618-.558 0-1.071.278-1.34.726"/><path d="M17.632 34.078l.485.178-.057-.634" class="H"/><path d="M18.117 34.255c-.283-.384-.757-.618-1.268-.618-.558 0-1.071.278-1.34.726"/><path d="M5.344 35.618l-.485-.178.057.634" class="H"/><path d="M4.859 35.44c.283.384.757.618 1.268.618.557 0 1.071-.278 1.34-.726"/><path d="M16.066 35.618l-.485-.178.057.634" class="H"/><path d="M15.581 35.44c.283.384.757.618 1.268.618.557 0 1.071-.278 1.34-.726"/></g><g fill="#1a1a1a"><path d="M10.724 32.912v3.872H7.661v-1.936h1.532v-1.936h1.532zm10.721 0v3.872h-3.063v-1.936h1.532v-1.936h1.532z"/></g><g class="C D G M"><path d="M35.211 34.717l.504.045-.161-.605" class="H"/><use xlink:href="#C"/><path d="M40.063 34.73l.415-.363-.425-.344" class="H"/><path d="M40.477 34.367c-.513.023-.977.203-1.228.482"/></g><g class="B O"><path d="M30.038 28.335c.168 0 .223-.126.254-.184h.016v.163h.129v-1.407h-.134v.519h-.011c-.03-.054-.081-.182-.252-.182-.22 0-.372.213-.372.546s.152.546.37.546zm.018-.145c-.168 0-.254-.178-.254-.405s.085-.395.254-.395c.163 0 .249.159.249.395s-.088.405-.249.405z"/><use xlink:href="#D"/><use xlink:href="#E"/><use xlink:href="#F"/><use xlink:href="#G"/><use xlink:href="#H"/><path d="M6.079 27.259h-.145l-.241.84h-.008l-.241-.84h-.145l.322 1.055h.136l.322-1.055z"/><use xlink:href="#I"/><use xlink:href="#J"/><path d="M8.179 27.259h-.187v-.254H7.86v.254h-.132v.137h.132v.658c0 .186.121.273.235.273a.24.24 0 0 0 .101-.019l-.027-.145c-.011.002-.03.008-.059.008-.059 0-.116-.021-.116-.159v-.616h.187v-.137z"/></g><g class="I B"><path d="M7.025 40.898h.71v-.151h-.57v-.478h.523v-.151h-.523v-.476h.56v-.151h-.7v1.407zm1.036-1.055h-.153l.276.527-.276.529h.153l.209-.41.209.41h.153l-.281-.529.281-.527h-.153l-.209.432-.209-.432z"/><path d="M9.078 40.923a.27.27 0 0 0 .258-.168h.006v.143h.134v-.695c0-.337-.211-.376-.321-.376-.132 0-.282.056-.349.248l.126.056c.03-.077.099-.161.227-.161s.183.079.183.215v.006c0 .077-.065.072-.223.097s-.338.068-.338.31c0 .207.132.325.297.325zm.021-.147c-.107 0-.183-.056-.183-.17 0-.122.093-.161.198-.178.056-.008.207-.027.23-.06v.149c0 .132-.086.259-.244.259z"/><use xlink:href="#K"/><use xlink:href="#L"/><path d="M12.082 39.491h.134v1.407h-.134z"/><path d="M12.824 40.919c.177 0 .306-.106.348-.265l-.129-.045c-.035.11-.113.165-.219.165-.156 0-.265-.122-.271-.348h.632v-.07c0-.393-.191-.529-.373-.529-.236 0-.392.227-.392.552s.155.54.405.54zm-.271-.635c.01-.165.105-.31.258-.31.145 0 .238.132.238.31h-.496z"/><path d="M14.006 40.079c-.041-.151-.136-.252-.308-.252-.183 0-.319.128-.319.306 0 .145.07.244.23.288l.145.043c.088.023.129.076.129.147 0 .091-.078.165-.203.165-.11 0-.179-.056-.203-.17l-.126.039c.03.18.152.275.33.275.203 0 .34-.134.34-.316 0-.147-.077-.24-.231-.287l-.129-.039c-.102-.031-.15-.072-.15-.153 0-.091.08-.157.187-.157.116 0 .164.077.188.151l.12-.041zm.684.819h.14v-.629h.503v-.151h-.503v-.476h.555v-.151h-.696v1.407z"/><path d="M15.6 40.898h.134v-.668c0-.143.093-.248.219-.248.037 0 .073.008.081.012v-.166l-.07-.002c-.098-.004-.188.066-.227.176h-.008v-.159H15.6v1.055z"/><use xlink:href="#M"/><path d="M17.119 40.898h.134v-.66c0-.155.093-.263.196-.263s.172.079.172.199v.724h.136v-.687c0-.136.07-.236.193-.236.096 0 .177.06.177.217v.707h.134v-.707c0-.248-.11-.364-.266-.364a.27.27 0 0 0-.26.18h-.01c-.038-.114-.132-.186-.233-.18-.113 0-.196.068-.233.18h-.011v-.165h-.129v1.055zm1.853 0h.71v-.151h-.57v-.478h.523v-.151h-.523v-.476h.56v-.151h-.7v1.407zm1.648-1.055h-.145l-.241.84h-.008l-.241-.84h-.145l.322 1.055h.136l.322-1.055z"/><path d="M21.131 40.919c.177 0 .306-.106.348-.265l-.129-.045c-.035.11-.113.165-.219.165-.156 0-.265-.122-.271-.348h.632v-.07c0-.393-.191-.529-.373-.529-.236 0-.392.227-.392.552s.155.54.405.54zm-.271-.635c.01-.165.105-.31.258-.31.145 0 .238.132.238.31h-.496z"/><path d="M21.696 40.898h.134v-.668c0-.143.093-.248.219-.248.037 0 .073.008.081.012v-.166l-.07-.002c-.098-.004-.188.066-.227.176h-.008v-.159h-.129v1.055z"/><use xlink:href="#N"/><path d="M24.463 39.93h.145c-.043-.275-.245-.47-.475-.459-.298 0-.507.277-.507.722s.207.724.517.724c.276 0 .472-.223.472-.573v-.151h-.442v.151h.306c-.003.254-.14.414-.337.414-.215 0-.381-.199-.381-.565s.166-.563.372-.563c.168 0 .281.114.33.3zm.375-.439h.134v1.407h-.134zm.465 1.804c.12 0 .206-.079.255-.242l.37-1.21h-.145l-.241.84h-.008l-.241-.84h-.145l.322 1.061-.026.081c-.048.163-.108.176-.206.147l-.034.143a.22.22 0 0 0 .097.019z"/><path d="M26.105 41.295h.134v-.56h.011c.029.058.086.184.254.184.217 0 .369-.211.369-.546s-.152-.546-.372-.546c-.169 0-.222.128-.25.182h-.016v-.166h-.129v1.452zm.131-.925c0-.236.086-.395.249-.395.171 0 .254.172.254.395s-.086.405-.254.405c-.161 0-.249-.165-.249-.405z"/><path d="M27.211 40.263c0-.184.096-.288.228-.288.126 0 .201.095.201.263v.66h.134v-.672c0-.271-.118-.399-.297-.399-.137 0-.215.07-.255.18h-.011v-.517h-.134v1.407h.134v-.635zm1.275.635h.14v-.55h.284l.244.55h.163l-.262-.581c.148-.062.217-.209.217-.395 0-.25-.123-.432-.394-.432h-.392v1.407zm.14-.705v-.552h.247c.188 0 .26.11.26.281s-.072.271-.258.271h-.249z"/><path d="M29.844 40.919c.177 0 .306-.106.348-.265l-.129-.045c-.035.11-.113.165-.219.165-.156 0-.265-.122-.271-.348h.632v-.07c0-.393-.191-.529-.373-.529-.236 0-.392.227-.392.552s.155.54.405.54zm-.271-.635c.01-.165.105-.31.258-.31.145 0 .238.132.238.31h-.496z"/><path d="M30.409 39.491h.134v1.407h-.134z"/><path d="M31.043 40.923a.27.27 0 0 0 .258-.168h.006v.143h.134v-.695c0-.337-.211-.376-.321-.376-.132 0-.282.056-.349.248l.126.056c.03-.077.099-.161.227-.161s.183.079.183.215v.006c0 .077-.065.072-.223.097s-.338.068-.338.31c0 .207.132.325.297.325zm.021-.147c-.107 0-.183-.056-.183-.17 0-.122.093-.161.198-.178.056-.008.207-.027.23-.06v.149c0 .132-.086.259-.244.259z"/><use xlink:href="#O"/><path d="M32.267 40.898h.134v-1.055h-.134v1.055zm.067-1.231c.053 0 .096-.05.096-.11s-.044-.111-.096-.11-.092.049-.094.11.043.11.094.11z"/><path d="M32.998 40.919c.236 0 .394-.217.394-.544s-.158-.548-.394-.548-.394.219-.394.548.16.544.394.544zm0-.145c-.179 0-.26-.188-.26-.399s.081-.401.26-.401.262.19.262.401-.081.399-.262.399z"/><path d="M33.732 40.263c0-.184.093-.288.222-.288.123 0 .199.099.199.263v.66h.134v-.672c0-.269-.12-.399-.295-.399-.132 0-.214.072-.254.18h-.011v-.165h-.129v1.055h.134v-.635z"/></g><g class="O B"><path d="M15.285 27.679c0-.184.096-.288.228-.288.126 0 .201.095.201.263v.66h.134v-.672c0-.271-.118-.399-.297-.399-.137 0-.215.07-.255.18h-.011v-.517h-.134v1.407h.134v-.635z"/><path d="M16.111 28.314h.14v-.629h.503v-.151h-.503v-.476h.555v-.151h-.696v1.407zm.919-1.407h.134v1.407h-.134z"/><path d="M17.409 28.314h.134v-1.055h-.134v1.055zm.067-1.231c.053 0 .096-.05.096-.11s-.044-.111-.096-.11-.092.049-.094.11.043.11.094.11zm.311 1.628h.134v-.56h.011c.029.058.086.184.254.184.217 0 .369-.211.369-.546s-.152-.546-.372-.546c-.169 0-.222.128-.25.182h-.016v-.166h-.129v1.452zm.131-.925c0-.236.086-.395.249-.395.171 0 .254.172.254.395s-.086.405-.254.405c-.161 0-.249-.165-.249-.405z"/></g><use xlink:href="#P" class="F"/><g class="I"><path d="M37.145 33.88h.766v-.968h-.766zm0 1.452h.766v-.968h-.766zm0 1.452h.766v-.968h-.766z"/></g><g class="C G"><use xlink:href="#Q" class="D E J K"/><use xlink:href="#P" class="L"/></g><path d="M29.867 32.912h3.063v3.872h-3.063z" class="F"/><g class="I"><path d="M31.018 34.364h.766v-1.452h-.766zm0 2.42h.766v-1.452h-.766z"/></g><g class="C G"><path d="M31.782 32.912v3.872m-.766-3.872v3.872m-.383-3.872v3.872m1.532-3.872v3.872m-.766-3.872v3.872m-1.532-2.42h3.063m-3.063.968h3.063m-3.063.484h3.063m-3.063-1.936h3.063m-3.063.968h3.063m-2.68-1.936v3.872h2.298v-3.872H30.25zm2.68.484h-3.063V36.3h3.063v-2.904z" class="D E J K"/><path d="M29.867 32.912h3.063v3.872h-3.063z" class="L"/></g><path d="M7.658 32.912h3.063v3.872H7.658z" class="F"/><path d="M10.724 32.912v3.872H7.661v-1.936h1.532v-1.936h1.532z" class="I"/><g class="C G"><path d="M9.573 32.912v3.872m-.766-3.872v3.872m-.383-3.872v3.872m1.532-3.872v3.872m-.766-3.872v3.872m-1.532-2.42h3.063m-3.063.968h3.063m-3.063.484h3.063M7.658 33.88h3.063m-3.063.968h3.063m-2.68-1.936v3.872h2.298v-3.872H8.041zm2.68.484H7.658V36.3h3.063v-2.904z" class="D E J K"/><path d="M7.658 32.912h3.063v3.872H7.658z" class="L"/></g><path d="M18.38 32.912h3.063v3.872H18.38z" class="I"/><path d="M18.382 36.784h1.532v-3.872h-1.532z" class="F"/><g class="C G"><path d="M20.295 32.912v3.872m-.766-3.872v3.872m-.383-3.872v3.872m1.532-3.872v3.872m-.766-3.872v3.872m-1.532-2.42h3.063m-3.063.968h3.063m-3.063.484h3.063M18.38 33.88h3.063m-3.063.968h3.063m-2.68-1.936v3.872h2.298v-3.872h-2.298zm2.68.484H18.38V36.3h3.063v-2.904z" class="D E J K"/><path d="M18.38 32.912h3.063v3.872H18.38z" class="L"/></g><g class="B N"><use xlink:href="#R"/><use xlink:href="#S"/><use xlink:href="#T"/><use xlink:href="#U"/><use xlink:href="#V"/><use xlink:href="#W"/></g><path d="M12.258 32.912h3.063v3.872h-3.063z" class="F"/><path d="M12.254 36.784v-3.872h1.532v3.872z" class="I"/><g class="C G"><path d="M14.173 32.912v3.872m-.766-3.872v3.872m-.383-3.872v3.872m1.532-3.872v3.872m-.766-3.872v3.872m-1.532-2.42h3.063m-3.063.968h3.063m-3.063.484h3.063m-3.063-1.936h3.063m-3.063.968h3.063m-2.68-1.936v3.872h2.298v-3.872h-2.298zm2.68.484h-3.063V36.3h3.063v-2.904z" class="D E J K"/><path d="M12.258 32.912h3.063v3.872h-3.063z" class="L"/></g><g class="B N"><path d="M1.686 32.46c.024 0 .048-.004.071-.011.047-.015.087-.053.112-.104a.33.33 0 0 0 .025-.08c.004-.029.007-.057.007-.087v-.708h-.118v.708a.29.29 0 0 1-.004.053c-.003.018-.009.035-.016.051s-.019.028-.032.036c-.027.016-.059.016-.087 0-.014-.008-.025-.02-.033-.036s-.013-.033-.016-.051a.29.29 0 0 1-.004-.053v-.708h-.118v.708a.45.45 0 0 0 .008.087c.01.057.035.108.072.145a.15.15 0 0 0 .064.039c.023.007.047.01.071.011z"/><path d="M2.293 32.268v-.208h.156v-.129h-.156v-.206h-.118v.206h-.156v.129h.156v.208h.118z"/><path d="M2.567 32.449h.43v-.129h-.305a.42.42 0 0 1 .093-.206.75.75 0 0 1 .075-.077c.027-.023.051-.05.073-.079a.33.33 0 0 0 .05-.101c.012-.037.018-.076.018-.116a.53.53 0 0 0-.012-.109c-.008-.036-.022-.069-.043-.096s-.046-.047-.075-.059c-.056-.021-.116-.022-.173-.004-.027.01-.051.027-.071.051s-.037.053-.047.085-.015.065-.015.098h.118c0-.021.004-.041.012-.061s.02-.034.036-.043c.03-.019.065-.02.095-.003.014.007.026.018.034.033a.17.17 0 0 1 .018.051.32.32 0 0 1 .004.056c-.001.071-.028.138-.073.182l-.069.065c-.046.043-.085.096-.117.154s-.048.128-.053.198l-.003.106v.001z"/><path d="M3.332 32.46c.026 0 .053-.005.078-.015s.049-.025.068-.047.035-.048.047-.077.019-.059.023-.091c.013-.094.005-.191-.022-.281-.012-.028-.028-.054-.046-.076s-.042-.038-.067-.048c-.04-.015-.083-.018-.124-.009-.016.002-.031.008-.046.016V31.6h.282v-.129h-.4v.59h.118c.001-.021.005-.041.012-.06s.018-.034.033-.044c.03-.022.068-.021.098.003a.14.14 0 0 1 .033.049.4.4 0 0 1 .018.126v.001c0 .021-.001.043-.003.064s-.008.043-.015.063c-.015.041-.049.067-.086.068-.014 0-.028-.004-.041-.011s-.025-.016-.034-.031-.015-.03-.019-.047a.2.2 0 0 1-.007-.051h-.118c.001.035.007.07.016.102s.024.065.045.091.044.045.071.057a.21.21 0 0 0 .086.017z"/><use xlink:href="#X"/><path d="M4.428 32.46c.029 0 .057-.004.084-.013a.18.18 0 0 0 .073-.047.21.21 0 0 0 .049-.083c.023-.065.022-.139-.002-.204-.012-.033-.029-.064-.049-.091s-.043-.05-.067-.072a.54.54 0 0 0 .059-.069.29.29 0 0 0 .043-.087c.02-.061.021-.13.001-.192s-.06-.109-.112-.13-.107-.019-.159 0c-.026.009-.05.026-.069.049a.23.23 0 0 0-.044.081.31.31 0 0 0 .002.192.29.29 0 0 0 .043.087.46.46 0 0 0 .058.069.61.61 0 0 0-.066.072.33.33 0 0 0-.05.091c-.023.065-.024.138-.002.204a.21.21 0 0 0 .049.083c.022.023.047.037.075.047a.26.26 0 0 0 .083.013zm0-.586c-.015-.015-.03-.031-.043-.049s-.024-.037-.032-.059c-.016-.039-.017-.084-.003-.124.007-.017.018-.031.032-.04s.03-.014.046-.013.032.004.046.013.025.023.032.04.01.038.01.057-.004.046-.012.067-.019.041-.033.059-.027.034-.043.049zm0 .457c-.018 0-.035-.004-.052-.012s-.031-.021-.039-.04-.014-.039-.014-.06a.18.18 0 0 1 .016-.076c.01-.023.023-.044.038-.063l.05-.051.05.051c.015.019.029.04.039.063a.18.18 0 0 1 .016.076c0 .021-.005.042-.014.06s-.023.033-.039.04-.035.012-.053.012z"/></g><g class="C M R"><path d="M23.743 29.04H39.06" class="S"/><g class="G"><path d="M1.533 29.04h9.19m-9.192 9.68h38.291"/><path d="M12.255 29.04h9.19"/></g></g><g class="B N"><path d="M30.027 32.439c.024 0 .048-.004.071-.011.047-.015.087-.053.112-.104a.33.33 0 0 0 .025-.08c.004-.029.007-.057.007-.087v-.708h-.118v.708a.29.29 0 0 1-.004.053c-.003.018-.009.035-.016.051s-.019.028-.032.036c-.027.016-.059.016-.087 0-.014-.008-.025-.02-.033-.036s-.013-.033-.016-.051a.29.29 0 0 1-.004-.053v-.708h-.118v.708a.45.45 0 0 0 .008.087c.01.057.035.108.072.145a.15.15 0 0 0 .064.039c.023.007.047.01.071.011z"/><path d="M30.635 32.247v-.208h.156v-.129h-.156v-.206h-.118v.206h-.156v.129h.156v.208h.118z"/><path d="M30.909 32.428h.43v-.129h-.305a.42.42 0 0 1 .093-.206.75.75 0 0 1 .075-.077c.027-.023.051-.05.073-.079a.33.33 0 0 0 .05-.101c.012-.037.018-.076.018-.116a.53.53 0 0 0-.012-.109c-.008-.036-.022-.069-.043-.096s-.046-.047-.075-.059c-.056-.021-.116-.022-.173-.004-.027.01-.051.027-.071.051s-.037.053-.047.085-.015.065-.015.098h.118c0-.021.004-.041.012-.061s.02-.034.036-.043c.03-.019.065-.02.095-.003.014.007.026.018.034.033a.17.17 0 0 1 .018.051.32.32 0 0 1 .004.056c-.001.071-.028.138-.073.182l-.069.065c-.046.043-.085.096-.117.154s-.048.128-.053.198l-.003.106v.001z"/><use xlink:href="#Y"/><use xlink:href="#Z"/><path d="M32.585 32.428h.4v-.129h-.282v-.325h.217v-.129h-.217v-.266h.282v-.129h-.4v.978zm-24.766.032c.024 0 .048-.004.071-.011.047-.015.087-.053.112-.104a.33.33 0 0 0 .025-.08c.004-.029.007-.057.007-.087v-.708h-.118v.708a.29.29 0 0 1-.004.053c-.003.018-.009.035-.016.051s-.019.028-.032.036c-.027.016-.059.016-.087 0-.014-.008-.025-.02-.033-.036s-.013-.033-.016-.051a.29.29 0 0 1-.004-.053v-.708h-.118v.708a.45.45 0 0 0 .008.087.27.27 0 0 0 .072.145.15.15 0 0 0 .064.039c.023.007.047.01.071.011z"/><path d="M8.426 32.268v-.208h.156v-.129h-.156v-.206h-.118v.206h-.156v.129h.156v.208h.118z"/><path d="M8.7 32.449h.43v-.129h-.305a.42.42 0 0 1 .093-.206.75.75 0 0 1 .075-.077c.027-.023.051-.05.073-.079a.33.33 0 0 0 .05-.101c.012-.037.018-.076.018-.116a.53.53 0 0 0-.012-.109c-.008-.036-.022-.069-.043-.096s-.046-.047-.075-.059c-.056-.021-.116-.022-.173-.004-.027.01-.051.027-.071.051s-.037.053-.047.085-.015.065-.015.098h.118c0-.021.004-.041.012-.061s.02-.034.036-.043c.03-.019.065-.02.095-.003.014.007.026.018.034.033a.17.17 0 0 1 .018.051.32.32 0 0 1 .004.056c-.001.071-.028.138-.073.182l-.069.065c-.046.043-.085.096-.117.154s-.048.128-.053.198l-.003.106v.001z"/><path d="M9.465 32.46c.026 0 .053-.005.078-.015s.049-.025.068-.047.035-.048.047-.077.019-.059.023-.091c.013-.094.005-.191-.022-.281-.012-.028-.028-.054-.046-.076s-.042-.038-.067-.048c-.04-.015-.083-.018-.124-.009-.016.002-.031.008-.046.016V31.6h.282v-.129h-.4v.59h.118c.001-.021.005-.041.012-.06s.018-.034.033-.044c.03-.022.068-.021.098.003a.14.14 0 0 1 .033.049.4.4 0 0 1 .018.126v.001c0 .021-.001.043-.003.064s-.008.043-.015.063c-.015.041-.049.067-.086.068-.014 0-.028-.004-.041-.011s-.025-.016-.034-.031-.015-.03-.019-.047a.2.2 0 0 1-.007-.051h-.118c.001.035.007.07.016.102s.024.065.045.091.044.045.071.057a.21.21 0 0 0 .086.017z"/><path d="M10.029 32.449l.099-.244.052-.126a.97.97 0 0 0 .042-.13.65.65 0 0 0-.013-.334c-.011-.031-.026-.059-.045-.084a.18.18 0 0 0-.069-.055c-.057-.023-.119-.021-.176.005-.03.014-.056.037-.076.068s-.034.067-.042.105a.61.61 0 0 0-.001.233c.007.038.021.074.042.104s.045.056.075.071c.043.021.089.028.135.019l-.015.033-.014.035-.122.301h.129zm-.018-.494c-.017 0-.035-.006-.049-.017s-.027-.026-.034-.045a.27.27 0 0 1-.016-.059.39.39 0 0 1 0-.125c.003-.021.009-.041.016-.06s.02-.034.035-.044c.031-.021.068-.021.099 0 .015.01.027.025.035.044.015.038.022.08.021.122a.39.39 0 0 1-.004.063.26.26 0 0 1-.016.06c-.017.038-.05.061-.086.061z"/><path d="M10.376 32.449h.118v-.454h.217v-.129h-.217V31.6h.282v-.129h-.4v.978zm8.164.011c.024 0 .048-.004.071-.011.047-.015.087-.053.112-.104a.33.33 0 0 0 .025-.08c.004-.029.007-.057.007-.087v-.708h-.118v.708a.29.29 0 0 1-.004.053c-.003.018-.009.035-.016.051s-.019.028-.032.036c-.027.016-.059.016-.087 0-.014-.008-.025-.02-.033-.036s-.013-.033-.016-.051a.29.29 0 0 1-.004-.053v-.708h-.118v.708a.45.45 0 0 0 .008.087.27.27 0 0 0 .072.145.15.15 0 0 0 .064.039c.023.007.047.01.071.011z"/><path d="M19.147 32.268v-.208h.156v-.129h-.156v-.206h-.118v.206h-.156v.129h.156v.208h.118z"/><path d="M19.422 32.449h.43v-.129h-.305a.42.42 0 0 1 .093-.206.75.75 0 0 1 .075-.077c.027-.023.051-.05.073-.079a.33.33 0 0 0 .05-.101c.012-.037.018-.076.018-.116a.53.53 0 0 0-.012-.109c-.008-.036-.022-.069-.043-.096s-.046-.047-.075-.059c-.056-.021-.116-.022-.173-.004-.027.01-.051.027-.071.051s-.037.053-.047.085-.015.065-.015.098h.118c0-.021.004-.041.012-.061s.02-.034.036-.043c.03-.019.065-.02.095-.003.014.007.026.018.034.033a.17.17 0 0 1 .018.051.32.32 0 0 1 .004.056c-.001.071-.028.138-.073.182l-.069.065c-.046.043-.085.096-.117.154s-.048.128-.053.198l-.003.106v.001z"/><path d="M20.186 32.46c.026 0 .053-.005.078-.015s.049-.025.068-.047.035-.048.047-.077.019-.059.023-.091c.013-.094.005-.191-.022-.281-.012-.028-.028-.054-.046-.076s-.042-.038-.067-.048c-.04-.015-.083-.018-.124-.009-.016.002-.031.008-.046.016V31.6h.282v-.129h-.4v.59h.118c.001-.021.005-.041.012-.06s.018-.034.033-.044c.03-.022.068-.021.098.003a.14.14 0 0 1 .033.049.4.4 0 0 1 .018.126v.001c0 .021-.001.043-.003.064s-.008.043-.015.063c-.015.041-.049.067-.086.068-.014 0-.028-.004-.041-.011s-.025-.016-.034-.031-.015-.03-.019-.047a.2.2 0 0 1-.007-.051h-.118c.001.035.007.07.016.102s.024.065.045.091.044.045.071.057a.21.21 0 0 0 .086.017z"/><path d="M20.751 32.449l.099-.244.052-.126a.97.97 0 0 0 .042-.13.65.65 0 0 0-.013-.334c-.011-.031-.026-.059-.045-.084a.18.18 0 0 0-.069-.055c-.057-.023-.119-.021-.176.005-.03.014-.056.037-.076.068s-.034.067-.042.105a.61.61 0 0 0-.001.233c.007.038.021.074.042.104s.045.056.075.071c.043.021.089.028.135.019l-.015.033-.014.035-.122.301h.129zm-.018-.494c-.017 0-.035-.006-.049-.017s-.027-.026-.034-.045a.27.27 0 0 1-.016-.059.39.39 0 0 1 0-.125c.003-.021.009-.041.016-.06s.02-.034.035-.044c.031-.021.068-.021.099 0 .015.01.027.025.035.044.015.038.022.08.021.122a.39.39 0 0 1-.004.063.26.26 0 0 1-.016.06c-.017.038-.05.061-.086.061z"/><use xlink:href="#a"/><path d="M36.15 32.439c.024 0 .048-.004.071-.011.047-.015.087-.053.112-.104a.33.33 0 0 0 .025-.08c.004-.029.007-.057.007-.087v-.708h-.118v.708a.29.29 0 0 1-.004.053c-.003.018-.009.035-.016.051s-.019.028-.032.036c-.027.016-.059.016-.087 0-.014-.008-.025-.02-.033-.036s-.013-.033-.016-.051a.29.29 0 0 1-.004-.053v-.708h-.118v.708a.45.45 0 0 0 .008.087c.01.057.035.108.072.145a.15.15 0 0 0 .064.039c.023.007.047.01.071.011z"/><path d="M36.757 32.247v-.208h.156v-.129h-.156v-.206h-.118v.206h-.156v.129h.156v.208h.118z"/><path d="M37.032 32.428h.43v-.129h-.305a.42.42 0 0 1 .093-.206.75.75 0 0 1 .075-.077c.027-.023.051-.05.073-.079a.33.33 0 0 0 .05-.101c.012-.037.018-.076.018-.116a.53.53 0 0 0-.012-.109c-.008-.036-.022-.069-.043-.096s-.046-.047-.075-.059c-.056-.021-.116-.022-.173-.004-.027.01-.051.027-.071.051s-.037.053-.047.085-.015.065-.015.098h.118c0-.021.004-.041.012-.061s.02-.034.036-.043c.03-.019.065-.02.095-.003.014.007.026.018.034.033a.17.17 0 0 1 .018.051.32.32 0 0 1 .004.056c-.001.071-.028.138-.073.182l-.069.065c-.046.043-.085.096-.117.154s-.048.128-.053.198l-.003.106v.001z"/><path d="M37.796 32.439c.026 0 .053-.005.078-.015s.049-.025.068-.047.035-.048.047-.077.019-.059.023-.091c.013-.094.005-.191-.022-.281-.012-.028-.028-.054-.046-.076s-.042-.038-.067-.048c-.04-.015-.083-.018-.124-.009-.016.002-.031.008-.046.016v-.233h.282v-.129h-.4v.59h.118c.001-.021.005-.041.012-.06s.018-.034.033-.044c.03-.022.068-.021.098.003a.14.14 0 0 1 .033.049.4.4 0 0 1 .018.126v.001c0 .021-.001.043-.003.064s-.008.043-.015.063c-.015.041-.049.067-.086.068-.014 0-.028-.004-.041-.011s-.025-.016-.034-.031-.015-.03-.019-.047a.2.2 0 0 1-.007-.051h-.118c.001.035.007.07.016.102s.024.065.045.091.044.045.071.057a.21.21 0 0 0 .086.017z"/><path d="M38.344 32.439c.024 0 .049-.004.072-.011s.047-.018.067-.035.036-.039.049-.064.022-.052.027-.081a.45.45 0 0 0 .008-.087v-.446c0-.03-.002-.059-.008-.088s-.015-.056-.027-.081c-.026-.05-.068-.086-.116-.098a.27.27 0 0 0-.144 0c-.024.006-.046.019-.066.036-.04.034-.068.086-.079.144-.005.029-.008.058-.008.088v.446a.45.45 0 0 0 .008.087c.005.029.015.057.029.081s.03.047.05.064.042.029.066.035.047.01.071.011zm0-.129c-.015 0-.03-.004-.044-.011s-.027-.019-.036-.033-.017-.031-.02-.049-.005-.036-.005-.055v-.052l.211-.204v.256c0 .018-.002.037-.004.055s-.01.035-.02.049-.022.026-.036.033-.03.01-.045.011zm-.105-.338v-.256a.32.32 0 0 1 .005-.056c.007-.037.028-.067.056-.083.014-.006.029-.01.044-.009s.031.003.045.009c.028.015.049.046.056.083l.004.056v.052l-.211.204z"/><path d="M38.892 32.439c.032 0 .064-.007.094-.021s.057-.038.077-.069.034-.067.042-.105c.015-.076.015-.155 0-.232-.007-.038-.021-.074-.041-.105s-.045-.054-.075-.069c-.043-.021-.09-.027-.136-.019l.015-.033.014-.035.122-.301h-.129l-.098.244-.052.125a.81.81 0 0 0-.058.269c0 .033.002.068.005.1s.012.067.023.097a.3.3 0 0 0 .046.084c.018.025.042.043.068.053s.053.018.081.017zm0-.129c-.017 0-.034-.005-.049-.016s-.028-.026-.035-.045a.26.26 0 0 1-.016-.06.39.39 0 0 1 0-.125c.003-.021.009-.041.016-.06.013-.028.035-.048.06-.056s.052-.004.075.012a.11.11 0 0 1 .035.045c.016.038.022.08.02.122 0 .021-.001.041-.004.061a.26.26 0 0 1-.016.06c-.007.019-.02.035-.035.045s-.032.016-.049.016z"/></g><path d="M1.532 32.912h3.063v3.872H1.532z" class="F"/><path d="M1.532 34.848v-1.936h1.532v1.936z" class="I"/><g class="C G"><path d="M3.447 32.912v3.872m-.766-3.872v3.872m-.383-3.872v3.872m1.532-3.872v3.872m-.766-3.872v3.872m-1.532-2.42h3.063m-3.063.968h3.063m-3.063.484h3.063M1.532 33.88h3.063m-3.063.968h3.063m-2.68-1.936v3.872h2.298v-3.872H1.915zm2.68.484H1.532V36.3h3.063v-2.904z" class="D E J K"/><path d="M1.532 32.912h3.063v3.872H1.532z" class="L"/><g class="D M"><path d="M29.084 20.68l.504.045-.161-.605" class="H"/><path d="M29.588 20.725c-.285-.247-.75-.397-1.251-.397-.558 0-1.071.185-1.34.484"/><path d="M35.211 20.68l.504.045-.161-.605" class="H"/><path d="M35.714 20.725c-.285-.247-.75-.397-1.251-.397-.558 0-1.071.185-1.34.484"/><path d="M40.063 20.693l.415-.363-.425-.344" class="H"/><path d="M40.477 20.33c-.513.023-.977.203-1.228.482"/></g></g><g class="B O"><path d="M30.472 13.459c-.041-.151-.136-.252-.308-.252-.183 0-.319.128-.319.306 0 .145.07.244.23.288l.145.043c.088.023.129.076.129.147 0 .091-.078.165-.203.165-.11 0-.179-.056-.203-.17l-.126.039c.03.18.152.275.33.275.203 0 .34-.134.34-.316 0-.147-.077-.24-.231-.287l-.129-.039c-.102-.031-.15-.072-.15-.153 0-.091.08-.157.187-.157.116 0 .164.077.188.151l.12-.041z"/><path d="M30.824 13.643c0-.184.096-.288.228-.288.126 0 .201.095.201.263v.66h.134v-.672c0-.271-.118-.399-.297-.399-.137 0-.215.07-.255.18h-.011v-.517h-.134v1.407h.134v-.635z"/><path d="M31.633 14.278h.134v-1.055h-.134v1.055zm.067-1.231c.053 0 .096-.05.096-.11s-.044-.111-.096-.11-.092.049-.094.11.043.11.094.11zm.699.176h-.196v-.108c0-.105.037-.159.126-.159.038 0 .061.01.073.015l.04-.139c-.041-.02-.084-.029-.128-.027-.124 0-.244.091-.244.271v.147h-.14v.137h.14v.918h.132v-.918h.196v-.137z"/><path d="M32.965 13.223h-.187v-.254h-.132v.254h-.132v.137h.132v.658c0 .186.121.273.235.273a.24.24 0 0 0 .101-.019l-.027-.145c-.011.002-.03.008-.059.008-.059 0-.116-.021-.116-.159v-.616h.187v-.137z"/></g><path d="M35.994 18.876h3.063v3.872h-3.063z" class="F"/><path d="M37.53 22.748h1.532v-3.872H37.53z" class="I"/><g class="C G"><path d="M37.909 18.876v3.872m-.766-3.872v3.872m-.383-3.872v3.872m1.532-3.872v3.872m-.766-3.872v3.872m-1.532-2.42h3.063m-3.063.968h3.063m-3.063.484h3.063m-3.063-1.936h3.063m-3.063.968h3.063m-2.68-1.936v3.872h2.298v-3.872h-2.298zm2.68.484h-3.063v2.904h3.063V19.36z" class="D E J K"/><path d="M35.994 18.876h3.063v3.872h-3.063z" class="L"/></g><path d="M29.867 18.876h3.063v3.872h-3.063z" class="F"/><path d="M30.637 22.748h1.532v-3.872h-1.532z" class="I"/><g class="C G"><path d="M31.782 18.876v3.872m-.766-3.872v3.872m-.383-3.872v3.872m1.532-3.872v3.872m-.766-3.872v3.872m-1.532-2.42h3.063m-3.063.968h3.063m-3.063.484h3.063m-3.063-1.936h3.063m-3.063.968h3.063m-2.68-1.936v3.872h2.298v-3.872H30.25zm2.68.484h-3.063v2.904h3.063V19.36z" class="D E J K"/><path d="M29.867 18.876h3.063v3.872h-3.063z" class="L"/></g><g class="B N"><path d="M23.894 18.403c.024 0 .048-.004.071-.011.047-.015.087-.053.112-.104a.33.33 0 0 0 .025-.08c.004-.029.007-.057.007-.087v-.708h-.118v.708a.29.29 0 0 1-.004.053c-.003.018-.009.035-.016.051s-.019.028-.032.036c-.027.016-.059.016-.087 0-.014-.008-.025-.02-.033-.036s-.013-.033-.016-.051a.29.29 0 0 1-.004-.053v-.708h-.118v.708a.45.45 0 0 0 .008.087c.01.057.035.108.072.145a.15.15 0 0 0 .064.039c.023.007.047.01.071.011z"/><path d="M24.502 18.211v-.208h.156v-.129h-.156v-.206h-.118v.206h-.156v.129h.156v.208h.118z"/><path d="M24.776 18.392h.43v-.129h-.305a.42.42 0 0 1 .093-.206.75.75 0 0 1 .075-.077c.027-.023.051-.05.073-.079a.33.33 0 0 0 .05-.101c.012-.037.018-.076.018-.116a.53.53 0 0 0-.012-.109c-.008-.036-.022-.069-.043-.096s-.046-.047-.075-.059c-.056-.021-.116-.022-.173-.004-.027.01-.051.027-.071.051s-.037.053-.047.085-.015.065-.015.098h.118c0-.021.004-.041.012-.061s.02-.034.036-.043c.03-.019.065-.02.095-.003.014.007.026.018.034.033a.17.17 0 0 1 .018.051.32.32 0 0 1 .004.056c-.001.071-.028.138-.073.182l-.069.065c-.046.043-.085.096-.117.154s-.048.128-.053.198l-.003.106v.001z"/><path d="M25.541 18.403c.026 0 .053-.005.078-.015s.049-.025.068-.047.035-.048.047-.077.019-.059.023-.091c.013-.094.005-.191-.022-.281-.012-.028-.028-.054-.046-.076s-.042-.038-.067-.048c-.04-.015-.083-.018-.124-.009-.016.002-.031.008-.046.016v-.233h.282v-.129h-.4v.59h.118c.001-.021.005-.041.012-.06s.018-.034.033-.044c.03-.022.068-.021.098.003a.14.14 0 0 1 .033.049.4.4 0 0 1 .018.126v.001c0 .021-.001.043-.003.064s-.008.043-.015.063c-.015.041-.049.067-.086.068-.014 0-.028-.004-.041-.011s-.025-.016-.034-.031-.015-.03-.019-.047a.2.2 0 0 1-.007-.051h-.118c.001.035.007.07.016.102s.024.065.045.091.044.045.071.057a.21.21 0 0 0 .086.017z"/><path d="M26.088 18.403c.029 0 .057-.004.084-.013a.18.18 0 0 0 .073-.047.21.21 0 0 0 .049-.083c.023-.065.022-.139-.002-.204-.012-.033-.029-.064-.049-.091s-.043-.05-.067-.072a.54.54 0 0 0 .059-.069.29.29 0 0 0 .043-.087c.02-.061.021-.13.001-.192s-.06-.109-.112-.13-.107-.019-.159 0c-.026.009-.05.026-.069.049a.23.23 0 0 0-.044.081.31.31 0 0 0 .002.192.29.29 0 0 0 .043.087.46.46 0 0 0 .058.069.61.61 0 0 0-.066.072.33.33 0 0 0-.05.091c-.023.065-.024.138-.002.204a.21.21 0 0 0 .049.083c.022.023.047.037.075.047a.26.26 0 0 0 .083.013zm0-.586c-.015-.015-.03-.031-.043-.049s-.024-.037-.032-.059c-.016-.039-.017-.084-.003-.124.007-.017.018-.031.032-.04s.03-.014.046-.013.032.004.046.013.025.023.032.04.01.038.01.057-.004.046-.012.067-.019.041-.033.059-.027.034-.043.049zm0 .457c-.018 0-.035-.004-.052-.012s-.031-.021-.039-.04-.014-.039-.014-.06a.18.18 0 0 1 .016-.076c.01-.023.023-.044.038-.063l.05-.051.05.051c.015.019.029.04.039.063a.18.18 0 0 1 .016.076c0 .021-.005.042-.014.06s-.023.033-.039.04-.035.012-.053.012z"/><path d="M26.635 18.403c.028 0 .056-.005.083-.015s.053-.026.073-.049.037-.052.047-.084a.35.35 0 0 0 .015-.1h-.118c0 .021-.004.042-.012.061s-.021.035-.037.044-.034.014-.052.013-.031-.004-.045-.012-.026-.02-.035-.035a.15.15 0 0 1-.018-.051c-.004-.018-.005-.036-.005-.055v-.438a.32.32 0 0 1 .005-.056.17.17 0 0 1 .018-.051c.009-.014.021-.026.035-.033s.029-.012.045-.012.035.004.052.013.029.024.037.043.012.041.012.063h.118c0-.034-.005-.068-.015-.1-.02-.066-.065-.116-.121-.134s-.104-.019-.156-.004-.089.05-.114.101c-.013.025-.022.053-.027.083s-.008.058-.008.088v.438c0 .029.002.059.008.088.011.058.037.109.076.145.02.018.042.03.066.037s.048.01.072.011z"/></g><path d="M23.74 18.876h3.063v3.872H23.74z" class="F"/><path d="M23.741 22.748v-3.872h1.532v3.872z" class="I"/><g class="C"><g class="G"><path d="M25.655 18.876v3.872m-.766-3.872v3.872m-.383-3.872v3.872m1.532-3.872v3.872m-.766-3.872v3.872m-1.532-2.42h3.063m-3.063.968h3.063m-3.063.484h3.063m-3.063-1.936h3.063m-3.063.968h3.063m-2.68-1.936v3.872h2.298v-3.872h-2.298zm2.68.484H23.74v2.904h3.063V19.36z" class="D E J K"/><path d="M23.74 18.876h3.063v3.872H23.74z" class="L"/></g><path d="M23.743 15.004H39.06" class="M R S"/></g><g class="B N"><path d="M30.027 18.403c.024 0 .048-.004.071-.011.047-.015.087-.053.112-.104a.33.33 0 0 0 .025-.08c.004-.029.007-.057.007-.087v-.708h-.118v.708a.29.29 0 0 1-.004.053c-.003.018-.009.035-.016.051s-.019.028-.032.036c-.027.016-.059.016-.087 0-.014-.008-.025-.02-.033-.036s-.013-.033-.016-.051a.29.29 0 0 1-.004-.053v-.708h-.118v.708a.45.45 0 0 0 .008.087c.01.057.035.108.072.145a.15.15 0 0 0 .064.039c.023.007.047.01.071.011z"/><path d="M30.635 18.211v-.208h.156v-.129h-.156v-.206h-.118v.206h-.156v.129h.156v.208h.118z"/><path d="M30.909 18.392h.43v-.129h-.305a.42.42 0 0 1 .093-.206.75.75 0 0 1 .075-.077c.027-.023.051-.05.073-.079a.33.33 0 0 0 .05-.101c.012-.037.018-.076.018-.116a.53.53 0 0 0-.012-.109c-.008-.036-.022-.069-.043-.096s-.046-.047-.075-.059c-.056-.021-.116-.022-.173-.004-.027.01-.051.027-.071.051s-.037.053-.047.085-.015.065-.015.098h.118c0-.021.004-.041.012-.061s.02-.034.036-.043c.03-.019.065-.02.095-.003.014.007.026.018.034.033a.17.17 0 0 1 .018.051.32.32 0 0 1 .004.056c-.001.071-.028.138-.073.182l-.069.065c-.046.043-.085.096-.117.154s-.048.128-.053.198l-.003.106v.001z"/><path d="M31.674 18.403c.026 0 .053-.005.078-.015s.049-.025.068-.047.035-.048.047-.077.019-.059.023-.091c.013-.094.005-.191-.022-.281-.012-.028-.028-.054-.046-.076s-.042-.038-.067-.048c-.04-.015-.083-.018-.124-.009-.016.002-.031.008-.046.016v-.233h.282v-.129h-.4v.59h.118c.001-.021.005-.041.012-.06s.018-.034.033-.044c.03-.022.068-.021.098.003a.14.14 0 0 1 .033.049.4.4 0 0 1 .018.126v.001c0 .021-.001.043-.003.064s-.008.043-.015.063c-.015.041-.049.067-.086.068-.014 0-.028-.004-.041-.011s-.025-.016-.034-.031-.015-.03-.019-.047a.2.2 0 0 1-.007-.051h-.118c.001.035.007.07.016.102s.024.065.045.091.044.045.071.057a.21.21 0 0 0 .086.017z"/><path d="M32.221 18.403c.024 0 .049-.004.072-.011s.047-.018.067-.035.036-.039.049-.064.022-.052.027-.081a.45.45 0 0 0 .008-.087v-.446c0-.03-.002-.059-.008-.088s-.015-.056-.027-.081c-.026-.05-.068-.086-.116-.098a.27.27 0 0 0-.144 0c-.024.006-.046.019-.066.036-.04.034-.068.086-.079.144-.005.029-.008.058-.008.088v.446a.45.45 0 0 0 .008.087c.005.029.015.057.029.081s.03.047.05.064.042.029.066.035.047.01.071.011zm0-.129c-.015 0-.03-.004-.044-.011s-.027-.019-.036-.033-.017-.031-.02-.049-.005-.036-.005-.055v-.052l.211-.204v.256c0 .018-.002.037-.004.055s-.01.035-.02.049-.022.026-.036.033-.03.01-.045.011zm-.105-.338v-.256a.32.32 0 0 1 .005-.056c.007-.037.028-.067.056-.083.014-.006.029-.01.044-.009s.031.003.045.009c.028.015.049.046.056.083l.004.056v.052l-.211.204z"/><use xlink:href="#b"/><path d="M36.15 18.403c.024 0 .048-.004.071-.011.047-.015.087-.053.112-.104a.33.33 0 0 0 .025-.08c.004-.029.007-.057.007-.087v-.708h-.118v.708a.29.29 0 0 1-.004.053c-.003.018-.009.035-.016.051s-.019.028-.032.036c-.027.016-.059.016-.087 0-.014-.008-.025-.02-.033-.036s-.013-.033-.016-.051a.29.29 0 0 1-.004-.053v-.708h-.118v.708a.45.45 0 0 0 .008.087c.01.057.035.108.072.145a.15.15 0 0 0 .064.039c.023.007.047.01.071.011z"/><path d="M36.757 18.211v-.208h.156v-.129h-.156v-.206h-.118v.206h-.156v.129h.156v.208h.118z"/><path d="M37.032 18.392h.43v-.129h-.305a.42.42 0 0 1 .093-.206.75.75 0 0 1 .075-.077c.027-.023.051-.05.073-.079a.33.33 0 0 0 .05-.101c.012-.037.018-.076.018-.116a.53.53 0 0 0-.012-.109c-.008-.036-.022-.069-.043-.096s-.046-.047-.075-.059c-.056-.021-.116-.022-.173-.004-.027.01-.051.027-.071.051s-.037.053-.047.085-.015.065-.015.098h.118c0-.021.004-.041.012-.061s.02-.034.036-.043c.03-.019.065-.02.095-.003.014.007.026.018.034.033a.17.17 0 0 1 .018.051.32.32 0 0 1 .004.056c-.001.071-.028.138-.073.182l-.069.065c-.046.043-.085.096-.117.154s-.048.128-.053.198l-.003.106v.001z"/><path d="M37.796 18.403c.026 0 .053-.005.078-.015s.049-.025.068-.047.035-.048.047-.077.019-.059.023-.091c.013-.094.005-.191-.022-.281-.012-.028-.028-.054-.046-.076s-.042-.038-.067-.048c-.04-.015-.083-.018-.124-.009-.016.002-.031.008-.046.016v-.233h.282v-.129h-.4v.59h.118c.001-.021.005-.041.012-.06s.018-.034.033-.044c.03-.022.068-.021.098.003a.14.14 0 0 1 .033.049.4.4 0 0 1 .018.126v.001c0 .021-.001.043-.003.064s-.008.043-.015.063c-.015.041-.049.067-.086.068-.014 0-.028-.004-.041-.011s-.025-.016-.034-.031-.015-.03-.019-.047a.2.2 0 0 1-.007-.051h-.118c.001.035.007.07.016.102s.024.065.045.091.044.045.071.057a.21.21 0 0 0 .086.017z"/><path d="M38.361 18.392l.099-.244.052-.126a.97.97 0 0 0 .042-.13.65.65 0 0 0-.013-.334c-.011-.031-.026-.059-.045-.084a.18.18 0 0 0-.069-.055c-.057-.023-.119-.021-.176.005-.03.014-.056.037-.076.068s-.034.067-.042.105a.61.61 0 0 0-.001.233c.007.038.021.074.042.104s.045.056.075.071c.043.021.089.028.135.019l-.015.033-.014.035-.122.301h.129zm-.018-.494c-.017 0-.035-.006-.049-.017s-.027-.026-.034-.045a.27.27 0 0 1-.016-.059.39.39 0 0 1 0-.125c.003-.021.009-.041.016-.06s.02-.034.035-.044c.031-.021.068-.021.099 0 .015.01.027.025.035.044.015.038.022.08.021.122a.39.39 0 0 1-.004.063.26.26 0 0 1-.016.06c-.017.038-.05.061-.086.061z"/><path d="M38.892 18.403c.024 0 .049-.004.072-.011s.047-.018.067-.035.036-.039.049-.064.022-.052.027-.081a.45.45 0 0 0 .008-.087v-.446c0-.03-.002-.059-.008-.088s-.015-.056-.027-.081c-.026-.05-.068-.086-.116-.098a.27.27 0 0 0-.144 0c-.024.006-.046.019-.066.036-.04.034-.068.086-.079.144-.005.029-.008.058-.008.088v.446a.45.45 0 0 0 .008.087c.005.029.015.057.029.081s.03.047.05.064.042.029.066.035.047.01.071.011zm0-.129c-.015 0-.03-.004-.044-.011s-.027-.019-.036-.033-.017-.031-.02-.049-.005-.036-.005-.055v-.052l.211-.204v.256c0 .018-.002.037-.004.055s-.01.035-.02.049-.022.026-.036.033-.03.01-.045.011zm-.105-.338v-.256a.32.32 0 0 1 .005-.056c.007-.037.028-.067.056-.083.014-.006.029-.01.044-.009s.031.003.045.009c.028.015.049.046.056.083l.004.056v.052l-.211.204z"/></g><g class="C D G M"><path d="M29.084 7.128l.504.045-.161-.605" class="H"/><path d="M29.588 7.173c-.285-.247-.75-.397-1.251-.397-.558 0-1.071.185-1.34.484"/><path d="M22.957 7.128l.504.045-.161-.605" class="H"/><path d="M23.461 7.173c-.285-.247-.75-.397-1.251-.397"/><path d="M35.211 7.128l.504.045-.161-.605" class="H"/><path d="M35.714 7.173c-.285-.247-.75-.397-1.251-.397-.558 0-1.071.185-1.34.484"/><path d="M40.063 7.141l.415-.363-.425-.344" class="H"/><path d="M40.477 6.778c-.513.023-.977.203-1.228.482"/></g><g class="B O"><path d="M29.187 2.178h.132l.19-.811h.014l.19.811h.131l.265-1.055h-.14l-.188.805h-.008l-.183-.805h-.144l-.185.807h-.01l-.188-.807h-.14l.265 1.055z"/><path d="M30.623 2.199c.177 0 .306-.106.348-.265l-.129-.045c-.035.11-.113.165-.219.165-.156 0-.265-.122-.271-.348h.632v-.07c0-.393-.191-.529-.373-.529-.236 0-.392.227-.392.552s.155.54.405.54zm-.271-.635c.01-.165.105-.31.258-.31.145 0 .238.132.238.31h-.496z"/><path d="M31.188 2.178h.134V1.123h-.134v1.055zm.067-1.231c.053 0 .096-.05.096-.11s-.044-.111-.096-.11-.092.049-.094.11.043.11.094.11z"/><path d="M31.917 2.596c.209 0 .377-.116.377-.387V1.123h-.129v.166h-.014c-.029-.054-.083-.182-.254-.182-.22 0-.372.213-.372.536 0 .331.16.517.37.517.169 0 .223-.12.254-.178h.011v.215c0 .176-.102.256-.243.256-.158 0-.214-.101-.249-.159l-.107.091a.37.37 0 0 0 .356.211zm-.005-.581c-.168 0-.254-.153-.254-.374 0-.215.085-.387.254-.387.163 0 .249.159.249.387 0 .234-.088.374-.249.374zm.761-.472c0-.184.096-.288.228-.288.126 0 .201.095.201.263v.66h.134v-.672c0-.271-.118-.399-.297-.399-.137 0-.215.07-.255.18h-.011V.771h-.134v1.407h.134v-.635z"/><use xlink:href="#c"/></g><path d="M35.994 9.196V5.324h3.063v3.872z" class="F"/><path d="M39.058 9.196V7.26h-3.063v1.936z" class="I"/><g class="C"><use xlink:href="#d" transform="matrix(0 -.121 .09573 0 35.994 9.196)" class="D E J K P"/><path d="M0 0h64v64H0z" transform="matrix(0 -.0605 .04786 0 35.994 9.196)" class="L Q"/></g><path d="M29.867 9.196V5.324h3.063v3.872z" class="F"/><path d="M32.931 9.175V7.723h-3.063v1.452z" class="I"/><g class="C"><use xlink:href="#d" transform="matrix(0 -.121 .09573 0 29.867 9.196)" class="D E J K P"/><path d="M0 0h64v64H0z" transform="matrix(0 -.0605 .04786 0 29.867 9.196)" class="L Q"/></g><g class="B N"><path d="M23.894 4.851c.024 0 .048-.004.071-.011.047-.015.087-.053.112-.104a.33.33 0 0 0 .025-.08c.004-.029.007-.057.007-.087v-.708h-.118v.708a.29.29 0 0 1-.004.053c-.003.018-.009.035-.016.051s-.019.028-.032.036c-.027.016-.059.016-.087 0-.014-.008-.025-.02-.033-.036s-.013-.033-.016-.051a.29.29 0 0 1-.004-.053v-.708h-.118v.708a.45.45 0 0 0 .008.087c.01.057.035.108.072.145a.15.15 0 0 0 .064.039c.023.007.047.01.071.011z"/><path d="M24.502 4.659v-.208h.156v-.129h-.156v-.206h-.118v.206h-.156v.129h.156v.208h.118z"/><path d="M24.776 4.84h.43v-.129h-.305a.42.42 0 0 1 .093-.206.75.75 0 0 1 .075-.077c.027-.023.051-.05.073-.079a.33.33 0 0 0 .05-.101c.012-.037.018-.076.018-.116a.53.53 0 0 0-.012-.109c-.008-.036-.022-.069-.043-.096s-.046-.047-.075-.059c-.056-.021-.116-.022-.173-.004-.027.01-.051.027-.071.051s-.037.053-.047.085-.015.065-.015.098h.118c0-.021.004-.041.012-.061s.02-.034.036-.043c.03-.019.065-.02.095-.003.014.007.026.018.034.033a.17.17 0 0 1 .018.051.32.32 0 0 1 .004.056c-.001.071-.028.138-.073.182l-.069.065c-.046.043-.085.096-.117.154s-.048.128-.053.198l-.003.106v.001z"/><path d="M25.541 4.851c.026 0 .053-.005.078-.015s.049-.025.068-.047.035-.048.047-.077.019-.059.023-.091c.013-.094.005-.191-.022-.281-.012-.028-.028-.054-.046-.076s-.042-.038-.067-.048c-.04-.015-.083-.018-.124-.009-.016.002-.031.008-.046.016v-.233h.282v-.129h-.4v.59h.118c.001-.021.005-.041.012-.06s.018-.034.033-.044c.03-.022.068-.021.098.003a.14.14 0 0 1 .033.049.4.4 0 0 1 .018.126v.001c0 .021-.001.043-.003.064s-.008.043-.015.063c-.015.041-.049.067-.086.068-.014 0-.028-.004-.041-.011s-.025-.016-.034-.031-.015-.03-.019-.047a.2.2 0 0 1-.007-.051h-.118c.001.035.007.07.016.102s.024.065.045.091.044.045.071.057a.21.21 0 0 0 .086.017z"/><path d="M26.088 4.851c.029 0 .057-.004.084-.013a.18.18 0 0 0 .073-.047.21.21 0 0 0 .049-.083c.023-.065.022-.139-.002-.204-.012-.033-.029-.064-.049-.091s-.043-.05-.067-.072a.54.54 0 0 0 .059-.069.29.29 0 0 0 .043-.087c.02-.061.021-.13.001-.192s-.06-.109-.112-.13-.107-.019-.159 0c-.026.009-.05.026-.069.049a.23.23 0 0 0-.044.081.31.31 0 0 0 .002.192.29.29 0 0 0 .043.087.46.46 0 0 0 .058.069.61.61 0 0 0-.066.072.33.33 0 0 0-.05.091c-.023.065-.024.138-.002.204a.21.21 0 0 0 .049.083c.022.023.047.037.075.047a.26.26 0 0 0 .083.013zm0-.586c-.015-.015-.03-.031-.043-.049s-.024-.037-.032-.059c-.016-.039-.017-.084-.003-.124.007-.017.018-.031.032-.04s.03-.014.046-.013.032.004.046.013.025.023.032.04.01.038.01.057-.004.046-.012.067-.019.041-.033.059-.027.034-.043.049zm0 .457c-.018 0-.035-.004-.052-.012s-.031-.021-.039-.04-.014-.039-.014-.06a.18.18 0 0 1 .016-.076c.01-.023.023-.044.038-.063l.05-.051.05.051c.015.019.029.04.039.063a.18.18 0 0 1 .016.076c0 .021-.005.042-.014.06s-.023.033-.039.04-.035.012-.053.012z"/><path d="M26.422 4.84h.43v-.129h-.305a.42.42 0 0 1 .093-.206.75.75 0 0 1 .075-.077c.027-.023.051-.05.073-.079a.33.33 0 0 0 .05-.101c.012-.037.018-.076.018-.116a.53.53 0 0 0-.012-.109c-.008-.036-.022-.069-.043-.096s-.046-.047-.075-.059c-.056-.021-.116-.022-.173-.004-.027.01-.051.027-.071.051s-.037.053-.047.085-.015.065-.015.098h.118c0-.021.004-.041.012-.061s.02-.034.036-.043c.03-.019.065-.02.095-.003.014.007.026.018.034.033a.17.17 0 0 1 .018.051.32.32 0 0 1 .004.056c-.001.071-.028.138-.073.182l-.069.065c-.046.043-.085.096-.117.154s-.048.128-.053.198l-.003.106v.001z"/></g><path d="M23.74 9.196V5.324h3.063v3.872z" class="F"/><path d="M26.804 9.196h-3.063v-.968h3.063z" class="I"/><g class="C"><use xlink:href="#d" transform="matrix(0 -.121 .09573 0 23.74 9.196)" class="D E J K P"/><path d="M0 0h64v64H0z" transform="matrix(0 -.0605 .04786 0 23.74 9.196)" class="L Q"/><path d="M23.743 2.904H39.06" class="M R S"/></g><g class="B N"><path d="M30.027 4.851c.024 0 .048-.004.071-.011.047-.015.087-.053.112-.104a.33.33 0 0 0 .025-.08c.004-.029.007-.057.007-.087v-.708h-.118v.708a.29.29 0 0 1-.004.053c-.003.018-.009.035-.016.051s-.019.028-.032.036c-.027.016-.059.016-.087 0-.014-.008-.025-.02-.033-.036s-.013-.033-.016-.051a.29.29 0 0 1-.004-.053v-.708h-.118v.708a.45.45 0 0 0 .008.087c.01.057.035.108.072.145a.15.15 0 0 0 .064.039c.023.007.047.01.071.011z"/><path d="M30.635 4.659v-.208h.156v-.129h-.156v-.206h-.118v.206h-.156v.129h.156v.208h.118z"/><path d="M30.909 4.84h.43v-.129h-.305a.42.42 0 0 1 .093-.206.75.75 0 0 1 .075-.077c.027-.023.051-.05.073-.079a.33.33 0 0 0 .05-.101c.012-.037.018-.076.018-.116a.53.53 0 0 0-.012-.109c-.008-.036-.022-.069-.043-.096s-.046-.047-.075-.059c-.056-.021-.116-.022-.173-.004-.027.01-.051.027-.071.051s-.037.053-.047.085-.015.065-.015.098h.118c0-.021.004-.041.012-.061s.02-.034.036-.043c.03-.019.065-.02.095-.003.014.007.026.018.034.033a.17.17 0 0 1 .018.051.32.32 0 0 1 .004.056c-.001.071-.028.138-.073.182l-.069.065c-.046.043-.085.096-.117.154s-.048.128-.053.198l-.003.106v.001z"/><path d="M31.674 4.851c.026 0 .053-.005.078-.015s.049-.025.068-.047.035-.048.047-.077.019-.059.023-.091c.013-.094.005-.191-.022-.281-.012-.028-.028-.054-.046-.076s-.042-.038-.067-.048c-.04-.015-.083-.018-.124-.009-.016.002-.031.008-.046.016v-.233h.282v-.129h-.4v.59h.118c.001-.021.005-.041.012-.06s.018-.034.033-.044c.03-.022.068-.021.098.003a.14.14 0 0 1 .033.049.4.4 0 0 1 .018.126v.001c0 .021-.001.043-.003.064s-.008.043-.015.063c-.015.041-.049.067-.086.068-.014 0-.028-.004-.041-.011s-.025-.016-.034-.031-.015-.03-.019-.047a.2.2 0 0 1-.007-.051h-.118c.001.035.007.07.016.102s.024.065.045.091.044.045.071.057a.21.21 0 0 0 .086.017z"/><path d="M32.221 4.851c.029 0 .057-.004.084-.013a.18.18 0 0 0 .073-.047.21.21 0 0 0 .049-.083c.023-.065.022-.139-.002-.204-.012-.033-.029-.064-.049-.091s-.043-.05-.067-.072a.54.54 0 0 0 .059-.069.29.29 0 0 0 .043-.087c.02-.061.021-.13.001-.192s-.06-.109-.112-.13-.107-.019-.159 0c-.026.009-.05.026-.069.049a.23.23 0 0 0-.044.081.31.31 0 0 0 .002.192.29.29 0 0 0 .043.087.46.46 0 0 0 .058.069.61.61 0 0 0-.066.072.33.33 0 0 0-.05.091c-.023.065-.024.138-.002.204a.21.21 0 0 0 .049.083c.022.023.047.037.075.047a.26.26 0 0 0 .083.013zm0-.586c-.015-.015-.03-.031-.043-.049s-.024-.037-.032-.059c-.016-.039-.017-.084-.003-.124.007-.017.018-.031.032-.04s.03-.014.046-.013.032.004.046.013.025.023.032.04.01.038.01.057-.004.046-.012.067-.019.041-.033.059-.027.034-.043.049zm0 .457c-.018 0-.035-.004-.052-.012s-.031-.021-.039-.04-.014-.039-.014-.06a.18.18 0 0 1 .016-.076c.01-.023.023-.044.038-.063l.05-.051.05.051c.015.019.029.04.039.063a.18.18 0 0 1 .016.076c0 .021-.005.042-.014.06s-.023.033-.039.04-.035.012-.053.012z"/><path d="M32.772 4.851c.03 0 .061-.005.09-.016s.056-.03.077-.056a.26.26 0 0 0 .048-.092c.01-.035.017-.071.016-.108a.3.3 0 0 0-.065-.188c-.021-.024-.045-.043-.071-.056.048-.028.085-.076.104-.136a.34.34 0 0 0-.001-.192.25.25 0 0 0-.044-.088c-.019-.025-.043-.043-.07-.053a.23.23 0 0 0-.165-.003c-.054.021-.096.07-.115.134-.01.031-.015.064-.015.097h.118c0-.02.003-.04.011-.06s.019-.033.034-.041.031-.015.048-.015c.036-.001.07.025.084.065.006.02.01.042.01.064.001.052-.02.101-.055.13-.017.015-.037.024-.058.028a.31.31 0 0 1-.061.005v.129a.39.39 0 0 1 .068.005c.045.007.084.04.106.088s.024.106.005.156c-.009.022-.023.041-.041.053-.035.022-.077.023-.113.004a.09.09 0 0 1-.041-.044c-.01-.019-.015-.041-.015-.064h-.118a.32.32 0 0 0 .016.102c.011.033.029.061.052.084s.047.04.075.049.057.014.086.015zm3.378 0c.024 0 .048-.004.071-.011.047-.015.087-.053.112-.104a.33.33 0 0 0 .025-.08c.004-.029.007-.057.007-.087v-.708h-.118v.708a.29.29 0 0 1-.004.053c-.003.018-.009.035-.016.051s-.019.028-.032.036c-.027.016-.059.016-.087 0-.014-.008-.025-.02-.033-.036s-.013-.033-.016-.051a.29.29 0 0 1-.004-.053v-.708h-.118v.708a.45.45 0 0 0 .008.087.27.27 0 0 0 .072.145.15.15 0 0 0 .064.039c.023.007.047.01.071.011z"/><path d="M36.757 4.659v-.208h.156v-.129h-.156v-.206h-.118v.206h-.156v.129h.156v.208h.118z"/><path d="M37.032 4.84h.43v-.129h-.305a.42.42 0 0 1 .093-.206.75.75 0 0 1 .075-.077c.027-.023.051-.05.073-.079a.33.33 0 0 0 .05-.101c.012-.037.018-.076.018-.116a.53.53 0 0 0-.012-.109c-.008-.036-.022-.069-.043-.096s-.046-.047-.075-.059c-.056-.021-.116-.022-.173-.004-.027.01-.051.027-.071.051s-.037.053-.047.085-.015.065-.015.098h.118c0-.021.004-.041.012-.061s.02-.034.036-.043c.03-.019.065-.02.095-.003.014.007.026.018.034.033a.17.17 0 0 1 .018.051.32.32 0 0 1 .004.056c-.001.071-.028.138-.073.182l-.069.065c-.046.043-.085.096-.117.154s-.048.128-.053.198l-.003.106v.001z"/><path d="M37.796 4.851c.026 0 .053-.005.078-.015s.049-.025.068-.047.035-.048.047-.077.019-.059.023-.091c.013-.094.005-.191-.022-.281-.012-.028-.028-.054-.046-.076s-.042-.038-.067-.048c-.04-.015-.083-.018-.124-.009-.016.002-.031.008-.046.016v-.233h.282v-.129h-.4v.59h.118c.001-.021.005-.041.012-.06s.018-.034.033-.044c.03-.022.068-.021.098.003a.14.14 0 0 1 .033.049.4.4 0 0 1 .018.126v.001c0 .021-.001.043-.003.064s-.008.043-.015.063c-.015.041-.049.067-.086.068-.014 0-.028-.004-.041-.011s-.025-.016-.034-.031-.015-.03-.019-.047a.2.2 0 0 1-.007-.051h-.118c.001.035.007.07.016.102s.024.065.045.091.044.045.071.057a.21.21 0 0 0 .086.017z"/><path d="M38.344 4.851c.029 0 .057-.004.084-.013a.18.18 0 0 0 .073-.047.21.21 0 0 0 .049-.083c.023-.065.022-.139-.002-.204-.012-.033-.029-.064-.049-.091s-.043-.05-.067-.072a.54.54 0 0 0 .059-.069.29.29 0 0 0 .043-.087c.02-.061.021-.13.001-.192s-.06-.109-.112-.13-.107-.019-.159 0c-.026.009-.05.026-.069.049a.23.23 0 0 0-.044.081.31.31 0 0 0 .002.192.29.29 0 0 0 .043.087.46.46 0 0 0 .058.069.61.61 0 0 0-.066.072.33.33 0 0 0-.05.091c-.023.065-.024.138-.002.204a.21.21 0 0 0 .049.083c.022.023.047.037.075.047a.26.26 0 0 0 .083.013zm0-.586c-.015-.015-.03-.031-.043-.049s-.024-.037-.032-.059c-.016-.039-.017-.084-.003-.124.007-.017.018-.031.032-.04s.03-.014.046-.013.032.004.046.013.025.023.032.04.01.038.01.057-.004.046-.012.067-.019.041-.033.059-.027.034-.043.049zm0 .457c-.018 0-.035-.004-.052-.012s-.031-.021-.039-.04-.014-.039-.014-.06a.18.18 0 0 1 .016-.076c.01-.023.023-.044.038-.063l.05-.051.05.051c.015.019.029.04.039.063a.18.18 0 0 1 .016.076c0 .021-.005.042-.014.06s-.023.033-.039.04-.035.012-.053.012z"/><path d="M38.796 4.449l.118-.321v.321h-.118zm.118.391h.118v-.262h.075v-.129h-.075v-.587h-.148l-.216.587v.129h.246v.262z"/></g><g class="C D G M"><path d="M15.78 11.034l.448.294.042-.636" class="H"/><path d="M16.229 11.328c-.853-1.916-2.294-3.302-3.982-3.833"/></g><g class="B O"><path d="M9.74 1.123h-.187V.869h-.132v.254h-.132v.137h.132v.658c0 .186.121.273.235.273a.24.24 0 0 0 .101-.019l-.027-.145c-.011.002-.03.008-.059.008-.059 0-.116-.021-.116-.159V1.26h.187v-.137zm.75.623a.31.31 0 0 1-.061.202c-.042.054-.101.086-.162.087-.112 0-.19-.099-.19-.254v-.658h-.134v.67c0 .269.118.399.281.399.11.005.212-.07.258-.192h.008v.178h.134V1.123h-.134v.623zm.379.432h.134V1.51c0-.143.093-.248.219-.248.037 0 .073.008.081.012v-.166l-.07-.002c-.098-.004-.188.066-.227.176h-.008v-.159h-.129v1.055z"/><path d="M11.597 1.543c0-.184.093-.288.222-.288.123 0 .199.099.199.263v.66h.134v-.672c0-.269-.12-.399-.295-.399-.132 0-.214.072-.254.18h-.011v-.165h-.129v1.055h.134v-.635z"/></g><path d="M3.064 13.31h3.063v3.872H3.064z" class="F"/><path d="M3.065 17.182V13.31h1.532v3.872z" class="I"/><g class="C G"><path d="M4.979 13.31v3.872m-.766-3.872v3.872M3.83 13.31v3.872m1.532-3.872v3.872m-.766-3.872v3.872m-1.532-2.42h3.063m-3.063.968h3.063m-3.063.484h3.063m-3.063-1.936h3.063m-3.063.968h3.063m-2.68-1.936v3.872h2.298V13.31H3.447zm2.68.484H3.064v2.904h3.063v-2.904z" class="D E J K"/><path d="M3.064 13.31h3.063v3.872H3.064z" class="L"/></g><path d="M15.317 13.31h3.063v3.872h-3.063z" class="F"/><path d="M16.849 17.182V13.31h1.532v3.872z" class="I"/><g class="C G"><path d="M17.232 13.31v3.872m-.766-3.872v3.872m-.383-3.872v3.872m1.532-3.872v3.872m-.766-3.872v3.872m-1.532-2.42h3.063m-3.063.968h3.063m-3.063.484h3.063m-3.063-1.936h3.063m-3.063.968h3.063M15.7 13.31v3.872h2.298V13.31H15.7zm2.68.484h-3.063v2.904h3.063v-2.904z" class="D E J K"/><path d="M15.317 13.31h3.063v3.872h-3.063z" class="L"/></g><path d="M9.19 24.926v-3.872h3.063v3.872z" class="F"/><path d="M12.254 24.926H9.191V22.99h3.063z" class="I"/><g class="C"><use xlink:href="#d" transform="matrix(0 -.121 .09573 0 9.19 24.926)" class="D E J K P"/><path d="M0 0h64v64H0z" transform="matrix(0 -.0605 .04786 0 9.19 24.926)" class="L Q"/></g><path d="M9.19 9.196V5.324h3.063v3.872z" class="F"/><path d="M12.254 7.26H9.191V5.324h3.063z" class="I"/><g class="C"><use xlink:href="#d" transform="matrix(0 -.121 .09573 0 9.19 9.196)" class="D E J K P"/><path d="M0 0h64v64H0z" transform="matrix(0 -.0605 .04786 0 9.19 9.196)" class="L Q"/><path d="M3.066 2.904h15.317" class="M R S"/></g><g class="B N"><path d="M9.351 20.581c.024 0 .048-.004.071-.011.047-.015.087-.053.112-.104a.33.33 0 0 0 .025-.08c.004-.029.007-.057.007-.087v-.708h-.118v.708a.29.29 0 0 1-.004.053c-.003.018-.009.035-.016.051s-.019.028-.032.036c-.027.016-.059.016-.087 0-.014-.008-.025-.02-.033-.036s-.013-.033-.016-.051a.29.29 0 0 1-.004-.053v-.708h-.118v.708a.45.45 0 0 0 .008.087c.01.057.035.108.072.145a.15.15 0 0 0 .064.039c.023.007.047.01.071.011z"/><path d="M9.958 20.389v-.208h.156v-.129h-.156v-.206H9.84v.206h-.156v.129h.156v.208h.118z"/><path d="M10.233 20.57h.43v-.129h-.305a.42.42 0 0 1 .093-.206.75.75 0 0 1 .075-.077c.027-.023.051-.05.073-.079a.33.33 0 0 0 .05-.101c.012-.037.018-.076.018-.116a.53.53 0 0 0-.012-.109c-.008-.036-.022-.069-.043-.096s-.046-.047-.075-.059c-.056-.021-.116-.022-.173-.004-.027.01-.051.027-.071.051s-.037.053-.047.085-.015.065-.015.098h.118c0-.021.004-.041.012-.061s.02-.034.036-.043c.03-.019.065-.02.095-.003.014.007.026.018.034.033a.17.17 0 0 1 .018.051.32.32 0 0 1 .004.056c-.001.071-.028.138-.073.182l-.069.065c-.046.043-.085.096-.117.154s-.048.128-.053.198l-.003.106v.001z"/><path d="M10.997 20.581c.026 0 .053-.005.078-.015s.049-.025.068-.047.035-.048.047-.077.019-.059.023-.091c.013-.094.005-.191-.022-.281-.012-.028-.028-.054-.046-.076s-.042-.038-.067-.048c-.04-.015-.083-.018-.124-.009-.016.002-.031.008-.046.016v-.233h.282v-.129h-.4v.59h.118c.001-.021.005-.041.012-.06s.018-.034.033-.044c.03-.022.068-.021.098.003a.14.14 0 0 1 .033.049.4.4 0 0 1 .018.126v.001c0 .021-.001.043-.003.064s-.008.043-.015.063c-.015.041-.049.067-.086.068-.014 0-.028-.004-.041-.011s-.025-.016-.034-.031-.015-.03-.019-.047a.2.2 0 0 1-.007-.051h-.118c.001.035.007.07.016.102s.024.065.045.091.044.045.071.057a.21.21 0 0 0 .086.017z"/><path d="M11.544 20.581c.029 0 .057-.004.084-.013a.18.18 0 0 0 .073-.047.21.21 0 0 0 .049-.083c.023-.065.022-.139-.002-.204-.012-.033-.029-.064-.049-.091s-.043-.05-.067-.072a.54.54 0 0 0 .059-.069.29.29 0 0 0 .043-.087c.02-.061.021-.13.001-.192s-.06-.109-.112-.13-.107-.019-.159 0c-.026.009-.05.026-.069.049a.23.23 0 0 0-.044.081.31.31 0 0 0 .002.192.29.29 0 0 0 .043.087.46.46 0 0 0 .058.069.61.61 0 0 0-.066.072.33.33 0 0 0-.05.091c-.023.065-.024.138-.002.204a.21.21 0 0 0 .049.083c.022.023.047.037.075.047a.26.26 0 0 0 .083.013zm0-.586c-.015-.015-.03-.031-.043-.049s-.024-.037-.032-.059c-.016-.039-.017-.084-.003-.124.007-.017.018-.031.032-.04s.03-.014.046-.013.032.004.046.013.025.023.032.04.01.038.01.057-.004.046-.012.067-.019.041-.033.059-.027.034-.043.049zm0 .457c-.018 0-.035-.004-.052-.012s-.031-.021-.039-.04-.014-.039-.014-.06a.18.18 0 0 1 .016-.076c.01-.023.023-.044.038-.063l.05-.051.05.051c.015.019.029.04.039.063a.18.18 0 0 1 .016.076c0 .021-.005.042-.014.06s-.023.033-.039.04-.035.012-.053.012z"/><path d="M11.998 20.179l.118-.321v.321h-.118zm.118.391h.118v-.262h.075v-.129h-.075v-.587h-.148l-.216.587v.129h.246v.262zM9.155 4.851c.024 0 .048-.004.071-.011.047-.015.087-.053.112-.104a.33.33 0 0 0 .025-.08c.004-.029.007-.057.007-.087v-.708h-.118v.708a.29.29 0 0 1-.004.053c-.003.018-.009.035-.016.051s-.019.028-.032.036c-.027.016-.059.016-.087 0-.014-.008-.025-.02-.033-.036s-.013-.033-.016-.051a.29.29 0 0 1-.004-.053v-.708h-.12v.708a.45.45 0 0 0 .008.087.27.27 0 0 0 .072.145.15.15 0 0 0 .064.039c.023.007.047.01.071.011z"/><path d="M9.763 4.659v-.208h.156v-.129h-.156v-.206h-.118v.206h-.156v.129h.156v.208h.118z"/><path d="M10.037 4.84h.43v-.129h-.305a.42.42 0 0 1 .093-.206.75.75 0 0 1 .075-.077c.027-.023.051-.05.073-.079a.33.33 0 0 0 .05-.101c.012-.037.018-.076.018-.116a.53.53 0 0 0-.012-.109c-.008-.036-.022-.069-.043-.096s-.046-.047-.075-.059c-.056-.021-.116-.022-.173-.004-.027.01-.051.027-.071.051s-.037.053-.047.085-.015.065-.015.098h.118c0-.021.004-.041.012-.061s.02-.034.036-.043c.03-.019.065-.02.095-.003.014.007.026.018.034.033a.17.17 0 0 1 .018.051.32.32 0 0 1 .004.056c-.001.071-.028.138-.073.182l-.069.065c-.046.043-.085.096-.117.154s-.048.128-.053.198l-.003.106v.001z"/><path d="M10.801 4.851c.026 0 .053-.005.078-.015s.049-.025.068-.047.035-.048.047-.077.019-.059.023-.091c.013-.094.005-.191-.022-.281-.012-.028-.028-.054-.046-.076s-.042-.038-.067-.048c-.04-.015-.083-.018-.124-.009-.016.002-.031.008-.046.016v-.233h.282v-.129h-.4v.59h.118c.001-.021.005-.041.012-.06s.018-.034.033-.044c.03-.022.068-.021.098.003a.14.14 0 0 1 .033.049.4.4 0 0 1 .018.126v.001c0 .021-.001.043-.003.064s-.008.043-.015.063c-.015.041-.049.067-.086.068-.014 0-.028-.004-.041-.011s-.025-.016-.034-.031-.015-.03-.019-.047a.2.2 0 0 1-.007-.051h-.118c.001.035.007.07.016.102s.024.065.045.091.044.045.071.057a.21.21 0 0 0 .086.017z"/><path d="M11.349 4.851c.029 0 .057-.004.084-.013a.18.18 0 0 0 .073-.047.21.21 0 0 0 .049-.083c.023-.065.022-.139-.002-.204-.012-.033-.029-.064-.049-.091s-.043-.05-.067-.072a.54.54 0 0 0 .059-.069.29.29 0 0 0 .043-.087c.02-.061.021-.13.001-.192s-.06-.109-.112-.13-.107-.019-.159 0c-.026.009-.05.026-.069.049a.23.23 0 0 0-.044.081.31.31 0 0 0 .002.192.29.29 0 0 0 .043.087.46.46 0 0 0 .058.069.61.61 0 0 0-.066.072.33.33 0 0 0-.05.091c-.023.065-.024.138-.002.204a.21.21 0 0 0 .049.083c.022.023.047.037.075.047a.26.26 0 0 0 .083.013zm0-.586c-.015-.015-.03-.031-.043-.049s-.024-.037-.032-.059c-.016-.039-.017-.084-.003-.124.007-.017.018-.031.032-.04s.03-.014.046-.013.032.004.046.013.025.023.032.04.01.038.01.057-.004.046-.012.067-.019.041-.033.059-.027.034-.043.049zm0 .457c-.018 0-.035-.004-.052-.012s-.031-.021-.039-.04-.014-.039-.014-.06a.18.18 0 0 1 .016-.076c.01-.023.023-.044.038-.063l.05-.051.05.051c.015.019.029.04.039.063a.18.18 0 0 1 .016.076c0 .021-.005.042-.014.06s-.023.033-.039.04-.035.012-.053.012z"/><path d="M11.897 4.851c.024 0 .049-.004.072-.011s.047-.018.067-.035a.21.21 0 0 0 .049-.064c.013-.025.022-.052.027-.081a.45.45 0 0 0 .008-.087v-.446a.43.43 0 0 0-.008-.088.35.35 0 0 0-.027-.081c-.026-.05-.068-.086-.116-.098a.27.27 0 0 0-.144 0c-.024.006-.046.019-.066.036a.25.25 0 0 0-.079.144c-.005.029-.008.058-.008.088v.446a.45.45 0 0 0 .008.087c.005.029.015.057.029.081s.03.047.05.064.042.029.066.035a.35.35 0 0 0 .071.011zm0-.129c-.015 0-.03-.004-.044-.011s-.027-.019-.036-.033-.017-.031-.02-.049a.33.33 0 0 1-.005-.055v-.052l.211-.204v.256a.51.51 0 0 1-.004.055c-.002.018-.01.035-.02.049s-.022.026-.036.033-.03.01-.045.011zm-.105-.338v-.256a.32.32 0 0 1 .005-.056.12.12 0 0 1 .056-.083c.014-.006.029-.01.044-.009s.031.003.045.009c.028.015.049.046.056.083l.004.056v.052l-.211.204zm-8.574 8.453c.024 0 .048-.004.071-.011.047-.015.087-.053.112-.104a.33.33 0 0 0 .025-.08c.004-.029.007-.057.007-.087v-.708h-.118v.708a.29.29 0 0 1-.004.053c-.003.018-.009.035-.016.051s-.019.028-.032.036c-.027.016-.059.016-.087 0-.014-.008-.025-.02-.033-.036s-.013-.033-.016-.051a.29.29 0 0 1-.004-.053v-.708h-.118v.708a.45.45 0 0 0 .008.087.27.27 0 0 0 .072.145.15.15 0 0 0 .064.039c.023.007.047.01.071.011z"/><path d="M3.825 12.645v-.208h.156v-.129h-.156v-.206h-.118v.206h-.156v.129h.156v.208h.118z"/><path d="M4.099 12.826h.43v-.129h-.305a.42.42 0 0 1 .093-.206.75.75 0 0 1 .075-.077c.027-.023.051-.05.073-.079a.33.33 0 0 0 .05-.101c.012-.037.018-.076.018-.116a.53.53 0 0 0-.012-.109c-.008-.036-.022-.069-.043-.096s-.046-.047-.075-.059c-.056-.021-.116-.022-.173-.004-.027.01-.051.027-.071.051s-.037.053-.047.085-.015.065-.015.098h.118c0-.021.004-.041.012-.061s.02-.034.036-.043c.03-.019.065-.02.095-.003.014.007.026.018.034.033a.17.17 0 0 1 .018.051.32.32 0 0 1 .004.056c-.001.071-.028.138-.073.182l-.069.065c-.046.043-.085.096-.117.154s-.048.128-.053.198l-.003.106v.001z"/><path d="M4.865 12.837c.026 0 .053-.005.078-.015s.049-.025.068-.047.035-.048.047-.077.019-.059.023-.091c.013-.094.005-.191-.022-.281-.012-.028-.028-.054-.046-.076s-.042-.038-.067-.048c-.04-.015-.083-.018-.124-.009-.016.002-.031.008-.046.016v-.233h.282v-.129h-.4v.59h.118c.001-.021.005-.041.012-.06s.018-.034.033-.044c.03-.022.068-.021.098.003a.14.14 0 0 1 .033.049.4.4 0 0 1 .018.126v.001c0 .021-.001.043-.003.064s-.008.043-.015.063c-.015.041-.049.067-.086.068-.014 0-.028-.004-.041-.011s-.025-.016-.034-.031-.015-.03-.019-.047a.2.2 0 0 1-.007-.051h-.118c.001.035.007.07.016.102s.024.065.045.091.044.045.071.057a.21.21 0 0 0 .086.017z"/><path d="M5.412 12.837c.029 0 .057-.004.084-.013a.18.18 0 0 0 .073-.047.21.21 0 0 0 .049-.083c.023-.065.022-.139-.002-.204-.012-.033-.029-.064-.049-.091s-.043-.05-.067-.072a.54.54 0 0 0 .059-.069.29.29 0 0 0 .043-.087c.02-.061.021-.13.001-.192s-.06-.109-.112-.13-.107-.019-.159 0c-.026.009-.05.026-.069.049a.23.23 0 0 0-.044.081.31.31 0 0 0 .002.192.29.29 0 0 0 .043.087.46.46 0 0 0 .058.069.61.61 0 0 0-.066.072.33.33 0 0 0-.05.091c-.023.065-.024.138-.002.204a.21.21 0 0 0 .049.083c.022.023.047.037.075.047a.26.26 0 0 0 .083.013zm0-.586c-.015-.015-.03-.031-.043-.049s-.024-.037-.032-.059c-.016-.039-.017-.084-.003-.124.007-.017.018-.031.032-.04s.03-.014.046-.013.032.004.046.013.025.023.032.04.01.038.01.057-.004.046-.012.067-.019.041-.033.059-.027.034-.043.049zm0 .457c-.018 0-.035-.004-.052-.012s-.031-.021-.039-.04-.014-.039-.014-.06a.18.18 0 0 1 .016-.076c.01-.023.023-.044.038-.063l.05-.051.05.051c.015.019.029.04.039.063a.18.18 0 0 1 .016.076c0 .021-.005.042-.014.06s-.023.033-.039.04-.035.012-.053.012z"/><path d="M5.958 12.837c.028 0 .056-.005.083-.015s.053-.026.073-.049.037-.052.047-.084a.35.35 0 0 0 .015-.1h-.118c0 .021-.004.042-.012.061a.09.09 0 0 1-.037.044c-.016.009-.034.014-.052.013s-.031-.004-.045-.012-.026-.02-.035-.035a.15.15 0 0 1-.018-.051.25.25 0 0 1-.005-.055v-.438a.32.32 0 0 1 .005-.056.17.17 0 0 1 .018-.051c.009-.014.021-.026.035-.033s.029-.012.045-.012.035.004.052.013.029.024.037.043.012.041.012.063h.118c0-.034-.005-.068-.015-.1-.02-.066-.065-.116-.121-.134s-.104-.019-.156-.004-.089.05-.114.101a.28.28 0 0 0-.027.083c-.005.03-.008.058-.008.088v.438c0 .029.002.059.008.088.011.058.037.109.076.145.02.018.042.03.066.037a.3.3 0 0 0 .072.011zm9.516 0c.024 0 .048-.004.071-.011.047-.015.087-.053.112-.104a.33.33 0 0 0 .025-.08c.004-.029.007-.057.007-.087v-.708h-.118v.708a.29.29 0 0 1-.004.053c-.003.018-.009.035-.016.051s-.019.028-.032.036c-.027.016-.059.016-.087 0-.014-.008-.025-.02-.033-.036s-.013-.033-.016-.051a.29.29 0 0 1-.004-.053v-.708h-.118v.708a.45.45 0 0 0 .008.087.27.27 0 0 0 .072.145.15.15 0 0 0 .064.039c.023.007.047.01.071.011z"/><path d="M16.081 12.645v-.208h.156v-.129h-.156v-.206h-.118v.206h-.156v.129h.156v.208h.118z"/><path d="M16.355 12.826h.43v-.129h-.305a.42.42 0 0 1 .093-.206.75.75 0 0 1 .075-.077c.027-.023.051-.05.073-.079a.33.33 0 0 0 .05-.101c.012-.037.018-.076.018-.116a.53.53 0 0 0-.012-.109c-.008-.036-.022-.069-.043-.096s-.046-.047-.075-.059c-.056-.021-.116-.022-.173-.004-.027.01-.051.027-.071.051s-.037.053-.047.085-.015.065-.015.098h.118c0-.021.004-.041.012-.061s.02-.034.036-.043c.03-.019.065-.02.095-.003.014.007.026.018.034.033a.17.17 0 0 1 .018.051.32.32 0 0 1 .004.056c-.001.071-.028.138-.073.182l-.069.065c-.046.043-.085.096-.117.154s-.048.128-.053.198l-.003.106v.001z"/><path d="M17.12 12.837c.026 0 .053-.005.078-.015s.049-.025.068-.047.035-.048.047-.077.019-.059.023-.091c.013-.094.005-.191-.022-.281-.012-.028-.028-.054-.046-.076s-.042-.038-.067-.048c-.04-.015-.083-.018-.124-.009-.016.002-.031.008-.046.016v-.233h.282v-.129h-.4v.59h.118c.001-.021.005-.041.012-.06s.018-.034.033-.044c.03-.022.068-.021.098.003a.14.14 0 0 1 .033.049.4.4 0 0 1 .018.126v.001c0 .021-.001.043-.003.064s-.008.043-.015.063c-.015.041-.049.067-.086.068-.014 0-.028-.004-.041-.011s-.025-.016-.034-.031-.015-.03-.019-.047a.2.2 0 0 1-.007-.051h-.118c.001.035.007.07.016.102s.024.065.045.091.044.045.071.057a.21.21 0 0 0 .086.017z"/><path d="M17.684 12.826l.099-.244.052-.126a.97.97 0 0 0 .042-.13.65.65 0 0 0-.013-.334c-.011-.031-.026-.059-.045-.084a.18.18 0 0 0-.069-.055c-.057-.023-.119-.021-.176.005-.03.014-.056.037-.076.068s-.034.067-.042.105a.61.61 0 0 0-.001.233c.007.038.021.074.042.104s.045.056.075.071c.043.021.089.028.135.019l-.015.033-.014.035-.122.301h.129zm-.018-.494c-.017 0-.035-.006-.049-.017s-.027-.026-.034-.045a.27.27 0 0 1-.016-.059.39.39 0 0 1 0-.125c.003-.021.009-.041.016-.06s.02-.034.035-.044c.031-.021.068-.021.099 0 .015.01.027.025.035.044.015.038.022.08.021.122a.39.39 0 0 1-.004.063.26.26 0 0 1-.016.06c-.017.038-.05.061-.086.061z"/><path d="M18.216 12.837c.024 0 .049-.004.072-.011s.047-.018.067-.035.036-.039.049-.064.022-.052.027-.081a.45.45 0 0 0 .008-.087v-.446c0-.03-.002-.059-.008-.088s-.015-.056-.027-.081c-.026-.05-.068-.086-.116-.098a.27.27 0 0 0-.144 0c-.024.006-.046.019-.066.036-.04.034-.068.086-.079.144-.005.029-.008.058-.008.088v.446a.45.45 0 0 0 .008.087c.005.029.015.057.029.081s.03.047.05.064.042.029.066.035.047.01.071.011zm0-.129c-.015 0-.03-.004-.044-.011s-.027-.019-.036-.033-.017-.031-.02-.049-.005-.036-.005-.055v-.052l.211-.204v.256c0 .018-.002.037-.004.055s-.01.035-.02.049-.022.026-.036.033-.03.01-.045.011zm-.105-.338v-.256a.32.32 0 0 1 .005-.056c.007-.037.028-.067.056-.083.014-.006.029-.01.044-.009s.031.003.045.009c.028.015.049.046.056.083l.004.056v.052l-.211.204z"/></g><g class="C D G M"><path d="M4.452 17.91l.166-.602.376.426" class="H"/><path d="M9.2 22.996c-2.233-.701-3.988-2.88-4.582-5.689"/><path d="M12.691 22.486l-.337.475.477.21" class="H"/><path d="M12.354 22.961c2.222-.751 3.947-2.969 4.501-5.791"/><path d="M8.756 8.011l.336-.476-.477-.209" class="H"/><path d="M9.092 7.535c-1.726.588-3.174 2.072-3.986 4.085"/><path d="M29.084 34.717l.504.045-.161-.605" class="H"/><path d="M29.588 34.762c-.285-.247-.75-.397-1.251-.397-.558 0-1.071.185-1.34.484"/></g><g class="B N"><path d="M23.894 32.439c.024 0 .048-.004.071-.011.047-.015.087-.053.112-.104a.33.33 0 0 0 .025-.08c.004-.029.007-.057.007-.087v-.708h-.118v.708a.29.29 0 0 1-.004.053c-.003.018-.009.035-.016.051s-.019.028-.032.036c-.027.016-.059.016-.087 0-.014-.008-.025-.02-.033-.036s-.013-.033-.016-.051a.29.29 0 0 1-.004-.053v-.708h-.118v.708a.45.45 0 0 0 .008.087c.01.057.035.108.072.145a.15.15 0 0 0 .064.039c.023.007.047.01.071.011z"/><path d="M24.502 32.247v-.208h.156v-.129h-.156v-.206h-.118v.206h-.156v.129h.156v.208h.118z"/><path d="M24.776 32.428h.43v-.129h-.305a.42.42 0 0 1 .093-.206.75.75 0 0 1 .075-.077c.027-.023.051-.05.073-.079a.33.33 0 0 0 .05-.101c.012-.037.018-.076.018-.116a.53.53 0 0 0-.012-.109c-.008-.036-.022-.069-.043-.096s-.046-.047-.075-.059c-.056-.021-.116-.022-.173-.004-.027.01-.051.027-.071.051s-.037.053-.047.085-.015.065-.015.098h.118c0-.021.004-.041.012-.061s.02-.034.036-.043c.03-.019.065-.02.095-.003.014.007.026.018.034.033a.17.17 0 0 1 .018.051.32.32 0 0 1 .004.056c-.001.071-.028.138-.073.182l-.069.065c-.046.043-.085.096-.117.154s-.048.128-.053.198l-.003.106v.001z"/><path d="M25.541 32.439c.026 0 .053-.005.078-.015s.049-.025.068-.047.035-.048.047-.077.019-.059.023-.091c.013-.094.005-.191-.022-.281-.012-.028-.028-.054-.046-.076s-.042-.038-.067-.048c-.04-.015-.083-.018-.124-.009-.016.002-.031.008-.046.016v-.233h.282v-.129h-.4v.59h.118c.001-.021.005-.041.012-.06s.018-.034.033-.044c.03-.022.068-.021.098.003a.14.14 0 0 1 .033.049.4.4 0 0 1 .018.126v.001c0 .021-.001.043-.003.064s-.008.043-.015.063c-.015.041-.049.067-.086.068-.014 0-.028-.004-.041-.011s-.025-.016-.034-.031-.015-.03-.019-.047a.2.2 0 0 1-.007-.051h-.118c.001.035.007.07.016.102s.024.065.045.091.044.045.071.057a.21.21 0 0 0 .086.017z"/><path d="M26.088 32.439c.024 0 .049-.004.072-.011s.047-.018.067-.035.036-.039.049-.064.022-.052.027-.081a.45.45 0 0 0 .008-.087v-.446c0-.03-.002-.059-.008-.088s-.015-.056-.027-.081c-.026-.05-.068-.086-.116-.098a.27.27 0 0 0-.144 0c-.024.006-.046.019-.066.036-.04.034-.068.086-.079.144-.005.029-.008.058-.008.088v.446a.45.45 0 0 0 .008.087c.005.029.015.057.029.081s.03.047.05.064.042.029.066.035.047.01.071.011zm0-.129c-.015 0-.03-.004-.044-.011s-.027-.019-.036-.033-.017-.031-.02-.049-.005-.036-.005-.055v-.052l.211-.204v.256c0 .018-.002.037-.004.055s-.01.035-.02.049-.022.026-.036.033-.03.01-.045.011zm-.105-.338v-.256a.32.32 0 0 1 .005-.056c.007-.037.028-.067.056-.083.014-.006.029-.01.044-.009s.031.003.045.009c.028.015.049.046.056.083l.004.056v.052l-.211.204z"/><path d="M26.422 32.428h.43v-.129h-.305a.42.42 0 0 1 .093-.206.75.75 0 0 1 .075-.077c.027-.023.051-.05.073-.079a.33.33 0 0 0 .05-.101c.012-.037.018-.076.018-.116a.53.53 0 0 0-.012-.109c-.008-.036-.022-.069-.043-.096s-.046-.047-.075-.059c-.056-.021-.116-.022-.173-.004-.027.01-.051.027-.071.051s-.037.053-.047.085-.015.065-.015.098h.118c0-.021.004-.041.012-.061s.02-.034.036-.043c.03-.019.065-.02.095-.003.014.007.026.018.034.033a.17.17 0 0 1 .018.051.32.32 0 0 1 .004.056c-.001.071-.028.138-.073.182l-.069.065c-.046.043-.085.096-.117.154s-.048.128-.053.198l-.003.106v.001z"/></g><path d="M23.74 32.912h3.063v3.872H23.74z" class="F"/><path d="M24.889 36.784v-3.872h.766v3.872z" class="I"/><g class="C G"><path d="M25.655 32.912v3.872m-.766-3.872v3.872m-.383-3.872v3.872m1.532-3.872v3.872m-.766-3.872v3.872m-1.532-2.42h3.063m-3.063.968h3.063m-3.063.484h3.063M23.74 33.88h3.063m-3.063.968h3.063m-2.68-1.936v3.872h2.298v-3.872h-2.298zm2.68.484H23.74V36.3h3.063v-2.904z" class="D E J K"/><path d="M23.74 32.912h3.063v3.872H23.74z" class="L"/></g></g></g><defs ><path id="C" d="M35.714 34.762c-.285-.247-.75-.397-1.251-.397-.558 0-1.071.185-1.34.484"/><path id="D" d="M30.954 28.339a.27.27 0 0 0 .258-.168h.006v.143h.134v-.695c0-.337-.211-.376-.321-.376-.132 0-.282.056-.349.248l.126.056c.03-.077.099-.161.227-.161s.183.079.183.215v.006c0 .077-.065.072-.223.097s-.338.068-.338.31c0 .207.132.325.297.325zm.021-.147c-.107 0-.183-.056-.183-.17 0-.122.093-.161.198-.178.056-.008.207-.027.23-.06v.149c0 .132-.086.259-.244.259z"/><path id="E" d="M32.215 27.495c-.041-.151-.136-.252-.308-.252-.183 0-.319.128-.319.306 0 .145.07.244.23.288l.145.043c.088.023.129.076.129.147 0 .091-.078.165-.203.165-.11 0-.179-.056-.203-.17l-.126.039c.03.18.152.275.33.275.203 0 .34-.134.34-.316 0-.147-.077-.24-.231-.287l-.129-.039c-.102-.031-.15-.072-.15-.153 0-.091.08-.157.187-.157.116 0 .164.077.188.151l.12-.041z"/><path id="F" d="M32.567 27.679c0-.184.096-.288.228-.288.126 0 .201.095.201.263v.66h.134v-.672c0-.271-.118-.399-.297-.399-.137 0-.215.07-.255.18h-.011v-.517h-.134v1.407h.134v-.635z"/><path id="G" d="M4.086 28.314h.134v-1.055h-.134v1.055zm.067-1.231c.053 0 .096-.05.096-.11s-.044-.111-.096-.11-.092.049-.094.11.043.11.094.11z"/><path id="H" d="M4.599 27.679c0-.184.093-.288.222-.288.123 0 .199.099.199.263v.66h.134v-.672c0-.269-.12-.399-.295-.399-.132 0-.214.072-.254.18h-.011v-.165h-.129v1.055h.134v-.635z"/><path id="I" d="M6.59 28.335c.177 0 .306-.106.348-.265l-.129-.045c-.035.11-.113.165-.219.165-.156 0-.265-.122-.271-.348h.632v-.07c0-.393-.191-.529-.373-.529-.236 0-.392.227-.392.552s.155.54.405.54zm-.271-.635c.01-.165.105-.31.258-.31.145 0 .238.132.238.31h-.496z"/><path id="J" d="M7.155 28.314h.134v-.668c0-.143.093-.248.219-.248.037 0 .073.008.081.012v-.166l-.07-.002c-.098-.004-.188.066-.227.176h-.008v-.159h-.129v1.055z"/><path id="K" d="M9.723 40.898h.134v-.66c0-.155.093-.263.196-.263s.172.079.172.199v.724h.136v-.687c0-.136.07-.236.193-.236.096 0 .177.06.177.217v.707h.134v-.707c0-.248-.11-.364-.266-.364a.27.27 0 0 0-.26.18h-.01c-.038-.114-.132-.186-.233-.18-.113 0-.196.068-.233.18h-.011v-.165h-.129v1.055z"/><path id="L" d="M11.11 41.295h.134v-.56h.011c.029.058.086.184.254.184.217 0 .369-.211.369-.546s-.152-.546-.372-.546c-.169 0-.222.128-.25.182h-.016v-.166h-.129v1.452zm.131-.925c0-.236.086-.395.249-.395.171 0 .254.172.254.395s-.086.405-.254.405c-.161 0-.249-.165-.249-.405z"/><path id="M" d="M16.519 40.919c.236 0 .394-.217.394-.544s-.158-.548-.394-.548-.394.219-.394.548.16.544.394.544zm0-.145c-.179 0-.26-.188-.26-.399s.081-.401.26-.401.262.19.262.401-.081.399-.262.399z"/><path id="N" d="M22.402 41.295c.12 0 .206-.079.255-.242l.37-1.21h-.145l-.241.84h-.008l-.241-.84h-.145l.322 1.061-.026.081c-.048.163-.108.176-.206.147l-.034.143c.013.008.051.019.097.019z"/><path id="O" d="M32.065 39.843h-.187v-.254h-.132v.254h-.132v.137h.132v.658c0 .186.121.273.235.273a.24.24 0 0 0 .101-.019l-.027-.145c-.011.002-.03.008-.059.008-.059 0-.116-.021-.116-.159v-.616h.187v-.137z"/><path id="P" d="M35.994 32.912h3.063v3.872h-3.063z"/><path id="Q" d="M37.909 32.912v3.872m-.766-3.872v3.872m-.383-3.872v3.872m1.532-3.872v3.872m-.766-3.872v3.872m-1.532-2.42h3.063m-3.063.968h3.063m-3.063.484h3.063m-3.063-1.936h3.063m-3.063.968h3.063m-2.68-1.936v3.872h2.298v-3.872h-2.298zm2.68.484h-3.063V36.3h3.063v-2.904z"/><path id="R" d="M12.412 32.46c.024 0 .048-.004.071-.011.047-.015.087-.053.112-.104a.33.33 0 0 0 .025-.08c.004-.029.007-.057.007-.087v-.708h-.118v.708a.29.29 0 0 1-.004.053c-.003.018-.009.035-.016.051s-.019.028-.032.036c-.027.016-.059.016-.087 0-.014-.008-.025-.02-.033-.036s-.013-.033-.016-.051a.29.29 0 0 1-.004-.053v-.708h-.118v.708a.45.45 0 0 0 .008.087c.01.057.035.108.072.145a.15.15 0 0 0 .064.039c.023.007.047.01.071.011z"/><path id="S" d="M13.02 32.268v-.208h.156v-.129h-.156v-.206h-.118v.206h-.156v.129h.156v.208h.118z"/><path id="T" d="M13.294 32.449h.43v-.129h-.305a.42.42 0 0 1 .093-.206.75.75 0 0 1 .075-.077c.027-.023.051-.05.073-.079a.33.33 0 0 0 .05-.101c.012-.037.018-.076.018-.116a.53.53 0 0 0-.012-.109c-.008-.036-.022-.069-.043-.096s-.046-.047-.075-.059c-.056-.021-.116-.022-.173-.004-.027.01-.051.027-.071.051s-.037.053-.047.085-.015.065-.015.098h.118c0-.021.004-.041.012-.061s.02-.034.036-.043c.03-.019.065-.02.095-.003.014.007.026.018.034.033a.17.17 0 0 1 .018.051.32.32 0 0 1 .004.056c-.001.071-.028.138-.073.182l-.069.065c-.046.043-.085.096-.117.154s-.048.128-.053.198l-.003.106v.001z"/><path id="U" d="M14.059 32.46c.026 0 .053-.005.078-.015s.049-.025.068-.047.035-.048.047-.077.019-.059.023-.091c.013-.094.005-.191-.022-.281-.012-.028-.028-.054-.046-.076s-.042-.038-.067-.048c-.04-.015-.083-.018-.124-.009-.016.002-.031.008-.046.016V31.6h.282v-.129h-.4v.59h.118c.001-.021.005-.041.012-.06s.018-.034.033-.044c.03-.022.068-.021.098.003a.14.14 0 0 1 .033.049.4.4 0 0 1 .018.126v.001c0 .021-.001.043-.003.064s-.008.043-.015.063c-.015.041-.049.067-.086.068-.014 0-.028-.004-.041-.011s-.025-.016-.034-.031-.015-.03-.019-.047a.2.2 0 0 1-.007-.051h-.118c.001.035.007.07.016.102s.024.065.045.091.044.045.071.057a.21.21 0 0 0 .086.017z"/><path id="V" d="M14.606 32.46c.029 0 .057-.004.084-.013a.18.18 0 0 0 .073-.047.21.21 0 0 0 .049-.083c.023-.065.022-.139-.002-.204-.012-.033-.029-.064-.049-.091s-.043-.05-.067-.072a.54.54 0 0 0 .059-.069.29.29 0 0 0 .043-.087c.02-.061.021-.13.001-.192s-.06-.109-.112-.13-.107-.019-.159 0c-.026.009-.05.026-.069.049a.23.23 0 0 0-.044.081.31.31 0 0 0 .002.192.29.29 0 0 0 .043.087.46.46 0 0 0 .058.069.61.61 0 0 0-.066.072.33.33 0 0 0-.05.091c-.023.065-.024.138-.002.204a.21.21 0 0 0 .049.083c.022.023.047.037.075.047a.26.26 0 0 0 .083.013zm0-.586c-.015-.015-.03-.031-.043-.049s-.024-.037-.032-.059c-.016-.039-.017-.084-.003-.124.007-.017.018-.031.032-.04s.03-.014.046-.013.032.004.046.013.025.023.032.04.01.038.01.057-.004.046-.012.067-.019.041-.033.059-.027.034-.043.049zm0 .457c-.018 0-.035-.004-.052-.012s-.031-.021-.039-.04-.014-.039-.014-.06a.18.18 0 0 1 .016-.076c.01-.023.023-.044.038-.063l.05-.051.05.051c.015.019.029.04.039.063a.18.18 0 0 1 .016.076c0 .021-.005.042-.014.06s-.023.033-.039.04-.035.012-.053.012z"/><path id="W" d="M15.152 32.46c.028 0 .056-.005.083-.015s.053-.026.073-.049.037-.052.047-.084a.35.35 0 0 0 .015-.1h-.118c0 .021-.004.042-.012.061s-.021.035-.037.044-.034.014-.052.013-.031-.004-.045-.012-.026-.02-.035-.035a.15.15 0 0 1-.018-.051c-.004-.018-.005-.036-.005-.055v-.438a.32.32 0 0 1 .005-.056.17.17 0 0 1 .018-.051c.009-.014.021-.026.035-.033s.029-.012.045-.012.035.004.052.013.029.024.037.043.012.041.012.063h.118c0-.034-.005-.068-.015-.1-.02-.066-.065-.116-.121-.134s-.104-.019-.156-.004-.089.05-.114.101c-.013.025-.022.053-.027.083s-.008.058-.008.088v.438c0 .029.002.059.008.088.011.058.037.109.076.145.02.018.042.03.066.037s.048.01.072.011z"/><path id="X" d="M3.896 32.449l.099-.244.052-.126a.97.97 0 0 0 .042-.13.65.65 0 0 0-.013-.334c-.011-.031-.026-.059-.045-.084a.18.18 0 0 0-.069-.055c-.057-.023-.119-.021-.176.005-.03.014-.056.037-.076.068s-.034.067-.042.105a.61.61 0 0 0-.001.233c.007.038.021.074.042.104s.045.056.075.071c.043.021.089.028.135.019l-.015.033-.014.035-.122.301h.129zm-.018-.494c-.017 0-.035-.006-.049-.017s-.027-.026-.034-.045a.27.27 0 0 1-.016-.059.39.39 0 0 1 0-.125c.003-.021.009-.041.016-.06s.02-.034.035-.044c.031-.021.068-.021.099 0 .015.01.027.025.035.044.015.038.022.08.021.122a.39.39 0 0 1-.004.063.26.26 0 0 1-.016.06c-.017.038-.05.061-.086.061z"/><path id="Y" d="M31.674 32.439c.026 0 .053-.005.078-.015s.049-.025.068-.047.035-.048.047-.077.019-.059.023-.091c.013-.094.005-.191-.022-.281-.012-.028-.028-.054-.046-.076s-.042-.038-.067-.048c-.04-.015-.083-.018-.124-.009-.016.002-.031.008-.046.016v-.233h.282v-.129h-.4v.59h.118c.001-.021.005-.041.012-.06s.018-.034.033-.044c.03-.022.068-.021.098.003a.14.14 0 0 1 .033.049.4.4 0 0 1 .018.126v.001c0 .021-.001.043-.003.064s-.008.043-.015.063c-.015.041-.049.067-.086.068-.014 0-.028-.004-.041-.011s-.025-.016-.034-.031-.015-.03-.019-.047a.2.2 0 0 1-.007-.051h-.118c.001.035.007.07.016.102s.024.065.045.091.044.045.071.057a.21.21 0 0 0 .086.017z"/><path id="Z" d="M32.125 32.037l.118-.321v.321h-.118zm.118.391h.118v-.262h.075v-.129h-.075v-.587h-.148l-.216.587v.129h.246v.262z"/><path id="a" d="M21.282 32.46c.024 0 .049-.004.072-.011s.047-.018.067-.035.036-.039.049-.064.022-.052.027-.081a.45.45 0 0 0 .008-.087v-.446c0-.03-.002-.059-.008-.088s-.015-.056-.027-.081c-.026-.05-.068-.086-.116-.098a.27.27 0 0 0-.144 0c-.024.006-.046.019-.066.036-.04.034-.068.086-.079.144-.005.029-.008.058-.008.088v.446a.45.45 0 0 0 .008.087c.005.029.015.057.029.081s.03.047.05.064.042.029.066.035.047.01.071.011zm0-.129c-.015 0-.03-.004-.044-.011s-.027-.019-.036-.033-.017-.031-.02-.049-.005-.036-.005-.055v-.052l.211-.204v.256c0 .018-.002.037-.004.055s-.01.035-.02.049-.022.026-.036.033-.03.01-.045.011zm-.105-.338v-.256a.32.32 0 0 1 .005-.056c.007-.037.028-.067.056-.083.014-.006.029-.01.044-.009s.031.003.045.009c.028.015.049.046.056.083l.004.056v.052l-.211.204z"/><path id="b" d="M32.772 18.403c.03 0 .061-.005.09-.016s.056-.03.077-.056.038-.057.048-.092.017-.071.016-.108a.3.3 0 0 0-.065-.188c-.021-.024-.045-.043-.071-.056.048-.028.085-.076.104-.136s.017-.13-.001-.192a.25.25 0 0 0-.044-.088c-.019-.025-.043-.043-.07-.053a.23.23 0 0 0-.165-.003c-.054.021-.096.07-.115.134-.01.031-.015.064-.015.097h.118c0-.02.003-.04.011-.06s.019-.033.034-.041.031-.015.048-.015c.036-.001.07.025.084.065.006.02.01.042.01.064.001.052-.02.101-.055.13-.017.015-.037.024-.058.028a.31.31 0 0 1-.061.005v.129a.39.39 0 0 1 .068.005c.045.007.084.04.106.088s.024.106.005.156c-.009.022-.023.041-.041.053-.035.022-.077.023-.113.004a.09.09 0 0 1-.041-.044c-.01-.019-.015-.041-.015-.064h-.118a.32.32 0 0 0 .016.102c.011.033.029.061.052.084s.047.04.075.049.057.014.086.015z"/><path id="c" d="M33.86 1.123h-.187V.869h-.132v.254h-.132v.137h.132v.658c0 .186.121.273.235.273a.24.24 0 0 0 .101-.019l-.027-.145c-.011.002-.03.008-.059.008-.059 0-.116-.021-.116-.159V1.26h.187v-.137z"/><path id="d" d="M20 0v32M12 0v32M8 0v32M24 0v32M16 0v32M0 12h32M0 20h32M0 24h32M0 8h32M0 16h32M4 0v32h24V0H4zm28 4H0v24h32V4z"/></defs></svg>