<?xml version="1.0" encoding="UTF-8" standalone="no"?>
<!DOCTYPE svg PUBLIC "-//W3C//DTD SVG 1.1//EN" "http://www.w3.org/Graphics/SVG/1.1/DTD/svg11.dtd">
<svg xmlns="http://www.w3.org/2000/svg" fill-rule="evenodd" stroke-linecap="round" stroke-miterlimit="1" clip-rule="evenodd" viewBox="0 0 1916 2176">
  <path fill="none" d="M0 0h32861.3v24204.4H0z"/>
  <path fill="none" d="M0 0h1916v2176H0z"/>
  <path fill="#F7F7F7" d="M126 1408h1664v640H126zM126 768h1664v640H126zM126 128h1664v640H126z"/>
  <path fill="none" stroke="#929292" stroke-opacity=".2" d="M14088.3 5540v160m-32-160v160m-32-160v160m-32-160v160m-32-160v160m-32-160v160m-32-160v160m-32-160v160m-32-160v160m-32-160v160m-32-160v160m-32-160v160m-32-128h416m-416 32h416m-416 32h416m-416 32h416m-416 32h416v-160h-416v160z" transform="matrix(4 0 0 4 -54691.1 -20752)"/>
  <path fill="none" stroke="#929292" stroke-opacity=".2" d="M14088.3 5540v160m-32-160v160m-32-160v160m-32-160v160m-32-160v160m-32-160v160m-32-160v160m-32-160v160m-32-160v160m-32-160v160m-32-160v160m-32-160v160m-32-128h416m-416 32h416m-416 32h416m-416 32h416m-416 32h416v-160h-416v160z" transform="matrix(4 0 0 4 -54691.1 -21392)"/>
  <path fill="none" stroke="#929292" stroke-opacity=".2" d="M14088.3 5540v160m-32-160v160m-32-160v160m-32-160v160m-32-160v160m-32-160v160m-32-160v160m-32-160v160m-32-160v160m-32-160v160m-32-160v160m-32-160v160m-32-128h416m-416 32h416m-416 32h416m-416 32h416m-416 32h416v-160h-416v160z" transform="matrix(4 0 0 4 -54691.1 -22032)"/>
  <path fill="#CCC" d="M126 1615.8H174l-.1 352h-48v32h80v-416h-80v32z"/>
  <path fill="#B3B3B3" d="M1230 1663.8h-31.9v256h32v-256z"/>
  <path fill="#999" fill-rule="nonzero" d="M1486 1664v48h48v32h-48v48h-32v-128h32z"/>
  <path fill="#CCC" fill-rule="nonzero" d="M1150 1968h48v-48h32v48h48v32h-128v-32z"/>
  <path fill="#737373" fill-rule="nonzero" d="M1278 1968h48v-48h32v48h48v32h-128v-32z"/>
  <path fill="#999" fill-rule="nonzero" d="M1406 1968h48v-48h32v48h48v32h-128v-32z"/>
  <path fill="#666" fill-rule="nonzero" d="M1534 1968h48v-48h32v48h48v32h-128v-32z"/>
  <path fill="#4D4D4D" fill-rule="nonzero" d="M1614 1792v48h48v32h-48v48h-32v-128h32z"/>
  <path fill="#0D0D0D" d="M510 1744.2l48-.4v224l-48 .4v32l80-.4v-288l-80 .4v32zM1614 1791.8v-80h-80v32h48v48h32z"/>
  <path fill="#BFBFBF" d="M638 1871.8h48v96h-48v32h80v-160h-80v32zM1662 1871.8h48v96h-48v32h80v-160h-80v32zM718 944v416H302V944h416zm-32 384V976H334v352h352z"/>
  <path fill="#737373" d="M1278 1184h48v-32h32v32h48v64h-48v32h-32v-32h-48v-64z"/>
  <path fill="#0D0D0D" d="M414 416V224H222v192h192zm64-256v320H158V160h320zM1182 384V160h224v64h-160v160h-64z"/>
  <path fill="#A6A6A6" fill-rule="nonzero" d="M1710 384v32h-48v16h48v32h-48v16h48v32h32V384h-32z"/>
  <path fill="#666" d="M1406 160h128v64h-32v32h-64v-32h-32v-64zM1198 480h-16v-96h64v32h32v64h-48v32h-32v-32z"/>
  <path fill="#fff" stroke="#000" stroke-miterlimit="4" stroke-width=".9" d="M373 178.5l-16-8.5c-1.1-1.5-1.8-2.6-2.4-6.5 0-7.8 6.8-13.8 14.8-13.2a13 13 0 0 1 11.6 12.2l-8 16z" transform="matrix(3.94386 -1.98548 1.94884 3.74992 -381.2 487.2)"/>
  <path fill="none" stroke="#000" stroke-miterlimit="4" stroke-width="2.1" d="M11019.6 5112.8a10 10 0 0 1-19.2-.1" transform="matrix(1.78519 -1.39622 .92374 1.10714 -22987.4 10085.5)"/>
  <circle cx="11010" cy="5110" r="10" transform="matrix(.78748 -.39559 .38916 .74708 -9297.7 902.9)"/>
  <circle cx="11010" cy="5110" r="10" transform="matrix(.78748 -.39559 .38916 .74708 -9269.3 884.3)"/>
  <path fill="#fff" stroke="#000" stroke-miterlimit="4" stroke-width="1.1" d="M374 179l-16.3-8.7c-1.1-1.5-1.7-2.5-2.3-6.3 0-7.8 6.8-13.8 14.7-13.2a13 13 0 0 1 11.7 12.1l-7.9 16z" transform="matrix(-3.31736 -1.67008 -1.63926 3.15423 3163.7 1004.1)"/>
  <path fill="none" stroke="#000" stroke-miterlimit="4" stroke-width="2.5" d="M11020.9 5114.6a10 10 0 0 1-9.6 7.1 10 10 0 0 1-9.6-7.3" transform="matrix(-1.5016 -1.17443 -.777 .93127 22178.8 9077.7)"/>
  <circle cx="11010" cy="5110" r="10" transform="matrix(-.66239 -.33275 -.32734 .6284 10663.8 1353.8)"/>
  <circle cx="11014" cy="5112.2" r="10" transform="matrix(-.66239 -.33275 -.32734 .6284 10640 1338.2)"/>
  <path fill="#fff" stroke="#000" stroke-miterlimit="4" d="M374.4 181.4l-16-8.5c-1.2-1.5-1.8-2.6-2.5-6.5 0-7.8 6.8-13.8 14.8-13.2a13 13 0 0 1 11.6 12.2l-8 16z" transform="matrix(-3.4062 1.7568 -1.7744 -3.49927 2953.1 1594.2)"/>
  <path fill="none" stroke="#000" stroke-miterlimit="4" stroke-width="2.4" d="M11021 5122a10.1 10.1 0 0 1-9.6 7.2c-4.6 0-8.5-3.1-9.6-7.3" transform="matrix(-1.53222 1.25448 -.82813 -1.03985 22511.7 -6830.4)"/>
  <g transform="matrix(-.68014 .35 -.3543 -.69716 10732.6 1382.4)">
    <circle cx="11016.7" cy="5124.6" r="10" fill="none" stroke="#404040" stroke-miterlimit="4" stroke-opacity=".1" stroke-width="5.2"/>
    <circle cx="11016.7" cy="5124.6" r="10"/>
  </g>
  <g transform="matrix(-.68014 .35 -.3543 -.69716 10708.2 1399)">
    <circle cx="11016.7" cy="5124.6" r="10" fill="none" stroke="#404040" stroke-miterlimit="4" stroke-opacity=".1" stroke-width="5.2"/>
    <circle cx="11016.7" cy="5124.6" r="10"/>
  </g>
  <path fill="#BFBFBF" fill-rule="nonzero" d="M1662 464h-128v16h128v-16zm0-48h-128v16h128v-16zM1742 384V160h-208v16h176v32h-176v16h176v160h32z"/>
  <path fill="#fff" stroke="#000" stroke-miterlimit="4" stroke-width=".6" d="M11002.8 5116.6a7 7 0 0 1-.3-2 10 10 0 0 1 17.8-6.3v8.3h-17.5z" transform="matrix(5.518 0 0 7.97823 -60123.8 -40405.2)"/>
  <path fill="none" stroke="#000" stroke-miterlimit="4" stroke-width="2.5" d="M11026.3 5083.8a10 10 0 0 1-18.2 0" transform="matrix(1.94945 0 0 -1.19016 -20855.2 6451.7)"/>
  <ellipse cx="116.3" cy="66.1" rx="1.4" ry="1.1" transform="matrix(4.5587 -2.23983 2.0949 5.74556 -53 245.7)"/>
  <ellipse cx="117.9" cy="64.1" rx="1.4" ry="1.1" transform="matrix(4.48144 -.94197 1.36061 8.72286 28 -80)"/>
  <path fill="#fff" stroke="#000" stroke-miterlimit="4" stroke-width=".6" d="M11000.2 5111.3v-1.3a10 10 0 0 1 10.1-10c3.1 0 6.4 1.6 8.3 3.8l-1.4 9.1-17-1.6z" transform="matrix(5.79684 -.70698 .90113 7.38873 -67930 -28805)"/>
  <path fill="none" stroke="#000" stroke-miterlimit="4" stroke-width="2.5" d="M11019.1 5114.2a10 10 0 0 1-18.2 0" transform="matrix(2.04797 -.24977 -.12469 -1.02236 -21434 9151.6)"/>
  <ellipse cx="116.1" cy="59.7" rx="1.4" ry="1.1" transform="matrix(4.55441 -2.50811 2.8027 4.6671 -230.8 1155.4)"/>
  <ellipse cx="116.1" cy="59.7" rx="1.4" ry="1.1" transform="matrix(4.60922 -1.38334 2.34322 7.31872 -179.7 865.2)"/>
  <path fill="#fff" stroke="#000" stroke-miterlimit="4" stroke-width=".6" d="M11001.7 5113.2c-1-1-1.6-2.2-1.7-3.2-.8-6.3 4.3-10 10-10l1.8.1-1.6 12.3-8.3-.8-.2 1.6z" transform="matrix(5.72221 -.62136 .75726 6.97374 -66444.3 -26843.2)"/>
  <path fill="none" stroke="#000" stroke-miterlimit="4" stroke-width="2.5" d="M11019.1 5114.2a18.4 18.4 0 0 1-7.3 7.8c-2.7 1.8-8.5 1.4-10.1-2" transform="matrix(2.0216 -.21952 -.11296 -1.04031 -21274.3 9692.3)"/>
  <ellipse cx="116.1" cy="59.7" rx="1.4" ry="1.1" transform="matrix(4.51481 -2.47116 2.71778 4.78627 -291.3 1925.3)"/>
  <ellipse cx="116.1" cy="59.7" rx="1.4" ry="1.1" transform="matrix(4.5579 -1.328 2.2389 7.4714 -238.1 1631.4)"/>
  <path fill="#A6A6A6" d="M1454 511.6h32V640h-32z"/>
  <path fill="#BFBFBF" d="M1406 720h-208V512h32v176h176v32z"/>
  <path fill="#0D0D0D" fill-rule="nonzero" d="M686 688v-64h32v96h-80v-32h48zm32-80h-32v-16h32v16zm0-32h-32v-16h32v16zm0-32h-32v-16h32v16zM590 720h-16v-32h16v32zm32 0h-16v-32h16v32zm-64 0h-16v-32h16v32zm-48 0v-32h16v32h-16zM1710 688v-64h32v96h-80v-32h48zm32-80h-32v-16h32v16zm0-32h-32v-16h32v16zm0-32h-32v-16h32v16zm-128 176h-16v-32h16v32zm32 0h-16v-32h16v32zm-64 0h-16v-32h16v32zm-48 0v-32h16v32h-16z"/>
  <path fill="#999" fill-rule="nonzero" d="M1534 688h-48v-48h-32v48h-48v32h128v-32z"/>
  <path fill="#BFBFBF" d="M206 512v176h224V512h32v208H174V512h32z"/>
  <path fill="#0D0D0D" d="M206 1487.8h96v480h-48v32h80v-544H174v80h32v-48z"/>
  <path fill="#A6A6A6" d="M1438 384V256h64v128zM1278 416h128v64h-128z"/>
  <path fill="#8C8C8C" d="M1454 480h-48v-64h32v-32h64v32h32v64h-48v32h-32v-32z"/>
  <path fill="#1A1A1A" fill-rule="nonzero" d="M1137.9 627.6c-1.7-5-5.5-8.3-12.4-8.3-7.3 0-12.8 4.2-12.8 10 0 5 2.9 8.1 9.3 9.6l5.8 1.4c3.5.8 5.2 2.5 5.2 5 0 3-3.2 5.4-8.2 5.4-4.4 0-7.1-2-8-5.7l-5.2 1.3c1.3 6 6.2 9 13.3 9 8.1 0 13.6-4.3 13.6-10.4 0-4.8-3-7.9-9.2-9.4l-5.2-1.3c-4.2-1-6-2.4-6-5 0-3 3.2-5.3 7.4-5.3 4.7 0 6.6 2.6 7.6 5l4.8-1.3zm-179.8 27.8c9.5 0 15.8-7.2 15.8-18 0-11-6.3-18.1-15.8-18.1-9.4 0-15.8 7.2-15.8 18 0 11 6.4 18 15.8 18zm106 0c7.1 0 12.3-3.6 14-8.8l-5.2-1.5c-1.4 3.7-4.5 5.5-8.8 5.5-6.2 0-10.6-4.1-10.8-11.6h25.3v-2.2c0-13-7.7-17.5-15-17.5-9.5 0-15.7 7.5-15.7 18.2s6.2 17.9 16.2 17.9zm-238 0c7 0 12.2-3.6 13.9-8.8l-5.2-1.5c-1.4 3.7-4.6 5.5-8.8 5.5-6.3 0-10.6-4.1-10.8-11.6h25.3v-2.2c0-13-7.7-17.5-15-17.5-9.5 0-15.7 7.5-15.7 18.2s6.2 17.9 16.2 17.9zm195.6 0c6.7 0 9-4.2 10.2-6.1h.6v5.4h5.2V608h-5.4v17.2h-.4c-1.2-1.8-3.3-6-10.1-6-8.8 0-15 7-15 18s6.2 18 14.9 18zm-233.1 0c7.7 0 12.8-4.7 13.7-11H797c-1 3.9-4.1 6.2-8.3 6.2-6.4 0-10.5-5.3-10.5-13.4 0-7.9 4.2-13 10.5-13 4.7 0 7.5 2.8 8.3 6h5.4c-.9-6.5-6.4-10.9-13.8-10.9-9.5 0-15.7 7.5-15.7 18s6 18 15.8 18zm66.7-47.3H850v46.6h5.3V608zm16.5 0h-5.4v46.6h5.4V608zm111.6 46.6h5.4v-22.1c0-4.8 3.7-8.2 8.8-8.2 1.4 0 2.9.3 3.3.4v-5.5H998a9.5 9.5 0 0 0-9 5.7h-.4v-5.2h-5.2v34.9zm104.7 0h5.3v-22.1c0-4.8 3.8-8.2 8.8-8.2 1.5 0 3 .3 3.3.4v-5.5h-2.8a9.5 9.5 0 0 0-9 5.7h-.5v-5.2h-5.1v34.9zm-130-4.1c-7.2 0-10.4-6.2-10.4-13.2 0-7 3.2-13.3 10.4-13.3s10.5 6.3 10.5 13.3c0 7-3.3 13.2-10.5 13.2zm64.3 0c-6.7 0-10.2-6-10.2-13.4s3.4-13 10.2-13c6.6 0 10 5.2 10 13 0 8-3.5 13.4-10 13.4zm30.9-16.2c.3-5.4 4.2-10.3 10.3-10.3 5.8 0 9.5 4.4 9.5 10.3h-19.8zm-238.1 0c.3-5.4 4.2-10.3 10.3-10.3 5.8 0 9.5 4.4 9.5 10.3h-19.8zm85.5-42c8.4 0 15.1-3.7 15.1-12.7v-36h-5.2v5.6h-.5c-1.2-1.8-3.4-6-10.2-6-8.8 0-14.9 7-14.9 17.7 0 11 6.4 17.1 14.8 17.1 6.8 0 9-4 10.2-5.9h.4v7.1c0 5.8-4 8.5-9.7 8.5-6.3 0-8.5-3.4-10-5.3l-4.3 3c2.2 3.6 6.5 7 14.3 7zm103-.6c4.8 0 8.3-2.6 10.3-8l14.8-40h-5.8l-9.7 27.8h-.3l-9.7-27.8h-5.8l13 35-1 2.8c-2 5.3-4.4 5.8-8.3 4.8l-1.4 4.7c.5.3 2 .7 4 .7zm-58.2-12.4c7.1 0 12.3-3.6 14-8.8l-5.2-1.5c-1.4 3.7-4.6 5.5-8.8 5.5-6.3 0-10.6-4.1-10.8-11.6H960v-2.2c0-13-7.7-17.5-15-17.5-9.5 0-15.7 7.5-15.7 18.2s6.2 17.9 16.2 17.9zm-115.9 0c7.1 0 12.3-3.6 14-8.8l-5.3-1.5c-1.3 3.7-4.5 5.5-8.7 5.5-6.3 0-10.6-4.1-10.9-11.6h25.4v-2.2c0-13-7.8-17.5-15-17.5-9.5 0-15.8 7.5-15.8 18.2s6.2 17.9 16.3 17.9zm225.7 0c9.5 0 15.9-7.2 15.9-18 0-11-6.4-18.1-15.9-18.1-9.4 0-15.8 7.2-15.8 18 0 11 6.4 18 15.8 18zm51.3-15a9 9 0 0 1-9 9.5c-4.4 0-7.6-3.2-7.6-8.3v-21.8h-5.4v22.1c0 9 4.8 13.2 11.3 13.2 5.3 0 8.7-2.8 10.4-6.3h.3v5.9h5.4v-35h-5.4v20.7zm20.5 14.3h5.4v-22.1c0-4.8 3.7-8.2 8.8-8.2 1.4 0 2.9.3 3.2.4v-5.5h-2.8a9.5 9.5 0 0 0-9 5.7h-.4v-5.2h-5.2v34.9zm-269.6 0h5.4v-22.1c0-4.8 3.7-8.2 8.8-8.2 1.4 0 3 .3 3.3.4v-5.5h-2.8a9.5 9.5 0 0 0-9.1 5.7h-.4v-5.2h-5.2v34.9zm-103.4 0h5.3v-21.9c0-5 3.8-8.7 8-8.7 4 0 6.8 2.7 6.8 6.7v23.9h5.5v-22.8c0-4.5 2.8-7.8 7.7-7.8 3.8 0 7.1 2 7.1 7.2v23.4h5.4v-23.4c0-8.2-4.4-12-10.7-12-5 0-8.6 2.3-10.4 6h-.4a9.6 9.6 0 0 0-9.3-6c-4.6 0-8 2.2-9.4 6h-.5v-5.5h-5.1v34.9zm301.2-4.1c-7.1 0-10.4-6.2-10.4-13.2 0-7 3.3-13.3 10.4-13.3 7.2 0 10.5 6.3 10.5 13.3 0 7-3.3 13.2-10.5 13.2zm-154.8-1.3c-6.7 0-10.1-5-10.1-12.4 0-7 3.3-12.8 10.1-12.8 6.6 0 10 5.3 10 12.8 0 7.8-3.5 12.4-10 12.4zm34.2-15c.3-5.3 4.2-10.2 10.3-10.2 5.8 0 9.5 4.4 9.5 10.3h-19.8zm-116 0c.4-5.3 4.2-10.2 10.4-10.2 5.8 0 9.5 4.4 9.5 10.3h-19.9zm280.6-100.9C1055 447 777.6 453 760 460.6c-5.5 2.3-6.8 6-5 10.4.5 1.4 3.3 2.8 5 1.6 14.3-10.4 339.1-10.7 342.9-.7a64 64 0 0 0-27.5 29.6c-1 2-1.4 3.2-1.4 3.5-.4 2.8 1.4 5.2 6.7 6a8 8 0 0 0 4.7-.4 4.8 4.8 0 0 0 2-2c4.7-8.6 8-14 10.1-16.3 8.1-8.7 18.3-14.4 30.5-16.9l4-.6c3.2-.7 4.5-2.2 4.7-3.7.3-1.8-.6-3.7-3.4-5.4l-.2-.1-3.6-1.8a53.7 53.7 0 0 1-25.3-29c-1.7-6.4-2.7-11-3-14.2l-.1-.1a4.8 4.8 0 0 0-4.2-4.1l-1.5-.4-1.4-.2a7 7 0 0 0-4.5.6c-1.2.6-2 1.7-2.3 3.4-.6 3.6.5 9.2 3.3 17 1.9 5.1 5.4 15 8.7 20.6zM903.9 654.7h5.2v-5.4h.6c1.2 2 3.5 6 10.2 6 8.7 0 14.8-7 14.8-18s-6-18-14.9-18c-6.8 0-8.9 4.2-10 6h-.5v-17.2h-5.4v46.6zm5.3-17.5c0-7.8 3.4-13 10-13 6.8 0 10.2 5.6 10.2 13 0 7.5-3.5 13.4-10.2 13.4-6.5 0-10-5.5-10-13.4zM759.3 383.1h11l4.6-27.6c1-6 6.2-10.2 12.3-10.2 1.9 0 4.1.3 5 .7l1.8-10.2a23 23 0 0 0-4-.3c-5.3 0-10.4 3-13 8.5h-.5l1.4-7.8H767l-7.8 46.9zm54.6.9c11 0 19.3-5.3 22.7-13.5l-10.1-1.2c-2.2 4-6.2 6-11 6-7.5 0-11.3-3.7-9.9-12.5v-.1h32.7l.6-3.4c2.7-16.5-6-23.7-17.5-23.7-13.4 0-23.9 9.8-26.2 24.3-2.5 14.7 4.6 24.1 18.7 24.1zm-7-28.8c1.3-5.6 6.9-11 13.2-11 6.4 0 9.9 4.6 8.8 11h-22zm72.3 8.2a12.2 12.2 0 0 1-11.7 10.6c-5.3 0-8.2-3.7-7.3-9.7l4.7-28.1h-11l-5 29.8c-2 11.3 3.4 17.7 12.6 17.7 7 0 12.7-3.7 15.7-9h.5l-1.5 8.4H887l7.8-47h-11l-4.6 27.3zm36.5-7.8c1.2-6.8 6-10.7 11.7-10.7 5.8 0 8.5 3.8 7.5 10l-4.7 28.2h11l5-29.9c2-11.2-3.5-17.6-13-17.6a17 17 0 0 0-15.5 8.5h-.6l1.4-8h-10.6l-7.8 47h11l4.6-27.5zm38.5 27.5h11l7.9-47h-11l-7.9 47zm15-53.6c3.5 0 6.6-2.7 6.8-6 .3-3.4-2.3-6-5.8-6a7 7 0 0 0-7 6c-.2 3.3 2.5 6 6 6zm29.7 54.5c13.6 0 23.8-9.5 26.2-23.9 2.3-14.7-4.9-24.5-18.7-24.5-13.6 0-23.8 9.5-26.1 24-2.4 14.6 4.7 24.4 18.6 24.4zm1-8.9c-7.5 0-10-6.6-8.6-15 1.4-8.8 6.5-15.8 14.2-15.8 7.4 0 9.9 6.8 8.5 15.2-1.4 8.7-6.5 15.6-14.2 15.6zm48-19.5c1.3-6.8 6-10.7 11.8-10.7 5.8 0 8.5 3.8 7.5 10l-4.7 28.2h11l5-29.9c2-11.2-3.5-17.6-13-17.6a17 17 0 0 0-15.5 8.5h-.6l1.4-8h-10.6l-7.8 47h11l4.6-27.5zm81.4-7c-.2-8-5.8-13-17-13-11.1 0-19.6 5.3-21 13.8-1.2 7 2.5 11.7 11.2 13.6l7.7 1.7c4.2 1 5.7 2.4 5.3 5-.5 3.3-4.7 6-10.1 6-4.9 0-7.7-2.2-8-6.4l-10.8 1c0 8.6 6.5 13.7 18.2 13.7 11.5 0 20.6-5.9 22-14.6 1.2-6.9-2.6-11-11.1-13l-7.8-1.7c-4.5-1.1-6-2.6-5.6-5.1.5-3.4 4.7-5.8 9.5-5.8 5 0 7 2.7 7.3 5.9l10.2-1.1z"/>
  <text x="6860.7" y="323" font-family="'Inter-SemiBoldItalic', 'Inter'" font-size="86" font-style="italic" font-weight="600" transform="translate(-6103.2 1340)">
    r<tspan x="6894.7 6947.4 7001.4 7055.6 7079.7 7133.7 7187.9" y="323 323 323 323 323 323 323">eunions</tspan>
  </text>
  <path fill="#1A1A1A" fill-rule="nonzero" d="M999.8 1935.5c6.1 0 9.3-3.3 10.4-5.6h.3v4.8h5.3v-23c0-11.1-8.4-12.4-12.9-12.4-5.3 0-11.3 1.8-14 8.2l5.1 1.8c1.2-2.5 4-5.3 9.1-5.3 5 0 7.4 2.6 7.4 7.1v.2c0 2.6-2.7 2.4-9 3.2-6.5.8-13.6 2.3-13.6 10.3 0 6.8 5.3 10.7 12 10.7zm-158.6 0c6 0 9.3-3.3 10.4-5.6h.2v4.8h5.4v-23c0-11.1-8.5-12.4-13-12.4-5.2 0-11.2 1.8-14 8.2l5.2 1.8c1.2-2.5 4-5.3 9-5.3s7.4 2.6 7.4 7.1v.2c0 2.6-2.6 2.4-9 3.2-6.4.8-13.5 2.3-13.5 10.3 0 6.8 5.3 10.7 11.9 10.7zm86.4-.1c7.8 0 12.8-4.7 13.8-11H936c-1 3.9-4.2 6.2-8.4 6.2-6.3 0-10.4-5.3-10.4-13.4 0-7.9 4.2-13 10.4-13 4.8 0 7.6 2.8 8.4 6h5.4c-1-6.5-6.5-10.9-13.9-10.9-9.4 0-15.7 7.5-15.7 18s6 18 15.8 18zm173.7-27.8c-1.7-5-5.5-8.3-12.4-8.3-7.3 0-12.8 4.2-12.8 10 0 5 2.9 8.1 9.3 9.6l5.8 1.4c3.5.8 5.2 2.5 5.2 5 0 3-3.2 5.4-8.2 5.4-4.4 0-7.1-2-8-5.7l-5.2 1.3c1.3 6 6.2 9 13.3 9 8.1 0 13.6-4.3 13.6-10.4 0-4.8-3-7.9-9.2-9.4l-5.2-1.3c-4.2-1-6-2.4-6-5 0-3 3.2-5.3 7.4-5.3 4.7 0 6.6 2.6 7.6 5l4.8-1.3zm-310.7 27h5.2v-5.3h.7c1.1 2 3.4 6 10.1 6 8.8 0 14.9-7 14.9-18s-6.1-18-15-18c-6.8 0-8.9 4.2-10 6h-.5v-17.2h-5.4v46.6zm276.6-34.8h-7.5v-8.4h-5.3v8.4h-5.3v4.5h5.3v21.8c0 6.1 4.9 9 9.4 9 2 0 3.3-.3 4-.6l-1-4.8-2.4.2c-2.4 0-4.7-.7-4.7-5.2v-20.4h7.5v-4.5zm-40.3 34.9h5.4v-22.1c0-4.8 3.7-8.2 8.8-8.2 1.4 0 3 .3 3.3.4v-5.5h-2.8a9.5 9.5 0 0 0-9.1 5.7h-.4v-5.2h-5.2v34.9zm-71-21c0-6.1 3.8-9.6 9.1-9.6 5 0 8 3.2 8 8.7v21.9h5.5v-22.2c0-9-4.8-13.2-12-13.2-5.5 0-8.6 2.3-10.2 6h-.5V1888h-5.3v46.6h5.3v-21zm-87.6 21h5.4v-22.1c0-4.8 3.7-8.2 8.8-8.2 1.4 0 2.9.3 3.2.4v-5.5H883a9.5 9.5 0 0 0-9 5.7h-.4v-5.2h-5.2v34.9zm132.3-4c-4.2 0-7.3-2-7.3-5.7 0-4 3.7-5.3 7.9-5.9 2.3-.3 8.3-.9 9.3-2v5c0 4.3-3.5 8.6-9.9 8.6zm-158.6 0c-4.3 0-7.4-2-7.4-5.7 0-4 3.8-5.3 8-5.9 2.2-.3 8.3-.9 9.2-2v5c0 4.3-3.4 8.6-9.8 8.6zm-46-13.5c0-7.8 3.4-13 10-13 6.7 0 10.1 5.6 10.1 13 0 7.5-3.5 13.4-10.2 13.4-6.4 0-10-5.5-10-13.4zm183-45.4c4.8 0 8.3-2.6 10.3-8l14.8-40h-5.8l-9.7 27.8h-.3l-9.7-27.8h-5.8l13 35-1 2.8c-2 5.3-4.4 5.8-8.3 4.8l-1.4 4.7c.5.3 2 .7 4 .7zm-123.7-12.3c6 0 9.3-3.3 10.4-5.6h.2v4.8h5.4v-23c0-11.1-8.5-12.4-13-12.4-5.2 0-11.2 1.8-14 8.2l5.2 1.8c1.2-2.5 4-5.3 9-5.3s7.4 2.6 7.4 7.1v.2c0 2.6-2.6 2.4-9 3.2-6.4.8-13.5 2.3-13.5 10.3 0 6.8 5.3 10.7 11.9 10.7zm41.3-.1c7.7 0 12.8-4.7 13.7-11h-5.4c-1 3.9-4.1 6.2-8.3 6.2-6.4 0-10.5-5.3-10.5-13.4 0-7.9 4.2-13 10.5-13 4.7 0 7.5 2.8 8.3 6h5.4c-.9-6.5-6.5-10.9-13.8-10.9-9.5 0-15.7 7.5-15.7 18s6 18 15.8 18zm130 0c9.5 0 15.9-7.2 15.9-18 0-11-6.4-18.1-15.9-18.1-9.4 0-15.8 7.2-15.8 18 0 11 6.4 18 15.8 18zm-216.1-27.8c-1.7-5-5.5-8.3-12.4-8.3-7.4 0-12.8 4.2-12.8 10 0 5 2.8 8.1 9.3 9.6l5.8 1.4c3.5.8 5.2 2.5 5.2 5 0 3-3.2 5.4-8.2 5.4-4.4 0-7.2-2-8.1-5.7l-5.1 1.3c1.2 6 6.1 9 13.3 9 8 0 13.6-4.3 13.6-10.4 0-4.8-3-7.9-9.3-9.4l-5.2-1.3c-4-1-6-2.4-6-5 0-3 3.2-5.3 7.5-5.3 4.7 0 6.6 2.6 7.5 5l4.9-1.3zm263.4 12.8a9 9 0 0 1-9 9.5c-4.4 0-7.6-3.2-7.6-8.3v-21.8h-5.4v22.1c0 9 4.8 13.2 11.3 13.2 5.3 0 8.7-2.8 10.4-6.3h.3v5.9h5.4v-35h-5.4v20.7zm-238.3-20.6h-7.4v-8.4h-5.4v8.4h-5.2v4.5h5.2v21.8c0 6.1 5 9 9.5 9 2 0 3.3-.3 4-.6l-1.1-4.8-2.4.2c-2.3 0-4.6-.7-4.6-5.2v-20.4h7.4v-4.5zm83.8 34.9h5.4v-13.1l3.7-3.5 13 16.6h6.9l-15.8-20 14.7-15h-6.6l-15.3 15.6h-.6v-27.2h-5.4v46.6zm171 0h5.4v-22.1c0-4.8 3.7-8.2 8.8-8.2 1.4 0 2.9.3 3.2.4v-5.5h-2.8a9.5 9.5 0 0 0-9 5.7h-.4v-5.2h-5.2v34.9zm-234.3-4c-4.3 0-7.4-2-7.4-5.7 0-4 3.8-5.3 8-5.9 2.2-.3 8.3-.9 9.2-2v5c0 4.3-3.4 8.6-9.8 8.6zm170.5-.1c-7.1 0-10.4-6.2-10.4-13.2 0-7 3.3-13.3 10.4-13.3 7.2 0 10.5 6.3 10.5 13.3 0 7-3.3 13.2-10.5 13.2zm73.1-116.6c-44.1-10.5-321.7-4.4-339.2 3.1-5.5 2.4-6.8 6.1-5 10.4.6 1.5 3.4 2.9 5 1.7 14.3-10.4 339.2-10.7 342.9-.7a63.8 63.8 0 0 0-27.4 29.6c-1 2-1.4 3.2-1.5 3.5-.4 2.7 1.4 5.2 6.8 6a8 8 0 0 0 4.6-.4c.8-.4 1.5-1 2-2h.1c4.7-8.6 8-14 10-16.3 8.2-8.7 18.3-14.4 30.6-17l4-.5c3.1-.7 4.4-2.3 4.6-3.8.3-1.7-.5-3.6-3.3-5.3l-.3-.2-3.6-1.7a53.7 53.7 0 0 1-25.3-29.1c-1.6-6.3-2.6-11-3-14.1v-.2a4.8 4.8 0 0 0-4.3-4l-1.4-.4-1.5-.2a7 7 0 0 0-4.4.5c-1.3.7-2.1 1.8-2.4 3.4-.5 3.6.5 9.3 3.3 17 2 5.2 5.5 15 8.7 20.7zm-340.4-75h11l4.6-27.5c1-6 6.2-10.2 12.3-10.2 1.9 0 4.1.3 5 .7l1.8-10.2c-1-.2-2.7-.3-4-.3-5.3 0-10.4 3-13 8.5h-.5l1.4-7.8H767l-7.8 46.9zm54.6 1c11 0 19.3-5.3 22.7-13.5l-10.1-1.2c-2.2 4-6.2 6.1-11 6.1-7.5 0-11.3-3.8-9.9-12.6v-.1h32.7l.6-3.4c2.7-16.5-6-23.7-17.5-23.7-13.4 0-23.9 9.8-26.2 24.3-2.5 14.7 4.6 24.1 18.7 24.1zm-7-28.8c1.3-5.6 6.9-11 13.2-11 6.4 0 9.9 4.6 8.8 11h-22zm72.3 8.2a12.1 12.1 0 0 1-11.7 10.6c-5.3 0-8.2-3.7-7.3-9.7l4.7-28.1h-11l-5 29.8c-2 11.3 3.4 17.7 12.6 17.7 7 0 12.7-3.7 15.7-9h.5l-1.5 8.4H887l7.8-47h-11l-4.6 27.3zm36.5-7.8c1.2-6.8 6-10.7 11.7-10.7 5.8 0 8.5 3.8 7.5 10l-4.7 28.2h11l5-29.9c2-11.2-3.5-17.6-13-17.6a17 17 0 0 0-15.5 8.6h-.6l1.4-8h-10.6l-7.8 46.9h11l4.6-27.5zm38.5 27.5h11l7.9-47h-11l-7.9 47zm15-53.6c3.5 0 6.6-2.7 6.8-6 .3-3.4-2.3-6-5.8-6a7 7 0 0 0-7 6c-.2 3.3 2.5 6 6 6zm29.7 54.5c13.6 0 23.8-9.5 26.2-23.9 2.3-14.7-4.9-24.5-18.7-24.5-13.6 0-23.8 9.5-26.1 24-2.4 14.6 4.7 24.4 18.6 24.4zm1-8.9c-7.5 0-10-6.6-8.6-15 1.4-8.8 6.5-15.8 14.2-15.8 7.4 0 9.9 6.8 8.5 15.2-1.4 8.7-6.5 15.6-14.2 15.6zm48-19.5c1.3-6.8 6-10.7 11.8-10.7 5.8 0 8.5 3.8 7.5 10l-4.7 28.2h11l5-29.9c2-11.2-3.5-17.6-13-17.6a17 17 0 0 0-15.5 8.6h-.6l1.4-8h-10.6l-7.8 46.9h11l4.6-27.5zm81.4-7c-.2-8-5.8-13-17-13-11.1 0-19.6 5.3-21 13.8-1.2 7 2.5 11.7 11.2 13.6l7.7 1.7c4.2 1 5.7 2.4 5.3 5-.5 3.3-4.7 6-10.1 6-4.9 0-7.7-2.2-8-6.4l-10.8 1c0 8.6 6.5 13.7 18.2 13.7 11.5 0 20.6-5.9 22-14.6 1.2-6.9-2.6-11-11.1-13l-7.8-1.7c-4.5-1.1-6-2.6-5.6-5.1.5-3.4 4.7-5.8 9.5-5.8 5 0 7 2.7 7.3 5.9l10.2-1.1zM884 1259.8h5.4c-.2-7-6.7-12.3-15.7-12.3s-16 5.2-16 13c0 6.3 4.6 10 11.9 12l5.7 1.7c5 1.4 9.3 3.1 9.3 7.7 0 5.1-5 8.5-11.4 8.5-5.5 0-10.4-2.5-10.9-7.7h-5.8c.5 7.6 6.7 12.8 16.7 12.8 10.8 0 16.8-6 16.8-13.5 0-8.7-8.2-11.5-13-12.8l-4.8-1.3c-3.4-.9-9-2.7-9-7.7 0-4.4 4.1-7.7 10.3-7.7 5.6 0 10 2.7 10.5 7.3zm57.8 34.9h5.1v-5.4h.7c1.2 2 3.4 6 10.2 6 8.7 0 14.8-7 14.8-18s-6.1-18-15-18c-6.8 0-8.8 4.2-10 6h-.5v-17.2h-5.3v46.6zm55.4.7c9.4 0 15.8-7.2 15.8-18 0-11-6.4-18.1-15.8-18.1-9.5 0-15.8 7.2-15.8 18 0 11 6.3 18 15.8 18zm127.2-27.8c-1.6-5-5.4-8.3-12.3-8.3-7.4 0-12.8 4.2-12.8 10 0 5 2.8 8.1 9.2 9.6l5.9 1.4c3.5.8 5.1 2.5 5.1 5 0 3-3.1 5.4-8.1 5.4-4.4 0-7.2-2-8.1-5.7l-5.1 1.3c1.2 6 6.1 9 13.2 9 8.2 0 13.7-4.3 13.7-10.4 0-4.8-3-7.9-9.3-9.4l-5.2-1.3c-4.1-1-6-2.4-6-5 0-3 3.2-5.3 7.5-5.3 4.7 0 6.6 2.6 7.5 5l4.8-1.3zm-49.6 27.8c7.1 0 12.3-3.6 14-8.8l-5.2-1.5c-1.4 3.7-4.6 5.5-8.8 5.5-6.3 0-10.6-4-10.8-11.6h25.3v-2.2c0-13-7.7-17.5-15-17.5-9.5 0-15.7 7.5-15.7 18.2s6.1 17.9 16.2 17.9zM907.2 1248h-5.6v46.6h5.6V1248zm120.2 11.7h-6.2l11.1 17.4-11 17.5h6.1l8.4-13.6 8.3 13.6h6.2l-11.2-17.5 11.2-17.4h-6.2l-8.3 14.2-8.4-14.2zM845 1248h-5.6v36.7h-.4l-25.5-36.7h-5.4v46.6h5.6V1258h.5l25.3 36.6h5.5V1248zm-80.5 46.6l4.7-13.2H788l4.7 13.2h5.9l-17.1-46.6h-5.8l-17.1 46.6h5.9zm232.7-4.1c-7.2 0-10.5-6.2-10.5-13.2 0-7 3.3-13.3 10.5-13.3s10.4 6.3 10.4 13.3c0 7-3.2 13.2-10.4 13.2zm-50.2-13.4c0-7.8 3.5-13 10-13 6.8 0 10.2 5.6 10.2 13 0 7.5-3.4 13.4-10.2 13.4-6.4 0-10-5.5-10-13.4zm-176-.7l7.4-21h.3l7.5 21H771zm293-2.1c.3-5.4 4.2-10.3 10.3-10.3 5.8 0 9.5 4.4 9.5 10.3H1064zm-114.2-42.6c4.8 0 8.2-2.6 10.2-8l14.9-40H969l-9.6 27.8h-.4l-9.6-27.8h-5.8l12.9 35-1 2.8c-2 5.3-4.4 5.8-8.3 4.8l-1.3 4.7c.5.3 2 .7 3.9.7zm55.6 0c4.9 0 8.3-2.6 10.3-8l14.8-40h-5.8l-9.6 27.8h-.4l-9.6-27.8h-5.9l13 35-1 2.8c-2 5.3-4.4 5.8-8.3 4.8l-1.4 4.7c.6.3 2.1.7 4 .7zm-85.5-12.3c6 0 9.2-3.3 10.3-5.6h.3v4.8h5.4v-23c0-11.1-8.5-12.4-13-12.4-5.2 0-11.2 1.8-14 8.2l5.1 1.8c1.2-2.5 4-5.3 9.1-5.3 5 0 7.4 2.6 7.4 7.1v.2c0 2.6-2.6 2.4-9 3.2-6.5.8-13.6 2.3-13.6 10.3 0 6.8 5.3 10.7 12 10.7zm132.5-.1c9.5 0 15.9-7.2 15.9-18 0-11-6.4-18.1-15.9-18.1-9.4 0-15.8 7.2-15.8 18 0 11 6.4 18 15.8 18zm-206.4 0c7.1 0 12.3-3.6 14-8.8l-5.2-1.5c-1.4 3.7-4.6 5.5-8.8 5.5-6.3 0-10.6-4-10.9-11.6h25.4v-2.2c0-13-7.7-17.5-15-17.5-9.5 0-15.7 7.5-15.7 18.2s6.1 17.9 16.2 17.9zm-75.5 0c9.4 0 15.8-7.2 15.8-18 0-11-6.4-18.1-15.8-18.1-9.5 0-15.8 7.2-15.8 18 0 11 6.3 18 15.8 18zm328.6-15a9 9 0 0 1-9 9.5c-4.5 0-7.7-3.2-7.7-8.3v-21.8h-5.3v22.1c0 9 4.7 13.2 11.2 13.2 5.3 0 8.8-2.8 10.4-6.3h.4v5.9h5.3v-35h-5.3v20.7zm-275.4-20.6h-5.9l-9.6 27.8h-.4l-9.6-27.8h-5.8l12.9 34.9h5.5l12.9-35zm291.2 34.9h5.4v-22.1c0-4.8 3.7-8.2 8.8-8.2 1.4 0 2.9.3 3.3.4v-5.5h-2.9a9.5 9.5 0 0 0-9 5.7h-.4v-5.2h-5.2v34.9zm-245.6 0h5.4v-22.1c0-4.8 3.7-8.2 8.8-8.2 1.4 0 2.9.3 3.3.4v-5.5h-2.9a9.5 9.5 0 0 0-9 5.7h-.4v-5.2h-5.2v34.9zm29.8-46.6h-5.3v46.6h5.3V1172zm21.6 42.6c-4.3 0-7.4-2-7.4-5.7 0-4 3.7-5.3 8-5.9 2.2-.3 8.3-.9 9.2-2v5c0 4.3-3.5 8.6-9.8 8.6zm-150.2-.1c-7.2 0-10.5-6.2-10.5-13.2 0-7 3.3-13.3 10.5-13.3s10.4 6.3 10.4 13.3c0 7-3.2 13.2-10.4 13.2zm282 0c-7.2 0-10.5-6.2-10.5-13.2 0-7 3.3-13.3 10.4-13.3 7.2 0 10.5 6.3 10.5 13.3 0 7-3.3 13.2-10.5 13.2zM835 1198.4c.4-5.4 4.2-10.3 10.4-10.3 5.8 0 9.5 4.4 9.5 10.3h-19.9zm265-101c-44.2-10.5-321.8-4.4-339.3 3.2-5.5 2.3-6.8 6-5 10.4.6 1.4 3.4 2.8 5 1.6 14.3-10.4 339.2-10.7 343-.7a63.8 63.8 0 0 0-27.5 29.6c-1 2-1.4 3.2-1.5 3.5-.4 2.8 1.4 5.2 6.8 6 2 .3 3.5.1 4.6-.4.8-.4 1.5-1 2-2h.1c4.7-8.6 8-14 10-16.3h.1c8-8.7 18.2-14.4 30.5-16.9l4-.6c3.1-.7 4.4-2.2 4.7-3.7.2-1.8-.6-3.7-3.4-5.4l-.3-.1-3.6-1.8a53.8 53.8 0 0 1-25.3-29 136.1 136.1 0 0 1-3-14.3 4.8 4.8 0 0 0-4.3-4.1l-1.4-.4-1.5-.2a7 7 0 0 0-4.4.6c-1.2.6-2.1 1.7-2.4 3.4-.5 3.6.5 9.2 3.4 17 1.8 5.1 5.4 15 8.6 20.6zm-340.8-76.9h11L775 993c1-6 6.2-10.2 12.3-10.2 1.9 0 4.1.3 5 .6l1.8-10.1a23 23 0 0 0-4-.3c-5.3 0-10.4 3-13 8.5h-.5l1.4-7.9H767l-7.8 47zm54.6 1c11 0 19.3-5.4 22.7-13.5l-10.1-1.2c-2.2 4-6.2 6-11 6-7.5 0-11.3-3.7-9.9-12.5v-.2h32.7l.6-3.4c2.7-16.4-6-23.7-17.5-23.7-13.4 0-23.9 9.9-26.2 24.4-2.5 14.7 4.6 24 18.7 24zm-7-28.8c1.3-5.7 6.9-11 13.2-11 6.4 0 9.9 4.6 8.8 11h-22zm72.3 8.1a12.2 12.2 0 0 1-11.7 10.7c-5.3 0-8.2-3.8-7.3-9.7l4.7-28.2h-11l-5 29.9c-2 11.3 3.4 17.7 12.6 17.7 7 0 12.7-3.7 15.7-9h.5l-1.5 8.3H887l7.8-46.9h-11l-4.6 27.2zm36.5-7.7c1.2-6.8 6-10.7 11.7-10.7 5.8 0 8.5 3.8 7.5 10l-4.7 28.1h11l5-29.8c2-11.3-3.5-17.7-13-17.7a17 17 0 0 0-15.5 8.6h-.6l1.4-8h-10.6l-7.8 47h11l4.6-27.5zm38.5 27.4h11l7.9-46.9h-11l-7.9 47zm15-53.6c3.5 0 6.6-2.7 6.8-6 .3-3.3-2.3-6-5.8-6a7 7 0 0 0-7 6c-.2 3.3 2.5 6 6 6zm29.7 54.6c13.6 0 23.8-9.6 26.2-24 2.3-14.6-4.9-24.5-18.7-24.5-13.6 0-23.8 9.6-26.1 24-2.4 14.6 4.7 24.5 18.6 24.5zm1-8.9c-7.5 0-10-6.6-8.6-15 1.4-8.8 6.5-15.8 14.2-15.8 7.4 0 9.9 6.7 8.5 15.1-1.4 8.8-6.5 15.7-14.2 15.7zm48-19.5c1.3-6.8 6-10.7 11.8-10.7 5.8 0 8.5 3.8 7.5 10l-4.7 28.1h11l5-29.8c2-11.3-3.5-17.7-13-17.7a17 17 0 0 0-15.5 8.6h-.6l1.4-8h-10.6l-7.8 47h11l4.6-27.5zm81.4-7c-.2-8-5.8-13-17-13-11.1 0-19.6 5.3-21 13.8-1.2 7 2.5 11.6 11.2 13.5l7.7 1.7c4.2 1 5.7 2.5 5.3 5-.5 3.4-4.7 6-10.1 6-4.9 0-7.7-2.1-8-6.4l-10.8 1c0 8.6 6.5 13.8 18.2 13.8 11.5 0 20.6-6 22-14.6 1.2-7-2.6-11.1-11.1-13l-7.8-1.8c-4.5-1-6-2.6-5.6-5 .5-3.4 4.7-5.8 9.5-5.8 5 0 7 2.7 7.3 5.8l10.2-1z"/>
  <path fill="#0D0D0D" d="M1278 1248h-96V800h448v96h-64v-32h-320v320h32v64zm128-64h160v-160h64v224h-224v-64z"/>
  <path fill="#737373" d="M1630 896v48h32v32h-32v48h-64v-48h-32v-32h32v-48h64z"/>
  <path fill="#BFBFBF" d="M1662 944v32m0-32h81.2l-1.2 416h-416v-80h32v48h352V976h-48v-32zm-128 32h-176v176h-32V944h208v32z"/>
  <path fill="#CCC" fill-rule="nonzero" d="M1198 1536v48h-48v32h48v48h32v-128h-32z"/>
  <path fill="#4D4D4D" d="M1326 1664h32v256h-32z"/>
  <path fill="#0D0D0D" d="M1358 1536v-80h-160v80h32v-48h96v48h32z"/>
  <path fill="#BFBFBF" d="M382 1615.8h48.1v352h-48v32h80v-416h-80v32z"/>
  <path fill="#0D0D0D" d="M382 1184h160v-159.6l64-.4v224H382m-128 0h-96V800h448v96l-64 .4v-32l-320-.4v320h32v64z"/>
  <path fill="#BFBFBF" fill-rule="nonzero" d="M686 208H510v16h176v192H510v16.6h176v30.8l-176 .6v16h208V160H510v16h176v32z"/>
  <path fill="#A6A6A6" fill-rule="nonzero" d="M1358 1536v48h48v32h-48v48h-32v-128h32z"/>
  <path fill="#BFBFBF" d="M1454 1791.8v128h32v-128h-32zm32-128v-80h-80v32h48v48h32z"/>
  <path fill="none" stroke="gray" stroke-linejoin="round" stroke-miterlimit="4" stroke-opacity=".3" stroke-width=".6" d="M-4 1h548v223H-4z" transform="matrix(3.0365 0 0 8.6101 138.1 119.4)"/>
  <path fill="none" stroke="gray" stroke-linejoin="round" stroke-miterlimit="4" stroke-opacity=".3" stroke-width="2.8" d="M5067.1 2346.3H5341v360.2h-273.9z" transform="matrix(6.0761 0 0 5.3311 -30662 -12380.2)"/>
</svg>
