<?xml version="1.0" encoding="UTF-8" standalone="no"?>
<!DOCTYPE svg PUBLIC "-//W3C//DTD SVG 1.1//EN" "http://www.w3.org/Graphics/SVG/1.1/DTD/svg11.dtd">
<svg xmlns="http://www.w3.org/2000/svg" fill-rule="evenodd" stroke-linejoin="round" clip-rule="evenodd" viewBox="0 0 290 323">
  <path fill="none" d="M-9941.88-2366h32861.26v24204.4H-9941.88z"/>
  <path fill="#f7f7f7" d="M2 2h285.39v318H1.99z"/>
  <path fill="none" stroke="#000" stroke-width="8" d="M2912 128h256v256h-256z" transform="matrix(0 .125 -.125 0 208.7 -204)"/>
  <path fill="#f7f7f7" fill-opacity=".75" d="M192.7 160v32h-32v-32z"/>
  <path fill="none" stroke="#000" stroke-width="5.06" d="M2432 288h64v256h-64z" transform="matrix(0 -.25 -.125 0 228.7 792)"/>
  <path d="M192.7 184v-16h-32v16z"/>
  <path fill="none" stroke="gray" stroke-opacity=".5" stroke-width="8" d="M2400 352v256m32 0V352m96 0v256m32 0V352m-96 0v256m32 0V352m96 0v256m32 0V352m32 0v256m0-256h-256m0 32h256m0 96h-256m0 32h256m0-96h-256m0 32h256m0 96h-256m0 32h256m0 32h-256" transform="matrix(0 .125 .125 0 116.7 -140)"/>
  <path fill="#fff" d="M2 280h285.39v40.03H1.99z"/>
  <path fill="none" stroke="#000" stroke-width="8" d="M2912 128h256v256h-256z" transform="matrix(0 -.125 .125 0 80.7 428)"/>
  <path fill="#f7f7f7" fill-opacity=".75" d="M96.7 64V32h32v32z"/>
  <path fill="none" stroke="#000" stroke-width="8" d="M2432 288h64v256h-64z" transform="matrix(0 .125 .125 0 60.7 -260)"/>
  <path d="M96.7 44v8h32v-8z"/>
  <path fill="none" stroke="gray" stroke-opacity=".5" stroke-width="8" d="M2400 352v256m32 0V352m96 0v256m32 0V352m-96 0v256m32 0V352m96 0v256m32 0V352m32 0v256m0-256h-256m0 32h256m0 96h-256m0 32h256m0-96h-256m0 32h256m0 96h-256m0 32h256m0 32h-256" transform="matrix(0 -.125 -.125 0 172.7 364)"/>
  <path fill="none" stroke="#000" stroke-width="8" d="M2912 128h256v256h-256z" transform="matrix(0 -.125 .125 0 16.7 428)"/>
  <path fill="#f7f7f7" fill-opacity=".75" d="M32.7 64V32h32v32z"/>
  <path fill="none" stroke="#000" stroke-width="8" d="M2912 128h256v256h-256z" transform="matrix(0 -.125 .125 0 80.7 492)"/>
  <path fill="#f7f7f7" fill-opacity=".75" d="M96.7 128V96h32v32z"/>
  <path fill="none" stroke="#000" stroke-width="8" d="M2432 288h64v256h-64z" transform="matrix(0 .125 .125 0 60.7 -196)"/>
  <path d="M96.7 108v8h32v-8z"/>
  <path fill="none" stroke="gray" stroke-opacity=".5" stroke-width="8" d="M2400 352v256m32 0V352m96 0v256m32 0V352m-96 0v256m32 0V352m96 0v256m32 0V352m32 0v256m0-256h-256m0 32h256m0 96h-256m0 32h256m0-96h-256m0 32h256m0 96h-256m0 32h256m0 32h-256" transform="matrix(0 -.125 -.125 0 172.7 428)"/>
  <path fill="none" stroke="#000" stroke-width="8" d="M2912 128h256v256h-256z" transform="matrix(0 -.125 .125 0 16.7 492)"/>
  <path fill="#f7f7f7" fill-opacity=".75" d="M32.7 128V96h32v32z"/>
  <path fill="none" stroke="#000" stroke-width="8" d="M2432 288h64v256h-64z" transform="matrix(0 .125 .125 0 -3.3 -196)"/>
  <path d="M32.7 108v8h32v-8z"/>
  <g>
    <path fill="none" stroke="gray" stroke-opacity=".5" stroke-width="8" d="M2400 352v256m32 0V352m96 0v256m32 0V352m-96 0v256m32 0V352m96 0v256m32 0V352m32 0v256m0-256h-256m0 32h256m0 96h-256m0 32h256m0-96h-256m0 32h256m0 96h-256m0 32h256m0 32h-256" transform="matrix(0 -.125 -.125 0 108.7 428)"/>
  </g>
  <g>
    <path fill="none" stroke="#000" stroke-width="8" d="M2912 128h256v256h-256z" transform="matrix(.125 0 0 .125 -331.3 208)"/>
    <path fill="#f7f7f7" fill-opacity=".75" d="M32.7 224h32v32h-32z"/>
    <path fill="none" stroke="#000" stroke-width="8" d="M2432 288h64v256h-64z" transform="matrix(-.125 0 0 .125 356.7 188)"/>
    <path d="M52.7 224h-8v32h8z"/>
    <g>
      <path fill="none" stroke="gray" stroke-opacity=".5" stroke-width="8" d="M2400 352v256m32 0V352m96 0v256m32 0V352m-96 0v256m32 0V352m96 0v256m32 0V352m32 0v256m0-256h-256m0 32h256m0 96h-256m0 32h256m0-96h-256m0 32h256m0 96h-256m0 32h256m0 32h-256" transform="matrix(.125 0 0 -.125 -267.3 300)"/>
    </g>
  </g>
  <g>
    <path fill="none" stroke="#000" stroke-width="8" d="M2912 128h256v256h-256z" transform="matrix(.125 0 0 .125 -139.3 208)"/>
    <path fill="#f7f7f7" fill-opacity=".75" d="M224.7 224h32v32h-32z"/>
    <path fill="none" stroke="#000" stroke-width="8" d="M2432 288h64v256h-64z" transform="matrix(-.125 0 0 .125 548.7 188)"/>
    <path d="M244.7 224h-8v32h8z"/>
    <g>
      <path fill="none" stroke="gray" stroke-opacity=".5" stroke-width="8" d="M2400 352v256m32 0V352m96 0v256m32 0V352m-96 0v256m32 0V352m96 0v256m32 0V352m32 0v256m0-256h-256m0 32h256m0 96h-256m0 32h256m0-96h-256m0 32h256m0 96h-256m0 32h256m0 32h-256" transform="matrix(.125 0 0 -.125 -75.3 300)"/>
    </g>
  </g>
  <g>
    <path fill="none" stroke="#000" stroke-width="8" d="M2912 128h256v256h-256z" transform="matrix(.125 0 0 .125 -267.3 208)"/>
    <path fill="#f7f7f7" fill-opacity=".75" d="M96.7 224h32v32h-32z"/>
    <path fill="none" stroke="#000" stroke-width="8" d="M2432 288v96h-96v64h96v96h64v-96h96v-64h-96v-96h-64z" transform="matrix(-.125 0 0 .125 420.7 188)"/>
    <path d="M116.7 224v12h12v8h-12v12h-8v-12h-12v-8h12v-12h8z"/>
    <g>
      <path fill="none" stroke="gray" stroke-opacity=".5" stroke-width="8" d="M2400 352v256m32 0V352m96 0v256m32 0V352m-96 0v256m32 0V352m96 0v256m32 0V352m32 0v256m0-256h-256m0 32h256m0 96h-256m0 32h256m0-96h-256m0 32h256m0 96h-256m0 32h256m0 32h-256" transform="matrix(.125 0 0 -.125 -203.3 300)"/>
    </g>
  </g>
  <g>
    <path fill="none" stroke="#000" stroke-width="8" d="M2912 128h256v256h-256z" transform="matrix(.125 0 0 .125 -139.3 80)"/>
    <path fill="#f7f7f7" fill-opacity=".75" d="M224.7 96h32v32h-32z"/>
    <path fill="none" stroke="#000" stroke-width="8" d="M2432 288v96h-96v64h96v96h64v-96h96v-64h-96v-96h-64z" transform="matrix(-.125 0 0 .125 548.7 60)"/>
    <path d="M244.7 96v12h12v8h-12v12h-8v-12h-12v-8h12V96h8z"/>
    <g>
      <path fill="none" stroke="gray" stroke-opacity=".5" stroke-width="8" d="M2400 352v256m32 0V352m96 0v256m32 0V352m-96 0v256m32 0V352m96 0v256m32 0V352m32 0v256m0-256h-256m0 32h256m0 96h-256m0 32h256m0-96h-256m0 32h256m0 96h-256m0 32h256m0 32h-256" transform="matrix(.125 0 0 -.125 -75.3 172)"/>
    </g>
  </g>
  <g>
    <path fill="none" stroke="#000" stroke-width="8" d="M2912 128h256v256h-256z" transform="matrix(.125 0 0 .125 -139.3 16)"/>
    <path fill="#f7f7f7" fill-opacity=".75" d="M224.7 32h32v32h-32z"/>
    <path fill="none" stroke="#000" stroke-width="8" d="M2432 288h64v256h-64z" transform="matrix(-.125 0 0 .125 548.7 -4)"/>
    <path d="M244.7 32h-8v32h8z"/>
    <g>
      <path fill="none" stroke="gray" stroke-opacity=".5" stroke-width="8" d="M2400 352v256m32 0V352m96 0v256m32 0V352m-96 0v256m32 0V352m96 0v256m32 0V352m32 0v256m0-256h-256m0 32h256m0 96h-256m0 32h256m0-96h-256m0 32h256m0 96h-256m0 32h256m0 32h-256" transform="matrix(.125 0 0 -.125 -75.3 108)"/>
    </g>
  </g>
  <g>
    <path fill="none" stroke="#000" stroke-width="8" d="M2912 128h256v256h-256z" transform="matrix(.125 0 0 .125 -203.3 208)"/>
    <path fill="#f7f7f7" fill-opacity=".75" d="M160.7 224h32v32h-32z"/>
    <path fill="none" stroke="#000" stroke-width="8" d="M2432 288v64h-96v128h96v64h64v-64h96V352h-96v-64h-64z" transform="matrix(-.125 0 0 .125 484.7 188)"/>
    <path d="M180.7 224v8h12v16h-12v8h-8v-8h-12v-16h12v-8h8z"/>
    <g>
      <path fill="none" stroke="gray" stroke-opacity=".5" stroke-width="8" d="M2400 352v256m32 0V352m96 0v256m32 0V352m-96 0v256m32 0V352m96 0v256m32 0V352m32 0v256m0-256h-256m0 32h256m0 96h-256m0 32h256m0-96h-256m0 32h256m0 96h-256m0 32h256m0 32h-256" transform="matrix(.125 0 0 -.125 -139.3 300)"/>
    </g>
  </g>
  <g>
    <path fill="none" stroke="#000" stroke-width="8" d="M2912 128h256v256h-256z" transform="matrix(.125 0 0 .125 -139.3 144)"/>
    <path fill="#f7f7f7" fill-opacity=".75" d="M224.7 160h32v32h-32z"/>
    <path fill="none" stroke="#000" stroke-width="8" d="M2432 288v64h-96v128h96v64h64v-64h96V352h-96v-64h-64z" transform="matrix(-.125 0 0 .125 548.7 124)"/>
    <path d="M244.7 160v8h12v16h-12v8h-8v-8h-12v-16h12v-8h8z"/>
    <g>
      <path fill="none" stroke="gray" stroke-opacity=".5" stroke-width="8" d="M2400 352v256m32 0V352m96 0v256m32 0V352m-96 0v256m32 0V352m96 0v256m32 0V352m32 0v256m0-256h-256m0 32h256m0 96h-256m0 32h256m0-96h-256m0 32h256m0 96h-256m0 32h256m0 32h-256" transform="matrix(.125 0 0 -.125 -75.3 236)"/>
    </g>
  </g>
  <g>
    <path fill="none" stroke="#000" stroke-width="8" d="M2912 128h256v256h-256z" transform="matrix(0 .125 -.125 0 208.7 -332)"/>
    <path fill="#f7f7f7" fill-opacity=".75" d="M192.7 32v32h-32V32z"/>
    <path fill="none" stroke="#000" stroke-width="5.06" d="M2432 288h64v256h-64z" transform="matrix(0 -.25 -.125 0 228.7 664)"/>
    <path d="M192.7 56V40h-32v16z"/>
    <g>
      <path fill="none" stroke="gray" stroke-opacity=".5" stroke-width="8" d="M2400 352v256m32 0V352m96 0v256m32 0V352m-96 0v256m32 0V352m96 0v256m32 0V352m32 0v256m0-256h-256m0 32h256m0 96h-256m0 32h256m0-96h-256m0 32h256m0 96h-256m0 32h256m0 32h-256" transform="matrix(0 .125 .125 0 116.7 -268)"/>
    </g>
  </g>
  <g>
    <path fill="none" stroke="#000" stroke-width="8" d="M2912 128h256v256h-256z" transform="matrix(0 .125 -.125 0 208.7 -268)"/>
    <path fill="#f7f7f7" fill-opacity=".75" d="M192.7 96v32h-32V96z"/>
    <path fill="none" stroke="#000" stroke-width="5.06" d="M2432 288h64v256h-64z" transform="matrix(0 -.25 -.125 0 228.7 728)"/>
    <path d="M192.7 120v-16h-32v16z"/>
    <g>
      <path fill="none" stroke="gray" stroke-opacity=".5" stroke-width="8" d="M2400 352v256m32 0V352m96 0v256m32 0V352m-96 0v256m32 0V352m96 0v256m32 0V352m32 0v256m0-256h-256m0 32h256m0 96h-256m0 32h256m0-96h-256m0 32h256m0 96h-256m0 32h256m0 32h-256" transform="matrix(0 .125 .125 0 116.7 -204)"/>
    </g>
  </g>
  <g>
    <path fill="none" stroke="#000" stroke-width="8" d="M2912 128h256v256h-256z" transform="matrix(0 .125 -.125 0 144.7 -204)"/>
    <path fill="#f7f7f7" fill-opacity=".75" d="M128.7 160v32h-32v-32z"/>
    <path fill="none" stroke="#000" stroke-width="5.06" d="M2432 288h64v256h-64z" transform="matrix(0 -.25 -.125 0 164.7 792)"/>
    <path d="M128.7 184v-16h-32v16z"/>
    <g>
      <path fill="none" stroke="gray" stroke-opacity=".5" stroke-width="8" d="M2400 352v256m32 0V352m96 0v256m32 0V352m-96 0v256m32 0V352m96 0v256m32 0V352m32 0v256m0-256h-256m0 32h256m0 96h-256m0 32h256m0-96h-256m0 32h256m0 96h-256m0 32h256m0 32h-256" transform="matrix(0 .125 .125 0 52.7 -140)"/>
    </g>
  </g>
  <g>
    <path fill="none" stroke="#000" stroke-width="8" d="M2912 128h256v256h-256z" transform="matrix(0 .125 -.125 0 80.7 -204)"/>
    <path fill="#f7f7f7" fill-opacity=".75" d="M64.7 160v32h-32v-32z"/>
    <path fill="none" stroke="#000" stroke-width="5.06" d="M2432 288h64v256h-64z" transform="matrix(0 -.25 -.125 0 100.7 792)"/>
    <path d="M64.7 184v-16h-32v16z"/>
    <g>
      <path fill="none" stroke="gray" stroke-opacity=".5" stroke-width="8" d="M2400 352v256m32 0V352m96 0v256m32 0V352m-96 0v256m32 0V352m96 0v256m32 0V352m32 0v256m0-256h-256m0 32h256m0 96h-256m0 32h256m0-96h-256m0 32h256m0 96h-256m0 32h256m0 32h-256" transform="matrix(0 .125 .125 0 -11.3 -140)"/>
    </g>
  </g>
  <g>
    <path fill="none" stroke="#fefefe" stroke-miterlimit="2" d="M9960.96 2672l1.17-3.3h4.7l1.18 3.3h1.47l-4.27-11.64h-1.45l-4.28 11.64h1.48zm1.61-4.55l1.87-5.25h.09l1.86 5.25h-3.82zm22.59-3.45a4.53 4.53 0 0 0-4.68-3.8c-2.97 0-5.13 2.3-5.13 5.98 0 3.68 2.16 5.98 5.13 5.98a4.53 4.53 0 0 0 4.68-3.8h-1.4c-.35 1.62-1.73 2.48-3.28 2.48-2.11 0-3.77-1.64-3.77-4.66 0-3.02 1.66-4.66 3.77-4.66 1.55 0 2.93.87 3.28 2.48h1.4zm8.64-.73h1.36c-.06-1.75-1.68-3.07-3.93-3.07-2.22 0-3.97 1.3-3.97 3.25 0 1.57 1.13 2.5 2.95 3.03l1.43.41c1.23.34 2.32.77 2.32 1.93 0 1.27-1.23 2.11-2.84 2.11-1.39 0-2.61-.61-2.73-1.93h-1.45c.13 1.91 1.68 3.2 4.18 3.2 2.68 0 4.2-1.47 4.2-3.36 0-2.18-2.06-2.89-3.27-3.2l-1.18-.32c-.86-.23-2.25-.68-2.25-1.93 0-1.12 1.02-1.94 2.57-1.94 1.41 0 2.47.67 2.61 1.82zm4.32-2.91h-1.48l4.26 11.64h1.5l4.2-11.64h-1.4l-3.5 9.8h-.1l-3.48-9.8zm20.88 4.87c-.5-1.24-1.4-2.07-3.1-2.07-1.9 0-3.2 1.04-3.2 2.52 0 1.21.7 2.01 2.3 2.39l1.4.34c.9.2 1.3.62 1.3 1.23 0 .75-.8 1.36-2 1.36-1.1 0-1.8-.47-2-1.41l-1.3.32c.3 1.48 1.5 2.27 3.3 2.27 2 0 3.4-1.11 3.4-2.61 0-1.22-.7-1.98-2.3-2.37l-1.3-.31c-1-.26-1.5-.61-1.5-1.28 0-.75.8-1.29 1.9-1.29 1.1 0 1.6.65 1.9 1.25l1.2-.34zm5.9-1.96h-1.8v-2.09h-1.4v2.09h-1.3v1.14h1.3v5.45c0 1.53 1.3 2.25 2.4 2.25.5 0 .8-.09 1-.16l-.3-1.2c-.1.02-.3.07-.6.07-.6 0-1.1-.18-1.1-1.32v-5.09h1.8v-1.14zm4.6 8.93c1.6 0 2.3-.81 2.6-1.38h.1v1.18h1.3v-5.75c0-2.77-2.1-3.09-3.2-3.09-1.3 0-2.8.45-3.5 2.04l1.3.46c.3-.64 1-1.32 2.2-1.32 1.3 0 1.9.65 1.9 1.77v.05c0 .65-.7.59-2.3.79-1.6.21-3.3.57-3.3 2.57 0 1.71 1.3 2.68 2.9 2.68zm.2-1.2c-1 0-1.8-.48-1.8-1.41 0-1.02.9-1.34 2-1.48.5-.06 2.1-.22 2.3-.5v1.23c0 1.09-.9 2.16-2.5 2.16zm9.8 1.18c2 0 3.2-1.18 3.5-2.73h-1.4c-.2.96-1 1.53-2.1 1.53-1.6 0-2.6-1.32-2.6-3.34 0-1.98 1.1-3.28 2.6-3.28 1.2 0 1.9.73 2.1 1.53h1.4c-.3-1.64-1.7-2.73-3.5-2.73-2.4 0-3.9 1.86-3.9 4.52 0 2.62 1.5 4.5 3.9 4.5zm5.4-.18h1.4v-3.27l.9-.87 3.3 4.14h1.7l-4-5 3.7-3.73h-1.7l-3.8 3.89h-.1v-6.8h-1.4V2672zm17-8.73h-1.8v-2.09h-1.4v2.09h-1.3v1.14h1.3v5.45c0 1.53 1.2 2.25 2.4 2.25.5 0 .8-.09 1-.16l-.3-1.2c-.1.02-.3.07-.6.07-.6 0-1.1-.18-1.1-1.32v-5.09h1.8v-1.14zm4.6 8.93c1.5 0 2.3-.81 2.6-1.38h.1v1.18h1.3v-5.75c0-2.77-2.1-3.09-3.2-3.09-1.3 0-2.8.45-3.5 2.04l1.3.46c.2-.64.9-1.32 2.2-1.32 1.3 0 1.9.65 1.9 1.77v.05c0 .65-.7.59-2.3.79-1.6.21-3.4.57-3.4 2.57 0 1.71 1.3 2.68 3 2.68zm.2-1.2c-1.1 0-1.8-.48-1.8-1.41 0-1.02.9-1.34 1.9-1.48.6-.06 2.1-.22 2.4-.5v1.23c0 1.09-.9 2.16-2.5 2.16zm6.4 1h1.3v-1.34h.2c.3.48.9 1.52 2.5 1.52 2.2 0 3.7-1.75 3.7-4.52 0-2.75-1.5-4.5-3.7-4.5-1.7 0-2.2 1.04-2.5 1.5h-.1v-4.3h-1.4V2672zm1.4-4.36c0-1.96.8-3.28 2.5-3.28s2.5 1.44 2.5 3.28c0 1.86-.9 3.34-2.5 3.34-1.7 0-2.5-1.37-2.5-3.34zm9.7-7.28h-1.3V2672h1.3v-11.64zm6.1 11.82c1.8 0 3.1-.88 3.5-2.2l-1.3-.37c-.3.91-1.1 1.37-2.2 1.37-1.5 0-2.6-1.02-2.7-2.89h6.4v-.57c0-3.25-2-4.36-3.8-4.36-2.4 0-3.9 1.86-3.9 4.54 0 2.69 1.5 4.48 4 4.48zm-2.7-5.25c.1-1.36 1.1-2.57 2.6-2.57s2.4 1.09 2.4 2.57h-5zm16.5 5.25c2.3 0 3.9-1.79 3.9-4.5 0-2.73-1.6-4.52-3.9-4.52-2.4 0-4 1.79-4 4.52 0 2.71 1.6 4.5 4 4.5zm0-1.2c-1.8 0-2.7-1.55-2.7-3.3 0-1.75.9-3.32 2.7-3.32 1.7 0 2.6 1.57 2.6 3.32 0 1.75-.9 3.3-2.6 3.3zm9.8-7.71h-1.9v-.88c0-.87.3-1.32 1.2-1.32.4 0 .6.09.8.13l.4-1.15c-.2-.1-.6-.23-1.3-.23-1.3 0-2.5.75-2.5 2.25v1.2h-1.4v1.14h1.4v7.59h1.4v-7.59h1.9v-1.14zm10.3 8.89c2.3 0 4-1.42 4-3.32 0-1.48-.9-2.55-2.4-2.79v-.1c1.2-.35 1.9-1.32 1.9-2.63 0-1.65-1.3-3.12-3.4-3.12-2 0-3.7 1.24-3.8 3.07h1.4c0-1.16 1.1-1.84 2.4-1.84 1.2 0 2.1.78 2.1 1.96 0 1.22-1 2.02-2.4 2.02h-.9v1.25h.9c1.8 0 2.8.9 2.8 2.18 0 1.23-1.1 2.07-2.6 2.07-1.3 0-2.4-.69-2.5-1.82h-1.4c.1 1.83 1.7 3.07 3.9 3.07zm14.4.02c1.9 0 3.2-1.18 3.4-2.73h-1.4c-.2.96-1 1.53-2 1.53-1.6 0-2.7-1.32-2.7-3.34 0-1.98 1.1-3.28 2.7-3.28a2 2 0 0 1 2 1.53h1.4c-.2-1.64-1.6-2.73-3.5-2.73-2.3 0-3.9 1.86-3.9 4.52 0 2.62 1.5 4.5 4 4.5zm6.7-5.43c0-1.52.9-2.39 2.3-2.39 1.2 0 2 .8 2 2.19v5.45h1.3v-5.55c0-2.24-1.2-3.29-2.9-3.29-1.4 0-2.2.57-2.6 1.48h-.1v-4.28h-1.4V2672h1.4v-5.25zm10.7 5.45c1.5 0 2.3-.81 2.6-1.38h0v1.18h1.4v-5.75c0-2.77-2.2-3.09-3.3-3.09-1.3 0-2.8.45-3.5 2.04l1.3.46c.3-.64 1-1.32 2.3-1.32 1.2 0 1.8.65 1.8 1.77v.05c0 .65-.6.59-2.2.79-1.7.21-3.4.57-3.4 2.57 0 1.71 1.3 2.68 3 2.68zm.2-1.2c-1.1 0-1.9-.48-1.9-1.41 0-1.02 1-1.34 2-1.48.6-.06 2.1-.22 2.3-.5v1.23c0 1.09-.8 2.16-2.4 2.16zm6.2 1h1.4v-5.52c0-1.18.9-2.05 2.2-2.05.3 0 .7.07.8.09v-1.36l-.7-.02c-1.1 0-2 .59-2.3 1.45h-.1v-1.32h-1.3v8.73zm8.5.2c1.6 0 2.4-.81 2.6-1.38h.1v1.18h1.3v-5.75c0-2.77-2.1-3.09-3.2-3.09-1.3 0-2.8.45-3.5 2.04l1.3.46c.3-.64 1-1.32 2.3-1.32 1.2 0 1.8.65 1.8 1.77v.05c0 .65-.7.59-2.3.79-1.6.21-3.3.57-3.3 2.57 0 1.71 1.3 2.68 2.9 2.68zm.2-1.2c-1 0-1.8-.48-1.8-1.41 0-1.02.9-1.34 2-1.48.5-.06 2.1-.22 2.3-.5v1.23c0 1.09-.9 2.16-2.5 2.16zm9.8 1.18c2 0 3.2-1.18 3.5-2.73h-1.4c-.2.96-1 1.53-2.1 1.53-1.6 0-2.6-1.32-2.6-3.34 0-1.98 1.1-3.28 2.6-3.28 1.2 0 1.9.73 2.1 1.53h1.4c-.3-1.64-1.6-2.73-3.5-2.73-2.3 0-3.9 1.86-3.9 4.52 0 2.62 1.5 4.5 3.9 4.5zm9.2-8.91h-1.8v-2.09h-1.4v2.09h-1.3v1.14h1.3v5.45c0 1.53 1.2 2.25 2.4 2.25.5 0 .8-.09 1-.16l-.3-1.2c-.1.02-.3.07-.6.07-.6 0-1.1-.18-1.1-1.32v-5.09h1.8v-1.14zm5.6 8.91c1.8 0 3.1-.88 3.5-2.2l-1.3-.37c-.3.91-1.1 1.37-2.2 1.37-1.6 0-2.6-1.02-2.7-2.89h6.3v-.57c0-3.25-1.9-4.36-3.7-4.36-2.4 0-4 1.86-4 4.54 0 2.69 1.6 4.48 4.1 4.48zm-2.7-5.25c.1-1.36 1-2.57 2.6-2.57 1.4 0 2.4 1.09 2.4 2.57h-5zm8.4 5.07h1.3v-5.52c0-1.18.9-2.05 2.2-2.05.4 0 .7.07.8.09v-1.36l-.7-.02c-1 0-1.9.59-2.2 1.45h-.1v-1.32h-1.3v8.73zm12.1-6.77c-.4-1.24-1.4-2.07-3.1-2.07-1.8 0-3.2 1.04-3.2 2.52 0 1.21.7 2.01 2.3 2.39l1.5.34c.9.2 1.3.62 1.3 1.23 0 .75-.8 1.36-2.1 1.36-1.1 0-1.8-.47-2-1.41l-1.3.32c.3 1.48 1.6 2.27 3.4 2.27 2 0 3.4-1.11 3.4-2.61 0-1.22-.8-1.98-2.4-2.37l-1.2-.31c-1.1-.26-1.5-.61-1.5-1.28 0-.75.7-1.29 1.8-1.29 1.2 0 1.7.65 1.9 1.25l1.2-.34z" transform="translate(-9941.88 -2366)"/>
    <path fill-rule="nonzero" d="M19.1 306l1.17-3.3h4.7l1.18 3.3h1.47l-4.27-11.63H21.9L17.62 306h1.48zm1.61-4.54l1.87-5.25h.1l1.85 5.25h-3.82zm22.6-3.45a4.53 4.53 0 0 0-4.69-3.8c-2.97 0-5.13 2.3-5.13 5.98 0 3.68 2.16 5.98 5.13 5.98a4.53 4.53 0 0 0 4.68-3.8h-1.4c-.35 1.62-1.73 2.48-3.28 2.48-2.1 0-3.77-1.64-3.77-4.66 0-3.02 1.66-4.66 3.77-4.66 1.55 0 2.93.87 3.28 2.48h1.4zm8.63-.73h1.36c-.06-1.75-1.68-3.07-3.93-3.07-2.22 0-3.97 1.3-3.97 3.25 0 1.57 1.13 2.5 2.95 3.03l1.43.4c1.23.35 2.32.78 2.32 1.94 0 1.27-1.23 2.1-2.84 2.1-1.39 0-2.6-.6-2.73-1.92h-1.45c.13 1.9 1.68 3.2 4.18 3.2 2.68 0 4.2-1.47 4.2-3.36 0-2.18-2.06-2.9-3.27-3.2l-1.18-.32c-.86-.23-2.25-.68-2.25-1.93 0-1.12 1.02-1.94 2.57-1.94 1.41 0 2.47.67 2.61 1.82zm4.32-2.91h-1.48L59.04 306h1.5l4.2-11.64h-1.4l-3.5 9.8h-.1l-3.48-9.8zm20.88 4.87c-.5-1.24-1.4-2.07-3.1-2.07-1.9 0-3.2 1.04-3.2 2.52 0 1.2.7 2 2.3 2.39l1.4.34c.9.2 1.3.62 1.3 1.23 0 .75-.8 1.36-2 1.36-1.1 0-1.8-.47-2-1.41l-1.3.32c.3 1.48 1.5 2.27 3.3 2.27 2 0 3.4-1.11 3.4-2.61 0-1.22-.7-1.98-2.3-2.37l-1.3-.31c-1-.26-1.5-.61-1.5-1.28 0-.75.8-1.3 1.9-1.3 1.1 0 1.6.66 1.9 1.26l1.2-.34zm5.9-1.96h-1.8v-2.1h-1.4v2.1h-1.3v1.14h1.3v5.45c0 1.53 1.3 2.25 2.4 2.25.5 0 .8-.1 1-.16l-.3-1.2c-.1.02-.3.07-.6.07-.6 0-1.1-.18-1.1-1.32v-5.1h1.8v-1.13zm4.6 8.93c1.6 0 2.3-.81 2.6-1.38h.1V306h1.3v-5.75c0-2.77-2.1-3.1-3.2-3.1-1.3 0-2.8.46-3.5 2.05l1.3.46c.3-.64 1-1.32 2.2-1.32 1.3 0 1.9.65 1.9 1.77v.05c0 .65-.7.59-2.3.79-1.6.2-3.3.57-3.3 2.57 0 1.7 1.3 2.68 2.9 2.68zm.2-1.2c-1 0-1.8-.48-1.8-1.41 0-1.02.9-1.34 2-1.48.5-.06 2.1-.22 2.3-.5v1.23c0 1.09-.9 2.16-2.5 2.16zm9.8 1.18c2 0 3.2-1.18 3.5-2.73h-1.4c-.2.96-1 1.53-2.1 1.53-1.6 0-2.6-1.32-2.6-3.34 0-1.98 1.1-3.28 2.6-3.28 1.2 0 1.9.73 2.1 1.53h1.4c-.3-1.64-1.7-2.73-3.5-2.73-2.4 0-3.9 1.86-3.9 4.52 0 2.62 1.5 4.5 3.9 4.5zm5.4-.18h1.4v-3.27l.9-.87 3.3 4.14h1.7l-4-5 3.7-3.73h-1.7l-3.8 3.89h-.1v-6.8h-1.4V306zm17-8.73h-1.8v-2.1h-1.4v2.1h-1.3v1.14h1.3v5.45c0 1.53 1.2 2.25 2.4 2.25.5 0 .8-.1 1-.16l-.3-1.2c-.1.02-.3.07-.6.07-.6 0-1.1-.18-1.1-1.32v-5.1h1.8v-1.13zm4.6 8.93c1.5 0 2.3-.81 2.6-1.38h.1V306h1.3v-5.75c0-2.77-2.1-3.1-3.2-3.1-1.3 0-2.8.46-3.5 2.05l1.3.46c.2-.64.9-1.32 2.2-1.32 1.3 0 1.9.65 1.9 1.77v.05c0 .65-.7.59-2.3.79-1.6.2-3.4.57-3.4 2.57 0 1.7 1.3 2.68 3 2.68zm.2-1.2c-1.1 0-1.8-.48-1.8-1.41 0-1.02.9-1.34 1.9-1.48.6-.06 2.1-.22 2.4-.5v1.23c0 1.09-.9 2.16-2.5 2.16zm6.4 1h1.3v-1.34h.2c.3.48.9 1.52 2.5 1.52 2.2 0 3.7-1.75 3.7-4.52 0-2.75-1.5-4.5-3.7-4.5-1.7 0-2.2 1.04-2.5 1.5h-.1v-4.3h-1.4V306zm1.4-4.36c0-1.96.8-3.28 2.5-3.28s2.5 1.44 2.5 3.28c0 1.86-.9 3.34-2.5 3.34-1.7 0-2.5-1.37-2.5-3.34zm9.7-7.28h-1.3V306h1.3v-11.64zm6.1 11.82c1.8 0 3.1-.88 3.5-2.2l-1.3-.37c-.3.9-1.1 1.37-2.2 1.37-1.5 0-2.6-1.02-2.7-2.9h6.4v-.56c0-3.25-2-4.36-3.8-4.36-2.4 0-3.9 1.86-3.9 4.54 0 2.69 1.5 4.48 4 4.48zm-2.7-5.25c.1-1.36 1.1-2.57 2.6-2.57s2.4 1.09 2.4 2.57h-5zm16.5 5.25c2.3 0 3.9-1.8 3.9-4.5 0-2.73-1.6-4.52-3.9-4.52-2.4 0-4 1.79-4 4.52 0 2.7 1.6 4.5 4 4.5zm0-1.2c-1.8 0-2.7-1.55-2.7-3.3 0-1.75.9-3.32 2.7-3.32 1.7 0 2.6 1.57 2.6 3.32 0 1.75-.9 3.3-2.6 3.3zm9.8-7.71h-1.9v-.88c0-.87.3-1.32 1.2-1.32.4 0 .6.09.8.13l.4-1.15c-.2-.1-.6-.23-1.3-.23-1.3 0-2.5.75-2.5 2.25v1.2h-1.4v1.14h1.4V306h1.4v-7.6h1.9v-1.13zm10.3 8.89c2.3 0 4-1.42 4-3.32 0-1.48-.9-2.55-2.4-2.8v-.1c1.2-.34 1.9-1.31 1.9-2.62 0-1.65-1.3-3.12-3.4-3.12-2 0-3.7 1.24-3.8 3.07h1.4c0-1.16 1.1-1.84 2.4-1.84 1.2 0 2.1.78 2.1 1.96 0 1.22-1 2.02-2.4 2.02h-.9v1.25h.9c1.8 0 2.8.9 2.8 2.18 0 1.23-1.1 2.07-2.6 2.07-1.3 0-2.4-.7-2.5-1.82h-1.4c.1 1.83 1.7 3.07 3.9 3.07zm14.4.02c1.9 0 3.2-1.18 3.4-2.73h-1.4c-.2.96-1 1.53-2 1.53-1.6 0-2.7-1.32-2.7-3.34 0-1.98 1.1-3.28 2.7-3.28a2 2 0 0 1 2 1.53h1.4c-.2-1.64-1.6-2.73-3.5-2.73-2.3 0-3.9 1.86-3.9 4.52 0 2.62 1.5 4.5 4 4.5zm6.7-5.43c0-1.52.9-2.4 2.3-2.4 1.2 0 2 .8 2 2.2V306h1.3v-5.55c0-2.24-1.2-3.3-2.9-3.3-1.4 0-2.2.58-2.6 1.49h-.1v-4.28h-1.4V306h1.4v-5.25zm10.7 5.45c1.5 0 2.3-.81 2.6-1.38V306h1.4v-5.75c0-2.77-2.2-3.1-3.3-3.1-1.3 0-2.8.46-3.5 2.05l1.3.46c.3-.64 1-1.32 2.3-1.32 1.2 0 1.8.65 1.8 1.77v.05c0 .65-.6.59-2.2.79-1.7.2-3.4.57-3.4 2.57 0 1.7 1.3 2.68 3 2.68zm.2-1.2c-1.1 0-1.9-.48-1.9-1.41 0-1.02 1-1.34 2-1.48.6-.06 2.1-.22 2.3-.5v1.23c0 1.09-.8 2.16-2.4 2.16zm6.2 1h1.4v-5.52c0-1.18.9-2.05 2.2-2.05.3 0 .7.07.8.09v-1.36l-.7-.02c-1.1 0-2 .59-2.3 1.45h-.1v-1.32h-1.3V306zm8.5.2c1.6 0 2.4-.81 2.6-1.38h.1V306h1.3v-5.75c0-2.77-2.1-3.1-3.2-3.1-1.3 0-2.8.46-3.5 2.05l1.3.46c.3-.64 1-1.32 2.3-1.32 1.2 0 1.8.65 1.8 1.77v.05c0 .65-.7.59-2.3.79-1.6.2-3.3.57-3.3 2.57 0 1.7 1.3 2.68 2.9 2.68zm.2-1.2c-1 0-1.8-.48-1.8-1.41 0-1.02.9-1.34 2-1.48.5-.06 2.1-.22 2.3-.5v1.23c0 1.09-.9 2.16-2.5 2.16zm9.8 1.18c2 0 3.2-1.18 3.5-2.73h-1.4c-.2.96-1 1.53-2.1 1.53-1.6 0-2.6-1.32-2.6-3.34 0-1.98 1.1-3.28 2.6-3.28 1.2 0 1.9.73 2.1 1.53h1.4c-.3-1.64-1.6-2.73-3.5-2.73-2.3 0-3.9 1.86-3.9 4.52 0 2.62 1.5 4.5 3.9 4.5zm9.2-8.91h-1.8v-2.1h-1.4v2.1h-1.3v1.14h1.3v5.45c0 1.53 1.2 2.25 2.4 2.25.5 0 .8-.1 1-.16l-.3-1.2c-.1.02-.3.07-.6.07-.6 0-1.1-.18-1.1-1.32v-5.1h1.8v-1.13zm5.6 8.9c1.8 0 3.1-.87 3.5-2.2l-1.3-.36c-.3.9-1.1 1.37-2.2 1.37-1.6 0-2.6-1.02-2.7-2.9h6.3v-.56c0-3.25-1.9-4.36-3.7-4.36-2.4 0-4 1.86-4 4.54 0 2.69 1.6 4.48 4.1 4.48zm-2.7-5.24c.1-1.36 1-2.57 2.6-2.57 1.4 0 2.4 1.09 2.4 2.57h-5zm8.4 5.07h1.3v-5.52c0-1.18.9-2.05 2.2-2.05.4 0 .7.07.8.09v-1.36l-.7-.02c-1 0-1.9.59-2.2 1.45h-.1v-1.32h-1.3V306zm12.1-6.77c-.4-1.24-1.4-2.07-3.1-2.07-1.8 0-3.2 1.04-3.2 2.52 0 1.2.7 2 2.3 2.39l1.5.34c.9.2 1.3.62 1.3 1.23 0 .75-.8 1.36-2.1 1.36-1.1 0-1.8-.47-2-1.41l-1.3.32c.3 1.48 1.6 2.27 3.4 2.27 2 0 3.4-1.11 3.4-2.61 0-1.22-.8-1.98-2.4-2.37l-1.2-.31c-1.1-.26-1.5-.61-1.5-1.28 0-.75.7-1.3 1.8-1.3 1.2 0 1.7.66 1.9 1.26l1.2-.34z"/>
  </g>
  <g fill="none">
    <path stroke="#000" stroke-width="2.11" d="M5078.59 2630.14h250.82" transform="matrix(1.04213 0 0 .83879 -5278.56 -1926.12)"/>
    <path d="M14 280h261.38"/>
  </g>
  <g>
    <path fill="none" stroke="#fefefe" stroke-miterlimit="2" d="M10083.6 2412.25c0 2.13-.8 3.93-2.2 5.41-.3.29-.5.43-.6.43-.2 0-.3-.11-.3-.32 0-.1.1-.26.3-.5a7.11 7.11 0 0 0 2.1-5.19v-.38s-.1.03-.1.1c-.4.32-.8.48-1.2.48-.5 0-.9-.15-1.2-.45-.3-.3-.4-.69-.4-1.16 0-.46.1-.83.4-1.13.3-.3.7-.45 1.2-.45.7 0 1.2.37 1.6 1.11.3.58.4 1.26.4 2.05zm-5.9 0c0 2.1-.7 3.91-2.2 5.41-.3.29-.5.43-.6.43-.2 0-.3-.11-.3-.32 0-.09.1-.25.4-.5a7.08 7.08 0 0 0 2.1-5.19c0-.16 0-.28-.1-.38 0 .02 0 .06-.1.1-.3.32-.7.48-1.2.48a1.62 1.62 0 0 1-1.6-1.61c0-.46.2-.83.5-1.13a1.67 1.67 0 0 1 2.7.66c.3.58.4 1.26.4 2.05zm9.9 17.72c0 2.25-.7 4.15-2.2 5.72-.4.32-.6.48-.7.48-.2 0-.3-.11-.3-.34 0-.09.1-.21.2-.36a7.71 7.71 0 0 0 2.3-5.5v-.56c-.4.39-.8.59-1.3.59s-.9-.17-1.2-.51c-.3-.34-.5-.73-.5-1.19 0-.46.2-.86.5-1.19.3-.33.7-.5 1.2-.5.7 0 1.3.4 1.6 1.19.3.6.4 1.32.4 2.17zm11.4-13.42c0 .46-.1.83-.4 1.13-.4.3-.7.44-1.2.44-.7 0-1.2-.36-1.6-1.1-.3-.58-.4-1.26-.4-2.07 0-2.09.7-3.89 2.2-5.39.3-.29.5-.44.6-.44.2 0 .3.11.3.33 0 .09-.1.25-.3.5a7.08 7.08 0 0 0-2.1 5.19v.38c0-.03.1-.06.1-.1.4-.32.8-.48 1.2-.48.5 0 .9.15 1.2.45.3.3.4.69.4 1.16zm-5.8 0c0 .46-.2.83-.5 1.13-.3.3-.7.44-1.1.44-.7 0-1.3-.36-1.6-1.1-.3-.58-.5-1.26-.5-2.07 0-2.11.8-3.91 2.3-5.39.3-.29.5-.44.6-.44.2 0 .3.11.3.33 0 .1-.1.26-.4.5a7.11 7.11 0 0 0-2.1 5.19c0 .16 0 .28.1.38 0 0 0-.04.1-.1.3-.32.7-.48 1.2-.48a1.62 1.62 0 0 1 1.6 1.61zm-73.6-4.3c0 2.13-.8 3.93-2.2 5.41-.3.29-.5.43-.6.43-.2 0-.3-.11-.3-.32 0-.1.1-.26.3-.5a7.11 7.11 0 0 0 2.1-5.19v-.38s-.1.03-.1.1c-.4.32-.8.48-1.2.48-.5 0-.9-.15-1.2-.45-.3-.3-.4-.69-.4-1.16 0-.46.1-.83.4-1.13.3-.3.7-.45 1.2-.45.7 0 1.2.37 1.6 1.11.3.58.4 1.26.4 2.05zm-5.9 0c0 2.1-.7 3.91-2.2 5.41-.3.29-.5.43-.6.43-.2 0-.3-.11-.3-.32 0-.09.1-.25.4-.5a7.08 7.08 0 0 0 2.1-5.19c0-.16 0-.28-.1-.38 0 .02 0 .06-.1.1-.3.32-.7.48-1.2.48a1.62 1.62 0 0 1-1.6-1.61c0-.46.2-.83.5-1.13a1.67 1.67 0 0 1 2.7.66c.3.58.4 1.26.4 2.05zm9.9 17.72c0 2.25-.7 4.15-2.2 5.72-.4.32-.6.48-.7.48-.2 0-.3-.11-.3-.34 0-.09.1-.21.2-.36a7.71 7.71 0 0 0 2.3-5.5v-.56c-.4.39-.8.59-1.3.59s-.9-.17-1.2-.51c-.3-.34-.5-.73-.5-1.19 0-.46.2-.86.5-1.19.3-.33.7-.5 1.2-.5.7 0 1.3.4 1.6 1.19.3.6.4 1.32.4 2.17zm11.4-13.42c0 .46-.1.83-.4 1.13-.4.3-.7.44-1.2.44-.7 0-1.2-.36-1.6-1.1-.3-.58-.4-1.26-.4-2.07 0-2.09.7-3.89 2.2-5.39.3-.29.5-.44.6-.44.2 0 .3.11.3.33 0 .09-.1.25-.3.5a7.08 7.08 0 0 0-2.1 5.19v.38c0-.03.1-.06.1-.1.4-.32.8-.48 1.2-.48.5 0 .9.15 1.2.45.3.3.4.69.4 1.16zm-5.8 0c0 .46-.2.83-.5 1.13-.3.3-.7.44-1.1.44-.7 0-1.3-.36-1.6-1.1-.3-.58-.5-1.26-.5-2.07 0-2.11.8-3.91 2.3-5.39.3-.29.5-.44.6-.44.2 0 .3.11.3.33 0 .1-.1.26-.4.5a7.11 7.11 0 0 0-2.1 5.19c0 .16 0 .28.1.38 0 0 0-.04.1-.1.3-.32.7-.48 1.2-.48a1.62 1.62 0 0 1 1.6 1.61zm-58.19 0c0 .46-.15.83-.46 1.13-.31.3-.69.44-1.15.44-.71 0-1.24-.36-1.59-1.1a4.84 4.84 0 0 1-.41-2.07 7.4 7.4 0 0 1 2.22-5.39c.29-.29.49-.44.6-.44.2 0 .31.11.31.33 0 .09-.12.25-.36.5a7.05 7.05 0 0 0-2.11 5.19 1 1 0 0 0 .06.38 1.66 1.66 0 0 1 1.28-.58c.47 0 .86.15 1.16.45.3.3.45.69.45 1.16zm-5.84 0a1.52 1.52 0 0 1-1.59 1.57c-.72 0-1.26-.36-1.61-1.1a4.55 4.55 0 0 1-.43-2.07c0-2.11.75-3.91 2.24-5.39.29-.29.49-.44.61-.44.2 0 .29.11.29.33 0 .1-.12.26-.35.5a7.06 7.06 0 0 0-2.13 5.19 1 1 0 0 0 .06.38l.11-.1a1.8 1.8 0 0 1 1.21-.48c.45 0 .83.15 1.14.45.3.3.45.69.45 1.16zm182.43-4.3c0 2.13-.8 3.93-2.2 5.41-.3.29-.5.43-.6.43-.2 0-.3-.11-.3-.32 0-.1.1-.26.3-.5a7.11 7.11 0 0 0 2.1-5.19v-.38s-.1.03-.1.1c-.4.32-.8.48-1.2.48-.5 0-.9-.15-1.2-.45-.3-.3-.4-.69-.4-1.16 0-.46.1-.83.4-1.13.3-.3.7-.45 1.2-.45.7 0 1.2.37 1.6 1.11.3.58.4 1.26.4 2.05zm-5.9 0c0 2.1-.7 3.91-2.2 5.41-.3.29-.5.43-.6.43-.2 0-.3-.11-.3-.32 0-.09.1-.25.4-.5a7.08 7.08 0 0 0 2.1-5.19c0-.16 0-.28-.1-.38 0 .02 0 .06-.1.1-.3.32-.7.48-1.2.48a1.62 1.62 0 0 1-1.6-1.61c0-.46.2-.83.5-1.13a1.67 1.67 0 0 1 2.7.66c.3.58.4 1.26.4 2.05zm9.9 17.72c0 2.25-.7 4.15-2.2 5.72-.4.32-.6.48-.7.48-.2 0-.3-.11-.3-.34 0-.09.1-.21.2-.36a7.71 7.71 0 0 0 2.3-5.5v-.56c-.4.39-.8.59-1.3.59s-.9-.17-1.2-.51c-.3-.34-.5-.73-.5-1.19 0-.46.2-.86.5-1.19.3-.33.7-.5 1.2-.5.7 0 1.3.4 1.6 1.19.3.6.4 1.32.4 2.17zm11.4-13.42c0 .46-.1.83-.4 1.13-.4.3-.7.44-1.2.44-.7 0-1.2-.36-1.6-1.1-.3-.58-.4-1.26-.4-2.07 0-2.09.7-3.89 2.2-5.39.3-.29.5-.44.6-.44.2 0 .3.11.3.33 0 .09-.1.25-.3.5a7.08 7.08 0 0 0-2.1 5.19v.38c0-.03.1-.06.1-.1.4-.32.8-.48 1.2-.48.5 0 .9.15 1.2.45.3.3.4.69.4 1.16zm-5.8 0c0 .46-.2.83-.5 1.13-.3.3-.7.44-1.1.44-.7 0-1.3-.36-1.6-1.1-.3-.58-.5-1.26-.5-2.07 0-2.11.8-3.91 2.3-5.39.3-.29.5-.44.6-.44.2 0 .3.11.3.33 0 .1-.1.26-.4.5a7.11 7.11 0 0 0-2.1 5.19c0 .16 0 .28.1.38 0 0 0-.04.1-.1.3-.32.7-.48 1.2-.48a1.62 1.62 0 0 1 1.6 1.61zm56.8-4.3c0 2.13-.7 3.93-2.2 5.41-.3.29-.5.43-.6.43-.2 0-.3-.11-.3-.32 0-.1.1-.26.4-.5a7.11 7.11 0 0 0 2.1-5.19c0-.16-.1-.28-.1-.38 0 0 0 .03-.1.1-.4.32-.8.48-1.2.48-.5 0-.8-.15-1.1-.45a1.56 1.56 0 0 1 0-2.29 1.67 1.67 0 0 1 2.7.66c.3.58.4 1.26.4 2.05zm-5.8 0c0 2.1-.8 3.91-2.3 5.41-.2.29-.4.43-.5.43-.3 0-.4-.11-.4-.32 0-.09.2-.25.4-.5a7.08 7.08 0 0 0 2.1-5.19v-.38c-.1.02-.1.06-.1.1-.4.32-.8.48-1.2.48-.5 0-.9-.15-1.2-.45-.3-.3-.4-.69-.4-1.16 0-.46.1-.83.4-1.13.3-.3.7-.45 1.2-.45.7 0 1.2.37 1.6 1.11.2.58.4 1.26.4 2.05zm-124.6 192c0 2.13-.8 3.93-2.2 5.41-.3.29-.5.43-.6.43-.2 0-.3-.11-.3-.32 0-.1.1-.26.3-.5a7.11 7.11 0 0 0 2.1-5.19v-.38s-.1.03-.1.1c-.4.32-.8.48-1.2.48-.5 0-.9-.15-1.2-.45-.3-.3-.4-.69-.4-1.16 0-.46.1-.83.4-1.13.3-.3.7-.45 1.2-.45.7 0 1.2.37 1.6 1.11.3.58.4 1.26.4 2.05zm-5.9 0c0 2.1-.7 3.91-2.2 5.41-.3.29-.5.43-.6.43-.2 0-.3-.11-.3-.32 0-.09.1-.25.4-.5a7.08 7.08 0 0 0 2.1-5.19c0-.16 0-.28-.1-.38 0 .02 0 .06-.1.1-.3.32-.7.48-1.2.48a1.62 1.62 0 0 1-1.6-1.61c0-.46.2-.83.5-1.13a1.67 1.67 0 0 1 2.7.66c.3.58.4 1.26.4 2.05zm9.9 17.72c0 2.25-.7 4.15-2.2 5.72-.4.32-.6.48-.7.48-.2 0-.3-.11-.3-.34 0-.09.1-.21.2-.36a7.71 7.71 0 0 0 2.3-5.5v-.56c-.4.39-.8.59-1.3.59s-.9-.17-1.2-.51c-.3-.34-.5-.73-.5-1.19 0-.46.2-.86.5-1.19.3-.33.7-.5 1.2-.5.7 0 1.3.4 1.6 1.19.3.6.4 1.32.4 2.17zm11.4-13.42c0 .46-.1.83-.4 1.13-.4.3-.7.44-1.2.44-.7 0-1.2-.36-1.6-1.1-.3-.58-.4-1.26-.4-2.07 0-2.09.7-3.89 2.2-5.39.3-.29.5-.44.6-.44.2 0 .3.11.3.33 0 .09-.1.25-.3.5a7.08 7.08 0 0 0-2.1 5.19v.38c0-.03.1-.06.1-.1.4-.32.8-.48 1.2-.48.5 0 .9.15 1.2.45.3.3.4.69.4 1.16zm-5.8 0c0 .46-.2.83-.5 1.13-.3.3-.7.44-1.1.44-.7 0-1.3-.36-1.6-1.1-.3-.58-.5-1.26-.5-2.07 0-2.11.8-3.91 2.3-5.39.3-.29.5-.44.6-.44.2 0 .3.11.3.33 0 .1-.1.26-.4.5a7.11 7.11 0 0 0-2.1 5.19c0 .16 0 .28.1.38 0 0 0-.04.1-.1.3-.32.7-.48 1.2-.48a1.62 1.62 0 0 1 1.6 1.61zm-9.6-68.3c0 2.13-.8 3.93-2.2 5.41-.3.29-.5.43-.6.43-.2 0-.3-.11-.3-.32 0-.1.1-.26.3-.5a7.11 7.11 0 0 0 2.1-5.19v-.38s-.1.03-.1.1c-.4.32-.8.48-1.2.48-.5 0-.9-.15-1.2-.45-.3-.3-.4-.69-.4-1.16 0-.46.1-.83.4-1.13.3-.3.7-.45 1.2-.45.7 0 1.2.37 1.6 1.11.3.58.4 1.26.4 2.05zm-5.9 0c0 2.1-.7 3.91-2.2 5.41-.3.29-.5.43-.6.43-.2 0-.3-.11-.3-.32 0-.09.1-.25.4-.5a7.08 7.08 0 0 0 2.1-5.19c0-.16 0-.28-.1-.38 0 .02 0 .06-.1.1-.3.32-.7.48-1.2.48a1.62 1.62 0 0 1-1.6-1.61c0-.46.2-.83.5-1.13a1.67 1.67 0 0 1 2.7.66c.3.58.4 1.26.4 2.05zm9.9 17.72c0 2.25-.7 4.15-2.2 5.72-.4.32-.6.48-.7.48-.2 0-.3-.11-.3-.34 0-.09.1-.21.2-.36a7.71 7.71 0 0 0 2.3-5.5v-.56c-.4.39-.8.59-1.3.59s-.9-.17-1.2-.51c-.3-.34-.5-.73-.5-1.19 0-.46.2-.86.5-1.19.3-.33.7-.5 1.2-.5.7 0 1.3.4 1.6 1.19.3.6.4 1.32.4 2.17zm11.4-13.42c0 .46-.1.83-.4 1.13-.4.3-.7.44-1.2.44-.7 0-1.2-.36-1.6-1.1-.3-.58-.4-1.26-.4-2.07 0-2.09.7-3.89 2.2-5.39.3-.29.5-.44.6-.44.2 0 .3.11.3.33 0 .09-.1.25-.3.5a7.08 7.08 0 0 0-2.1 5.19v.38c0-.03.1-.06.1-.1.4-.32.8-.48 1.2-.48.5 0 .9.15 1.2.45.3.3.4.69.4 1.16zm-5.8 0c0 .46-.2.83-.5 1.13-.3.3-.7.44-1.1.44-.7 0-1.3-.36-1.6-1.1-.3-.58-.5-1.26-.5-2.07 0-2.11.8-3.91 2.3-5.39.3-.29.5-.44.6-.44.2 0 .3.11.3.33 0 .1-.1.26-.4.5a7.11 7.11 0 0 0-2.1 5.19c0 .16 0 .28.1.38 0 0 0-.04.1-.1.3-.32.7-.48 1.2-.48a1.62 1.62 0 0 1 1.6 1.61zm-9.6-68.3c0 2.13-.8 3.93-2.2 5.41-.3.29-.5.43-.6.43-.2 0-.3-.11-.3-.32 0-.1.1-.26.3-.5a7.11 7.11 0 0 0 2.1-5.19v-.38s-.1.03-.1.1c-.4.32-.8.48-1.2.48-.5 0-.9-.15-1.2-.45-.3-.3-.4-.69-.4-1.16 0-.46.1-.83.4-1.13.3-.3.7-.45 1.2-.45.7 0 1.2.37 1.6 1.11.3.58.4 1.26.4 2.05zm-5.9 0c0 2.1-.7 3.91-2.2 5.41-.3.29-.5.43-.6.43-.2 0-.3-.11-.3-.32 0-.09.1-.25.4-.5a7.08 7.08 0 0 0 2.1-5.19c0-.16 0-.28-.1-.38 0 .02 0 .06-.1.1-.3.32-.7.48-1.2.48a1.62 1.62 0 0 1-1.6-1.61c0-.46.2-.83.5-1.13a1.67 1.67 0 0 1 2.7.66c.3.58.4 1.26.4 2.05zm9.9 17.72c0 2.25-.7 4.15-2.2 5.72-.4.32-.6.48-.7.48-.2 0-.3-.11-.3-.34 0-.09.1-.21.2-.36a7.71 7.71 0 0 0 2.3-5.5v-.56c-.4.39-.8.59-1.3.59s-.9-.17-1.2-.51c-.3-.34-.5-.73-.5-1.19 0-.46.2-.86.5-1.19.3-.33.7-.5 1.2-.5.7 0 1.3.4 1.6 1.19.3.6.4 1.32.4 2.17zm11.4-13.42c0 .46-.1.83-.4 1.13-.4.3-.7.44-1.2.44-.7 0-1.2-.36-1.6-1.1-.3-.58-.4-1.26-.4-2.07 0-2.09.7-3.89 2.2-5.39.3-.29.5-.44.6-.44.2 0 .3.11.3.33 0 .09-.1.25-.3.5a7.08 7.08 0 0 0-2.1 5.19v.38c0-.03.1-.06.1-.1.4-.32.8-.48 1.2-.48.5 0 .9.15 1.2.45.3.3.4.69.4 1.16zm-5.8 0c0 .46-.2.83-.5 1.13-.3.3-.7.44-1.1.44-.7 0-1.3-.36-1.6-1.1-.3-.58-.5-1.26-.5-2.07 0-2.11.8-3.91 2.3-5.39.3-.29.5-.44.6-.44.2 0 .3.11.3.33 0 .1-.1.26-.4.5a7.11 7.11 0 0 0-2.1 5.19c0 .16 0 .28.1.38 0 0 0-.04.1-.1.3-.32.7-.48 1.2-.48a1.62 1.62 0 0 1 1.6 1.61zm-73.6 123.7c0 2.13-.8 3.93-2.2 5.41-.3.29-.5.43-.6.43-.2 0-.3-.11-.3-.32 0-.1.1-.26.3-.5a7.11 7.11 0 0 0 2.1-5.19v-.38s-.1.03-.1.1c-.4.32-.8.48-1.2.48-.5 0-.9-.15-1.2-.45-.3-.3-.4-.69-.4-1.16 0-.46.1-.83.4-1.13.3-.3.7-.45 1.2-.45.7 0 1.2.37 1.6 1.11.3.58.4 1.26.4 2.05zm-5.9 0c0 2.1-.7 3.91-2.2 5.41-.3.29-.5.43-.6.43-.2 0-.3-.11-.3-.32 0-.09.1-.25.4-.5a7.08 7.08 0 0 0 2.1-5.19c0-.16 0-.28-.1-.38 0 .02 0 .06-.1.1-.3.32-.7.48-1.2.48a1.62 1.62 0 0 1-1.6-1.61c0-.46.2-.83.5-1.13a1.67 1.67 0 0 1 2.7.66c.3.58.4 1.26.4 2.05zm9.9 17.72c0 2.25-.7 4.15-2.2 5.72-.4.32-.6.48-.7.48-.2 0-.3-.11-.3-.34 0-.09.1-.21.2-.36a7.71 7.71 0 0 0 2.3-5.5v-.56c-.4.39-.8.59-1.3.59s-.9-.17-1.2-.51c-.3-.34-.5-.73-.5-1.19 0-.46.2-.86.5-1.19.3-.33.7-.5 1.2-.5.7 0 1.3.4 1.6 1.19.3.6.4 1.32.4 2.17zm11.4-13.42c0 .46-.1.83-.4 1.13-.4.3-.7.44-1.2.44-.7 0-1.2-.36-1.6-1.1-.3-.58-.4-1.26-.4-2.07 0-2.09.7-3.89 2.2-5.39.3-.29.5-.44.6-.44.2 0 .3.11.3.33 0 .09-.1.25-.3.5a7.08 7.08 0 0 0-2.1 5.19v.38c0-.03.1-.06.1-.1.4-.32.8-.48 1.2-.48.5 0 .9.15 1.2.45.3.3.4.69.4 1.16zm-5.8 0c0 .46-.2.83-.5 1.13-.3.3-.7.44-1.1.44-.7 0-1.3-.36-1.6-1.1-.3-.58-.5-1.26-.5-2.07 0-2.11.8-3.91 2.3-5.39.3-.29.5-.44.6-.44.2 0 .3.11.3.33 0 .1-.1.26-.4.5a7.11 7.11 0 0 0-2.1 5.19c0 .16 0 .28.1.38 0 0 0-.04.1-.1.3-.32.7-.48 1.2-.48a1.62 1.62 0 0 1 1.6 1.61zm-9.6-68.3c0 2.13-.8 3.93-2.2 5.41-.3.29-.5.43-.6.43-.2 0-.3-.11-.3-.32 0-.1.1-.26.3-.5a7.11 7.11 0 0 0 2.1-5.19v-.38s-.1.03-.1.1c-.4.32-.8.48-1.2.48-.5 0-.9-.15-1.2-.45-.3-.3-.4-.69-.4-1.16 0-.46.1-.83.4-1.13.3-.3.7-.45 1.2-.45.7 0 1.2.37 1.6 1.11.3.58.4 1.26.4 2.05zm-5.9 0c0 2.1-.7 3.91-2.2 5.41-.3.29-.5.43-.6.43-.2 0-.3-.11-.3-.32 0-.09.1-.25.4-.5a7.08 7.08 0 0 0 2.1-5.19c0-.16 0-.28-.1-.38 0 .02 0 .06-.1.1-.3.32-.7.48-1.2.48a1.62 1.62 0 0 1-1.6-1.61c0-.46.2-.83.5-1.13a1.67 1.67 0 0 1 2.7.66c.3.58.4 1.26.4 2.05zm9.9 17.72c0 2.25-.7 4.15-2.2 5.72-.4.32-.6.48-.7.48-.2 0-.3-.11-.3-.34 0-.09.1-.21.2-.36a7.71 7.71 0 0 0 2.3-5.5v-.56c-.4.39-.8.59-1.3.59s-.9-.17-1.2-.51c-.3-.34-.5-.73-.5-1.19 0-.46.2-.86.5-1.19.3-.33.7-.5 1.2-.5.7 0 1.3.4 1.6 1.19.3.6.4 1.32.4 2.17zm11.4-13.42c0 .46-.1.83-.4 1.13-.4.3-.7.44-1.2.44-.7 0-1.2-.36-1.6-1.1-.3-.58-.4-1.26-.4-2.07 0-2.09.7-3.89 2.2-5.39.3-.29.5-.44.6-.44.2 0 .3.11.3.33 0 .09-.1.25-.3.5a7.08 7.08 0 0 0-2.1 5.19v.38c0-.03.1-.06.1-.1.4-.32.8-.48 1.2-.48.5 0 .9.15 1.2.45.3.3.4.69.4 1.16zm-5.8 0c0 .46-.2.83-.5 1.13-.3.3-.7.44-1.1.44-.7 0-1.3-.36-1.6-1.1-.3-.58-.5-1.26-.5-2.07 0-2.11.8-3.91 2.3-5.39.3-.29.5-.44.6-.44.2 0 .3.11.3.33 0 .1-.1.26-.4.5a7.11 7.11 0 0 0-2.1 5.19c0 .16 0 .28.1.38 0 0 0-.04.1-.1.3-.32.7-.48 1.2-.48a1.62 1.62 0 0 1 1.6 1.61zm-9.6-68.3c0 2.13-.8 3.93-2.2 5.41-.3.29-.5.43-.6.43-.2 0-.3-.11-.3-.32 0-.1.1-.26.3-.5a7.11 7.11 0 0 0 2.1-5.19v-.38s-.1.03-.1.1c-.4.32-.8.48-1.2.48-.5 0-.9-.15-1.2-.45-.3-.3-.4-.69-.4-1.16 0-.46.1-.83.4-1.13.3-.3.7-.45 1.2-.45.7 0 1.2.37 1.6 1.11.3.58.4 1.26.4 2.05zm-5.9 0c0 2.1-.7 3.91-2.2 5.41-.3.29-.5.43-.6.43-.2 0-.3-.11-.3-.32 0-.09.1-.25.4-.5a7.08 7.08 0 0 0 2.1-5.19c0-.16 0-.28-.1-.38 0 .02 0 .06-.1.1-.3.32-.7.48-1.2.48a1.62 1.62 0 0 1-1.6-1.61c0-.46.2-.83.5-1.13a1.67 1.67 0 0 1 2.7.66c.3.58.4 1.26.4 2.05zm9.9 17.72c0 2.25-.7 4.15-2.2 5.72-.4.32-.6.48-.7.48-.2 0-.3-.11-.3-.34 0-.09.1-.21.2-.36a7.71 7.71 0 0 0 2.3-5.5v-.56c-.4.39-.8.59-1.3.59s-.9-.17-1.2-.51c-.3-.34-.5-.73-.5-1.19 0-.46.2-.86.5-1.19.3-.33.7-.5 1.2-.5.7 0 1.3.4 1.6 1.19.3.6.4 1.32.4 2.17zm11.4-13.42c0 .46-.1.83-.4 1.13-.4.3-.7.44-1.2.44-.7 0-1.2-.36-1.6-1.1-.3-.58-.4-1.26-.4-2.07 0-2.09.7-3.89 2.2-5.39.3-.29.5-.44.6-.44.2 0 .3.11.3.33 0 .09-.1.25-.3.5a7.08 7.08 0 0 0-2.1 5.19v.38c0-.03.1-.06.1-.1.4-.32.8-.48 1.2-.48.5 0 .9.15 1.2.45.3.3.4.69.4 1.16zm-5.8 0c0 .46-.2.83-.5 1.13-.3.3-.7.44-1.1.44-.7 0-1.3-.36-1.6-1.1-.3-.58-.5-1.26-.5-2.07 0-2.11.8-3.91 2.3-5.39.3-.29.5-.44.6-.44.2 0 .3.11.3.33 0 .1-.1.26-.4.5a7.11 7.11 0 0 0-2.1 5.19c0 .16 0 .28.1.38 0 0 0-.04.1-.1.3-.32.7-.48 1.2-.48a1.62 1.62 0 0 1 1.6 1.61zm-57.89 0a1.53 1.53 0 0 1-1.61 1.57c-.71 0-1.24-.36-1.6-1.1a4.84 4.84 0 0 1-.4-2.07 7.4 7.4 0 0 1 2.22-5.39c.29-.29.49-.44.59-.44.21 0 .31.11.31.33 0 .09-.12.25-.36.5a7.1 7.1 0 0 0-2.11 5.19 1 1 0 0 0 .07.38 1.69 1.69 0 0 1 1.28-.58 1.55 1.55 0 0 1 1.61 1.61zm-5.85 0a1.52 1.52 0 0 1-1.59 1.57c-.72 0-1.26-.36-1.61-1.1a4.69 4.69 0 0 1-.42-2.07c0-2.11.74-3.91 2.23-5.39.29-.29.5-.44.61-.44.2 0 .3.11.3.33 0 .1-.12.26-.36.5a7.05 7.05 0 0 0-2.12 5.19 1 1 0 0 0 .06.38l.11-.1c.36-.32.76-.48 1.2-.48.46 0 .84.15 1.14.45.3.3.45.69.45 1.16zm5.85 64a1.53 1.53 0 0 1-1.61 1.57c-.71 0-1.24-.36-1.6-1.1a4.84 4.84 0 0 1-.4-2.07 7.4 7.4 0 0 1 2.22-5.39c.29-.29.49-.44.59-.44.21 0 .31.11.31.33 0 .09-.12.25-.36.5a7.1 7.1 0 0 0-2.11 5.19 1 1 0 0 0 .07.38 1.69 1.69 0 0 1 1.28-.58 1.55 1.55 0 0 1 1.61 1.61zm-5.85 0a1.52 1.52 0 0 1-1.59 1.57c-.72 0-1.26-.36-1.61-1.1a4.69 4.69 0 0 1-.42-2.07c0-2.11.74-3.91 2.23-5.39.29-.29.5-.44.61-.44.2 0 .3.11.3.33 0 .1-.12.26-.36.5a7.05 7.05 0 0 0-2.12 5.19 1 1 0 0 0 .06.38l.11-.1c.36-.32.76-.48 1.2-.48.46 0 .84.15 1.14.45.3.3.45.69.45 1.16zm5.85 64a1.53 1.53 0 0 1-1.61 1.57c-.71 0-1.24-.36-1.6-1.1a4.84 4.84 0 0 1-.4-2.07 7.4 7.4 0 0 1 2.22-5.39c.29-.29.49-.44.59-.44.21 0 .31.11.31.33 0 .09-.12.25-.36.5a7.1 7.1 0 0 0-2.11 5.19 1 1 0 0 0 .07.38 1.69 1.69 0 0 1 1.28-.58 1.55 1.55 0 0 1 1.61 1.61zm-5.85 0a1.52 1.52 0 0 1-1.59 1.57c-.72 0-1.26-.36-1.61-1.1a4.69 4.69 0 0 1-.42-2.07c0-2.11.74-3.91 2.23-5.39.29-.29.5-.44.61-.44.2 0 .3.11.3.33 0 .1-.12.26-.36.5a7.05 7.05 0 0 0-2.12 5.19 1 1 0 0 0 .06.38l.11-.1c.36-.32.76-.48 1.2-.48.46 0 .84.15 1.14.45.3.3.45.69.45 1.16zm182.14-4.3c0 2.13-.8 3.93-2.2 5.41-.3.29-.5.43-.6.43-.2 0-.3-.11-.3-.32 0-.1.1-.26.3-.5a7.11 7.11 0 0 0 2.1-5.19v-.38s-.1.03-.1.1c-.4.32-.8.48-1.2.48-.5 0-.9-.15-1.2-.45-.3-.3-.4-.69-.4-1.16 0-.46.1-.83.4-1.13.3-.3.7-.45 1.2-.45.7 0 1.2.37 1.6 1.11.3.58.4 1.26.4 2.05zm-5.9 0c0 2.1-.7 3.91-2.2 5.41-.3.29-.5.43-.6.43-.2 0-.3-.11-.3-.32 0-.09.1-.25.4-.5a7.08 7.08 0 0 0 2.1-5.19c0-.16 0-.28-.1-.38 0 .02 0 .06-.1.1-.3.32-.7.48-1.2.48a1.62 1.62 0 0 1-1.6-1.61c0-.46.2-.83.5-1.13a1.67 1.67 0 0 1 2.7.66c.3.58.4 1.26.4 2.05zm9.9 17.72c0 2.25-.7 4.15-2.2 5.72-.4.32-.6.48-.7.48-.2 0-.3-.11-.3-.34 0-.09.1-.21.2-.36a7.71 7.71 0 0 0 2.3-5.5v-.56c-.4.39-.8.59-1.3.59s-.9-.17-1.2-.51c-.3-.34-.5-.73-.5-1.19 0-.46.2-.86.5-1.19.3-.33.7-.5 1.2-.5.7 0 1.3.4 1.6 1.19.3.6.4 1.32.4 2.17zm11.4-13.42c0 .46-.1.83-.4 1.13-.4.3-.7.44-1.2.44-.7 0-1.2-.36-1.6-1.1-.3-.58-.4-1.26-.4-2.07 0-2.09.7-3.89 2.2-5.39.3-.29.5-.44.6-.44.2 0 .3.11.3.33 0 .09-.1.25-.3.5a7.08 7.08 0 0 0-2.1 5.19v.38c0-.03.1-.06.1-.1.4-.32.8-.48 1.2-.48.5 0 .9.15 1.2.45.3.3.4.69.4 1.16zm-5.8 0c0 .46-.2.83-.5 1.13-.3.3-.7.44-1.1.44-.7 0-1.3-.36-1.6-1.1-.3-.58-.5-1.26-.5-2.07 0-2.11.8-3.91 2.3-5.39.3-.29.5-.44.6-.44.2 0 .3.11.3.33 0 .1-.1.26-.4.5a7.11 7.11 0 0 0-2.1 5.19c0 .16 0 .28.1.38 0 0 0-.04.1-.1.3-.32.7-.48 1.2-.48a1.62 1.62 0 0 1 1.6 1.61zm-9.6-68.3c0 2.13-.8 3.93-2.2 5.41-.3.29-.5.43-.6.43-.2 0-.3-.11-.3-.32 0-.1.1-.26.3-.5a7.11 7.11 0 0 0 2.1-5.19v-.38s-.1.03-.1.1c-.4.32-.8.48-1.2.48-.5 0-.9-.15-1.2-.45-.3-.3-.4-.69-.4-1.16 0-.46.1-.83.4-1.13.3-.3.7-.45 1.2-.45.7 0 1.2.37 1.6 1.11.3.58.4 1.26.4 2.05zm-5.9 0c0 2.1-.7 3.91-2.2 5.41-.3.29-.5.43-.6.43-.2 0-.3-.11-.3-.32 0-.09.1-.25.4-.5a7.08 7.08 0 0 0 2.1-5.19c0-.16 0-.28-.1-.38 0 .02 0 .06-.1.1-.3.32-.7.48-1.2.48a1.62 1.62 0 0 1-1.6-1.61c0-.46.2-.83.5-1.13a1.67 1.67 0 0 1 2.7.66c.3.58.4 1.26.4 2.05zm9.9 17.72c0 2.25-.7 4.15-2.2 5.72-.4.32-.6.48-.7.48-.2 0-.3-.11-.3-.34 0-.09.1-.21.2-.36a7.71 7.71 0 0 0 2.3-5.5v-.56c-.4.39-.8.59-1.3.59s-.9-.17-1.2-.51c-.3-.34-.5-.73-.5-1.19 0-.46.2-.86.5-1.19.3-.33.7-.5 1.2-.5.7 0 1.3.4 1.6 1.19.3.6.4 1.32.4 2.17zm11.4-13.42c0 .46-.1.83-.4 1.13-.4.3-.7.44-1.2.44-.7 0-1.2-.36-1.6-1.1-.3-.58-.4-1.26-.4-2.07 0-2.09.7-3.89 2.2-5.39.3-.29.5-.44.6-.44.2 0 .3.11.3.33 0 .09-.1.25-.3.5a7.08 7.08 0 0 0-2.1 5.19v.38c0-.03.1-.06.1-.1.4-.32.8-.48 1.2-.48.5 0 .9.15 1.2.45.3.3.4.69.4 1.16zm-5.8 0c0 .46-.2.83-.5 1.13-.3.3-.7.44-1.1.44-.7 0-1.3-.36-1.6-1.1-.3-.58-.5-1.26-.5-2.07 0-2.11.8-3.91 2.3-5.39.3-.29.5-.44.6-.44.2 0 .3.11.3.33 0 .1-.1.26-.4.5a7.11 7.11 0 0 0-2.1 5.19c0 .16 0 .28.1.38 0 0 0-.04.1-.1.3-.32.7-.48 1.2-.48a1.62 1.62 0 0 1 1.6 1.61zm-9.6-68.3c0 2.13-.8 3.93-2.2 5.41-.3.29-.5.43-.6.43-.2 0-.3-.11-.3-.32 0-.1.1-.26.3-.5a7.11 7.11 0 0 0 2.1-5.19v-.38s-.1.03-.1.1c-.4.32-.8.48-1.2.48-.5 0-.9-.15-1.2-.45-.3-.3-.4-.69-.4-1.16 0-.46.1-.83.4-1.13.3-.3.7-.45 1.2-.45.7 0 1.2.37 1.6 1.11.3.58.4 1.26.4 2.05zm-5.9 0c0 2.1-.7 3.91-2.2 5.41-.3.29-.5.43-.6.43-.2 0-.3-.11-.3-.32 0-.09.1-.25.4-.5a7.08 7.08 0 0 0 2.1-5.19c0-.16 0-.28-.1-.38 0 .02 0 .06-.1.1-.3.32-.7.48-1.2.48a1.62 1.62 0 0 1-1.6-1.61c0-.46.2-.83.5-1.13a1.67 1.67 0 0 1 2.7.66c.3.58.4 1.26.4 2.05zm9.9 17.72c0 2.25-.7 4.15-2.2 5.72-.4.32-.6.48-.7.48-.2 0-.3-.11-.3-.34 0-.09.1-.21.2-.36a7.71 7.71 0 0 0 2.3-5.5v-.56c-.4.39-.8.59-1.3.59s-.9-.17-1.2-.51c-.3-.34-.5-.73-.5-1.19 0-.46.2-.86.5-1.19.3-.33.7-.5 1.2-.5.7 0 1.3.4 1.6 1.19.3.6.4 1.32.4 2.17zm11.4-13.42c0 .46-.1.83-.4 1.13-.4.3-.7.44-1.2.44-.7 0-1.2-.36-1.6-1.1-.3-.58-.4-1.26-.4-2.07 0-2.09.7-3.89 2.2-5.39.3-.29.5-.44.6-.44.2 0 .3.11.3.33 0 .09-.1.25-.3.5a7.08 7.08 0 0 0-2.1 5.19v.38c0-.03.1-.06.1-.1.4-.32.8-.48 1.2-.48.5 0 .9.15 1.2.45.3.3.4.69.4 1.16zm-5.8 0c0 .46-.2.83-.5 1.13-.3.3-.7.44-1.1.44-.7 0-1.3-.36-1.6-1.1-.3-.58-.5-1.26-.5-2.07 0-2.11.8-3.91 2.3-5.39.3-.29.5-.44.6-.44.2 0 .3.11.3.33 0 .1-.1.26-.4.5a7.11 7.11 0 0 0-2.1 5.19c0 .16 0 .28.1.38 0 0 0-.04.1-.1.3-.32.7-.48 1.2-.48a1.62 1.62 0 0 1 1.6 1.61zm56.8 123.7c0 2.13-.7 3.93-2.2 5.41-.3.29-.5.43-.6.43-.2 0-.3-.11-.3-.32 0-.1.1-.26.4-.5a7.11 7.11 0 0 0 2.1-5.19c0-.16-.1-.28-.1-.38 0 0 0 .03-.1.1-.4.32-.8.48-1.2.48-.5 0-.8-.15-1.1-.45a1.56 1.56 0 0 1 0-2.29 1.67 1.67 0 0 1 2.7.66c.3.58.4 1.26.4 2.05zm-5.8 0c0 2.1-.8 3.91-2.3 5.41-.2.29-.4.43-.5.43-.3 0-.4-.11-.4-.32 0-.09.2-.25.4-.5a7.08 7.08 0 0 0 2.1-5.19v-.38c-.1.02-.1.06-.1.1-.4.32-.8.48-1.2.48-.5 0-.9-.15-1.2-.45-.3-.3-.4-.69-.4-1.16 0-.46.1-.83.4-1.13.3-.3.7-.45 1.2-.45.7 0 1.2.37 1.6 1.11.2.58.4 1.26.4 2.05zm5.8-64c0 2.13-.7 3.93-2.2 5.41-.3.29-.5.43-.6.43-.2 0-.3-.11-.3-.32 0-.1.1-.26.4-.5a7.11 7.11 0 0 0 2.1-5.19c0-.16-.1-.28-.1-.38 0 0 0 .03-.1.1-.4.32-.8.48-1.2.48-.5 0-.8-.15-1.1-.45a1.56 1.56 0 0 1 0-2.29 1.67 1.67 0 0 1 2.7.66c.3.58.4 1.26.4 2.05zm-5.8 0c0 2.1-.8 3.91-2.3 5.41-.2.29-.4.43-.5.43-.3 0-.4-.11-.4-.32 0-.09.2-.25.4-.5a7.08 7.08 0 0 0 2.1-5.19v-.38c-.1.02-.1.06-.1.1-.4.32-.8.48-1.2.48-.5 0-.9-.15-1.2-.45-.3-.3-.4-.69-.4-1.16 0-.46.1-.83.4-1.13.3-.3.7-.45 1.2-.45.7 0 1.2.37 1.6 1.11.2.58.4 1.26.4 2.05zm5.8-64c0 2.13-.7 3.93-2.2 5.41-.3.29-.5.43-.6.43-.2 0-.3-.11-.3-.32 0-.1.1-.26.4-.5a7.11 7.11 0 0 0 2.1-5.19c0-.16-.1-.28-.1-.38 0 0 0 .03-.1.1-.4.32-.8.48-1.2.48-.5 0-.8-.15-1.1-.45a1.56 1.56 0 0 1 0-2.29 1.67 1.67 0 0 1 2.7.66c.3.58.4 1.26.4 2.05zm-5.8 0c0 2.1-.8 3.91-2.3 5.41-.2.29-.4.43-.5.43-.3 0-.4-.11-.4-.32 0-.09.2-.25.4-.5a7.08 7.08 0 0 0 2.1-5.19v-.38c-.1.02-.1.06-.1.1-.4.32-.8.48-1.2.48-.5 0-.9-.15-1.2-.45-.3-.3-.4-.69-.4-1.16 0-.46.1-.83.4-1.13.3-.3.7-.45 1.2-.45.7 0 1.2.37 1.6 1.11.2.58.4 1.26.4 2.05z" transform="translate(-9941.88 -2366)"/>
    <path fill-rule="nonzero" d="M141.74 46.26c0 2.13-.8 3.93-2.2 5.4-.3.3-.5.44-.6.44-.2 0-.3-.11-.3-.32 0-.1.1-.26.3-.5a7.11 7.11 0 0 0 2.1-5.2v-.37s-.1.03-.1.1c-.4.32-.8.48-1.2.48-.5 0-.9-.15-1.2-.45-.3-.3-.4-.7-.4-1.16 0-.46.1-.83.4-1.13.3-.3.7-.45 1.2-.45.7 0 1.2.37 1.6 1.1.3.59.4 1.27.4 2.06zm-5.9 0c0 2.1-.7 3.9-2.2 5.4-.3.3-.5.44-.6.44-.2 0-.3-.11-.3-.32 0-.1.1-.25.4-.5a7.08 7.08 0 0 0 2.1-5.2c0-.15 0-.27-.1-.37 0 .02 0 .06-.1.1-.3.32-.7.48-1.2.48a1.62 1.62 0 0 1-1.6-1.61c0-.46.2-.83.5-1.13a1.67 1.67 0 0 1 2.7.66c.3.58.4 1.26.4 2.05zm9.9 17.72c0 2.25-.7 4.15-2.2 5.72-.4.32-.6.48-.7.48-.2 0-.3-.11-.3-.34 0-.1.1-.21.2-.36a7.71 7.71 0 0 0 2.3-5.5v-.56c-.4.39-.8.59-1.3.59s-.9-.17-1.2-.51c-.3-.34-.5-.73-.5-1.2 0-.45.2-.85.5-1.18.3-.33.7-.5 1.2-.5.7 0 1.3.4 1.6 1.19.3.6.4 1.32.4 2.17zm11.4-13.42c0 .46-.1.83-.4 1.13-.4.3-.7.44-1.2.44-.7 0-1.2-.36-1.6-1.1-.3-.58-.4-1.26-.4-2.07 0-2.1.7-3.9 2.2-5.4.3-.28.5-.43.6-.43.2 0 .3.1.3.33 0 .09-.1.25-.3.5a7.08 7.08 0 0 0-2.1 5.19v.38c0-.03.1-.06.1-.1.4-.32.8-.48 1.2-.48.5 0 .9.15 1.2.45.3.3.4.69.4 1.16zm-5.8 0c0 .46-.2.83-.5 1.13-.3.3-.7.44-1.1.44-.7 0-1.3-.36-1.6-1.1-.3-.58-.5-1.26-.5-2.07 0-2.11.8-3.91 2.3-5.4.3-.28.5-.43.6-.43.2 0 .3.1.3.33 0 .1-.1.26-.4.5a7.11 7.11 0 0 0-2.1 5.19c0 .16 0 .28.1.38 0 0 0-.04.1-.1.3-.32.7-.48 1.2-.48a1.62 1.62 0 0 1 1.6 1.61zm-73.6-4.3c0 2.13-.8 3.93-2.2 5.4-.3.3-.5.44-.6.44-.2 0-.3-.11-.3-.32 0-.1.1-.26.3-.5a7.11 7.11 0 0 0 2.1-5.2v-.37s-.1.03-.1.1c-.4.32-.8.48-1.2.48-.5 0-.9-.15-1.2-.45-.3-.3-.4-.7-.4-1.16 0-.46.1-.83.4-1.13.3-.3.7-.45 1.2-.45.7 0 1.2.37 1.6 1.1.3.59.4 1.27.4 2.06zm-5.9 0c0 2.1-.7 3.9-2.2 5.4-.3.3-.5.44-.6.44-.2 0-.3-.11-.3-.32 0-.1.1-.25.4-.5a7.08 7.08 0 0 0 2.1-5.2c0-.15 0-.27-.1-.37 0 .02 0 .06-.1.1-.3.32-.7.48-1.2.48a1.62 1.62 0 0 1-1.6-1.61c0-.46.2-.83.5-1.13a1.67 1.67 0 0 1 2.7.66c.3.58.4 1.26.4 2.05zm9.9 17.72c0 2.25-.7 4.15-2.2 5.72-.4.32-.6.48-.7.48-.2 0-.3-.11-.3-.34 0-.1.1-.21.2-.36a7.71 7.71 0 0 0 2.3-5.5v-.56c-.4.39-.8.59-1.3.59s-.9-.17-1.2-.51c-.3-.34-.5-.73-.5-1.2 0-.45.2-.85.5-1.18.3-.33.7-.5 1.2-.5.7 0 1.3.4 1.6 1.19.3.6.4 1.32.4 2.17zm11.4-13.42c0 .46-.1.83-.4 1.13-.4.3-.7.44-1.2.44-.7 0-1.2-.36-1.6-1.1-.3-.58-.4-1.26-.4-2.07 0-2.1.7-3.9 2.2-5.4.3-.28.5-.43.6-.43.2 0 .3.1.3.33 0 .09-.1.25-.3.5a7.08 7.08 0 0 0-2.1 5.19v.38c0-.03.1-.06.1-.1.4-.32.8-.48 1.2-.48.5 0 .9.15 1.2.45.3.3.4.69.4 1.16zm-5.8 0c0 .46-.2.83-.5 1.13-.3.3-.7.44-1.1.44-.7 0-1.3-.36-1.6-1.1-.3-.58-.5-1.26-.5-2.07 0-2.11.8-3.91 2.3-5.4.3-.28.5-.43.6-.43.2 0 .3.1.3.33 0 .1-.1.26-.4.5a7.11 7.11 0 0 0-2.1 5.19c0 .16 0 .28.1.38 0 0 0-.04.1-.1.3-.32.7-.48 1.2-.48a1.62 1.62 0 0 1 1.6 1.61zm-58.19 0c0 .46-.15.83-.46 1.13-.3.3-.69.44-1.15.44-.7 0-1.24-.36-1.59-1.1a4.84 4.84 0 0 1-.4-2.07 7.4 7.4 0 0 1 2.21-5.4c.3-.28.5-.43.6-.43.2 0 .31.1.31.33 0 .09-.12.25-.36.5a7.05 7.05 0 0 0-2.1 5.19 1 1 0 0 0 .05.38 1.66 1.66 0 0 1 1.28-.58c.47 0 .86.15 1.16.45.3.3.45.69.45 1.16zm-5.84 0a1.52 1.52 0 0 1-1.59 1.57c-.72 0-1.26-.36-1.6-1.1a4.55 4.55 0 0 1-.44-2.07c0-2.11.75-3.91 2.24-5.4.3-.28.5-.43.61-.43.2 0 .3.1.3.33 0 .1-.13.26-.36.5a7.06 7.06 0 0 0-2.13 5.19 1 1 0 0 0 .06.38l.11-.1a1.8 1.8 0 0 1 1.21-.48c.45 0 .83.15 1.14.45.3.3.45.69.45 1.16zm182.43-4.3c0 2.13-.8 3.93-2.2 5.4-.3.3-.5.44-.6.44-.2 0-.3-.11-.3-.32 0-.1.1-.26.3-.5a7.11 7.11 0 0 0 2.1-5.2v-.37s-.1.03-.1.1c-.4.32-.8.48-1.2.48-.5 0-.9-.15-1.2-.45-.3-.3-.4-.7-.4-1.16 0-.46.1-.83.4-1.13.3-.3.7-.45 1.2-.45.7 0 1.2.37 1.6 1.1.3.59.4 1.27.4 2.06zm-5.9 0c0 2.1-.7 3.9-2.2 5.4-.3.3-.5.44-.6.44-.2 0-.3-.11-.3-.32 0-.1.1-.25.4-.5a7.08 7.08 0 0 0 2.1-5.2c0-.15 0-.27-.1-.37 0 .02 0 .06-.1.1-.3.32-.7.48-1.2.48a1.62 1.62 0 0 1-1.6-1.61c0-.46.2-.83.5-1.13a1.67 1.67 0 0 1 2.7.66c.3.58.4 1.26.4 2.05zm9.9 17.72c0 2.25-.7 4.15-2.2 5.72-.4.32-.6.48-.7.48-.2 0-.3-.11-.3-.34 0-.1.1-.21.2-.36a7.71 7.71 0 0 0 2.3-5.5v-.56c-.4.39-.8.59-1.3.59s-.9-.17-1.2-.51c-.3-.34-.5-.73-.5-1.2 0-.45.2-.85.5-1.18.3-.33.7-.5 1.2-.5.7 0 1.3.4 1.6 1.19.3.6.4 1.32.4 2.17zm11.4-13.42c0 .46-.1.83-.4 1.13-.4.3-.7.44-1.2.44-.7 0-1.2-.36-1.6-1.1-.3-.58-.4-1.26-.4-2.07 0-2.1.7-3.9 2.2-5.4.3-.28.5-.43.6-.43.2 0 .3.1.3.33 0 .09-.1.25-.3.5a7.08 7.08 0 0 0-2.1 5.19v.38c0-.03.1-.06.1-.1.4-.32.8-.48 1.2-.48.5 0 .9.15 1.2.45.3.3.4.69.4 1.16zm-5.8 0c0 .46-.2.83-.5 1.13-.3.3-.7.44-1.1.44-.7 0-1.3-.36-1.6-1.1-.3-.58-.5-1.26-.5-2.07 0-2.11.8-3.91 2.3-5.4.3-.28.5-.43.6-.43.2 0 .3.1.3.33 0 .1-.1.26-.4.5a7.11 7.11 0 0 0-2.1 5.19c0 .16 0 .28.1.38 0 0 0-.04.1-.1.3-.32.7-.48 1.2-.48a1.62 1.62 0 0 1 1.6 1.61zm56.8-4.3c0 2.13-.7 3.93-2.2 5.4-.3.3-.5.44-.6.44-.2 0-.3-.11-.3-.32 0-.1.1-.26.4-.5a7.11 7.11 0 0 0 2.1-5.2c0-.15-.1-.27-.1-.37 0 0 0 .03-.1.1-.4.32-.8.48-1.2.48-.5 0-.8-.15-1.1-.45-.3-.3-.5-.7-.5-1.16 0-.46.2-.83.5-1.13a1.67 1.67 0 0 1 2.7.66c.3.58.4 1.26.4 2.05zm-5.8 0c0 2.1-.8 3.9-2.3 5.4-.2.3-.4.44-.5.44-.3 0-.4-.11-.4-.32 0-.1.2-.25.4-.5a7.08 7.08 0 0 0 2.1-5.2v-.37c-.1.02-.1.06-.1.1-.4.32-.8.48-1.2.48-.5 0-.9-.15-1.2-.45-.3-.3-.4-.7-.4-1.16 0-.46.1-.83.4-1.13.3-.3.7-.45 1.2-.45.7 0 1.2.37 1.6 1.1.2.59.4 1.27.4 2.06zm-124.6 192c0 2.13-.8 3.93-2.2 5.4-.3.3-.5.44-.6.44-.2 0-.3-.11-.3-.32 0-.1.1-.26.3-.5a7.11 7.11 0 0 0 2.1-5.2v-.37s-.1.03-.1.1c-.4.32-.8.48-1.2.48-.5 0-.9-.15-1.2-.45-.3-.3-.4-.7-.4-1.16 0-.46.1-.83.4-1.13.3-.3.7-.45 1.2-.45.7 0 1.2.37 1.6 1.1.3.59.4 1.27.4 2.06zm-5.9 0c0 2.1-.7 3.9-2.2 5.4-.3.3-.5.44-.6.44-.2 0-.3-.11-.3-.32 0-.1.1-.25.4-.5a7.08 7.08 0 0 0 2.1-5.2c0-.15 0-.27-.1-.37 0 .02 0 .06-.1.1-.3.32-.7.48-1.2.48a1.62 1.62 0 0 1-1.6-1.61c0-.46.2-.83.5-1.13a1.67 1.67 0 0 1 2.7.66c.3.58.4 1.26.4 2.05zm9.9 17.72c0 2.25-.7 4.15-2.2 5.72-.4.32-.6.48-.7.48-.2 0-.3-.11-.3-.34 0-.1.1-.21.2-.36a7.71 7.71 0 0 0 2.3-5.5v-.56c-.4.39-.8.59-1.3.59s-.9-.17-1.2-.51c-.3-.34-.5-.73-.5-1.2 0-.45.2-.85.5-1.18.3-.33.7-.5 1.2-.5.7 0 1.3.4 1.6 1.19.3.6.4 1.32.4 2.17zm11.4-13.42c0 .46-.1.83-.4 1.13-.4.3-.7.44-1.2.44-.7 0-1.2-.36-1.6-1.1-.3-.58-.4-1.26-.4-2.07 0-2.1.7-3.9 2.2-5.4.3-.28.5-.43.6-.43.2 0 .3.1.3.33 0 .09-.1.25-.3.5a7.08 7.08 0 0 0-2.1 5.19v.38c0-.03.1-.06.1-.1.4-.32.8-.48 1.2-.48.5 0 .9.15 1.2.45.3.3.4.69.4 1.16zm-5.8 0c0 .46-.2.83-.5 1.13-.3.3-.7.44-1.1.44-.7 0-1.3-.36-1.6-1.1-.3-.58-.5-1.26-.5-2.07 0-2.11.8-3.91 2.3-5.4.3-.28.5-.43.6-.43.2 0 .3.1.3.33 0 .1-.1.26-.4.5a7.11 7.11 0 0 0-2.1 5.19c0 .16 0 .28.1.38 0 0 0-.04.1-.1.3-.32.7-.48 1.2-.48a1.62 1.62 0 0 1 1.6 1.61zm-9.6-68.3c0 2.13-.8 3.93-2.2 5.4-.3.3-.5.44-.6.44-.2 0-.3-.11-.3-.32 0-.1.1-.26.3-.5a7.11 7.11 0 0 0 2.1-5.2v-.37s-.1.03-.1.1c-.4.32-.8.48-1.2.48-.5 0-.9-.15-1.2-.45-.3-.3-.4-.7-.4-1.16 0-.46.1-.83.4-1.13.3-.3.7-.45 1.2-.45.7 0 1.2.37 1.6 1.1.3.59.4 1.27.4 2.06zm-5.9 0c0 2.1-.7 3.9-2.2 5.4-.3.3-.5.44-.6.44-.2 0-.3-.11-.3-.32 0-.1.1-.25.4-.5a7.08 7.08 0 0 0 2.1-5.2c0-.15 0-.27-.1-.37 0 .02 0 .06-.1.1-.3.32-.7.48-1.2.48a1.62 1.62 0 0 1-1.6-1.61c0-.46.2-.83.5-1.13a1.67 1.67 0 0 1 2.7.66c.3.58.4 1.26.4 2.05zm9.9 17.72c0 2.25-.7 4.15-2.2 5.72-.4.32-.6.48-.7.48-.2 0-.3-.11-.3-.34 0-.1.1-.21.2-.36a7.71 7.71 0 0 0 2.3-5.5v-.56c-.4.39-.8.59-1.3.59s-.9-.17-1.2-.51c-.3-.34-.5-.73-.5-1.2 0-.45.2-.85.5-1.18.3-.33.7-.5 1.2-.5.7 0 1.3.4 1.6 1.19.3.6.4 1.32.4 2.17zm11.4-13.42c0 .46-.1.83-.4 1.13-.4.3-.7.44-1.2.44-.7 0-1.2-.36-1.6-1.1-.3-.58-.4-1.26-.4-2.07 0-2.1.7-3.9 2.2-5.4.3-.28.5-.43.6-.43.2 0 .3.1.3.33 0 .09-.1.25-.3.5a7.08 7.08 0 0 0-2.1 5.19v.38c0-.03.1-.06.1-.1.4-.32.8-.48 1.2-.48.5 0 .9.15 1.2.45.3.3.4.69.4 1.16zm-5.8 0c0 .46-.2.83-.5 1.13-.3.3-.7.44-1.1.44-.7 0-1.3-.36-1.6-1.1-.3-.58-.5-1.26-.5-2.07 0-2.11.8-3.91 2.3-5.4.3-.28.5-.43.6-.43.2 0 .3.1.3.33 0 .1-.1.26-.4.5a7.11 7.11 0 0 0-2.1 5.19c0 .16 0 .28.1.38 0 0 0-.04.1-.1.3-.32.7-.48 1.2-.48a1.62 1.62 0 0 1 1.6 1.61zm-9.6-68.3c0 2.13-.8 3.93-2.2 5.4-.3.3-.5.44-.6.44-.2 0-.3-.11-.3-.32 0-.1.1-.26.3-.5a7.11 7.11 0 0 0 2.1-5.2v-.37s-.1.03-.1.1c-.4.32-.8.48-1.2.48-.5 0-.9-.15-1.2-.45-.3-.3-.4-.7-.4-1.16 0-.46.1-.83.4-1.13.3-.3.7-.45 1.2-.45.7 0 1.2.37 1.6 1.1.3.59.4 1.27.4 2.06zm-5.9 0c0 2.1-.7 3.9-2.2 5.4-.3.3-.5.44-.6.44-.2 0-.3-.11-.3-.32 0-.1.1-.25.4-.5a7.08 7.08 0 0 0 2.1-5.2c0-.15 0-.27-.1-.37 0 .02 0 .06-.1.1-.3.32-.7.48-1.2.48a1.62 1.62 0 0 1-1.6-1.61c0-.46.2-.83.5-1.13a1.67 1.67 0 0 1 2.7.66c.3.58.4 1.26.4 2.05zm9.9 17.72c0 2.25-.7 4.15-2.2 5.72-.4.32-.6.48-.7.48-.2 0-.3-.11-.3-.34 0-.1.1-.21.2-.36a7.71 7.71 0 0 0 2.3-5.5v-.56c-.4.39-.8.59-1.3.59s-.9-.17-1.2-.51c-.3-.34-.5-.73-.5-1.2 0-.45.2-.85.5-1.18.3-.33.7-.5 1.2-.5.7 0 1.3.4 1.6 1.19.3.6.4 1.32.4 2.17zm11.4-13.42c0 .46-.1.83-.4 1.13-.4.3-.7.44-1.2.44-.7 0-1.2-.36-1.6-1.1-.3-.58-.4-1.26-.4-2.07 0-2.1.7-3.9 2.2-5.4.3-.28.5-.43.6-.43.2 0 .3.1.3.33 0 .09-.1.25-.3.5a7.08 7.08 0 0 0-2.1 5.19v.38c0-.03.1-.06.1-.1.4-.32.8-.48 1.2-.48.5 0 .9.15 1.2.45.3.3.4.69.4 1.16zm-5.8 0c0 .46-.2.83-.5 1.13-.3.3-.7.44-1.1.44-.7 0-1.3-.36-1.6-1.1-.3-.58-.5-1.26-.5-2.07 0-2.11.8-3.91 2.3-5.4.3-.28.5-.43.6-.43.2 0 .3.1.3.33 0 .1-.1.26-.4.5a7.11 7.11 0 0 0-2.1 5.19c0 .16 0 .28.1.38 0 0 0-.04.1-.1.3-.32.7-.48 1.2-.48a1.62 1.62 0 0 1 1.6 1.61zm-73.6 123.7c0 2.13-.8 3.93-2.2 5.4-.3.3-.5.44-.6.44-.2 0-.3-.11-.3-.32 0-.1.1-.26.3-.5a7.11 7.11 0 0 0 2.1-5.2v-.37s-.1.03-.1.1c-.4.32-.8.48-1.2.48-.5 0-.9-.15-1.2-.45-.3-.3-.4-.7-.4-1.16 0-.46.1-.83.4-1.13.3-.3.7-.45 1.2-.45.7 0 1.2.37 1.6 1.1.3.59.4 1.27.4 2.06zm-5.9 0c0 2.1-.7 3.9-2.2 5.4-.3.3-.5.44-.6.44-.2 0-.3-.11-.3-.32 0-.1.1-.25.4-.5a7.08 7.08 0 0 0 2.1-5.2c0-.15 0-.27-.1-.37 0 .02 0 .06-.1.1-.3.32-.7.48-1.2.48a1.62 1.62 0 0 1-1.6-1.61c0-.46.2-.83.5-1.13a1.67 1.67 0 0 1 2.7.66c.3.58.4 1.26.4 2.05zm9.9 17.72c0 2.25-.7 4.15-2.2 5.72-.4.32-.6.48-.7.48-.2 0-.3-.11-.3-.34 0-.1.1-.21.2-.36a7.71 7.71 0 0 0 2.3-5.5v-.56c-.4.39-.8.59-1.3.59s-.9-.17-1.2-.51c-.3-.34-.5-.73-.5-1.2 0-.45.2-.85.5-1.18.3-.33.7-.5 1.2-.5.7 0 1.3.4 1.6 1.19.3.6.4 1.32.4 2.17zm11.4-13.42c0 .46-.1.83-.4 1.13-.4.3-.7.44-1.2.44-.7 0-1.2-.36-1.6-1.1-.3-.58-.4-1.26-.4-2.07 0-2.1.7-3.9 2.2-5.4.3-.28.5-.43.6-.43.2 0 .3.1.3.33 0 .09-.1.25-.3.5a7.08 7.08 0 0 0-2.1 5.19v.38c0-.03.1-.06.1-.1.4-.32.8-.48 1.2-.48.5 0 .9.15 1.2.45.3.3.4.69.4 1.16zm-5.8 0c0 .46-.2.83-.5 1.13-.3.3-.7.44-1.1.44-.7 0-1.3-.36-1.6-1.1-.3-.58-.5-1.26-.5-2.07 0-2.11.8-3.91 2.3-5.4.3-.28.5-.43.6-.43.2 0 .3.1.3.33 0 .1-.1.26-.4.5a7.11 7.11 0 0 0-2.1 5.19c0 .16 0 .28.1.38 0 0 0-.04.1-.1.3-.32.7-.48 1.2-.48a1.62 1.62 0 0 1 1.6 1.61zm-9.6-68.3c0 2.13-.8 3.93-2.2 5.4-.3.3-.5.44-.6.44-.2 0-.3-.11-.3-.32 0-.1.1-.26.3-.5a7.11 7.11 0 0 0 2.1-5.2v-.37s-.1.03-.1.1c-.4.32-.8.48-1.2.48-.5 0-.9-.15-1.2-.45-.3-.3-.4-.7-.4-1.16 0-.46.1-.83.4-1.13.3-.3.7-.45 1.2-.45.7 0 1.2.37 1.6 1.1.3.59.4 1.27.4 2.06zm-5.9 0c0 2.1-.7 3.9-2.2 5.4-.3.3-.5.44-.6.44-.2 0-.3-.11-.3-.32 0-.1.1-.25.4-.5a7.08 7.08 0 0 0 2.1-5.2c0-.15 0-.27-.1-.37 0 .02 0 .06-.1.1-.3.32-.7.48-1.2.48a1.62 1.62 0 0 1-1.6-1.61c0-.46.2-.83.5-1.13a1.67 1.67 0 0 1 2.7.66c.3.58.4 1.26.4 2.05zm9.9 17.72c0 2.25-.7 4.15-2.2 5.72-.4.32-.6.48-.7.48-.2 0-.3-.11-.3-.34 0-.1.1-.21.2-.36a7.71 7.71 0 0 0 2.3-5.5v-.56c-.4.39-.8.59-1.3.59s-.9-.17-1.2-.51c-.3-.34-.5-.73-.5-1.2 0-.45.2-.85.5-1.18.3-.33.7-.5 1.2-.5.7 0 1.3.4 1.6 1.19.3.6.4 1.32.4 2.17zm11.4-13.42c0 .46-.1.83-.4 1.13-.4.3-.7.44-1.2.44-.7 0-1.2-.36-1.6-1.1-.3-.58-.4-1.26-.4-2.07 0-2.1.7-3.9 2.2-5.4.3-.28.5-.43.6-.43.2 0 .3.1.3.33 0 .09-.1.25-.3.5a7.08 7.08 0 0 0-2.1 5.19v.38c0-.03.1-.06.1-.1.4-.32.8-.48 1.2-.48.5 0 .9.15 1.2.45.3.3.4.69.4 1.16zm-5.8 0c0 .46-.2.83-.5 1.13-.3.3-.7.44-1.1.44-.7 0-1.3-.36-1.6-1.1-.3-.58-.5-1.26-.5-2.07 0-2.11.8-3.91 2.3-5.4.3-.28.5-.43.6-.43.2 0 .3.1.3.33 0 .1-.1.26-.4.5a7.11 7.11 0 0 0-2.1 5.19c0 .16 0 .28.1.38 0 0 0-.04.1-.1.3-.32.7-.48 1.2-.48a1.62 1.62 0 0 1 1.6 1.61zm-9.6-68.3c0 2.13-.8 3.93-2.2 5.4-.3.3-.5.44-.6.44-.2 0-.3-.11-.3-.32 0-.1.1-.26.3-.5a7.11 7.11 0 0 0 2.1-5.2v-.37s-.1.03-.1.1c-.4.32-.8.48-1.2.48-.5 0-.9-.15-1.2-.45-.3-.3-.4-.7-.4-1.16 0-.46.1-.83.4-1.13.3-.3.7-.45 1.2-.45.7 0 1.2.37 1.6 1.1.3.59.4 1.27.4 2.06zm-5.9 0c0 2.1-.7 3.9-2.2 5.4-.3.3-.5.44-.6.44-.2 0-.3-.11-.3-.32 0-.1.1-.25.4-.5a7.08 7.08 0 0 0 2.1-5.2c0-.15 0-.27-.1-.37 0 .02 0 .06-.1.1-.3.32-.7.48-1.2.48a1.62 1.62 0 0 1-1.6-1.61c0-.46.2-.83.5-1.13a1.67 1.67 0 0 1 2.7.66c.3.58.4 1.26.4 2.05zm9.9 17.72c0 2.25-.7 4.15-2.2 5.72-.4.32-.6.48-.7.48-.2 0-.3-.11-.3-.34 0-.1.1-.21.2-.36a7.71 7.71 0 0 0 2.3-5.5v-.56c-.4.39-.8.59-1.3.59s-.9-.17-1.2-.51c-.3-.34-.5-.73-.5-1.2 0-.45.2-.85.5-1.18.3-.33.7-.5 1.2-.5.7 0 1.3.4 1.6 1.19.3.6.4 1.32.4 2.17zm11.4-13.42c0 .46-.1.83-.4 1.13-.4.3-.7.44-1.2.44-.7 0-1.2-.36-1.6-1.1-.3-.58-.4-1.26-.4-2.07 0-2.1.7-3.9 2.2-5.4.3-.28.5-.43.6-.43.2 0 .3.1.3.33 0 .09-.1.25-.3.5a7.08 7.08 0 0 0-2.1 5.19v.38c0-.03.1-.06.1-.1.4-.32.8-.48 1.2-.48.5 0 .9.15 1.2.45.3.3.4.69.4 1.16zm-5.8 0c0 .46-.2.83-.5 1.13-.3.3-.7.44-1.1.44-.7 0-1.3-.36-1.6-1.1-.3-.58-.5-1.26-.5-2.07 0-2.11.8-3.91 2.3-5.4.3-.28.5-.43.6-.43.2 0 .3.1.3.33 0 .1-.1.26-.4.5a7.11 7.11 0 0 0-2.1 5.19c0 .16 0 .28.1.38 0 0 0-.04.1-.1.3-.32.7-.48 1.2-.48a1.62 1.62 0 0 1 1.6 1.61zm-57.89 0a1.53 1.53 0 0 1-1.6 1.57c-.72 0-1.25-.36-1.6-1.1a4.84 4.84 0 0 1-.4-2.07 7.4 7.4 0 0 1 2.21-5.4c.3-.28.5-.43.6-.43.2 0 .3.1.3.33 0 .09-.12.25-.36.5a7.1 7.1 0 0 0-2.1 5.19 1 1 0 0 0 .06.38 1.69 1.69 0 0 1 1.28-.58 1.55 1.55 0 0 1 1.61 1.6zm-5.85 0a1.52 1.52 0 0 1-1.59 1.57c-.72 0-1.26-.36-1.6-1.1a4.69 4.69 0 0 1-.43-2.07c0-2.11.74-3.91 2.23-5.4.3-.28.5-.43.61-.43.2 0 .3.1.3.33 0 .1-.12.26-.36.5a7.05 7.05 0 0 0-2.12 5.19 1 1 0 0 0 .06.38l.11-.1c.36-.32.76-.48 1.2-.48.46 0 .84.15 1.14.45.3.3.45.69.45 1.16zm5.85 64a1.53 1.53 0 0 1-1.6 1.57c-.72 0-1.25-.36-1.6-1.1a4.84 4.84 0 0 1-.4-2.07 7.4 7.4 0 0 1 2.21-5.4c.3-.28.5-.43.6-.43.2 0 .3.1.3.33 0 .09-.12.25-.36.5a7.1 7.1 0 0 0-2.1 5.19 1 1 0 0 0 .06.38 1.69 1.69 0 0 1 1.28-.58 1.55 1.55 0 0 1 1.61 1.6zm-5.85 0a1.52 1.52 0 0 1-1.59 1.57c-.72 0-1.26-.36-1.6-1.1a4.69 4.69 0 0 1-.43-2.07c0-2.11.74-3.91 2.23-5.4.3-.28.5-.43.61-.43.2 0 .3.1.3.33 0 .1-.12.26-.36.5a7.05 7.05 0 0 0-2.12 5.19 1 1 0 0 0 .06.38l.11-.1c.36-.32.76-.48 1.2-.48.46 0 .84.15 1.14.45.3.3.45.69.45 1.16zm5.85 64a1.53 1.53 0 0 1-1.6 1.57c-.72 0-1.25-.36-1.6-1.1a4.84 4.84 0 0 1-.4-2.07 7.4 7.4 0 0 1 2.21-5.4c.3-.28.5-.43.6-.43.2 0 .3.1.3.33 0 .09-.12.25-.36.5a7.1 7.1 0 0 0-2.1 5.19 1 1 0 0 0 .06.38 1.69 1.69 0 0 1 1.28-.58 1.55 1.55 0 0 1 1.61 1.6zm-5.85 0a1.52 1.52 0 0 1-1.59 1.57c-.72 0-1.26-.36-1.6-1.1a4.69 4.69 0 0 1-.43-2.07c0-2.11.74-3.91 2.23-5.4.3-.28.5-.43.61-.43.2 0 .3.1.3.33 0 .1-.12.26-.36.5a7.05 7.05 0 0 0-2.12 5.19 1 1 0 0 0 .06.38l.11-.1c.36-.32.76-.48 1.2-.48.46 0 .84.15 1.14.45.3.3.45.69.45 1.16zm182.14-4.3c0 2.13-.8 3.93-2.2 5.4-.3.3-.5.44-.6.44-.2 0-.3-.11-.3-.32 0-.1.1-.26.3-.5a7.11 7.11 0 0 0 2.1-5.2v-.37s-.1.03-.1.1c-.4.32-.8.48-1.2.48-.5 0-.9-.15-1.2-.45-.3-.3-.4-.7-.4-1.16 0-.46.1-.83.4-1.13.3-.3.7-.45 1.2-.45.7 0 1.2.37 1.6 1.1.3.59.4 1.27.4 2.06zm-5.9 0c0 2.1-.7 3.9-2.2 5.4-.3.3-.5.44-.6.44-.2 0-.3-.11-.3-.32 0-.1.1-.25.4-.5a7.08 7.08 0 0 0 2.1-5.2c0-.15 0-.27-.1-.37 0 .02 0 .06-.1.1-.3.32-.7.48-1.2.48a1.62 1.62 0 0 1-1.6-1.61c0-.46.2-.83.5-1.13a1.67 1.67 0 0 1 2.7.66c.3.58.4 1.26.4 2.05zm9.9 17.72c0 2.25-.7 4.15-2.2 5.72-.4.32-.6.48-.7.48-.2 0-.3-.11-.3-.34 0-.1.1-.21.2-.36a7.71 7.71 0 0 0 2.3-5.5v-.56c-.4.39-.8.59-1.3.59s-.9-.17-1.2-.51c-.3-.34-.5-.73-.5-1.2 0-.45.2-.85.5-1.18.3-.33.7-.5 1.2-.5.7 0 1.3.4 1.6 1.19.3.6.4 1.32.4 2.17zm11.4-13.42c0 .46-.1.83-.4 1.13-.4.3-.7.44-1.2.44-.7 0-1.2-.36-1.6-1.1-.3-.58-.4-1.26-.4-2.07 0-2.1.7-3.9 2.2-5.4.3-.28.5-.43.6-.43.2 0 .3.1.3.33 0 .09-.1.25-.3.5a7.08 7.08 0 0 0-2.1 5.19v.38c0-.03.1-.06.1-.1.4-.32.8-.48 1.2-.48.5 0 .9.15 1.2.45.3.3.4.69.4 1.16zm-5.8 0c0 .46-.2.83-.5 1.13-.3.3-.7.44-1.1.44-.7 0-1.3-.36-1.6-1.1-.3-.58-.5-1.26-.5-2.07 0-2.11.8-3.91 2.3-5.4.3-.28.5-.43.6-.43.2 0 .3.1.3.33 0 .1-.1.26-.4.5a7.11 7.11 0 0 0-2.1 5.19c0 .16 0 .28.1.38 0 0 0-.04.1-.1.3-.32.7-.48 1.2-.48a1.62 1.62 0 0 1 1.6 1.61zm-9.6-68.3c0 2.13-.8 3.93-2.2 5.4-.3.3-.5.44-.6.44-.2 0-.3-.11-.3-.32 0-.1.1-.26.3-.5a7.11 7.11 0 0 0 2.1-5.2v-.37s-.1.03-.1.1c-.4.32-.8.48-1.2.48-.5 0-.9-.15-1.2-.45-.3-.3-.4-.7-.4-1.16 0-.46.1-.83.4-1.13.3-.3.7-.45 1.2-.45.7 0 1.2.37 1.6 1.1.3.59.4 1.27.4 2.06zm-5.9 0c0 2.1-.7 3.9-2.2 5.4-.3.3-.5.44-.6.44-.2 0-.3-.11-.3-.32 0-.1.1-.25.4-.5a7.08 7.08 0 0 0 2.1-5.2c0-.15 0-.27-.1-.37 0 .02 0 .06-.1.1-.3.32-.7.48-1.2.48a1.62 1.62 0 0 1-1.6-1.61c0-.46.2-.83.5-1.13a1.67 1.67 0 0 1 2.7.66c.3.58.4 1.26.4 2.05zm9.9 17.72c0 2.25-.7 4.15-2.2 5.72-.4.32-.6.48-.7.48-.2 0-.3-.11-.3-.34 0-.1.1-.21.2-.36a7.71 7.71 0 0 0 2.3-5.5v-.56c-.4.39-.8.59-1.3.59s-.9-.17-1.2-.51c-.3-.34-.5-.73-.5-1.2 0-.45.2-.85.5-1.18.3-.33.7-.5 1.2-.5.7 0 1.3.4 1.6 1.19.3.6.4 1.32.4 2.17zm11.4-13.42c0 .46-.1.83-.4 1.13-.4.3-.7.44-1.2.44-.7 0-1.2-.36-1.6-1.1-.3-.58-.4-1.26-.4-2.07 0-2.1.7-3.9 2.2-5.4.3-.28.5-.43.6-.43.2 0 .3.1.3.33 0 .09-.1.25-.3.5a7.08 7.08 0 0 0-2.1 5.19v.38c0-.03.1-.06.1-.1.4-.32.8-.48 1.2-.48.5 0 .9.15 1.2.45.3.3.4.69.4 1.16zm-5.8 0c0 .46-.2.83-.5 1.13-.3.3-.7.44-1.1.44-.7 0-1.3-.36-1.6-1.1-.3-.58-.5-1.26-.5-2.07 0-2.11.8-3.91 2.3-5.4.3-.28.5-.43.6-.43.2 0 .3.1.3.33 0 .1-.1.26-.4.5a7.11 7.11 0 0 0-2.1 5.19c0 .16 0 .28.1.38 0 0 0-.04.1-.1.3-.32.7-.48 1.2-.48a1.62 1.62 0 0 1 1.6 1.61zm-9.6-68.3c0 2.13-.8 3.93-2.2 5.4-.3.3-.5.44-.6.44-.2 0-.3-.11-.3-.32 0-.1.1-.26.3-.5a7.11 7.11 0 0 0 2.1-5.2v-.37s-.1.03-.1.1c-.4.32-.8.48-1.2.48-.5 0-.9-.15-1.2-.45-.3-.3-.4-.7-.4-1.16 0-.46.1-.83.4-1.13.3-.3.7-.45 1.2-.45.7 0 1.2.37 1.6 1.1.3.59.4 1.27.4 2.06zm-5.9 0c0 2.1-.7 3.9-2.2 5.4-.3.3-.5.44-.6.44-.2 0-.3-.11-.3-.32 0-.1.1-.25.4-.5a7.08 7.08 0 0 0 2.1-5.2c0-.15 0-.27-.1-.37 0 .02 0 .06-.1.1-.3.32-.7.48-1.2.48a1.62 1.62 0 0 1-1.6-1.61c0-.46.2-.83.5-1.13a1.67 1.67 0 0 1 2.7.66c.3.58.4 1.26.4 2.05zm9.9 17.72c0 2.25-.7 4.15-2.2 5.72-.4.32-.6.48-.7.48-.2 0-.3-.11-.3-.34 0-.1.1-.21.2-.36a7.71 7.71 0 0 0 2.3-5.5v-.56c-.4.39-.8.59-1.3.59s-.9-.17-1.2-.51c-.3-.34-.5-.73-.5-1.2 0-.45.2-.85.5-1.18.3-.33.7-.5 1.2-.5.7 0 1.3.4 1.6 1.19.3.6.4 1.32.4 2.17zm11.4-13.42c0 .46-.1.83-.4 1.13-.4.3-.7.44-1.2.44-.7 0-1.2-.36-1.6-1.1-.3-.58-.4-1.26-.4-2.07 0-2.1.7-3.9 2.2-5.4.3-.28.5-.43.6-.43.2 0 .3.1.3.33 0 .09-.1.25-.3.5a7.08 7.08 0 0 0-2.1 5.19v.38c0-.03.1-.06.1-.1.4-.32.8-.48 1.2-.48.5 0 .9.15 1.2.45.3.3.4.69.4 1.16zm-5.8 0c0 .46-.2.83-.5 1.13-.3.3-.7.44-1.1.44-.7 0-1.3-.36-1.6-1.1-.3-.58-.5-1.26-.5-2.07 0-2.11.8-3.91 2.3-5.4.3-.28.5-.43.6-.43.2 0 .3.1.3.33 0 .1-.1.26-.4.5a7.11 7.11 0 0 0-2.1 5.19c0 .16 0 .28.1.38 0 0 0-.04.1-.1.3-.32.7-.48 1.2-.48a1.62 1.62 0 0 1 1.6 1.61zm56.8 123.7c0 2.13-.7 3.93-2.2 5.4-.3.3-.5.44-.6.44-.2 0-.3-.11-.3-.32 0-.1.1-.26.4-.5a7.11 7.11 0 0 0 2.1-5.2c0-.15-.1-.27-.1-.37 0 0 0 .03-.1.1-.4.32-.8.48-1.2.48-.5 0-.8-.15-1.1-.45-.3-.3-.5-.7-.5-1.16 0-.46.2-.83.5-1.13a1.67 1.67 0 0 1 2.7.66c.3.58.4 1.26.4 2.05zm-5.8 0c0 2.1-.8 3.9-2.3 5.4-.2.3-.4.44-.5.44-.3 0-.4-.11-.4-.32 0-.1.2-.25.4-.5a7.08 7.08 0 0 0 2.1-5.2v-.37c-.1.02-.1.06-.1.1-.4.32-.8.48-1.2.48-.5 0-.9-.15-1.2-.45-.3-.3-.4-.7-.4-1.16 0-.46.1-.83.4-1.13.3-.3.7-.45 1.2-.45.7 0 1.2.37 1.6 1.1.2.59.4 1.27.4 2.06zm5.8-64c0 2.13-.7 3.93-2.2 5.4-.3.3-.5.44-.6.44-.2 0-.3-.11-.3-.32 0-.1.1-.26.4-.5a7.11 7.11 0 0 0 2.1-5.2c0-.15-.1-.27-.1-.37 0 0 0 .03-.1.1-.4.32-.8.48-1.2.48-.5 0-.8-.15-1.1-.45-.3-.3-.5-.7-.5-1.16 0-.46.2-.83.5-1.13a1.67 1.67 0 0 1 2.7.66c.3.58.4 1.26.4 2.05zm-5.8 0c0 2.1-.8 3.9-2.3 5.4-.2.3-.4.44-.5.44-.3 0-.4-.11-.4-.32 0-.1.2-.25.4-.5a7.08 7.08 0 0 0 2.1-5.2v-.37c-.1.02-.1.06-.1.1-.4.32-.8.48-1.2.48-.5 0-.9-.15-1.2-.45-.3-.3-.4-.7-.4-1.16 0-.46.1-.83.4-1.13.3-.3.7-.45 1.2-.45.7 0 1.2.37 1.6 1.1.2.59.4 1.27.4 2.06zm5.8-64c0 2.13-.7 3.93-2.2 5.4-.3.3-.5.44-.6.44-.2 0-.3-.11-.3-.32 0-.1.1-.26.4-.5a7.11 7.11 0 0 0 2.1-5.2c0-.15-.1-.27-.1-.37 0 0 0 .03-.1.1-.4.32-.8.48-1.2.48-.5 0-.8-.15-1.1-.45-.3-.3-.5-.7-.5-1.16 0-.46.2-.83.5-1.13a1.67 1.67 0 0 1 2.7.66c.3.58.4 1.26.4 2.05zm-5.8 0c0 2.1-.8 3.9-2.3 5.4-.2.3-.4.44-.5.44-.3 0-.4-.11-.4-.32 0-.1.2-.25.4-.5a7.08 7.08 0 0 0 2.1-5.2v-.37c-.1.02-.1.06-.1.1-.4.32-.8.48-1.2.48-.5 0-.9-.15-1.2-.45-.3-.3-.4-.7-.4-1.16 0-.46.1-.83.4-1.13.3-.3.7-.45 1.2-.45.7 0 1.2.37 1.6 1.1.2.59.4 1.27.4 2.06z"/>
  </g>
  <g>
    <path fill="none" stroke="gray" stroke-linecap="round" stroke-opacity=".25" stroke-width="4.14" d="M5067.07 2346.28h273.86v360.16h-273.86z" transform="matrix(1.04213 0 0 .883 -5278.56 -2069.75)"/>
  </g>
</svg>
