<?xml version="1.0" encoding="UTF-8" standalone="no"?>
<!DOCTYPE svg PUBLIC "-//W3C//DTD SVG 1.1//EN" "http://www.w3.org/Graphics/SVG/1.1/DTD/svg11.dtd">
<svg xmlns="http://www.w3.org/2000/svg" fill-rule="evenodd" stroke-linecap="round" stroke-linejoin="round" clip-rule="evenodd" viewBox="0 0 290 364">
  <path fill="none" d="M-9331.27-2366h32861.26v24204.4H-9331.27z"/>
  <path fill="#fff" d="M1.98 322h285.4v39.02H1.98z"/>
  <path fill="#f7f7f7" d="M1.98 2h285.4v320H1.98z"/>
  <g fill="none">
    <path stroke="#666" stroke-width=".87" d="M5312.72 2344.01h-230.29" transform="matrix(1.1116 0 0 1.19196 -5631.67 -2759.97)"/>
    <path d="M273.98 34h-256"/>
  </g>
  <path fill="none" stroke="#000" stroke-linecap="butt" stroke-width="8" d="M2400 352v256m32 0V352m96 0v256m32 0V352m-96 0v256m32 0V352m96 0v256m32 0V352m32 0v256m0-256h-256m0 32h256m0 96h-256m0 32h256m0-96h-256m0 32h256m0 96h-256m0 32h256m0 32h-256" transform="matrix(-.125 0 0 .125 556.7 190)"/>
  <path fill="none" stroke="#000" stroke-linecap="butt" stroke-width="8" d="M2912 128h256v256h-256z" transform="matrix(-.125 0 0 -.125 620.7 282)"/>
  <path fill="#f7f7f7" fill-opacity=".75" d="M256.7 266h-32v-32h32z"/>
  <path fill="none" stroke="#000" stroke-linecap="butt" stroke-width="8" d="M5664 3264h96v128h-96v64h-64v-64h-96v-128h96v-64h64v64z" transform="matrix(-.125 0 0 -.125 944.7 666)"/>
  <path d="M236.7 258h-12v-16h12v-8h8v8h12v16h-12v8h-8v-8z"/>
  <path fill="none" stroke="#000" stroke-linecap="butt" stroke-width="8" d="M2400 352v256m32 0V352m96 0v256m32 0V352m-96 0v256m32 0V352m96 0v256m32 0V352m32 0v256m0-256h-256m0 32h256m0 96h-256m0 32h256m0-96h-256m0 32h256m0 96h-256m0 32h256m0 32h-256" transform="matrix(0 -.125 -.125 0 172.7 566)"/>
  <path fill="none" stroke="#000" stroke-linecap="butt" stroke-width="8" d="M2912 128h256v256h-256z" transform="matrix(0 -.125 .125 0 80.7 630)"/>
  <path fill="#f7f7f7" fill-opacity=".75" d="M96.7 266v-32h32v32z"/>
  <path fill="none" stroke="#000" stroke-linecap="butt" stroke-width="5.06" d="M2432 288h64v256h-64z" transform="matrix(0 .25 .125 0 60.7 -366)"/>
  <path d="M96.7 242v16h32v-16z"/>
  <path fill="none" stroke="#fff" stroke-linecap="butt" stroke-opacity=".35" d="M3966.7 2624h-32m32-4h-32m0-4h32m-32 8h32m0-8h-32m28 8v-16m-12 0v16m-4 0v-16m12 0v16m-4 0v-16m-12 0v16m-4 0v-16m28 4h-32m0 12v-16h32v16" transform="matrix(1 0 0 1 -3838 -2366)"/>
  <path fill="none" stroke="#000" stroke-linecap="butt" stroke-width="8" d="M2400 352v256m32 0V352m96 0v256m32 0V352m-96 0v256m32 0V352m96 0v256m32 0V352m32 0v256m0-256h-256m0 32h256m0 96h-256m0 32h256m0-96h-256m0 32h256m0 96h-256m0 32h256m0 32h-256" transform="matrix(0 -.125 -.125 0 172.7 414)"/>
  <path fill="none" stroke="#000" stroke-linecap="butt" stroke-width="8" d="M2912 128h256v256h-256z" transform="matrix(0 -.125 .125 0 80.7 478)"/>
  <path fill="#f7f7f7" fill-opacity=".75" d="M96.7 114V82h32v32z"/>
  <path fill="none" stroke="#000" stroke-linecap="butt" stroke-width="8" d="M2432 288h64v256h-64z" transform="matrix(0 .125 .125 0 60.7 -210)"/>
  <path d="M96.7 94v8h32v-8z"/>
  <path fill="none" stroke="#fefefe" stroke-linecap="butt" stroke-miterlimit="2" d="M9380.46 2419.09c0 .48-.18.9-.53 1.25-.35.34-.76.52-1.23.52-.49 0-.91-.18-1.25-.52a1.7 1.7 0 0 1-.52-1.25c0-.49.17-.9.52-1.24a1.7 1.7 0 0 1 1.25-.51c.47 0 .88.18 1.23.53.35.35.53.75.53 1.22zm0 7.82c0 .48-.18.89-.53 1.24-.35.35-.76.52-1.23.52-.49 0-.91-.17-1.25-.52a1.69 1.69 0 0 1-.52-1.24 1.74 1.74 0 0 1 1.77-1.75c.47 0 .88.17 1.23.52s.53.76.53 1.23zm0 7.81c0 .48-.18.89-.53 1.24-.35.35-.76.52-1.23.52-.49 0-.91-.17-1.25-.52a1.69 1.69 0 0 1-.52-1.24c0-.49.17-.9.52-1.24a1.7 1.7 0 0 1 1.25-.51c.47 0 .88.17 1.23.52s.53.76.53 1.23zm-.03 37.04l-.67 4.24h-9.07v-.21c0-.26.1-.49.28-.7l4.69-5.22c1.7-1.9 2.56-3.7 2.56-5.4 0-1.09-.27-2-.81-2.74a2.88 2.88 0 0 0-2.46-1.25c-.76 0-1.44.24-2.03.7a3.82 3.82 0 0 0-1.28 1.79c.06-.02.12-.02.2-.02.95 0 1.42.42 1.42 1.27 0 .36-.12.67-.36.92-.25.25-.55.37-.91.37-.86 0-1.3-.45-1.3-1.36 0-1.22.46-2.27 1.36-3.13a4.52 4.52 0 0 1 3.21-1.29 5.4 5.4 0 0 1 3.64 1.27 4.6 4.6 0 0 1 .63 6.14c-.35.49-.99 1.2-1.94 2.12l-5.01 4.86h4.87c1.07 0 1.68-.06 1.83-.19.16-.13.34-.85.54-2.17h.61zm12 0l-.67 4.24h-9.07v-.21c0-.26.1-.49.28-.7l4.69-5.22c1.7-1.9 2.56-3.7 2.56-5.4 0-1.09-.27-2-.81-2.74a2.88 2.88 0 0 0-2.46-1.25c-.76 0-1.44.24-2.03.7a3.82 3.82 0 0 0-1.28 1.79c.06-.02.12-.02.2-.02.95 0 1.42.42 1.42 1.27 0 .36-.12.67-.36.92-.25.25-.55.37-.91.37-.86 0-1.3-.45-1.3-1.36 0-1.22.46-2.27 1.36-3.13a4.52 4.52 0 0 1 3.21-1.29 5.4 5.4 0 0 1 3.64 1.27 4.6 4.6 0 0 1 .63 6.14c-.35.49-.99 1.2-1.94 2.12l-5.01 4.86h4.87c1.07 0 1.68-.06 1.83-.19.16-.13.34-.85.54-2.17h.61zm5.41 2.96c0 .35-.12.66-.37.9a1.2 1.2 0 0 1-.9.38 1.2 1.2 0 0 1-.9-.38 1.22 1.22 0 0 1-.38-.9c0-.34.13-.64.38-.89s.55-.37.9-.37.65.12.9.37.37.55.37.89zm-17.41 61.04l-.67 4.24h-9.07v-.21c0-.26.1-.49.28-.7l4.69-5.22c1.7-1.9 2.56-3.7 2.56-5.4 0-1.09-.27-2-.81-2.74a2.88 2.88 0 0 0-2.46-1.25c-.76 0-1.44.24-2.03.7a3.82 3.82 0 0 0-1.28 1.79c.06-.02.12-.02.2-.02.95 0 1.42.42 1.42 1.27 0 .36-.12.67-.36.92-.25.25-.55.37-.91.37-.86 0-1.3-.45-1.3-1.36 0-1.22.46-2.27 1.36-3.13a4.52 4.52 0 0 1 3.21-1.29 5.4 5.4 0 0 1 3.64 1.27 4.6 4.6 0 0 1 .63 6.14c-.35.49-.99 1.2-1.94 2.12l-5.01 4.86h4.87c1.07 0 1.68-.06 1.83-.19.16-.13.34-.85.54-2.17h.61zm12.2.07c0 1.34-.54 2.47-1.61 3.4a5.39 5.39 0 0 1-3.58 1.3 5.87 5.87 0 0 1-3.31-.96c-1.09-.73-1.64-1.68-1.64-2.86 0-.42.13-.76.38-1.02.25-.27.58-.4.99-.4a1.34 1.34 0 0 1 1.38 1.37c0 .4-.14.72-.41.97-.27.25-.6.38-.99.38l-.23-.01c.36.6.9 1.07 1.63 1.4.66.31 1.37.46 2.12.46.97 0 1.7-.45 2.19-1.36.37-.71.56-1.6.56-2.67 0-1.13-.2-2.05-.6-2.74a2.45 2.45 0 0 0-2.31-1.33h-1.26c-.26 0-.39-.09-.39-.27 0-.17.19-.28.56-.33.26 0 .52-.02.77-.03a2.57 2.57 0 0 0 2.16-1.27c.46-.73.68-1.66.68-2.79 0-.79-.18-1.44-.56-1.93a2.09 2.09 0 0 0-1.78-.82c-1.52 0-2.6.51-3.26 1.52 1.01-.01 1.51.4 1.51 1.23 0 .36-.11.66-.34.9-.23.23-.53.35-.89.35a1.2 1.2 0 0 1-1.25-1.26c0-1.03.48-1.86 1.44-2.49a5.11 5.11 0 0 1 2.9-.84c1.1 0 2.1.28 2.97.84 1.02.64 1.53 1.48 1.53 2.53 0 .98-.34 1.88-1.02 2.68a5.2 5.2 0 0 1-2.42 1.62c1.13.22 2.08.73 2.85 1.51a4.05 4.05 0 0 1 1.23 2.92zm5.21 2.89c0 .35-.12.66-.37.9a1.2 1.2 0 0 1-.9.38 1.2 1.2 0 0 1-.9-.38 1.22 1.22 0 0 1-.38-.9c0-.34.13-.64.38-.89s.55-.37.9-.37.65.12.9.37.37.55.37.89zm-17.38 32.37c0 .48-.18.9-.53 1.25-.35.34-.76.52-1.23.52-.49 0-.91-.18-1.25-.52a1.7 1.7 0 0 1-.52-1.25c0-.49.17-.9.52-1.24a1.7 1.7 0 0 1 1.25-.51c.47 0 .88.18 1.23.53.35.35.53.75.53 1.22zm0 7.82c0 .48-.18.89-.53 1.24-.35.35-.76.52-1.23.52-.49 0-.91-.17-1.25-.52a1.69 1.69 0 0 1-.52-1.24 1.74 1.74 0 0 1 1.77-1.75c.47 0 .88.17 1.23.52s.53.76.53 1.23zm0 7.81c0 .48-.18.89-.53 1.24-.35.35-.76.52-1.23.52-.49 0-.91-.17-1.25-.52a1.69 1.69 0 0 1-.52-1.24c0-.49.17-.9.52-1.24a1.7 1.7 0 0 1 1.25-.51c.47 0 .88.17 1.23.52s.53.76.53 1.23zm0 72.37c0 .48-.18.9-.53 1.25-.35.34-.76.52-1.23.52-.49 0-.91-.18-1.25-.52a1.7 1.7 0 0 1-.52-1.25c0-.49.17-.9.52-1.24a1.7 1.7 0 0 1 1.25-.51c.47 0 .88.18 1.23.53.35.35.53.75.53 1.22zm0 7.82c0 .48-.18.89-.53 1.24-.35.35-.76.52-1.23.52-.49 0-.91-.17-1.25-.52a1.69 1.69 0 0 1-.52-1.24 1.74 1.74 0 0 1 1.77-1.75c.47 0 .88.17 1.23.52s.53.76.53 1.23zm0 7.81c0 .48-.18.89-.53 1.24-.35.35-.76.52-1.23.52-.49 0-.91-.17-1.25-.52a1.69 1.69 0 0 1-.52-1.24c0-.49.17-.9.52-1.24a1.7 1.7 0 0 1 1.25-.51c.47 0 .88.17 1.23.52s.53.76.53 1.23zM9367.6 2628c-.56-.05-1.09-.07-1.59-.07h-4.74c-.5 0-1.03.02-1.58.07v-.75l.44.01.45.01c1.19 0 1.88-.16 2.05-.5.07-.14.11-.35.11-.62v-12.74c-.86.42-1.92.63-3.19.63v-.75c1.95 0 3.43-.52 4.44-1.56h.12c.22 0 .36.06.41.17.02.05.03.2.03.46v13.84c0 .25.03.45.1.58.11.26.57.42 1.37.47a35 35 0 0 0 1.58 0v.75zm12.83-4.92c0 1.48-.52 2.76-1.55 3.84a5.06 5.06 0 0 1-3.77 1.61 4.2 4.2 0 0 1-3.12-1.33 4.35 4.35 0 0 1-1.3-3.14c0-.86.4-1.3 1.19-1.3.34 0 .63.12.87.34.24.23.36.51.36.86 0 .34-.12.63-.36.86a1.2 1.2 0 0 1-.87.34c-.14 0-.28-.02-.4-.05.22.78.68 1.44 1.35 1.96.68.53 1.42.79 2.23.79 1.14 0 2.01-.53 2.63-1.59.38-.67.57-1.79.57-3.36a8.1 8.1 0 0 0-.43-3.07c-.46-1.04-1.16-1.57-2.09-1.57a3.5 3.5 0 0 0-1.87.51c-.35.21-.7.52-1.06.94-.29.33-.47.5-.54.5-.22 0-.34-.16-.34-.48v-7.6c0-.26.08-.39.24-.39.07 0 .17.02.3.07 1.3.46 2.39.7 3.26.7 1.06 0 2.16-.24 3.31-.73a.57.57 0 0 1 .21-.06c.15 0 .23.09.23.27 0 .13-.14.35-.42.66a5.5 5.5 0 0 1-4.29 1.89c-.67 0-1.36-.11-2.06-.32v4.75a4.26 4.26 0 0 1 3.09-1.25c1.36 0 2.49.57 3.39 1.69a5.69 5.69 0 0 1 1.24 3.66zm12.27-2.88c0 2.41-.3 4.24-.91 5.49-.93 1.89-2.34 2.84-4.25 2.84a4.4 4.4 0 0 1-4.03-2.45c-.72-1.28-1.09-3.24-1.09-5.88 0-2.47.3-4.32.89-5.57.92-1.93 2.34-2.9 4.26-2.9 1.86 0 3.24.91 4.16 2.72.65 1.29.97 3.21.97 5.75zm-2.03 1.19v-3.05c0-1.68-.14-2.97-.43-3.85-.48-1.49-1.38-2.23-2.7-2.23-1.31 0-2.2.75-2.68 2.24-.29.89-.43 2.18-.43 3.86l.01 1.42v1.42a17 17 0 0 0 .39 4.22c.46 1.72 1.36 2.58 2.71 2.58 1.35 0 2.26-.83 2.73-2.48.27-.94.4-2.32.4-4.13zm7.17 5.33c0 .35-.12.66-.37.9a1.2 1.2 0 0 1-.9.38 1.2 1.2 0 0 1-.9-.38 1.22 1.22 0 0 1-.38-.9c0-.34.13-.64.38-.89s.55-.37.9-.37.65.12.9.37.37.55.37.89z" transform="translate(-9331.27 -2366)"/>
  <path fill="#666" fill-rule="nonzero" d="M49.21 53.1c0 .48-.18.9-.53 1.25-.35.34-.76.52-1.23.52-.49 0-.91-.18-1.25-.52a1.7 1.7 0 0 1-.52-1.25c0-.5.17-.9.52-1.24a1.7 1.7 0 0 1 1.25-.51c.47 0 .88.18 1.23.53.35.35.53.75.53 1.22zm0 7.82c0 .48-.18.89-.53 1.24-.35.35-.76.52-1.23.52-.49 0-.91-.17-1.25-.52a1.69 1.69 0 0 1-.52-1.24 1.74 1.74 0 0 1 1.77-1.75c.47 0 .88.17 1.23.52s.53.76.53 1.23zm0 7.8c0 .49-.18.9-.53 1.25-.35.35-.76.52-1.23.52-.49 0-.91-.17-1.25-.52a1.69 1.69 0 0 1-.52-1.24c0-.5.17-.9.52-1.24a1.7 1.7 0 0 1 1.25-.51c.47 0 .88.17 1.23.52s.53.76.53 1.23zm-.03 37.05l-.67 4.24h-9.07v-.21c0-.26.1-.5.28-.7l4.69-5.22c1.7-1.9 2.56-3.7 2.56-5.4 0-1.1-.27-2-.81-2.74a2.88 2.88 0 0 0-2.46-1.25c-.76 0-1.44.24-2.03.7a3.82 3.82 0 0 0-1.28 1.79c.06-.02.12-.02.2-.02.95 0 1.42.42 1.42 1.27 0 .36-.12.67-.36.92-.25.25-.55.37-.91.37-.86 0-1.3-.45-1.3-1.36 0-1.22.46-2.27 1.36-3.13a4.52 4.52 0 0 1 3.21-1.3 5.4 5.4 0 0 1 3.64 1.28 4.6 4.6 0 0 1 .63 6.14c-.35.49-.99 1.2-1.94 2.12l-5.01 4.86h4.87c1.07 0 1.68-.06 1.83-.2.16-.12.34-.84.54-2.16h.61zm12 0l-.67 4.24h-9.07v-.21c0-.26.1-.5.28-.7l4.69-5.22c1.7-1.9 2.56-3.7 2.56-5.4 0-1.1-.27-2-.81-2.74a2.88 2.88 0 0 0-2.46-1.25c-.76 0-1.44.24-2.03.7a3.82 3.82 0 0 0-1.28 1.79c.06-.02.12-.02.2-.02.95 0 1.42.42 1.42 1.27 0 .36-.12.67-.36.92-.25.25-.55.37-.91.37-.86 0-1.3-.45-1.3-1.36 0-1.22.46-2.27 1.36-3.13a4.52 4.52 0 0 1 3.21-1.3 5.4 5.4 0 0 1 3.64 1.28 4.6 4.6 0 0 1 .63 6.14c-.35.49-.99 1.2-1.94 2.12l-5.01 4.86h4.87c1.07 0 1.68-.06 1.83-.2.16-.12.34-.84.54-2.16h.61zm5.41 2.96c0 .35-.12.66-.37.9a1.2 1.2 0 0 1-.9.38 1.2 1.2 0 0 1-.9-.38 1.22 1.22 0 0 1-.38-.9c0-.34.13-.64.38-.9.25-.24.55-.36.9-.36s.65.12.9.37.37.55.37.89zm-17.41 61.04l-.67 4.24h-9.07v-.21c0-.26.1-.5.28-.7l4.69-5.22c1.7-1.9 2.56-3.7 2.56-5.4 0-1.1-.27-2-.81-2.74a2.88 2.88 0 0 0-2.46-1.25c-.76 0-1.44.24-2.03.7a3.82 3.82 0 0 0-1.28 1.79c.06-.02.12-.02.2-.02.95 0 1.42.42 1.42 1.27 0 .36-.12.67-.36.92-.25.25-.55.37-.91.37-.86 0-1.3-.45-1.3-1.36 0-1.22.46-2.27 1.36-3.13a4.52 4.52 0 0 1 3.21-1.3 5.4 5.4 0 0 1 3.64 1.28 4.6 4.6 0 0 1 .63 6.14c-.35.49-.99 1.2-1.94 2.12l-5.01 4.86h4.87c1.07 0 1.68-.06 1.83-.2.16-.12.34-.84.54-2.16h.61zm12.2.07c0 1.34-.54 2.47-1.61 3.4a5.39 5.39 0 0 1-3.58 1.3 5.87 5.87 0 0 1-3.31-.96c-1.09-.73-1.64-1.68-1.64-2.86 0-.42.13-.76.38-1.02.25-.27.58-.4.99-.4a1.34 1.34 0 0 1 1.38 1.37c0 .4-.14.72-.41.97-.27.25-.6.38-.99.38l-.23-.01c.36.6.9 1.07 1.63 1.4.66.3 1.37.46 2.12.46.97 0 1.7-.45 2.19-1.36.37-.71.56-1.6.56-2.67 0-1.13-.2-2.05-.6-2.74a2.45 2.45 0 0 0-2.31-1.33h-1.26c-.26 0-.39-.1-.39-.27s.19-.28.56-.33c.26 0 .52-.02.77-.03a2.57 2.57 0 0 0 2.16-1.27c.46-.73.68-1.66.68-2.8 0-.78-.18-1.43-.56-1.92a2.09 2.09 0 0 0-1.78-.82c-1.52 0-2.6.5-3.26 1.52 1.01-.01 1.51.4 1.51 1.23 0 .36-.11.66-.34.9-.23.23-.53.35-.89.35a1.2 1.2 0 0 1-1.25-1.26c0-1.03.48-1.86 1.44-2.5a5.11 5.11 0 0 1 2.9-.83c1.1 0 2.1.28 2.97.84 1.02.64 1.53 1.48 1.53 2.53 0 .98-.34 1.88-1.02 2.68a5.2 5.2 0 0 1-2.42 1.62c1.13.22 2.08.73 2.85 1.5a4.05 4.05 0 0 1 1.23 2.93zm5.21 2.89c0 .35-.12.66-.37.9a1.2 1.2 0 0 1-.9.38 1.2 1.2 0 0 1-.9-.38 1.22 1.22 0 0 1-.38-.9c0-.34.13-.64.38-.9.25-.24.55-.36.9-.36s.65.12.9.37.37.55.37.89zM49.21 205.1c0 .48-.18.9-.53 1.25-.35.34-.76.52-1.23.52-.49 0-.91-.18-1.25-.52a1.7 1.7 0 0 1-.52-1.25c0-.5.17-.9.52-1.24a1.7 1.7 0 0 1 1.25-.51c.47 0 .88.18 1.23.53.35.35.53.75.53 1.22zm0 7.82c0 .48-.18.89-.53 1.24-.35.35-.76.52-1.23.52-.49 0-.91-.17-1.25-.52a1.69 1.69 0 0 1-.52-1.24 1.74 1.74 0 0 1 1.77-1.75c.47 0 .88.17 1.23.52s.53.76.53 1.23zm0 7.8c0 .49-.18.9-.53 1.25-.35.35-.76.52-1.23.52-.49 0-.91-.17-1.25-.52a1.69 1.69 0 0 1-.52-1.24c0-.5.17-.9.52-1.24a1.7 1.7 0 0 1 1.25-.51c.47 0 .88.17 1.23.52s.53.76.53 1.23zm0 72.38c0 .48-.18.9-.53 1.25-.35.34-.76.52-1.23.52-.49 0-.91-.18-1.25-.52a1.7 1.7 0 0 1-.52-1.25c0-.5.17-.9.52-1.24a1.7 1.7 0 0 1 1.25-.51c.47 0 .88.18 1.23.53.35.35.53.75.53 1.22zm0 7.82c0 .48-.18.89-.53 1.24-.35.35-.76.52-1.23.52-.49 0-.91-.17-1.25-.52a1.69 1.69 0 0 1-.52-1.24 1.74 1.74 0 0 1 1.77-1.75c.47 0 .88.17 1.23.52s.53.76.53 1.23zm0 7.8c0 .49-.18.9-.53 1.25-.35.35-.76.52-1.23.52-.49 0-.91-.17-1.25-.52a1.69 1.69 0 0 1-.52-1.24c0-.5.17-.9.52-1.24a1.7 1.7 0 0 1 1.25-.51c.47 0 .88.17 1.23.52s.53.76.53 1.23zm-12.86-46.71c-.56-.05-1.09-.07-1.59-.07h-4.74c-.5 0-1.03.02-1.58.07v-.75h.44c.2.02.35.02.45.02 1.19 0 1.88-.16 2.05-.5.07-.14.11-.35.11-.62v-12.74c-.86.42-1.92.63-3.19.63v-.75c1.95 0 3.43-.52 4.44-1.56h.12c.22 0 .36.06.41.17.02.05.03.2.03.46v13.84c0 .25.03.45.1.58.11.26.57.42 1.37.47a35 35 0 0 0 1.58 0v.75zm12.83-4.92c0 1.48-.52 2.76-1.55 3.84a5.06 5.06 0 0 1-3.77 1.6 4.2 4.2 0 0 1-3.12-1.32 4.35 4.35 0 0 1-1.3-3.14c0-.86.4-1.3 1.19-1.3.34 0 .63.12.87.34.24.23.36.5.36.86 0 .34-.12.63-.36.86a1.2 1.2 0 0 1-.87.34c-.14 0-.28-.02-.4-.05.22.78.68 1.44 1.35 1.96.68.53 1.42.79 2.23.79 1.14 0 2.01-.53 2.63-1.6.38-.66.57-1.78.57-3.35a8.1 8.1 0 0 0-.43-3.07c-.46-1.04-1.16-1.57-2.09-1.57a3.5 3.5 0 0 0-1.87.5c-.35.22-.7.53-1.06.95-.29.33-.47.5-.54.5-.22 0-.34-.16-.34-.48v-7.6c0-.26.08-.4.24-.4.07 0 .17.03.3.08 1.3.46 2.39.7 3.26.7 1.06 0 2.16-.24 3.31-.73a.57.57 0 0 1 .21-.06c.15 0 .23.09.23.27 0 .13-.14.35-.42.66a5.5 5.5 0 0 1-4.29 1.89c-.67 0-1.36-.11-2.06-.32v4.75a4.26 4.26 0 0 1 3.09-1.25c1.36 0 2.49.57 3.39 1.69a5.69 5.69 0 0 1 1.24 3.66zm12.27-2.88c0 2.4-.3 4.24-.91 5.49-.93 1.89-2.34 2.84-4.25 2.84a4.4 4.4 0 0 1-4.03-2.45c-.72-1.28-1.09-3.24-1.09-5.88 0-2.47.3-4.32.89-5.57.92-1.93 2.34-2.9 4.26-2.9 1.86 0 3.24.9 4.16 2.72.65 1.29.97 3.2.97 5.75zm-2.03 1.19v-3.05c0-1.68-.14-2.97-.43-3.85-.48-1.5-1.38-2.23-2.7-2.23-1.31 0-2.2.75-2.68 2.24-.29.89-.43 2.18-.43 3.86l.01 1.42v1.42a17 17 0 0 0 .39 4.22c.46 1.72 1.36 2.58 2.71 2.58 1.35 0 2.26-.83 2.73-2.48.27-.94.4-2.32.4-4.13zm7.17 5.33c0 .35-.12.66-.37.9a1.2 1.2 0 0 1-.9.38 1.2 1.2 0 0 1-.9-.38 1.22 1.22 0 0 1-.38-.9c0-.34.13-.64.38-.9.25-.24.55-.36.9-.36s.65.12.9.37.37.55.37.89z"/>
  <path fill="none" stroke="#fff" stroke-linecap="butt" stroke-opacity=".35" stroke-width="8" d="M2496 352v256m32-256v256m32 0V352m-64 256V352m64 0v256m0-256h-64m0 32h64m0 96h-64m0 32h64m0-96h-64m0 32h64m0 96h-64m0 32h64m0 32h-64" transform="matrix(0 -.125 -.125 0 172.7 414)"/>
  <path fill="none" stroke="#000" stroke-linecap="butt" stroke-width="8" d="M2400 352v256m32 0V352m96 0v256m32 0V352m-96 0v256m32 0V352m96 0v256m32 0V352m32 0v256m0-256h-256m0 32h256m0 96h-256m0 32h256m0-96h-256m0 32h256m0 96h-256m0 32h256m0 32h-256" transform="matrix(.125 0 0 -.125 -75.3 158)"/>
  <path fill="none" stroke="#000" stroke-linecap="butt" stroke-width="8" d="M2912 128h256v256h-256z" transform="matrix(.125 0 0 .125 -139.3 66)"/>
  <path fill="#f7f7f7" fill-opacity=".75" d="M224.7 82h32v32h-32z"/>
  <path fill="none" stroke="#000" stroke-linecap="butt" stroke-width="8" d="M5664 3296h96v64h-96v96h-64v-96h-96v-64h96v-96h64v96z" transform="matrix(.125 0 0 .125 -463.3 -318)"/>
  <path d="M244.7 94h12v8h-12v12h-8v-12h-12v-8h12V82h8v12z"/>
  <g>
    <path fill="none" stroke="#000" stroke-linecap="butt" stroke-width="8" d="M2400 352v256m32 0V352m96 0v256m32 0V352m-96 0v256m32 0V352m96 0v256m32 0V352m32 0v256m0-256h-256m0 32h256m0 96h-256m0 32h256m0-96h-256m0 32h256m0 96h-256m0 32h256m0 32h-256" transform="matrix(0 -.125 -.125 0 300.7 478)"/>
    <path fill="none" stroke="#000" stroke-linecap="butt" stroke-width="8" d="M2912 128h256v256h-256z" transform="matrix(0 -.125 .125 0 208.7 542)"/>
    <path fill="#f7f7f7" fill-opacity=".75" d="M224.7 178v-32h32v32z"/>
    <g>
      <path fill="none" stroke="#000" stroke-linecap="butt" stroke-width="8" d="M5664 3200v256h-64v-256h64z" transform="matrix(0 -.125 .125 0 -175.3 866)"/>
      <path d="M224.7 158h32v8h-32v-8z"/>
    </g>
  </g>
  <g>
    <path fill="none" stroke="#000" stroke-linecap="butt" stroke-width="8" d="M2400 352v256m32 0V352m96 0v256m32 0V352m-96 0v256m32 0V352m96 0v256m32 0V352m32 0v256m0-256h-256m0 32h256m0 96h-256m0 32h256m0-96h-256m0 32h256m0 96h-256m0 32h256m0 32h-256" transform="matrix(.125 0 0 -.125 -139.3 158)"/>
    <path fill="none" stroke="#000" stroke-linecap="butt" stroke-width="8" d="M2912 128h256v256h-256z" transform="matrix(.125 0 0 .125 -203.3 66)"/>
    <path fill="#f7f7f7" fill-opacity=".75" d="M160.7 82h32v32h-32z"/>
    <g>
      <path fill="none" stroke="#000" stroke-linecap="butt" stroke-width="8" d="M2432 288h64v256h-64z" transform="matrix(-.125 0 0 .125 484.7 46)"/>
      <path d="M180.7 82h-8v32h8z"/>
    </g>
  </g>
  <g>
    <path fill="none" stroke="#000" stroke-linecap="butt" stroke-width="8" d="M2400 352v256m32 0V352m96 0v256m32 0V352m-96 0v256m32 0V352m96 0v256m32 0V352m32 0v256m0-256h-256m0 32h256m0 96h-256m0 32h256m0-96h-256m0 32h256m0 96h-256m0 32h256m0 32h-256" transform="matrix(.125 0 0 -.125 -139.3 222)"/>
    <path fill="none" stroke="#000" stroke-linecap="butt" stroke-width="8" d="M2912 128h256v256h-256z" transform="matrix(.125 0 0 .125 -203.3 130)"/>
    <path fill="#f7f7f7" fill-opacity=".75" d="M160.7 146h32v32h-32z"/>
  </g>
  <g>
    <path fill="none" stroke="#000" stroke-linecap="butt" stroke-width="5.06" d="M2432 288h64v256h-64z" transform="matrix(.25 0 0 -.125 -439.3 214)"/>
    <path d="M168.7 178h16v-32h-16z"/>
  </g>
  <g>
    <path fill="none" stroke="#000" stroke-linecap="butt" stroke-width="5.06" d="M2432 288h64v256h-64z" transform="matrix(.25 0 0 -.125 -375.3 214)"/>
    <path d="M232.7 178h16v-32h-16z"/>
  </g>
  <g>
    <path fill="none" stroke="#fff" stroke-linecap="butt" stroke-opacity=".35" d="M3966.7 2624h-32m32-4h-32m0-4h32m-32 8h32m0-8h-32m28 8v-16m-12 0v16m-4 0v-16m12 0v16m-4 0v-16m-12 0v16m-4 0v-16m28 4h-32m0 12v-16h32v16" transform="rotate(-90 836.7 3276)"/>
  </g>
  <g>
    <path fill="none" stroke="#fff" stroke-linecap="butt" stroke-opacity=".35" d="M4090.7 2532v-8m-4-12v32m-4-32v32m-4 0v-32m8 32v-32m-8 0v32m8-28h-16m-8 12h32m-24-8h16m-16 16h16m0 4h-16m4-28v32m12 0h-16v-32h16m8 20h-32v-8h32v8zm-28 0v-8" transform="translate(-3838 -2366)"/>
  </g>
  <g>
    <path fill="none" stroke="#fff" stroke-linecap="butt" stroke-opacity=".35" d="M4090.7 2532v-8m-4-12v32m-4-32v32m-4 0v-32m8 32v-32m-8 0v32m8-28h-16m-8 12h32m-24-8h16m-16 16h16m0 4h-16m4-28v32m12 0h-16v-32h16m8 20h-32v-8h32v8zm-28 0v-8" transform="rotate(90 3298.7 -530)"/>
  </g>
  <g>
    <path fill="none" stroke="#000" stroke-linecap="butt" stroke-width="8" d="M2400 352v256m32 0V352m96 0v256m32 0V352m-96 0v256m32 0V352m96 0v256m32 0V352m32 0v256m0-256h-256m0 32h256m0 96h-256m0 32h256m0-96h-256m0 32h256m0 96h-256m0 32h256m0 32h-256" transform="matrix(0 -.125 -.125 0 172.7 478)"/>
    <path fill="none" stroke="#000" stroke-linecap="butt" stroke-width="8" d="M2912 128h256v256h-256z" transform="matrix(0 -.125 .125 0 80.7 542)"/>
    <path fill="#f7f7f7" fill-opacity=".75" d="M96.7 178v-32h32v32z"/>
    <g>
      <path fill="none" stroke="#000" stroke-linecap="butt" stroke-width="8" d="M2432 288h64v256h-64z" transform="matrix(0 .125 .125 0 60.7 -146)"/>
      <path d="M96.7 158v8h32v-8z"/>
    </g>
  </g>
  <g>
    <path fill="none" stroke="#000" stroke-linecap="butt" stroke-width="8" d="M2400 352v256m32 0V352m96 0v256m32 0V352m-96 0v256m32 0V352m96 0v256m32 0V352m32 0v256m0-256h-256m0 32h256m0 96h-256m0 32h256m0-96h-256m0 32h256m0 96h-256m0 32h256m0 32h-256" transform="matrix(.125 0 0 -.125 -139.3 310)"/>
    <path fill="none" stroke="#000" stroke-linecap="butt" stroke-width="8" d="M2912 128h256v256h-256z" transform="matrix(.125 0 0 .125 -203.3 218)"/>
    <path fill="#f7f7f7" fill-opacity=".75" d="M160.7 234h32v32h-32z"/>
    <g>
      <path fill="none" stroke="#000" stroke-linecap="butt" stroke-width="8" d="M2432 288h64v256h-64z" transform="matrix(-.125 0 0 .125 484.7 198)"/>
      <path d="M180.7 234h-8v32h8z"/>
    </g>
  </g>
  <g>
    <path fill="none" stroke="#fefefe" stroke-linecap="butt" stroke-miterlimit="2" d="M9357.07 2392h1.76v-4.4h2.5l2.36 4.4h2l-2.58-4.71c1.43-.53 2.14-1.72 2.14-3.28 0-2.14-1.33-3.65-4.03-3.65h-4.15V2392zm1.76-5.91v-4.22h2.2c1.74 0 2.45.82 2.45 2.14 0 1.31-.71 2.08-2.42 2.08h-2.23zm11.99 6.09c2.46 0 4.07-1.8 4.07-4.5 0-2.72-1.61-4.52-4.07-4.52s-4.06 1.8-4.06 4.52c0 2.7 1.6 4.5 4.06 4.5zm.01-1.43c-1.61 0-2.36-1.4-2.36-3.08 0-1.67.75-3.09 2.36-3.09 1.6 0 2.35 1.42 2.35 3.09 0 1.68-.75 3.08-2.35 3.08zm7.58 1.25h1.73l1.77-6.3h.13l1.77 6.3h1.73l2.57-8.73h-1.76l-1.7 6.38h-.08l-1.71-6.38h-1.75l-1.72 6.41h-.08l-1.71-6.41h-1.76l2.57 8.73zm19.91 0h1.36l.51-3.11h1.68l.22-1.37h-1.68l.45-2.68h1.68l.23-1.36h-1.69l.51-3.12h-1.36l-.51 3.12h-2.73l.51-3.12h-1.36l-.52 3.12h-1.67l-.22 1.36h1.67l-.44 2.68h-1.69l-.22 1.37h1.69l-.51 3.11h1.36l.51-3.11h2.73l-.51 3.11zm-2-4.48l.45-2.68h2.72l-.44 2.68h-2.73zm31.72 4.48h7.03v-1.51h-5.27v-10.13h-1.76V2392zm12.65.18c1.91 0 3.25-.94 3.64-2.36l-1.61-.29c-.3.82-1.04 1.24-2.01 1.24-1.45 0-2.43-.94-2.48-2.62h6.21v-.6c0-3.16-1.89-4.39-3.86-4.39-2.44 0-4.04 1.85-4.04 4.53 0 2.71 1.58 4.49 4.15 4.49zm-2.45-5.3c.07-1.24.97-2.32 2.35-2.32 1.32 0 2.18.98 2.18 2.32h-4.53zm12.24-3.61h-1.88v-.78c0-.77.32-1.19 1.15-1.19.35 0 .6.08.76.13l.4-1.38a4.1 4.1 0 0 0-1.42-.23c-1.38 0-2.59.8-2.59 2.44v1.01h-1.35v1.37h1.35v7.36h1.7v-7.36h1.88v-1.37zm5.83 0h-1.79v-2.09h-1.7v2.09h-1.28v1.37h1.28v5.15c-.01 1.59 1.2 2.35 2.54 2.32a3 3 0 0 0 1.11-.18l-.31-1.4c-.11.02-.32.07-.6.07-.55 0-1.04-.18-1.04-1.16v-4.8h1.79v-1.37zm29.31 8.73h1.76v-4.4h2.5l2.36 4.4h2l-2.58-4.71c1.43-.53 2.14-1.72 2.14-3.28 0-2.14-1.33-3.65-4.03-3.65h-4.15V2392zm1.76-5.91v-4.22h2.2c1.74 0 2.45.82 2.45 2.14 0 1.31-.71 2.08-2.42 2.08h-2.23zm8.43 5.91h1.69v-8.73h-1.69v8.73zm.85-10.07c.59 0 1.08-.46 1.08-1.02 0-.55-.49-1.01-1.08-1.01-.59 0-1.07.46-1.07 1.01 0 .56.48 1.02 1.07 1.02zm6.79 13.52c2.22 0 3.93-1.01 3.93-3.26v-8.92h-1.66v1.42h-.13c-.3-.54-.9-1.53-2.52-1.53-2.11 0-3.66 1.66-3.66 4.44 0 2.79 1.58 4.27 3.65 4.27 1.6 0 2.22-.9 2.52-1.46h.11v1.71c0 1.37-.94 1.97-2.23 1.97-1.41 0-1.96-.71-2.26-1.21l-1.46.6c.46 1.07 1.62 1.97 3.71 1.97zm-.02-4.99c-1.52 0-2.31-1.16-2.31-2.88 0-1.68.78-2.98 2.31-2.98 1.48 0 2.28 1.21 2.28 2.98 0 1.8-.81 2.88-2.28 2.88zm7.93-3.64c0-1.39.88-2.19 2.09-2.19 1.17 0 1.87.75 1.87 2.02v5.35h1.7v-5.55c0-2.18-1.19-3.29-2.99-3.29-1.36 0-2.17.59-2.58 1.53h-.11v-4.33h-1.68V2392h1.7v-5.18zm12.01-3.55h-1.79v-2.09h-1.7v2.09h-1.28v1.37h1.28v5.15c-.01 1.59 1.2 2.35 2.54 2.32.54 0 .91-.1 1.11-.18l-.31-1.4c-.11.02-.32.07-.6.07-.55 0-1.04-.18-1.04-1.16v-4.8h1.79v-1.37zm20.64 8.73h1.75v-4.4h2.5l2.37 4.4h2l-2.58-4.71c1.43-.53 2.13-1.72 2.13-3.28 0-2.14-1.32-3.65-4.02-3.65h-4.15V2392zm1.75-5.91v-4.22h2.21c1.73 0 2.45.82 2.45 2.14 0 1.31-.72 2.08-2.43 2.08h-2.23zm12.08 6.09c1.91 0 3.25-.94 3.64-2.36l-1.61-.29c-.3.82-1.04 1.24-2.01 1.24-1.45 0-2.43-.94-2.48-2.62h6.21v-.6c0-3.16-1.89-4.39-3.86-4.39-2.44 0-4.04 1.85-4.04 4.53 0 2.71 1.58 4.49 4.15 4.49zm-2.45-5.3c.07-1.24.97-2.32 2.35-2.32 1.31 0 2.18.98 2.18 2.32h-4.53zm14.63-1.48c-.35-1.35-1.41-2.24-3.3-2.24-1.97 0-3.37 1.04-3.37 2.58 0 1.24.75 2.07 2.39 2.43l1.47.32c.84.19 1.24.57 1.24 1.11 0 .68-.72 1.21-1.84 1.21-1.02 0-1.67-.44-1.87-1.3l-1.65.25c.29 1.55 1.57 2.42 3.53 2.42 2.11 0 3.57-1.12 3.57-2.7 0-1.24-.78-2-2.39-2.37l-1.38-.31c-.96-.23-1.38-.56-1.37-1.15-.01-.67.72-1.14 1.69-1.14 1.05 0 1.54.58 1.74 1.17l1.54-.28zm7.56 2.98a2.05 2.05 0 0 1-2.05 2.19c-1.05 0-1.78-.76-1.78-1.95v-5.35h-1.7v5.55c0 2.17 1.19 3.29 2.87 3.29 1.31 0 2.2-.69 2.61-1.62h.09v1.51h1.67v-8.73h-1.71v5.11zm5.68-8.02h-1.69V2392h1.69v-11.64zm6.36 2.91h-1.79v-2.09h-1.7v2.09h-1.27v1.37h1.27v5.15c0 1.59 1.21 2.35 2.55 2.32.54 0 .9-.1 1.1-.18l-.3-1.4c-.12.02-.33.07-.6.07-.55 0-1.05-.18-1.05-1.16v-4.8h1.79v-1.37z" transform="translate(-9331.27 -2366)"/>
    <path fill="#666" fill-rule="nonzero" d="M25.82 26h1.76v-4.4h2.5l2.36 4.4h2l-2.58-4.7c1.43-.53 2.14-1.72 2.14-3.28 0-2.14-1.33-3.65-4.03-3.65h-4.15V26zm1.76-5.9v-4.22h2.2c1.74 0 2.45.82 2.45 2.14 0 1.3-.71 2.08-2.42 2.08h-2.23zm11.99 6.09c2.46 0 4.07-1.8 4.07-4.5 0-2.72-1.61-4.52-4.07-4.52s-4.06 1.8-4.06 4.52c0 2.7 1.6 4.5 4.06 4.5zm.01-1.43c-1.61 0-2.36-1.4-2.36-3.08 0-1.67.75-3.1 2.36-3.1 1.6 0 2.35 1.43 2.35 3.1 0 1.68-.75 3.08-2.35 3.08zM47.16 26h1.73l1.77-6.3h.13l1.77 6.3h1.73l2.57-8.73H55.1l-1.7 6.38h-.08l-1.71-6.38h-1.75l-1.72 6.4h-.08l-1.71-6.4h-1.76L47.16 26zm19.91 0h1.36l.51-3.11h1.68l.22-1.37h-1.68l.45-2.68h1.68l.23-1.36h-1.69l.51-3.12h-1.36l-.51 3.12h-2.73l.51-3.12h-1.36l-.52 3.12H62.7l-.22 1.36h1.67l-.44 2.68h-1.69l-.22 1.37h1.69l-.51 3.1h1.36l.51-3.1h2.73l-.51 3.1zm-2-4.48l.45-2.68h2.72l-.44 2.68h-2.73zM96.79 26h7.03V24.5h-5.27V14.37h-1.76V26zm12.65.18c1.91 0 3.25-.94 3.64-2.36l-1.61-.3c-.3.83-1.04 1.25-2.01 1.25-1.45 0-2.43-.94-2.48-2.62h6.21v-.6c0-3.16-1.89-4.4-3.86-4.4-2.44 0-4.04 1.86-4.04 4.54 0 2.7 1.58 4.49 4.15 4.49zm-2.45-5.3c.07-1.24.97-2.32 2.35-2.32 1.32 0 2.18.98 2.18 2.32h-4.53zm12.24-3.61h-1.88v-.78c0-.77.32-1.2 1.15-1.2.35 0 .6.09.76.14l.4-1.38a4.1 4.1 0 0 0-1.42-.23c-1.38 0-2.59.8-2.59 2.44v1h-1.35v1.38h1.35V26h1.7v-7.36h1.88v-1.37zm5.83 0h-1.79v-2.1h-1.7v2.1h-1.28v1.37h1.28v5.15c-.01 1.59 1.2 2.35 2.54 2.32a3 3 0 0 0 1.11-.18l-.31-1.4c-.11.02-.32.07-.6.07-.55 0-1.04-.18-1.04-1.16v-4.8h1.79v-1.37zM154.37 26h1.76v-4.4h2.5l2.36 4.4h2l-2.58-4.71c1.43-.53 2.14-1.72 2.14-3.28 0-2.14-1.33-3.65-4.03-3.65h-4.15V26zm1.76-5.91v-4.22h2.2c1.74 0 2.45.82 2.45 2.14 0 1.3-.71 2.08-2.42 2.08h-2.23zm8.43 5.9h1.69v-8.72h-1.69V26zm.85-10.06c.59 0 1.08-.46 1.08-1.02 0-.55-.49-1.01-1.08-1.01-.59 0-1.07.46-1.07 1 0 .57.48 1.03 1.07 1.03zm6.79 13.52c2.22 0 3.93-1.01 3.93-3.26v-8.92h-1.66v1.42h-.13c-.3-.54-.9-1.53-2.52-1.53-2.11 0-3.66 1.66-3.66 4.44 0 2.79 1.58 4.27 3.65 4.27 1.6 0 2.22-.9 2.52-1.46h.11v1.7c0 1.38-.94 1.98-2.23 1.98-1.41 0-1.96-.71-2.26-1.21l-1.46.6c.46 1.07 1.62 1.97 3.71 1.97zm-.02-5c-1.52 0-2.31-1.15-2.31-2.87 0-1.68.78-2.98 2.31-2.98 1.48 0 2.28 1.2 2.28 2.98 0 1.8-.81 2.88-2.28 2.88zm7.93-3.63c0-1.4.88-2.2 2.09-2.2 1.17 0 1.87.76 1.87 2.03V26h1.7v-5.55c0-2.18-1.19-3.3-2.99-3.3-1.36 0-2.17.6-2.58 1.54h-.11v-4.33h-1.68V26h1.7v-5.18zm12.01-3.55h-1.79v-2.1h-1.7v2.1h-1.28v1.37h1.28v5.15c-.01 1.59 1.2 2.35 2.54 2.32.54 0 .91-.1 1.11-.18l-.31-1.4c-.11.02-.32.07-.6.07-.55 0-1.04-.18-1.04-1.16v-4.8h1.79v-1.37zM212.76 26h1.75v-4.4h2.5l2.37 4.4h2l-2.58-4.71c1.43-.53 2.13-1.72 2.13-3.28 0-2.14-1.32-3.65-4.02-3.65h-4.15V26zm1.75-5.91v-4.22h2.21c1.73 0 2.45.82 2.45 2.14 0 1.3-.72 2.08-2.43 2.08h-2.23zm12.08 6.09c1.91 0 3.25-.94 3.64-2.36l-1.61-.3c-.3.83-1.04 1.25-2.01 1.25-1.45 0-2.43-.94-2.48-2.62h6.21v-.6c0-3.16-1.89-4.4-3.86-4.4-2.44 0-4.04 1.86-4.04 4.54 0 2.7 1.58 4.49 4.15 4.49zm-2.45-5.3c.07-1.24.97-2.32 2.35-2.32 1.31 0 2.18.98 2.18 2.32h-4.53zm14.63-1.48c-.35-1.35-1.41-2.24-3.3-2.24-1.97 0-3.37 1.04-3.37 2.58 0 1.24.75 2.07 2.39 2.43l1.47.32c.84.19 1.24.57 1.24 1.1 0 .69-.72 1.22-1.84 1.22-1.02 0-1.67-.44-1.87-1.3l-1.65.25c.29 1.55 1.57 2.42 3.53 2.42 2.11 0 3.57-1.12 3.57-2.7 0-1.24-.78-2-2.39-2.37l-1.38-.31c-.96-.23-1.38-.56-1.37-1.15-.01-.67.72-1.14 1.69-1.14 1.05 0 1.54.58 1.74 1.17l1.54-.28zm7.56 2.98a2.05 2.05 0 0 1-2.05 2.19c-1.05 0-1.78-.76-1.78-1.95v-5.35h-1.7v5.55c0 2.17 1.19 3.29 2.87 3.29 1.31 0 2.2-.7 2.61-1.62h.09V26h1.67v-8.72h-1.71v5.1zm5.68-8.02h-1.69V26h1.69V14.37zm6.36 2.9h-1.79V15.2h-1.7v2.09h-1.27v1.37h1.27v5.15c0 1.59 1.21 2.35 2.55 2.32.54 0 .9-.1 1.1-.18l-.3-1.4c-.12.02-.33.07-.6.07-.55 0-1.05-.18-1.05-1.16v-4.8h1.79v-1.37z"/>
  </g>
  <g>
    <path fill="none" stroke="#fefefe" stroke-linecap="butt" stroke-miterlimit="2" d="M9343.51 2703.61h3.66V2714h1.41v-10.39h3.66v-1.25h-8.73v1.25zm12.07 5.14c0-1.52.97-2.39 2.3-2.39 1.26 0 2.02.8 2.02 2.19v5.45h1.34v-5.55c0-2.24-1.19-3.29-2.98-3.29-1.37 0-2.16.57-2.57 1.48h-.11v-4.28h-1.34V2714h1.34v-5.25zm8.11 5.25h1.34v-5.52c0-1.18.94-2.05 2.21-2.05.36 0 .73.07.82.09v-1.36a15.1 15.1 0 0 0-.71-.02c-1.04 0-1.95.59-2.27 1.45h-.09v-1.32h-1.3v8.73zm9.34.18c1.78 0 3.07-.88 3.48-2.2l-1.29-.37c-.34.91-1.13 1.37-2.19 1.37-1.57 0-2.65-1.02-2.72-2.89h6.34v-.57c0-3.25-1.93-4.36-3.75-4.36-2.37 0-3.93 1.86-3.93 4.54 0 2.69 1.54 4.48 4.06 4.48zm-2.72-5.25c.09-1.36 1.05-2.57 2.59-2.57 1.45 0 2.38 1.09 2.38 2.57h-4.97zm12.04 5.25c1.77 0 3.07-.88 3.48-2.2l-1.3-.37c-.34.91-1.13 1.37-2.18 1.37-1.57 0-2.66-1.02-2.72-2.89h6.34v-.57c0-3.25-1.94-4.36-3.75-4.36-2.37 0-3.94 1.86-3.94 4.54 0 2.69 1.55 4.48 4.07 4.48zm-2.72-5.25c.09-1.36 1.05-2.57 2.59-2.57 1.45 0 2.38 1.09 2.38 2.57h-4.97zm12.88 5.07h1.34v-5.52c0-1.18.93-2.05 2.21-2.05.36 0 .72.07.82.09v-1.36a15.1 15.1 0 0 0-.71-.02c-1.05 0-1.95.59-2.27 1.45h-.09v-1.32h-1.3v8.73zm9.23.18c2.36 0 3.95-1.79 3.95-4.5 0-2.73-1.59-4.52-3.95-4.52-2.36 0-3.96 1.79-3.96 4.52 0 2.71 1.6 4.5 3.96 4.5zm0-1.2c-1.8 0-2.62-1.55-2.62-3.3 0-1.75.82-3.32 2.62-3.32 1.79 0 2.61 1.57 2.61 3.32 0 1.75-.82 3.3-2.61 3.3zm7.68 1.02h1.32l1.91-6.7h.13l1.91 6.7h1.32l2.66-8.73h-1.41l-1.88 6.66h-.1l-1.84-6.66h-1.43l-1.86 6.68h-.09l-1.89-6.68h-1.41l2.66 8.73zm17.2-6.77c-.42-1.24-1.36-2.07-3.09-2.07-1.84 0-3.2 1.04-3.2 2.52 0 1.21.72 2.01 2.32 2.39l1.45.34c.88.2 1.3.62 1.3 1.23 0 .75-.8 1.36-2.05 1.36-1.09 0-1.78-.47-2.02-1.41l-1.27.32c.31 1.48 1.53 2.27 3.32 2.27 2.02 0 3.4-1.11 3.4-2.61 0-1.22-.76-1.98-2.31-2.37l-1.3-.31c-1.03-.26-1.5-.61-1.5-1.28 0-.75.8-1.29 1.86-1.29 1.17 0 1.66.65 1.89 1.25l1.2-.34zm10.57-1.96h-1.95v-.88c0-.87.36-1.32 1.25-1.32.39 0 .61.09.75.13l.38-1.15c-.2-.1-.61-.23-1.27-.23-1.25 0-2.45.75-2.45 2.25v1.2h-1.41v1.14h1.41v7.59h1.34v-7.59h1.95v-1.14zm1.89 8.73h1.34v-5.52c0-1.18.93-2.05 2.2-2.05.36 0 .73.07.82.09v-1.36l-.7-.02c-1.05 0-1.96.59-2.27 1.45h-.09v-1.32h-1.3v8.73zm9.23.18c2.36 0 3.95-1.79 3.95-4.5 0-2.73-1.59-4.52-3.95-4.52-2.37 0-3.96 1.79-3.96 4.52 0 2.71 1.59 4.5 3.96 4.5zm0-1.2c-1.8 0-2.62-1.55-2.62-3.3 0-1.75.82-3.32 2.62-3.32 1.79 0 2.61 1.57 2.61 3.32 0 1.75-.82 3.3-2.61 3.3zm6 1.02h1.34v-5.45c0-1.28.93-2.19 1.97-2.19 1.02 0 1.73.67 1.73 1.66v5.98h1.37v-5.68c0-1.13.7-1.96 1.93-1.96.95 0 1.77.51 1.77 1.8v5.84h1.34v-5.84c0-2.05-1.1-3-2.66-3-1.25 0-2.16.57-2.61 1.48h-.09a2.4 2.4 0 0 0-2.34-1.48c-1.14 0-1.98.54-2.34 1.48h-.12v-1.37h-1.29v8.73zm25.12-1.99c0 .34.06.59.16.75.11.16.28.28.52.35l-.37 1.09c-.86-.11-1.41-.52-1.67-1.21-.31.4-.7.69-1.17.9a3.78 3.78 0 0 1-3.06-.02 2.34 2.34 0 0 1-.98-.94c-.22-.4-.34-.87-.34-1.41 0-.9.35-1.59 1.06-2.07.7-.48 1.71-.73 3.03-.73h1.25v-.65c0-.58-.17-.99-.51-1.26a2.43 2.43 0 0 0-1.49-.39 7.68 7.68 0 0 0-2.27.44l-.4-1.15c1-.37 1.97-.56 2.91-.56 1.09 0 1.92.25 2.49.74.56.5.84 1.2.84 2.1v4.02zm-3.65 1.01a2.56 2.56 0 0 0 2.08-1.18v-2.09h-1.14c-.88 0-1.53.15-1.92.45-.4.29-.6.72-.6 1.28 0 .51.13.89.39 1.15.27.26.67.39 1.19.39zm10.67-1.25c0 .39.13.68.37.86.24.19.58.28 1.01.28.46 0 .93-.1 1.42-.3l.41 1.13a4.85 4.85 0 0 1-2.12.46c-.54 0-1.01-.1-1.41-.3-.4-.21-.71-.5-.93-.89a2.76 2.76 0 0 1-.32-1.36v-8.58h-2.63v-1.2h4.2v9.9zm9.85 0c0 .39.12.68.37.86.24.19.58.28 1.01.28.45 0 .93-.1 1.42-.3l.41 1.13a4.99 4.99 0 0 1-2.13.46c-.54 0-1.01-.1-1.41-.3-.4-.21-.7-.5-.92-.89a2.66 2.66 0 0 1-.32-1.36v-8.58h-2.64v-1.2h4.21v9.9zm12.98-1.59h-6.66v-1.32h6.66v1.32zm6.19 2.77c.63 0 1.12-.11 1.49-.34.36-.23.54-.55.54-.94 0-.27-.05-.49-.15-.66-.1-.18-.3-.34-.59-.48-.3-.15-.75-.3-1.34-.45a9.7 9.7 0 0 1-1.59-.54c-.42-.2-.74-.46-.97-.78a1.96 1.96 0 0 1-.35-1.2c0-.49.14-.91.42-1.28.27-.36.67-.64 1.17-.84.51-.2 1.1-.29 1.77-.29 1.26 0 2.32.32 3.2.97l-.67 1.03a4.36 4.36 0 0 0-2.5-.76c-.61 0-1.06.09-1.34.27a.88.88 0 0 0-.43.78c0 .24.07.44.2.59.14.16.36.3.67.42.31.13.77.28 1.39.45.62.17 1.13.36 1.53.56.4.21.71.48.94.82.22.34.33.77.33 1.3a2.2 2.2 0 0 1-.51 1.48c-.35.39-.8.68-1.37.87-.56.18-1.17.27-1.84.27-.74 0-1.4-.1-1.97-.32a4.87 4.87 0 0 1-1.49-.87l.87-1c.35.29.75.52 1.19.69.44.17.91.25 1.4.25zm13.84.61a4.77 4.77 0 0 1-2.4.64c-.63 0-1.17-.11-1.62-.33a2.37 2.37 0 0 1-1.02-.96c-.23-.4-.34-.88-.34-1.42v-4.96h-1.96v-1.18h1.96v-1.95l1.57-.19v2.14h2.96l-.18 1.18h-2.78v4.94c0 .49.13.85.38 1.09.24.23.65.35 1.21.35.58 0 1.12-.14 1.63-.41l.59 1.06zm9.2-1.55c0 .34.05.59.16.75.1.16.28.28.52.35l-.37 1.09c-.86-.11-1.42-.52-1.67-1.21-.31.4-.7.69-1.17.9a3.86 3.86 0 0 1-3.06-.02 2.28 2.28 0 0 1-.98-.94c-.23-.4-.34-.87-.34-1.41 0-.9.35-1.59 1.05-2.07a5.4 5.4 0 0 1 3.04-.73h1.25v-.65c0-.58-.17-.99-.51-1.26a2.43 2.43 0 0 0-1.49-.39 7.68 7.68 0 0 0-2.27.44l-.41-1.15c1-.37 1.98-.56 2.92-.56 1.09 0 1.92.25 2.48.74.57.5.85 1.2.85 2.1v4.02zm-3.65 1.01c.4 0 .79-.1 1.16-.31.37-.21.68-.5.92-.87v-2.09h-1.15c-.88 0-1.52.15-1.92.45-.4.29-.6.72-.6 1.28 0 .51.14.89.4 1.15.27.26.66.39 1.19.39zm11.14-.14c.75 0 1.48-.26 2.2-.76l.75 1.03a4.78 4.78 0 0 1-5.19.5 3.61 3.61 0 0 1-1.42-1.57 5.43 5.43 0 0 1-.48-2.36c0-.88.16-1.66.49-2.35.33-.7.8-1.24 1.43-1.63.63-.4 1.37-.59 2.22-.59 1.12 0 2.1.34 2.94 1.01l-.75 1.03a3.84 3.84 0 0 0-2.18-.76 2.22 2.22 0 0 0-2.16 1.46c-.2.49-.3 1.1-.3 1.83 0 1.07.22 1.86.66 2.38.44.52 1.04.78 1.79.78zm5.9-11.01l1.57-.19V2714h-1.57v-12.13zm5.39 3.48h1.94l-3.72 3.88 4.14 4.77h-2l-4.03-4.73 3.67-3.92zm7.41 7.6c.63 0 1.12-.11 1.49-.34.36-.23.54-.55.54-.94 0-.27-.05-.49-.15-.66-.1-.18-.3-.34-.59-.48-.3-.15-.74-.3-1.34-.45a9.7 9.7 0 0 1-1.59-.54c-.42-.2-.74-.46-.97-.78a1.96 1.96 0 0 1-.34-1.2c0-.49.13-.91.41-1.28.28-.36.67-.64 1.17-.84.51-.2 1.1-.29 1.77-.29a5.2 5.2 0 0 1 3.2.97l-.67 1.03a4.36 4.36 0 0 0-2.5-.76c-.61 0-1.06.09-1.34.27a.88.88 0 0 0-.43.78c0 .24.07.44.2.59.14.16.36.3.67.42.31.13.78.28 1.39.45.62.17 1.13.36 1.53.56.4.21.71.48.94.82.22.34.33.77.33 1.3a2.2 2.2 0 0 1-.51 1.48c-.35.39-.8.68-1.36.87-.57.18-1.18.27-1.85.27-.74 0-1.4-.1-1.97-.32a4.7 4.7 0 0 1-1.48-.87l.86-1c.35.29.75.52 1.19.69.44.17.91.25 1.4.25zm8.66-.26a1.5 1.5 0 0 1 .74-1.3 1.55 1.55 0 0 1 1.53 0c.23.14.41.32.54.55.14.22.21.47.21.75s-.07.53-.21.76a1.45 1.45 0 0 1-1.31.75c-.28 0-.53-.06-.76-.2a1.51 1.51 0 0 1-.74-1.31zm12.02.19a3.8 3.8 0 0 0 2.2-.76l.76 1.03a4.78 4.78 0 0 1-5.2.5 3.59 3.59 0 0 1-1.41-1.57 5.3 5.3 0 0 1-.49-2.36c0-.88.17-1.66.49-2.35.33-.7.81-1.24 1.44-1.63.62-.4 1.36-.59 2.21-.59 1.13 0 2.11.34 2.94 1.01l-.74 1.03a3.87 3.87 0 0 0-2.19-.76 2.25 2.25 0 0 0-2.15 1.46c-.21.49-.31 1.1-.31 1.83 0 1.07.22 1.86.66 2.38.45.52 1.05.78 1.79.78zm8.86.07c.63 0 1.12-.11 1.49-.34.36-.23.54-.55.54-.94 0-.27-.05-.49-.15-.66-.1-.18-.3-.34-.59-.48-.3-.15-.75-.3-1.34-.45a9.7 9.7 0 0 1-1.59-.54c-.42-.2-.74-.46-.97-.78a1.96 1.96 0 0 1-.35-1.2c0-.49.14-.91.42-1.28a2.6 2.6 0 0 1 1.17-.84c.51-.2 1.1-.29 1.77-.29 1.26 0 2.32.32 3.2.97l-.67 1.03a4.36 4.36 0 0 0-2.5-.76c-.61 0-1.06.09-1.34.27a.88.88 0 0 0-.43.78c0 .24.07.44.2.59.14.16.36.3.67.42.31.13.77.28 1.39.45.62.17 1.13.36 1.53.56.4.21.71.48.94.82.22.34.33.77.33 1.3a2.2 2.2 0 0 1-.51 1.48c-.35.39-.8.68-1.37.87-.56.18-1.17.27-1.84.27-.74 0-1.4-.1-1.97-.32a4.76 4.76 0 0 1-1.49-.87l.87-1c.35.29.75.52 1.19.69.44.17.91.25 1.4.25zm12.57-7.6h1.61l-3.1 8.65h-1.83l-3.09-8.65h1.67l2.37 7.28 2.37-7.28z" transform="translate(-9331.27 -2366)"/>
    <path fill-rule="nonzero" d="M12.26 337.62h3.66V348h1.41v-10.4h3.66v-1.24h-8.73v1.25zm12.07 5.14c0-1.52.97-2.4 2.3-2.4 1.26 0 2.02.8 2.02 2.2V348h1.34v-5.55c0-2.24-1.19-3.3-2.98-3.3-1.37 0-2.16.58-2.57 1.49h-.11v-4.28h-1.34V348h1.34v-5.25zm8.11 5.25h1.34v-5.52c0-1.18.94-2.05 2.21-2.05.36 0 .73.07.82.09v-1.36a15.1 15.1 0 0 0-.71-.02c-1.04 0-1.95.59-2.27 1.45h-.09v-1.32h-1.3V348zm9.34.18c1.78 0 3.07-.88 3.48-2.2l-1.29-.37c-.34.9-1.13 1.37-2.19 1.37-1.57 0-2.65-1.02-2.72-2.9h6.34v-.56c0-3.25-1.93-4.36-3.75-4.36-2.37 0-3.93 1.86-3.93 4.54 0 2.69 1.54 4.48 4.06 4.48zm-2.72-5.25c.09-1.36 1.05-2.57 2.59-2.57 1.45 0 2.38 1.09 2.38 2.57h-4.97zm12.04 5.25c1.77 0 3.07-.88 3.48-2.2l-1.3-.37c-.34.9-1.13 1.37-2.18 1.37-1.57 0-2.66-1.02-2.72-2.9h6.34v-.56c0-3.25-1.94-4.36-3.75-4.36-2.37 0-3.94 1.86-3.94 4.54 0 2.69 1.55 4.48 4.07 4.48zm-2.72-5.25c.09-1.36 1.05-2.57 2.59-2.57 1.45 0 2.38 1.09 2.38 2.57h-4.97zM61.26 348h1.34v-5.52c0-1.18.93-2.05 2.21-2.05.36 0 .72.07.82.09v-1.36a15.1 15.1 0 0 0-.71-.02c-1.05 0-1.95.59-2.27 1.45h-.09v-1.32h-1.3V348zm9.23.18c2.36 0 3.95-1.8 3.95-4.5 0-2.73-1.59-4.52-3.95-4.52-2.36 0-3.96 1.79-3.96 4.52 0 2.7 1.6 4.5 3.96 4.5zm0-1.2c-1.8 0-2.62-1.55-2.62-3.3 0-1.75.82-3.32 2.62-3.32 1.79 0 2.61 1.57 2.61 3.32 0 1.75-.82 3.3-2.61 3.3zm7.68 1.02h1.32l1.91-6.7h.13l1.91 6.7h1.32l2.66-8.73h-1.41l-1.88 6.66h-.1l-1.84-6.66h-1.43l-1.86 6.68h-.09l-1.89-6.68h-1.41l2.66 8.73zm17.2-6.77c-.42-1.24-1.36-2.07-3.09-2.07-1.84 0-3.2 1.04-3.2 2.52 0 1.2.72 2 2.32 2.39l1.45.34c.88.2 1.3.62 1.3 1.23 0 .75-.8 1.36-2.05 1.36-1.09 0-1.78-.47-2.02-1.41l-1.27.32c.31 1.48 1.53 2.27 3.32 2.27 2.02 0 3.4-1.11 3.4-2.61 0-1.22-.76-1.98-2.31-2.37l-1.3-.31c-1.03-.26-1.5-.61-1.5-1.28 0-.75.8-1.3 1.86-1.3 1.17 0 1.66.66 1.89 1.26l1.2-.34zm10.57-1.96h-1.95v-.88c0-.87.36-1.32 1.25-1.32.39 0 .61.09.75.13l.38-1.15c-.2-.1-.61-.23-1.27-.23-1.25 0-2.45.75-2.45 2.25v1.2h-1.41v1.14h1.41V348h1.34v-7.6h1.95v-1.13zm1.89 8.73h1.34v-5.52c0-1.18.93-2.05 2.2-2.05.36 0 .73.07.82.09v-1.36l-.7-.02c-1.05 0-1.96.59-2.27 1.45h-.09v-1.32h-1.3V348zm9.23.18c2.36 0 3.95-1.8 3.95-4.5 0-2.73-1.59-4.52-3.95-4.52-2.37 0-3.96 1.79-3.96 4.52 0 2.7 1.59 4.5 3.96 4.5zm0-1.2c-1.8 0-2.62-1.55-2.62-3.3 0-1.75.82-3.32 2.62-3.32 1.79 0 2.61 1.57 2.61 3.32 0 1.75-.82 3.3-2.61 3.3zm6 1.02h1.34v-5.45c0-1.28.93-2.2 1.97-2.2 1.02 0 1.73.68 1.73 1.67V348h1.37v-5.68c0-1.13.7-1.96 1.93-1.96.95 0 1.77.5 1.77 1.8V348h1.34v-5.84c0-2.05-1.1-3-2.66-3-1.25 0-2.16.57-2.61 1.48h-.09a2.4 2.4 0 0 0-2.34-1.48c-1.14 0-1.98.54-2.34 1.48h-.12v-1.37h-1.29V348zm25.12-2c0 .35.06.6.16.76.11.16.28.28.52.35l-.37 1.09c-.86-.11-1.41-.52-1.67-1.21-.31.4-.7.69-1.17.9a3.78 3.78 0 0 1-3.06-.02 2.34 2.34 0 0 1-.98-.94c-.22-.4-.34-.87-.34-1.41 0-.9.35-1.6 1.06-2.07.7-.48 1.71-.73 3.03-.73h1.25v-.65c0-.58-.17-1-.51-1.26a2.43 2.43 0 0 0-1.49-.4 7.68 7.68 0 0 0-2.27.44l-.4-1.14c1-.37 1.97-.56 2.91-.56 1.09 0 1.92.25 2.49.74.56.5.84 1.2.84 2.1v4.02zm-3.65 1.02a2.56 2.56 0 0 0 2.08-1.18v-2.1h-1.14c-.88 0-1.53.16-1.92.46-.4.29-.6.72-.6 1.28 0 .5.13.89.39 1.15.27.26.67.39 1.19.39zm10.67-1.25c0 .39.13.68.37.86.24.19.58.28 1.01.28.46 0 .93-.1 1.42-.3l.41 1.13a4.85 4.85 0 0 1-2.12.46c-.54 0-1.01-.1-1.41-.3-.4-.21-.71-.5-.93-.9a2.76 2.76 0 0 1-.32-1.35v-8.58H151v-1.2h4.2v9.9zm9.85 0c0 .39.12.68.37.86.24.19.58.28 1.01.28.45 0 .93-.1 1.42-.3l.41 1.13a4.99 4.99 0 0 1-2.13.46c-.54 0-1.01-.1-1.41-.3-.4-.21-.7-.5-.92-.9a2.66 2.66 0 0 1-.32-1.35v-8.58h-2.64v-1.2h4.21v9.9zm12.98-1.6h-6.66v-1.31h6.66v1.32zm6.19 2.78c.63 0 1.12-.11 1.49-.34.36-.23.54-.55.54-.94 0-.27-.05-.5-.15-.66-.1-.18-.3-.34-.59-.48-.3-.15-.75-.3-1.34-.45a9.7 9.7 0 0 1-1.59-.54c-.42-.2-.74-.46-.97-.78a1.96 1.96 0 0 1-.35-1.2c0-.5.14-.91.42-1.28.27-.36.67-.64 1.17-.84.51-.2 1.1-.3 1.77-.3 1.26 0 2.32.33 3.2.98l-.67 1.03a4.36 4.36 0 0 0-2.5-.76c-.61 0-1.06.09-1.34.27a.88.88 0 0 0-.43.78c0 .24.07.44.2.59.14.16.36.3.67.42.31.13.77.28 1.39.45.62.17 1.13.36 1.53.56.4.2.71.48.94.82.22.34.33.77.33 1.3a2.2 2.2 0 0 1-.51 1.48c-.35.39-.8.68-1.37.87-.56.18-1.17.27-1.84.27-.74 0-1.4-.1-1.97-.32a4.87 4.87 0 0 1-1.49-.87l.87-1c.35.29.75.52 1.19.69.44.17.91.25 1.4.25zm13.84.6a4.77 4.77 0 0 1-2.4.64c-.63 0-1.17-.1-1.62-.32a2.37 2.37 0 0 1-1.02-.96c-.23-.4-.34-.88-.34-1.42v-4.96h-1.96v-1.18h1.96v-1.95l1.57-.2v2.15h2.96l-.18 1.18h-2.78v4.94c0 .49.13.85.38 1.09.24.23.65.35 1.21.35.58 0 1.12-.14 1.63-.41l.59 1.06zm9.2-1.54c0 .34.05.59.16.75.1.16.28.28.52.35l-.37 1.09c-.86-.11-1.42-.52-1.67-1.21-.31.4-.7.69-1.17.9a3.86 3.86 0 0 1-3.06-.02 2.28 2.28 0 0 1-.98-.94c-.23-.4-.34-.87-.34-1.41 0-.9.35-1.6 1.05-2.07a5.4 5.4 0 0 1 3.04-.73h1.25v-.65c0-.58-.17-1-.51-1.26a2.43 2.43 0 0 0-1.49-.4 7.68 7.68 0 0 0-2.27.44l-.41-1.14c1-.37 1.98-.56 2.92-.56 1.09 0 1.92.25 2.48.74.57.5.85 1.2.85 2.1v4.02zm-3.65 1c.4 0 .79-.1 1.16-.3.37-.21.68-.5.92-.87v-2.1h-1.15c-.88 0-1.52.16-1.92.46-.4.29-.6.72-.6 1.28 0 .5.14.89.4 1.15.27.26.66.39 1.19.39zm11.14-.13c.75 0 1.48-.26 2.2-.76l.75 1.03a4.78 4.78 0 0 1-5.19.5 3.61 3.61 0 0 1-1.42-1.57 5.43 5.43 0 0 1-.48-2.36c0-.88.16-1.66.49-2.35.33-.7.8-1.24 1.43-1.63.63-.4 1.37-.6 2.22-.6 1.12 0 2.1.35 2.94 1.02l-.75 1.03a3.84 3.84 0 0 0-2.18-.76 2.22 2.22 0 0 0-2.16 1.46c-.2.49-.3 1.1-.3 1.83 0 1.07.22 1.86.66 2.38.44.52 1.04.78 1.79.78zm5.9-11.01l1.57-.2v12.33h-1.57v-12.13zm5.39 3.48h1.94l-3.72 3.88 4.14 4.77h-2l-4.03-4.73 3.67-3.92zm7.41 7.6c.63 0 1.12-.11 1.49-.34.36-.23.54-.55.54-.94 0-.27-.05-.5-.15-.66-.1-.18-.3-.34-.59-.48-.3-.15-.74-.3-1.34-.45a9.7 9.7 0 0 1-1.59-.54c-.42-.2-.74-.46-.97-.78a1.96 1.96 0 0 1-.34-1.2c0-.5.13-.91.41-1.28.28-.36.67-.64 1.17-.84.51-.2 1.1-.3 1.77-.3a5.2 5.2 0 0 1 3.2.98l-.67 1.03a4.36 4.36 0 0 0-2.5-.76c-.61 0-1.06.09-1.34.27a.88.88 0 0 0-.43.78c0 .24.07.44.2.59.14.16.36.3.67.42.31.13.78.28 1.39.45.62.17 1.13.36 1.53.56.4.2.71.48.94.82.22.34.33.77.33 1.3a2.2 2.2 0 0 1-.51 1.48c-.35.39-.8.68-1.36.87-.57.18-1.18.27-1.85.27-.74 0-1.4-.1-1.97-.32a4.7 4.7 0 0 1-1.48-.87l.86-1c.35.29.75.52 1.19.69.44.17.91.25 1.4.25zm8.66-.26a1.5 1.5 0 0 1 .74-1.3 1.55 1.55 0 0 1 1.53 0c.23.14.41.32.54.55.14.22.21.47.21.75s-.07.53-.21.76a1.45 1.45 0 0 1-1.31.75c-.28 0-.53-.06-.76-.2a1.51 1.51 0 0 1-.74-1.31zm12.02.19a3.8 3.8 0 0 0 2.2-.76l.76 1.03a4.78 4.78 0 0 1-5.2.5 3.59 3.59 0 0 1-1.41-1.57 5.3 5.3 0 0 1-.49-2.36c0-.88.17-1.66.49-2.35.33-.7.81-1.24 1.44-1.63.62-.4 1.36-.6 2.21-.6 1.13 0 2.11.35 2.94 1.02l-.74 1.03a3.87 3.87 0 0 0-2.19-.76 2.25 2.25 0 0 0-2.15 1.46c-.21.49-.31 1.1-.31 1.83 0 1.07.22 1.86.66 2.38.45.52 1.05.78 1.79.78zm8.86.07c.63 0 1.12-.11 1.49-.34.36-.23.54-.55.54-.94 0-.27-.05-.5-.15-.66-.1-.18-.3-.34-.59-.48-.3-.15-.75-.3-1.34-.45a9.7 9.7 0 0 1-1.59-.54c-.42-.2-.74-.46-.97-.78a1.96 1.96 0 0 1-.35-1.2c0-.5.14-.91.42-1.28a2.6 2.6 0 0 1 1.17-.84c.51-.2 1.1-.3 1.77-.3 1.26 0 2.32.33 3.2.98l-.67 1.03a4.36 4.36 0 0 0-2.5-.76c-.61 0-1.06.09-1.34.27a.88.88 0 0 0-.43.78c0 .24.07.44.2.59.14.16.36.3.67.42.31.13.77.28 1.39.45.62.17 1.13.36 1.53.56.4.2.71.48.94.82.22.34.33.77.33 1.3a2.2 2.2 0 0 1-.51 1.48c-.35.39-.8.68-1.37.87-.56.18-1.17.27-1.84.27-.74 0-1.4-.1-1.97-.32a4.76 4.76 0 0 1-1.49-.87l.87-1c.35.29.75.52 1.19.69.44.17.91.25 1.4.25zm12.57-7.6h1.61l-3.1 8.65h-1.83l-3.09-8.65h1.67l2.37 7.28 2.37-7.28z"/>
  </g>
  <g>
    <path fill="none" stroke="#fefefe" stroke-linecap="butt" stroke-miterlimit="2" d="M9472.98 2526.25c0 2.13-.74 3.93-2.22 5.41-.3.29-.5.43-.61.43-.19 0-.29-.11-.29-.32 0-.1.12-.26.36-.5a7.12 7.12 0 0 0 2.11-5.19.83.83 0 0 0-.07-.38.51.51 0 0 0-.11.1 1.72 1.72 0 0 1-2.34.03c-.3-.3-.45-.69-.45-1.16a1.57 1.57 0 0 1 1.61-1.58c.71 0 1.24.37 1.61 1.11.27.58.4 1.26.4 2.05zm-5.84 0c0 2.1-.75 3.91-2.24 5.41-.29.29-.49.43-.59.43-.21 0-.31-.11-.31-.32 0-.09.12-.25.37-.5a7.05 7.05 0 0 0 2.11-5.19 1 1 0 0 0-.06-.38l-.09.1c-.36.32-.76.48-1.22.48-.46 0-.84-.15-1.14-.45a1.6 1.6 0 0 1-.44-1.16c0-.46.15-.83.44-1.13.3-.3.68-.45 1.14-.45.71 0 1.24.37 1.61 1.11.28.58.42 1.26.42 2.05zm9.89 17.72a7.9 7.9 0 0 1-2.28 5.72c-.31.32-.52.48-.64.48-.2 0-.31-.11-.31-.34 0-.09.07-.21.22-.36a7.98 7.98 0 0 0 2.31-5.5c0-.15-.02-.33-.06-.56-.34.39-.77.59-1.28.59-.46 0-.86-.17-1.2-.51a1.62 1.62 0 0 1-.51-1.19c0-.46.17-.86.51-1.19.34-.33.74-.5 1.2-.5.74 0 1.28.4 1.64 1.19.27.6.4 1.32.4 2.17zm11.38-13.42a1.53 1.53 0 0 1-1.61 1.57c-.71 0-1.24-.36-1.6-1.1a4.84 4.84 0 0 1-.4-2.07 7.4 7.4 0 0 1 2.22-5.39c.29-.29.49-.44.59-.44.21 0 .31.11.31.33 0 .09-.12.25-.36.5a7.1 7.1 0 0 0-2.11 5.19 1 1 0 0 0 .07.38 1.69 1.69 0 0 1 1.28-.58 1.55 1.55 0 0 1 1.61 1.61zm-5.85 0a1.52 1.52 0 0 1-1.59 1.57c-.72 0-1.26-.36-1.61-1.1a4.69 4.69 0 0 1-.42-2.07c0-2.11.74-3.91 2.23-5.39.29-.29.5-.44.61-.44.2 0 .3.11.3.33 0 .1-.12.26-.36.5a7.06 7.06 0 0 0-2.13 5.19c0 .16.02.28.07.38l.11-.1c.36-.32.76-.48 1.2-.48.46 0 .84.15 1.14.45.3.3.45.69.45 1.16zm-9.58 83.7c0 2.13-.74 3.93-2.22 5.41-.3.29-.5.43-.61.43-.19 0-.29-.11-.29-.32 0-.1.12-.26.36-.5a7.12 7.12 0 0 0 2.11-5.19.83.83 0 0 0-.07-.38.51.51 0 0 0-.11.1 1.72 1.72 0 0 1-2.34.03c-.3-.3-.45-.69-.45-1.16a1.57 1.57 0 0 1 1.61-1.58c.71 0 1.24.37 1.61 1.11.27.58.4 1.26.4 2.05zm-5.84 0c0 2.1-.75 3.91-2.24 5.41-.29.29-.49.43-.59.43-.21 0-.31-.11-.31-.32 0-.09.12-.25.37-.5a7.05 7.05 0 0 0 2.11-5.19 1 1 0 0 0-.06-.38l-.09.1c-.36.32-.76.48-1.22.48-.46 0-.84-.15-1.14-.45a1.6 1.6 0 0 1-.44-1.16c0-.46.15-.83.44-1.13.3-.3.68-.45 1.14-.45.71 0 1.24.37 1.61 1.11.28.58.42 1.26.42 2.05zm9.89 17.72a7.9 7.9 0 0 1-2.28 5.72c-.31.32-.52.48-.64.48-.2 0-.31-.11-.31-.34 0-.09.07-.21.22-.36a7.98 7.98 0 0 0 2.31-5.5c0-.15-.02-.33-.06-.56-.34.39-.77.59-1.28.59-.46 0-.86-.17-1.2-.51a1.62 1.62 0 0 1-.51-1.19c0-.46.17-.86.51-1.19.34-.33.74-.5 1.2-.5.74 0 1.28.4 1.64 1.19.27.6.4 1.32.4 2.17zm11.38-13.42a1.53 1.53 0 0 1-1.61 1.57c-.71 0-1.24-.36-1.6-1.1a4.84 4.84 0 0 1-.4-2.07 7.4 7.4 0 0 1 2.22-5.39c.29-.29.49-.44.59-.44.21 0 .31.11.31.33 0 .09-.12.25-.36.5a7.1 7.1 0 0 0-2.11 5.19 1 1 0 0 0 .07.38 1.69 1.69 0 0 1 1.28-.58 1.55 1.55 0 0 1 1.61 1.61zm-5.85 0a1.52 1.52 0 0 1-1.59 1.57c-.72 0-1.26-.36-1.61-1.1a4.69 4.69 0 0 1-.42-2.07c0-2.11.74-3.91 2.23-5.39.29-.29.5-.44.61-.44.2 0 .3.11.3.33 0 .1-.12.26-.36.5a7.06 7.06 0 0 0-2.13 5.19c0 .16.02.28.07.38l.11-.1c.36-.32.76-.48 1.2-.48.46 0 .84.15 1.14.45.3.3.45.69.45 1.16zm-9.58-156.3c0 2.13-.74 3.93-2.22 5.41-.3.29-.5.43-.61.43-.19 0-.29-.11-.29-.32 0-.1.12-.26.36-.5a7.12 7.12 0 0 0 2.11-5.19.83.83 0 0 0-.07-.38.51.51 0 0 0-.11.1 1.72 1.72 0 0 1-2.34.03c-.3-.3-.45-.69-.45-1.16a1.57 1.57 0 0 1 1.61-1.58c.71 0 1.24.37 1.61 1.11.27.58.4 1.26.4 2.05zm-5.84 0c0 2.1-.75 3.91-2.24 5.41-.29.29-.49.43-.59.43-.21 0-.31-.11-.31-.32 0-.09.12-.25.37-.5a7.05 7.05 0 0 0 2.11-5.19 1 1 0 0 0-.06-.38l-.09.1c-.36.32-.76.48-1.22.48-.46 0-.84-.15-1.14-.45a1.6 1.6 0 0 1-.44-1.16c0-.46.15-.83.44-1.13.3-.3.68-.45 1.14-.45.71 0 1.24.37 1.61 1.11.28.58.42 1.26.42 2.05zm9.89 17.72a7.9 7.9 0 0 1-2.28 5.72c-.31.32-.52.48-.64.48-.2 0-.31-.11-.31-.34 0-.09.07-.21.22-.36a7.98 7.98 0 0 0 2.31-5.5c0-.15-.02-.33-.06-.56-.34.39-.77.59-1.28.59-.46 0-.86-.17-1.2-.51a1.62 1.62 0 0 1-.51-1.19c0-.46.17-.86.51-1.19.34-.33.74-.5 1.2-.5.74 0 1.28.4 1.64 1.19.27.6.4 1.32.4 2.17zm11.38-13.42a1.53 1.53 0 0 1-1.61 1.57c-.71 0-1.24-.36-1.6-1.1a4.84 4.84 0 0 1-.4-2.07 7.4 7.4 0 0 1 2.22-5.39c.29-.29.49-.44.59-.44.21 0 .31.11.31.33 0 .09-.12.25-.36.5a7.1 7.1 0 0 0-2.11 5.19 1 1 0 0 0 .07.38 1.69 1.69 0 0 1 1.28-.58 1.55 1.55 0 0 1 1.61 1.61zm-5.85 0a1.52 1.52 0 0 1-1.59 1.57c-.72 0-1.26-.36-1.61-1.1a4.69 4.69 0 0 1-.42-2.07c0-2.11.74-3.91 2.23-5.39.29-.29.5-.44.61-.44.2 0 .3.11.3.33 0 .1-.12.26-.36.5a7.06 7.06 0 0 0-2.13 5.19c0 .16.02.28.07.38l.11-.1c.36-.32.76-.48 1.2-.48.46 0 .84.15 1.14.45.3.3.45.69.45 1.16zm-58.15 64a1.53 1.53 0 0 1-1.61 1.57c-.71 0-1.24-.36-1.6-1.1a4.84 4.84 0 0 1-.4-2.07 7.4 7.4 0 0 1 2.22-5.39c.29-.29.49-.44.59-.44.21 0 .31.11.31.33 0 .09-.12.25-.36.5a7.1 7.1 0 0 0-2.11 5.19 1 1 0 0 0 .07.38 1.69 1.69 0 0 1 1.28-.58 1.55 1.55 0 0 1 1.61 1.61zm-5.85 0a1.52 1.52 0 0 1-1.59 1.57c-.72 0-1.26-.36-1.61-1.1a4.69 4.69 0 0 1-.42-2.07c0-2.11.74-3.91 2.23-5.39.29-.29.5-.44.61-.44.2 0 .3.11.3.33 0 .1-.12.26-.36.5a7.06 7.06 0 0 0-2.13 5.19c0 .16.02.28.07.38l.11-.1c.36-.32.76-.48 1.2-.48.46 0 .84.15 1.14.45.3.3.45.69.45 1.16zm5.85 88a1.53 1.53 0 0 1-1.61 1.57c-.71 0-1.24-.36-1.6-1.1a4.84 4.84 0 0 1-.4-2.07 7.4 7.4 0 0 1 2.22-5.39c.29-.29.49-.44.59-.44.21 0 .31.11.31.33 0 .09-.12.25-.36.5a7.1 7.1 0 0 0-2.11 5.19 1 1 0 0 0 .07.38 1.69 1.69 0 0 1 1.28-.58 1.55 1.55 0 0 1 1.61 1.61zm-5.85 0a1.52 1.52 0 0 1-1.59 1.57c-.72 0-1.26-.36-1.61-1.1a4.69 4.69 0 0 1-.42-2.07c0-2.11.74-3.91 2.23-5.39.29-.29.5-.44.61-.44.2 0 .3.11.3.33 0 .1-.12.26-.36.5a7.06 7.06 0 0 0-2.13 5.19c0 .16.02.28.07.38l.11-.1c.36-.32.76-.48 1.2-.48.46 0 .84.15 1.14.45.3.3.45.69.45 1.16zm5.85-152a1.53 1.53 0 0 1-1.61 1.57c-.71 0-1.24-.36-1.6-1.1a4.84 4.84 0 0 1-.4-2.07 7.4 7.4 0 0 1 2.22-5.39c.29-.29.49-.44.59-.44.21 0 .31.11.31.33 0 .09-.12.25-.36.5a7.1 7.1 0 0 0-2.11 5.19 1 1 0 0 0 .07.38 1.69 1.69 0 0 1 1.28-.58 1.55 1.55 0 0 1 1.61 1.61zm-5.85 0a1.52 1.52 0 0 1-1.59 1.57c-.72 0-1.26-.36-1.61-1.1a4.69 4.69 0 0 1-.42-2.07c0-2.11.74-3.91 2.23-5.39.29-.29.5-.44.61-.44.2 0 .3.11.3.33 0 .1-.12.26-.36.5a7.06 7.06 0 0 0-2.13 5.19c0 .16.02.28.07.38l.11-.1c.36-.32.76-.48 1.2-.48.46 0 .84.15 1.14.45.3.3.45.69.45 1.16zm118.42 59.7c0 2.13-.74 3.93-2.22 5.41-.3.29-.5.43-.61.43-.19 0-.29-.11-.29-.32 0-.1.12-.26.36-.5a7.12 7.12 0 0 0 2.11-5.19.83.83 0 0 0-.07-.38.51.51 0 0 0-.11.1 1.72 1.72 0 0 1-2.34.03c-.3-.3-.45-.69-.45-1.16a1.57 1.57 0 0 1 1.61-1.58c.71 0 1.24.37 1.61 1.11.27.58.4 1.26.4 2.05zm-5.84 0c0 2.1-.75 3.91-2.24 5.41-.29.29-.49.43-.59.43-.21 0-.31-.11-.31-.32 0-.09.12-.25.37-.5a7.05 7.05 0 0 0 2.11-5.19 1 1 0 0 0-.06-.38l-.09.1c-.36.32-.76.48-1.22.48-.46 0-.84-.15-1.14-.45a1.6 1.6 0 0 1-.44-1.16c0-.46.15-.83.44-1.13.3-.3.68-.45 1.14-.45.71 0 1.24.37 1.61 1.11.28.58.42 1.26.42 2.05zm9.89 17.72a7.9 7.9 0 0 1-2.28 5.72c-.31.32-.52.48-.64.48-.2 0-.31-.11-.31-.34 0-.09.07-.21.22-.36a7.98 7.98 0 0 0 2.31-5.5c0-.15-.02-.33-.06-.56-.34.39-.77.59-1.28.59-.46 0-.86-.17-1.2-.51a1.62 1.62 0 0 1-.51-1.19c0-.46.17-.86.51-1.19.34-.33.74-.5 1.2-.5.74 0 1.28.4 1.64 1.19.27.6.4 1.32.4 2.17zm11.38-13.42a1.53 1.53 0 0 1-1.61 1.57c-.71 0-1.24-.36-1.6-1.1a4.84 4.84 0 0 1-.4-2.07 7.4 7.4 0 0 1 2.22-5.39c.29-.29.49-.44.59-.44.21 0 .31.11.31.33 0 .09-.12.25-.36.5a7.1 7.1 0 0 0-2.11 5.19 1 1 0 0 0 .07.38 1.69 1.69 0 0 1 1.28-.58 1.55 1.55 0 0 1 1.61 1.61zm-5.85 0a1.52 1.52 0 0 1-1.59 1.57c-.72 0-1.26-.36-1.61-1.1a4.69 4.69 0 0 1-.42-2.07c0-2.11.74-3.91 2.23-5.39.29-.29.5-.44.61-.44.2 0 .3.11.3.33 0 .1-.12.26-.36.5a7.06 7.06 0 0 0-2.13 5.19c0 .16.02.28.07.38l.11-.1c.36-.32.76-.48 1.2-.48.46 0 .84.15 1.14.45.3.3.45.69.45 1.16zm-9.58 83.7c0 2.13-.74 3.93-2.22 5.41-.3.29-.5.43-.61.43-.19 0-.29-.11-.29-.32 0-.1.12-.26.36-.5a7.12 7.12 0 0 0 2.11-5.19.83.83 0 0 0-.07-.38.51.51 0 0 0-.11.1 1.72 1.72 0 0 1-2.34.03c-.3-.3-.45-.69-.45-1.16a1.57 1.57 0 0 1 1.61-1.58c.71 0 1.24.37 1.61 1.11.27.58.4 1.26.4 2.05zm-5.84 0c0 2.1-.75 3.91-2.24 5.41-.29.29-.49.43-.59.43-.21 0-.31-.11-.31-.32 0-.09.12-.25.37-.5a7.05 7.05 0 0 0 2.11-5.19 1 1 0 0 0-.06-.38l-.09.1c-.36.32-.76.48-1.22.48-.46 0-.84-.15-1.14-.45a1.6 1.6 0 0 1-.44-1.16c0-.46.15-.83.44-1.13.3-.3.68-.45 1.14-.45.71 0 1.24.37 1.61 1.11.28.58.42 1.26.42 2.05zm9.89 17.72a7.9 7.9 0 0 1-2.28 5.72c-.31.32-.52.48-.64.48-.2 0-.31-.11-.31-.34 0-.09.07-.21.22-.36a7.98 7.98 0 0 0 2.31-5.5c0-.15-.02-.33-.06-.56-.34.39-.77.59-1.28.59-.46 0-.86-.17-1.2-.51a1.62 1.62 0 0 1-.51-1.19c0-.46.17-.86.51-1.19.34-.33.74-.5 1.2-.5.74 0 1.28.4 1.64 1.19.27.6.4 1.32.4 2.17zm11.38-13.42a1.53 1.53 0 0 1-1.61 1.57c-.71 0-1.24-.36-1.6-1.1a4.84 4.84 0 0 1-.4-2.07 7.4 7.4 0 0 1 2.22-5.39c.29-.29.49-.44.59-.44.21 0 .31.11.31.33 0 .09-.12.25-.36.5a7.1 7.1 0 0 0-2.11 5.19 1 1 0 0 0 .07.38 1.69 1.69 0 0 1 1.28-.58 1.55 1.55 0 0 1 1.61 1.61zm-5.85 0a1.52 1.52 0 0 1-1.59 1.57c-.72 0-1.26-.36-1.61-1.1a4.69 4.69 0 0 1-.42-2.07c0-2.11.74-3.91 2.23-5.39.29-.29.5-.44.61-.44.2 0 .3.11.3.33 0 .1-.12.26-.36.5a7.06 7.06 0 0 0-2.13 5.19c0 .16.02.28.07.38l.11-.1c.36-.32.76-.48 1.2-.48.46 0 .84.15 1.14.45.3.3.45.69.45 1.16zm-9.58-156.3c0 2.13-.74 3.93-2.22 5.41-.3.29-.5.43-.61.43-.19 0-.29-.11-.29-.32 0-.1.12-.26.36-.5a7.12 7.12 0 0 0 2.11-5.19.83.83 0 0 0-.07-.38.51.51 0 0 0-.11.1 1.72 1.72 0 0 1-2.34.03c-.3-.3-.45-.69-.45-1.16a1.57 1.57 0 0 1 1.61-1.58c.71 0 1.24.37 1.61 1.11.27.58.4 1.26.4 2.05zm-5.84 0c0 2.1-.75 3.91-2.24 5.41-.29.29-.49.43-.59.43-.21 0-.31-.11-.31-.32 0-.09.12-.25.37-.5a7.05 7.05 0 0 0 2.11-5.19 1 1 0 0 0-.06-.38l-.09.1c-.36.32-.76.48-1.22.48-.46 0-.84-.15-1.14-.45a1.6 1.6 0 0 1-.44-1.16c0-.46.15-.83.44-1.13.3-.3.68-.45 1.14-.45.71 0 1.24.37 1.61 1.11.28.58.42 1.26.42 2.05zm9.89 17.72a7.9 7.9 0 0 1-2.28 5.72c-.31.32-.52.48-.64.48-.2 0-.31-.11-.31-.34 0-.09.07-.21.22-.36a7.98 7.98 0 0 0 2.31-5.5c0-.15-.02-.33-.06-.56-.34.39-.77.59-1.28.59-.46 0-.86-.17-1.2-.51a1.62 1.62 0 0 1-.51-1.19c0-.46.17-.86.51-1.19.34-.33.74-.5 1.2-.5.74 0 1.28.4 1.64 1.19.27.6.4 1.32.4 2.17zm11.38-13.42a1.53 1.53 0 0 1-1.61 1.57c-.71 0-1.24-.36-1.6-1.1a4.84 4.84 0 0 1-.4-2.07 7.4 7.4 0 0 1 2.22-5.39c.29-.29.49-.44.59-.44.21 0 .31.11.31.33 0 .09-.12.25-.36.5a7.1 7.1 0 0 0-2.11 5.19 1 1 0 0 0 .07.38 1.69 1.69 0 0 1 1.28-.58 1.55 1.55 0 0 1 1.61 1.61zm-5.85 0a1.52 1.52 0 0 1-1.59 1.57c-.72 0-1.26-.36-1.61-1.1a4.69 4.69 0 0 1-.42-2.07c0-2.11.74-3.91 2.23-5.39.29-.29.5-.44.61-.44.2 0 .3.11.3.33 0 .1-.12.26-.36.5a7.06 7.06 0 0 0-2.13 5.19c0 .16.02.28.07.38l.11-.1c.36-.32.76-.48 1.2-.48.46 0 .84.15 1.14.45.3.3.45.69.45 1.16zm56.86 59.7c0 2.13-.74 3.93-2.22 5.41-.3.29-.5.43-.61.43-.19 0-.29-.11-.29-.32 0-.1.12-.26.36-.5a7.11 7.11 0 0 0 2.1-5.19 1 1 0 0 0-.06-.38.51.51 0 0 0-.11.1 1.72 1.72 0 0 1-2.34.03c-.3-.3-.45-.69-.45-1.16a1.57 1.57 0 0 1 1.61-1.58c.7 0 1.24.37 1.6 1.11.27.58.41 1.26.41 2.05zm-5.84 0c0 2.1-.75 3.91-2.24 5.41-.29.29-.49.43-.59.43-.21 0-.31-.11-.31-.32 0-.09.12-.25.37-.5a7.05 7.05 0 0 0 2.11-5.19 1 1 0 0 0-.06-.38l-.1.1c-.35.32-.76.48-1.21.48-.46 0-.84-.15-1.14-.45a1.6 1.6 0 0 1-.44-1.16c0-.46.15-.83.44-1.13.3-.3.68-.45 1.14-.45.7 0 1.24.37 1.61 1.11.28.58.42 1.26.42 2.05zm5.84 88c0 2.13-.74 3.93-2.22 5.41-.3.29-.5.43-.61.43-.19 0-.29-.11-.29-.32 0-.1.12-.26.36-.5a7.11 7.11 0 0 0 2.1-5.19 1 1 0 0 0-.06-.38.51.51 0 0 0-.11.1 1.72 1.72 0 0 1-2.34.03c-.3-.3-.45-.69-.45-1.16a1.57 1.57 0 0 1 1.61-1.58c.7 0 1.24.37 1.6 1.11.27.58.41 1.26.41 2.05zm-5.84 0c0 2.1-.75 3.91-2.24 5.41-.29.29-.49.43-.59.43-.21 0-.31-.11-.31-.32 0-.09.12-.25.37-.5a7.05 7.05 0 0 0 2.11-5.19 1 1 0 0 0-.06-.38l-.1.1c-.35.32-.76.48-1.21.48-.46 0-.84-.15-1.14-.45a1.6 1.6 0 0 1-.44-1.16c0-.46.15-.83.44-1.13.3-.3.68-.45 1.14-.45.7 0 1.24.37 1.61 1.11.28.58.42 1.26.42 2.05zm5.84-152c0 2.13-.74 3.93-2.22 5.41-.3.29-.5.43-.61.43-.19 0-.29-.11-.29-.32 0-.1.12-.26.36-.5a7.11 7.11 0 0 0 2.1-5.19 1 1 0 0 0-.06-.38.51.51 0 0 0-.11.1 1.72 1.72 0 0 1-2.34.03c-.3-.3-.45-.69-.45-1.16a1.57 1.57 0 0 1 1.61-1.58c.7 0 1.24.37 1.6 1.11.27.58.41 1.26.41 2.05zm-5.84 0c0 2.1-.75 3.91-2.24 5.41-.29.29-.49.43-.59.43-.21 0-.31-.11-.31-.32 0-.09.12-.25.37-.5a7.05 7.05 0 0 0 2.11-5.19 1 1 0 0 0-.06-.38l-.1.1c-.35.32-.76.48-1.21.48-.46 0-.84-.15-1.14-.45a1.6 1.6 0 0 1-.44-1.16c0-.46.15-.83.44-1.13.3-.3.68-.45 1.14-.45.7 0 1.24.37 1.61 1.11.28.58.42 1.26.42 2.05z" transform="translate(-9331.27 -2366)"/>
    <path fill-rule="nonzero" d="M141.73 160.26c0 2.13-.74 3.93-2.22 5.4-.3.3-.5.44-.61.44-.19 0-.29-.11-.29-.32 0-.1.12-.26.36-.5a7.12 7.12 0 0 0 2.11-5.2.83.83 0 0 0-.07-.37.51.51 0 0 0-.11.1 1.72 1.72 0 0 1-2.34.03c-.3-.3-.45-.7-.45-1.16a1.57 1.57 0 0 1 1.61-1.58c.71 0 1.24.37 1.61 1.1.27.59.4 1.27.4 2.06zm-5.84 0c0 2.1-.75 3.9-2.24 5.4-.29.3-.49.44-.59.44-.21 0-.31-.11-.31-.32 0-.1.12-.25.37-.5a7.05 7.05 0 0 0 2.11-5.2 1 1 0 0 0-.06-.37l-.09.1c-.36.32-.76.48-1.22.48-.46 0-.84-.15-1.14-.45a1.6 1.6 0 0 1-.44-1.16c0-.46.15-.83.44-1.13.3-.3.68-.45 1.14-.45.71 0 1.24.37 1.61 1.1.28.59.42 1.27.42 2.06zm9.89 17.72a7.9 7.9 0 0 1-2.28 5.72c-.31.32-.52.48-.64.48-.2 0-.31-.11-.31-.34 0-.1.07-.21.22-.36a7.98 7.98 0 0 0 2.31-5.5c0-.15-.02-.33-.06-.56-.34.39-.77.59-1.28.59-.46 0-.86-.17-1.2-.51a1.62 1.62 0 0 1-.51-1.2c0-.45.17-.85.51-1.18.34-.33.74-.5 1.2-.5.74 0 1.28.4 1.64 1.19.27.6.4 1.32.4 2.17zm11.38-13.42a1.53 1.53 0 0 1-1.61 1.57c-.71 0-1.24-.36-1.6-1.1a4.84 4.84 0 0 1-.4-2.07 7.4 7.4 0 0 1 2.22-5.4c.29-.28.49-.43.59-.43.21 0 .31.1.31.33 0 .09-.12.25-.36.5a7.1 7.1 0 0 0-2.11 5.19 1 1 0 0 0 .07.38 1.69 1.69 0 0 1 1.28-.58 1.55 1.55 0 0 1 1.61 1.6zm-5.85 0a1.52 1.52 0 0 1-1.59 1.57c-.72 0-1.26-.36-1.61-1.1a4.69 4.69 0 0 1-.42-2.07c0-2.11.74-3.91 2.23-5.4.29-.28.5-.43.61-.43.2 0 .3.1.3.33 0 .1-.12.26-.36.5a7.06 7.06 0 0 0-2.13 5.19c0 .16.02.28.07.38l.11-.1c.36-.32.76-.48 1.2-.48.46 0 .84.15 1.14.45.3.3.45.69.45 1.16zm-9.58 83.7c0 2.13-.74 3.93-2.22 5.4-.3.3-.5.44-.61.44-.19 0-.29-.11-.29-.32 0-.1.12-.26.36-.5a7.12 7.12 0 0 0 2.11-5.2.83.83 0 0 0-.07-.37.51.51 0 0 0-.11.1 1.72 1.72 0 0 1-2.34.03c-.3-.3-.45-.7-.45-1.16a1.57 1.57 0 0 1 1.61-1.58c.71 0 1.24.37 1.61 1.1.27.59.4 1.27.4 2.06zm-5.84 0c0 2.1-.75 3.9-2.24 5.4-.29.3-.49.44-.59.44-.21 0-.31-.11-.31-.32 0-.1.12-.25.37-.5a7.05 7.05 0 0 0 2.11-5.2 1 1 0 0 0-.06-.37l-.09.1c-.36.32-.76.48-1.22.48-.46 0-.84-.15-1.14-.45a1.6 1.6 0 0 1-.44-1.16c0-.46.15-.83.44-1.13.3-.3.68-.45 1.14-.45.71 0 1.24.37 1.61 1.1.28.59.42 1.27.42 2.06zm9.89 17.72a7.9 7.9 0 0 1-2.28 5.72c-.31.32-.52.48-.64.48-.2 0-.31-.11-.31-.34 0-.1.07-.21.22-.36a7.98 7.98 0 0 0 2.31-5.5c0-.15-.02-.33-.06-.56-.34.39-.77.59-1.28.59-.46 0-.86-.17-1.2-.51a1.62 1.62 0 0 1-.51-1.2c0-.45.17-.85.51-1.18.34-.33.74-.5 1.2-.5.74 0 1.28.4 1.64 1.19.27.6.4 1.32.4 2.17zm11.38-13.42a1.53 1.53 0 0 1-1.61 1.57c-.71 0-1.24-.36-1.6-1.1a4.84 4.84 0 0 1-.4-2.07 7.4 7.4 0 0 1 2.22-5.4c.29-.28.49-.43.59-.43.21 0 .31.1.31.33 0 .09-.12.25-.36.5a7.1 7.1 0 0 0-2.11 5.19 1 1 0 0 0 .07.38 1.69 1.69 0 0 1 1.28-.58 1.55 1.55 0 0 1 1.61 1.6zm-5.85 0a1.52 1.52 0 0 1-1.59 1.57c-.72 0-1.26-.36-1.61-1.1a4.69 4.69 0 0 1-.42-2.07c0-2.11.74-3.91 2.23-5.4.29-.28.5-.43.61-.43.2 0 .3.1.3.33 0 .1-.12.26-.36.5a7.06 7.06 0 0 0-2.13 5.19c0 .16.02.28.07.38l.11-.1c.36-.32.76-.48 1.2-.48.46 0 .84.15 1.14.45.3.3.45.69.45 1.16zm-9.58-156.3c0 2.13-.74 3.93-2.22 5.4-.3.3-.5.44-.61.44-.19 0-.29-.11-.29-.32 0-.1.12-.26.36-.5a7.12 7.12 0 0 0 2.11-5.2.83.83 0 0 0-.07-.37.51.51 0 0 0-.11.1 1.72 1.72 0 0 1-2.34.03c-.3-.3-.45-.7-.45-1.16a1.57 1.57 0 0 1 1.61-1.58c.71 0 1.24.37 1.61 1.1.27.59.4 1.27.4 2.06zm-5.84 0c0 2.1-.75 3.9-2.24 5.4-.29.3-.49.44-.59.44-.21 0-.31-.11-.31-.32 0-.1.12-.25.37-.5a7.05 7.05 0 0 0 2.11-5.2 1 1 0 0 0-.06-.37l-.09.1c-.36.32-.76.48-1.22.48-.46 0-.84-.15-1.14-.45a1.6 1.6 0 0 1-.44-1.16c0-.46.15-.83.44-1.13.3-.3.68-.45 1.14-.45.71 0 1.24.37 1.61 1.1.28.59.42 1.27.42 2.06zm9.89 17.72a7.9 7.9 0 0 1-2.28 5.72c-.31.32-.52.48-.64.48-.2 0-.31-.11-.31-.34 0-.1.07-.21.22-.36a7.98 7.98 0 0 0 2.31-5.5c0-.15-.02-.33-.06-.56-.34.39-.77.59-1.28.59-.46 0-.86-.17-1.2-.51a1.62 1.62 0 0 1-.51-1.2c0-.45.17-.85.51-1.18.34-.33.74-.5 1.2-.5.74 0 1.28.4 1.64 1.19.27.6.4 1.32.4 2.17zm11.38-13.42a1.53 1.53 0 0 1-1.61 1.57c-.71 0-1.24-.36-1.6-1.1a4.84 4.84 0 0 1-.4-2.07 7.4 7.4 0 0 1 2.22-5.4c.29-.28.49-.43.59-.43.21 0 .31.1.31.33 0 .09-.12.25-.36.5a7.1 7.1 0 0 0-2.11 5.19 1 1 0 0 0 .07.38 1.69 1.69 0 0 1 1.28-.58 1.55 1.55 0 0 1 1.61 1.6zm-5.85 0a1.52 1.52 0 0 1-1.59 1.57c-.72 0-1.26-.36-1.61-1.1a4.69 4.69 0 0 1-.42-2.07c0-2.11.74-3.91 2.23-5.4.29-.28.5-.43.61-.43.2 0 .3.1.3.33 0 .1-.12.26-.36.5a7.06 7.06 0 0 0-2.13 5.19c0 .16.02.28.07.38l.11-.1c.36-.32.76-.48 1.2-.48.46 0 .84.15 1.14.45.3.3.45.69.45 1.16zm-58.15 64a1.53 1.53 0 0 1-1.61 1.57c-.71 0-1.24-.36-1.6-1.1a4.84 4.84 0 0 1-.4-2.07 7.4 7.4 0 0 1 2.22-5.4c.29-.28.49-.43.59-.43.21 0 .31.1.31.33 0 .09-.12.25-.36.5a7.1 7.1 0 0 0-2.11 5.19 1 1 0 0 0 .07.38 1.69 1.69 0 0 1 1.28-.58 1.55 1.55 0 0 1 1.61 1.6zm-5.85 0a1.52 1.52 0 0 1-1.59 1.57c-.72 0-1.26-.36-1.61-1.1a4.69 4.69 0 0 1-.42-2.07c0-2.11.74-3.91 2.23-5.4.29-.28.5-.43.61-.43.2 0 .3.1.3.33 0 .1-.12.26-.36.5a7.06 7.06 0 0 0-2.13 5.19c0 .16.02.28.07.38l.11-.1c.36-.32.76-.48 1.2-.48.46 0 .84.15 1.14.45.3.3.45.69.45 1.16zm5.85 88a1.53 1.53 0 0 1-1.61 1.57c-.71 0-1.24-.36-1.6-1.1a4.84 4.84 0 0 1-.4-2.07 7.4 7.4 0 0 1 2.22-5.4c.29-.28.49-.43.59-.43.21 0 .31.1.31.33 0 .09-.12.25-.36.5a7.1 7.1 0 0 0-2.11 5.19 1 1 0 0 0 .07.38 1.69 1.69 0 0 1 1.28-.58 1.55 1.55 0 0 1 1.61 1.6zm-5.85 0a1.52 1.52 0 0 1-1.59 1.57c-.72 0-1.26-.36-1.61-1.1a4.69 4.69 0 0 1-.42-2.07c0-2.11.74-3.91 2.23-5.4.29-.28.5-.43.61-.43.2 0 .3.1.3.33 0 .1-.12.26-.36.5a7.06 7.06 0 0 0-2.13 5.19c0 .16.02.28.07.38l.11-.1c.36-.32.76-.48 1.2-.48.46 0 .84.15 1.14.45.3.3.45.69.45 1.16zm5.85-152a1.53 1.53 0 0 1-1.61 1.57c-.71 0-1.24-.36-1.6-1.1a4.84 4.84 0 0 1-.4-2.07 7.4 7.4 0 0 1 2.22-5.4c.29-.28.49-.43.59-.43.21 0 .31.1.31.33 0 .09-.12.25-.36.5a7.1 7.1 0 0 0-2.11 5.19 1 1 0 0 0 .07.38 1.69 1.69 0 0 1 1.28-.58 1.55 1.55 0 0 1 1.61 1.6zm-5.85 0a1.52 1.52 0 0 1-1.59 1.57c-.72 0-1.26-.36-1.61-1.1a4.69 4.69 0 0 1-.42-2.07c0-2.11.74-3.91 2.23-5.4.29-.28.5-.43.61-.43.2 0 .3.1.3.33 0 .1-.12.26-.36.5a7.06 7.06 0 0 0-2.13 5.19c0 .16.02.28.07.38l.11-.1c.36-.32.76-.48 1.2-.48.46 0 .84.15 1.14.45.3.3.45.69.45 1.16zm118.42 59.7c0 2.13-.74 3.93-2.22 5.4-.3.3-.5.44-.61.44-.19 0-.29-.11-.29-.32 0-.1.12-.26.36-.5a7.12 7.12 0 0 0 2.11-5.2.83.83 0 0 0-.07-.37.51.51 0 0 0-.11.1 1.72 1.72 0 0 1-2.34.03c-.3-.3-.45-.7-.45-1.16a1.57 1.57 0 0 1 1.61-1.58c.71 0 1.24.37 1.61 1.1.27.59.4 1.27.4 2.06zm-5.84 0c0 2.1-.75 3.9-2.24 5.4-.29.3-.49.44-.59.44-.21 0-.31-.11-.31-.32 0-.1.12-.25.37-.5a7.05 7.05 0 0 0 2.11-5.2 1 1 0 0 0-.06-.37l-.09.1c-.36.32-.76.48-1.22.48-.46 0-.84-.15-1.14-.45a1.6 1.6 0 0 1-.44-1.16c0-.46.15-.83.44-1.13.3-.3.68-.45 1.14-.45.71 0 1.24.37 1.61 1.1.28.59.42 1.27.42 2.06zm9.89 17.72a7.9 7.9 0 0 1-2.28 5.72c-.31.32-.52.48-.64.48-.2 0-.31-.11-.31-.34 0-.1.07-.21.22-.36a7.98 7.98 0 0 0 2.31-5.5c0-.15-.02-.33-.06-.56-.34.39-.77.59-1.28.59-.46 0-.86-.17-1.2-.51a1.62 1.62 0 0 1-.51-1.2c0-.45.17-.85.51-1.18.34-.33.74-.5 1.2-.5.74 0 1.28.4 1.64 1.19.27.6.4 1.32.4 2.17zm11.38-13.42a1.53 1.53 0 0 1-1.61 1.57c-.71 0-1.24-.36-1.6-1.1a4.84 4.84 0 0 1-.4-2.07 7.4 7.4 0 0 1 2.22-5.4c.29-.28.49-.43.59-.43.21 0 .31.1.31.33 0 .09-.12.25-.36.5a7.1 7.1 0 0 0-2.11 5.19 1 1 0 0 0 .07.38 1.69 1.69 0 0 1 1.28-.58 1.55 1.55 0 0 1 1.61 1.6zm-5.85 0a1.52 1.52 0 0 1-1.59 1.57c-.72 0-1.26-.36-1.61-1.1a4.69 4.69 0 0 1-.42-2.07c0-2.11.74-3.91 2.23-5.4.29-.28.5-.43.61-.43.2 0 .3.1.3.33 0 .1-.12.26-.36.5a7.06 7.06 0 0 0-2.13 5.19c0 .16.02.28.07.38l.11-.1c.36-.32.76-.48 1.2-.48.46 0 .84.15 1.14.45.3.3.45.69.45 1.16zm-9.58 83.7c0 2.13-.74 3.93-2.22 5.4-.3.3-.5.44-.61.44-.19 0-.29-.11-.29-.32 0-.1.12-.26.36-.5a7.12 7.12 0 0 0 2.11-5.2.83.83 0 0 0-.07-.37.51.51 0 0 0-.11.1 1.72 1.72 0 0 1-2.34.03c-.3-.3-.45-.7-.45-1.16a1.57 1.57 0 0 1 1.61-1.58c.71 0 1.24.37 1.61 1.1.27.59.4 1.27.4 2.06zm-5.84 0c0 2.1-.75 3.9-2.24 5.4-.29.3-.49.44-.59.44-.21 0-.31-.11-.31-.32 0-.1.12-.25.37-.5a7.05 7.05 0 0 0 2.11-5.2 1 1 0 0 0-.06-.37l-.09.1c-.36.32-.76.48-1.22.48-.46 0-.84-.15-1.14-.45a1.6 1.6 0 0 1-.44-1.16c0-.46.15-.83.44-1.13.3-.3.68-.45 1.14-.45.71 0 1.24.37 1.61 1.1.28.59.42 1.27.42 2.06zm9.89 17.72a7.9 7.9 0 0 1-2.28 5.72c-.31.32-.52.48-.64.48-.2 0-.31-.11-.31-.34 0-.1.07-.21.22-.36a7.98 7.98 0 0 0 2.31-5.5c0-.15-.02-.33-.06-.56-.34.39-.77.59-1.28.59-.46 0-.86-.17-1.2-.51a1.62 1.62 0 0 1-.51-1.2c0-.45.17-.85.51-1.18.34-.33.74-.5 1.2-.5.74 0 1.28.4 1.64 1.19.27.6.4 1.32.4 2.17zm11.38-13.42a1.53 1.53 0 0 1-1.61 1.57c-.71 0-1.24-.36-1.6-1.1a4.84 4.84 0 0 1-.4-2.07 7.4 7.4 0 0 1 2.22-5.4c.29-.28.49-.43.59-.43.21 0 .31.1.31.33 0 .09-.12.25-.36.5a7.1 7.1 0 0 0-2.11 5.19 1 1 0 0 0 .07.38 1.69 1.69 0 0 1 1.28-.58 1.55 1.55 0 0 1 1.61 1.6zm-5.85 0a1.52 1.52 0 0 1-1.59 1.57c-.72 0-1.26-.36-1.61-1.1a4.69 4.69 0 0 1-.42-2.07c0-2.11.74-3.91 2.23-5.4.29-.28.5-.43.61-.43.2 0 .3.1.3.33 0 .1-.12.26-.36.5a7.06 7.06 0 0 0-2.13 5.19c0 .16.02.28.07.38l.11-.1c.36-.32.76-.48 1.2-.48.46 0 .84.15 1.14.45.3.3.45.69.45 1.16zm-9.58-156.3c0 2.13-.74 3.93-2.22 5.4-.3.3-.5.44-.61.44-.19 0-.29-.11-.29-.32 0-.1.12-.26.36-.5a7.12 7.12 0 0 0 2.11-5.2.83.83 0 0 0-.07-.37.51.51 0 0 0-.11.1 1.72 1.72 0 0 1-2.34.03c-.3-.3-.45-.7-.45-1.16a1.57 1.57 0 0 1 1.61-1.58c.71 0 1.24.37 1.61 1.1.27.59.4 1.27.4 2.06zm-5.84 0c0 2.1-.75 3.9-2.24 5.4-.29.3-.49.44-.59.44-.21 0-.31-.11-.31-.32 0-.1.12-.25.37-.5a7.05 7.05 0 0 0 2.11-5.2 1 1 0 0 0-.06-.37l-.09.1c-.36.32-.76.48-1.22.48-.46 0-.84-.15-1.14-.45a1.6 1.6 0 0 1-.44-1.16c0-.46.15-.83.44-1.13.3-.3.68-.45 1.14-.45.71 0 1.24.37 1.61 1.1.28.59.42 1.27.42 2.06zm9.89 17.72a7.9 7.9 0 0 1-2.28 5.72c-.31.32-.52.48-.64.48-.2 0-.31-.11-.31-.34 0-.1.07-.21.22-.36a7.98 7.98 0 0 0 2.31-5.5c0-.15-.02-.33-.06-.56-.34.39-.77.59-1.28.59-.46 0-.86-.17-1.2-.51a1.62 1.62 0 0 1-.51-1.2c0-.45.17-.85.51-1.18.34-.33.74-.5 1.2-.5.74 0 1.28.4 1.64 1.19.27.6.4 1.32.4 2.17zm11.38-13.42a1.53 1.53 0 0 1-1.61 1.57c-.71 0-1.24-.36-1.6-1.1a4.84 4.84 0 0 1-.4-2.07 7.4 7.4 0 0 1 2.22-5.4c.29-.28.49-.43.59-.43.21 0 .31.1.31.33 0 .09-.12.25-.36.5a7.1 7.1 0 0 0-2.11 5.19 1 1 0 0 0 .07.38 1.69 1.69 0 0 1 1.28-.58 1.55 1.55 0 0 1 1.61 1.6zm-5.85 0a1.52 1.52 0 0 1-1.59 1.57c-.72 0-1.26-.36-1.61-1.1a4.69 4.69 0 0 1-.42-2.07c0-2.11.74-3.91 2.23-5.4.29-.28.5-.43.61-.43.2 0 .3.1.3.33 0 .1-.12.26-.36.5a7.06 7.06 0 0 0-2.13 5.19c0 .16.02.28.07.38l.11-.1c.36-.32.76-.48 1.2-.48.46 0 .84.15 1.14.45.3.3.45.69.45 1.16zm56.86 59.7c0 2.13-.74 3.93-2.22 5.4-.3.3-.5.44-.61.44-.19 0-.29-.11-.29-.32 0-.1.12-.26.36-.5a7.11 7.11 0 0 0 2.1-5.2 1 1 0 0 0-.06-.37.51.51 0 0 0-.11.1 1.72 1.72 0 0 1-2.34.03c-.3-.3-.45-.7-.45-1.16a1.57 1.57 0 0 1 1.61-1.58c.7 0 1.24.37 1.6 1.1.27.59.41 1.27.41 2.06zm-5.84 0c0 2.1-.75 3.9-2.24 5.4-.29.3-.49.44-.59.44-.21 0-.31-.11-.31-.32 0-.1.12-.25.37-.5a7.05 7.05 0 0 0 2.11-5.2 1 1 0 0 0-.06-.37l-.1.1c-.35.32-.76.48-1.21.48-.46 0-.84-.15-1.14-.45a1.6 1.6 0 0 1-.44-1.16c0-.46.15-.83.44-1.13.3-.3.68-.45 1.14-.45.7 0 1.24.37 1.61 1.1.28.59.42 1.27.42 2.06zm5.84 88c0 2.13-.74 3.93-2.22 5.4-.3.3-.5.44-.61.44-.19 0-.29-.11-.29-.32 0-.1.12-.26.36-.5a7.11 7.11 0 0 0 2.1-5.2 1 1 0 0 0-.06-.37.51.51 0 0 0-.11.1 1.72 1.72 0 0 1-2.34.03c-.3-.3-.45-.7-.45-1.16a1.57 1.57 0 0 1 1.61-1.58c.7 0 1.24.37 1.6 1.1.27.59.41 1.27.41 2.06zm-5.84 0c0 2.1-.75 3.9-2.24 5.4-.29.3-.49.44-.59.44-.21 0-.31-.11-.31-.32 0-.1.12-.25.37-.5a7.05 7.05 0 0 0 2.11-5.2 1 1 0 0 0-.06-.37l-.1.1c-.35.32-.76.48-1.21.48-.46 0-.84-.15-1.14-.45a1.6 1.6 0 0 1-.44-1.16c0-.46.15-.83.44-1.13.3-.3.68-.45 1.14-.45.7 0 1.24.37 1.61 1.1.28.59.42 1.27.42 2.06zm5.84-152c0 2.13-.74 3.93-2.22 5.4-.3.3-.5.44-.61.44-.19 0-.29-.11-.29-.32 0-.1.12-.26.36-.5a7.11 7.11 0 0 0 2.1-5.2 1 1 0 0 0-.06-.37.51.51 0 0 0-.11.1 1.72 1.72 0 0 1-2.34.03c-.3-.3-.45-.7-.45-1.16a1.57 1.57 0 0 1 1.61-1.58c.7 0 1.24.37 1.6 1.1.27.59.41 1.27.41 2.06zm-5.84 0c0 2.1-.75 3.9-2.24 5.4-.29.3-.49.44-.59.44-.21 0-.31-.11-.31-.32 0-.1.12-.25.37-.5a7.05 7.05 0 0 0 2.11-5.2 1 1 0 0 0-.06-.37l-.1.1c-.35.32-.76.48-1.21.48-.46 0-.84-.15-1.14-.45a1.6 1.6 0 0 1-.44-1.16c0-.46.15-.83.44-1.13.3-.3.68-.45 1.14-.45.7 0 1.24.37 1.61 1.1.28.59.42 1.27.42 2.06z"/>
  </g>
  <g>
    <path fill="none" stroke="#fff" stroke-linecap="butt" stroke-opacity=".35" stroke-width="8" d="M2496 352v256m32-256v256m32 0V352m-64 256V352m64 0v256m0-256h-64m0 32h64m0 96h-64m0 32h64m0-96h-64m0 32h64m0 96h-64m0 32h64m0 32h-64" transform="matrix(-.125 0 0 .125 492.7 38)"/>
  </g>
  <g>
    <path fill="none" stroke="#fff" stroke-linecap="butt" stroke-opacity=".35" d="M4094.7 2468h-32m32-4h-32m0-4h32m-32 8h32m0-8h-32m32 0v8m-4 0v-8m-12 0v8m-4 0v-8m12 0v8m-4 0v-8m-12 0v8m-4 0v-8m-4 0v8m16-20v32m-4-20v-12h8v12m0-8h-8m0 4h8m-8 16h8m0 4h-8m0-8v12h8v-12" transform="translate(-3838 -2366)"/>
  </g>
  <g>
    <path fill="none" stroke="#fff" stroke-linecap="butt" stroke-opacity=".35" stroke-width="8" d="M2496 352v256m32-256v256m32 0V352m-64 256V352m64 0v256m0-256h-64m0 32h64m0 96h-64m0 32h64m0-96h-64m0 32h64m0 96h-64m0 32h64m0 32h-64" transform="matrix(-.125 0 0 .125 492.7 190)"/>
  </g>
  <g>
    <path fill="none" stroke="#fff" stroke-linecap="butt" stroke-opacity=".35" stroke-width="8" d="M2496 352v256m32-256v256m32 0V352m-64 256V352m64 0v256m0-256h-64m0 32h64m0 96h-64m0 32h64m0-96h-64m0 32h64m0 96h-64m0 32h64m0 32h-64" transform="matrix(0 -.125 -.125 0 172.7 478)"/>
  </g>
  <g>
    <path fill="none" stroke="gray" stroke-opacity=".25" stroke-width="3.92" d="M5067.07 2346.28h273.86v360.16h-273.86z" transform="matrix(1.04213 0 0 .99683 -5278.57 -2336.85)"/>
  </g>
  <g fill="none">
    <path stroke="#000" stroke-linecap="butt" stroke-width="2.11" d="M5078.59 2630.14h250.82" transform="matrix(1.04213 0 0 .83879 -5278.55 -1884.13)"/>
    <path d="M14 322h261.4"/>
  </g>
</svg>
