<?xml version="1.0" encoding="UTF-8" standalone="no"?>
<!DOCTYPE svg PUBLIC "-//W3C//DTD SVG 1.1//EN" "http://www.w3.org/Graphics/SVG/1.1/DTD/svg11.dtd">
<svg xmlns="http://www.w3.org/2000/svg" xmlns:xlink="http://www.w3.org/1999/xlink" fill-rule="evenodd" stroke-miterlimit="1.5" clip-rule="evenodd" viewBox="0 0 532 391">
  <path fill="none" d="M-8227.47-2366.2h32861.26v24204.4H-8227.47z"/>
  <path fill="#fff" stroke="gray" stroke-opacity=".5" stroke-width=".4" d="M264 235.18h212.33v58.27H264z" transform="matrix(2.48668 0 0 6.6413 -654.68 -1560.13)"/>
  <path fill="#f7f7f7" d="M1.8 1.78h528v360H1.8z"/>
  <path fill="#fff" stroke="#000" stroke-width="3.5" d="M287.31 235.18h165.72v55.66H287.31z" transform="matrix(.38619 0 0 .46714 218.85 -92.06)"/>
  <path fill="#fff" stroke="#000" stroke-width="3.43" d="M296.1 235.18h143.2v55.66H296.1z" transform="matrix(.40503 0 0 .46714 100.88 195.94)"/>
  <path fill="#fff" stroke="#000" stroke-width="3.43" d="M308.53 235.18h118.51v55.66H308.53z" transform="matrix(.40503 0 0 .46714 324.84 195.94)"/>
  <path fill="#fff" stroke="#000" stroke-width="3.5" d="M313.2 235.18h113.93v55.66H313.2z" transform="matrix(.38619 0 0 .46714 218.85 99.94)"/>
  <use width="188.52" height="110.2" x="9.23" y="7.25" transform="matrix(.99745 0 0 .9928 0 0)" xlink:href="#_Image1"/>
  <path fill="#fff" stroke="#000" stroke-width="3.43" d="M264 235.18h212.33v55.66H264z" transform="matrix(.40503 0 0 .46714 100.88 3.94)"/>
  <path fill="#fff" stroke="#000" stroke-width="2.29" d="M264 235.18h79.01v38.53H264z" transform="matrix(.40503 0 0 .46714 14.87 -92.06)"/>
  <path fill="#fff" stroke="#000" stroke-width="2.29" d="M264 235.18h79.01v38.53H264z" transform="matrix(.40503 0 0 .46714 14.88 -35.5)"/>
  <path fill="none" stroke="#fefefe" stroke-linejoin="round" stroke-miterlimit="2" d="M480.54 326.64c1.93 0 3.2-1.18 3.43-2.73h-1.34c-.25.96-1.05 1.52-2.1 1.52-1.58 0-2.6-1.31-2.6-3.34 0-1.97 1.04-3.27 2.6-3.27 1.19 0 1.9.73 2.1 1.52h1.34c-.23-1.63-1.62-2.72-3.46-2.72-2.36 0-3.93 1.86-3.93 4.52 0 2.61 1.5 4.5 3.96 4.5zM487.26 321.2c0-1.51.98-2.38 2.3-2.38 1.26 0 2.02.8 2.02 2.18v5.46h1.34v-5.55c0-2.24-1.2-3.3-2.98-3.3-1.37 0-2.15.58-2.56 1.48h-.12v-4.27h-1.34v11.64h1.34v-5.25zM499.04 326.64c1.77 0 3.06-.89 3.47-2.2l-1.3-.37c-.33.91-1.12 1.37-2.17 1.37-1.58 0-2.66-1.02-2.73-2.9h6.34v-.56c0-3.25-1.93-4.36-3.75-4.36-2.36 0-3.93 1.86-3.93 4.54 0 2.68 1.54 4.48 4.07 4.48zm-2.73-5.25c.1-1.36 1.06-2.57 2.59-2.57 1.45 0 2.39 1.1 2.39 2.57h-4.98zM508.24 326.64c1.93 0 3.2-1.18 3.43-2.73h-1.34c-.25.96-1.04 1.52-2.09 1.52-1.6 0-2.61-1.31-2.61-3.34 0-1.97 1.04-3.27 2.61-3.27 1.18 0 1.89.73 2.1 1.52h1.33c-.23-1.63-1.61-2.72-3.45-2.72-2.37 0-3.93 1.86-3.93 4.52 0 2.61 1.5 4.5 3.95 4.5zM513.63 326.46h1.34v-3.27l.93-.87 3.27 4.14h1.7l-3.95-5 3.68-3.73h-1.65l-3.82 3.89h-.16v-6.8h-1.34v11.64z" transform="translate(-136.78 -290.66)"/>
  <path fill-rule="nonzero" d="M343.76 35.98c1.93 0 3.21-1.18 3.44-2.72h-1.35c-.25.96-1.04 1.52-2.1 1.52-1.58 0-2.6-1.31-2.6-3.34 0-1.97 1.04-3.27 2.6-3.27 1.19 0 1.9.72 2.1 1.52h1.35c-.23-1.63-1.62-2.73-3.46-2.73-2.37 0-3.94 1.87-3.94 4.52 0 2.61 1.5 4.5 3.96 4.5zM350.5 30.56c0-1.52.96-2.39 2.28-2.39 1.27 0 2.02.79 2.02 2.18v5.45h1.34v-5.55c0-2.24-1.18-3.3-2.97-3.3-1.38 0-2.16.58-2.56 1.5h-.11v-4.28h-1.35V35.8h1.35v-5.24zM362.25 35.98c1.78 0 3.08-.88 3.5-2.2l-1.3-.36c-.36.91-1.14 1.36-2.2 1.36-1.56 0-2.65-1-2.72-2.88h6.34v-.58c0-3.24-1.92-4.36-3.74-4.36-2.37 0-3.94 1.87-3.94 4.56 0 2.67 1.55 4.46 4.06 4.46zm-2.72-5.25c.1-1.36 1.06-2.56 2.6-2.56 1.45 0 2.38 1.09 2.38 2.56h-4.98zM371.46 35.98c1.94 0 3.22-1.18 3.44-2.72h-1.34c-.26.96-1.04 1.52-2.1 1.52-1.58 0-2.6-1.31-2.6-3.34 0-1.97 1.03-3.27 2.6-3.27 1.18 0 1.89.72 2.1 1.52h1.34c-.22-1.63-1.62-2.73-3.46-2.73-2.36 0-3.93 1.87-3.93 4.52 0 2.61 1.5 4.5 3.95 4.5zM376.86 35.8h1.34v-3.26l.93-.88 3.26 4.14h1.71l-3.96-5 3.7-3.72h-1.67l-3.83 3.88h-.14v-6.79h-1.34V35.8zM76.17 111.87h5.12v-.94h-4.06v-7.79h-1.06v8.73zM85.53 112c1.33 0 2.3-.66 2.61-1.64l-.97-.28c-.26.68-.85 1.02-1.64 1.02-1.18 0-2-.76-2.04-2.16h4.75v-.43c0-2.44-1.44-3.28-2.8-3.28-1.78 0-2.96 1.4-2.96 3.42 0 2 1.16 3.35 3.05 3.35zm-2.04-3.94c.07-1.02.79-1.92 1.94-1.92 1.1 0 1.79.82 1.79 1.92h-3.73zM92.42 114.46c1.57 0 2.83-.72 2.83-2.4v-6.73h-.97v1.03h-.1c-.22-.34-.63-1.13-1.92-1.13-1.65 0-2.8 1.32-2.8 3.33 0 2.05 1.2 3.2 2.8 3.2 1.26 0 1.67-.74 1.9-1.1h.08v1.33c0 1.1-.76 1.58-1.82 1.58-1.19 0-1.6-.62-1.87-.98l-.8.56c.4.69 1.2 1.31 2.67 1.31zm-.04-3.6c-1.26 0-1.9-.95-1.9-2.32 0-1.33.63-2.4 1.9-2.4 1.23 0 1.88.99 1.88 2.4 0 1.46-.66 2.32-1.88 2.32zM99.83 112c1.33 0 2.3-.66 2.62-1.64l-.98-.28c-.26.68-.85 1.02-1.64 1.02-1.18 0-2-.76-2.04-2.16h4.75v-.43c0-2.44-1.44-3.28-2.8-3.28-1.78 0-2.96 1.4-2.96 3.42 0 2 1.17 3.35 3.05 3.35zm-2.04-3.94c.07-1.02.8-1.92 1.94-1.92 1.1 0 1.8.82 1.8 1.92h-3.74zM105.09 107.93c0-1.14.7-1.79 1.67-1.79.92 0 1.5.62 1.5 1.64v4.09h1v-4.17c0-1.66-.9-2.47-2.21-2.47-1 0-1.61.45-1.91 1.12h-.09v-1.02h-.97v6.54h1.01v-3.94zM113.58 112c1.26 0 1.68-.78 1.9-1.14h.12v1h.98v-8.72h-1.01v3.22h-.09c-.22-.34-.6-1.13-1.9-1.13-1.65 0-2.79 1.32-2.79 3.39 0 2.07 1.14 3.38 2.79 3.38zm.13-.9c-1.26 0-1.9-1.1-1.9-2.5 0-1.39.63-2.46 1.9-2.46 1.22 0 1.87.99 1.87 2.45 0 1.5-.66 2.51-1.87 2.51z"/>
  <path fill="none" stroke="#fefefe" stroke-linejoin="round" stroke-miterlimit="2" d="M493.08 319.91h-1.46v-.66c0-.65.27-1 .93-1 .3 0 .46.08.56.11l.3-.87a2.34 2.34 0 0 0-.96-.17c-.94 0-1.84.56-1.84 1.69v.9h-1.06v.85h1.06v5.7h1v-5.7h1.47v-.85zM496.88 326.6c1.77 0 2.97-1.35 2.97-3.38 0-2.05-1.2-3.4-2.97-3.4-1.77 0-2.96 1.35-2.96 3.4 0 2.03 1.19 3.37 2.96 3.37zm0-.9c-1.34 0-1.96-1.17-1.96-2.48s.62-2.49 1.96-2.49c1.35 0 1.96 1.18 1.96 2.49 0 1.31-.61 2.47-1.96 2.47zM504.04 326.6c1.77 0 2.97-1.35 2.97-3.38 0-2.05-1.2-3.4-2.97-3.4-1.77 0-2.96 1.35-2.96 3.4 0 2.03 1.19 3.37 2.96 3.37zm0-.9c-1.35 0-1.96-1.17-1.96-2.48s.62-2.49 1.96-2.49c1.35 0 1.96 1.18 1.96 2.49 0 1.31-.61 2.47-1.96 2.47z" transform="translate(-360.5 -295.79)"/>
  <path fill-rule="nonzero" d="M132.58 24.13h-1.48v-.67c0-.65.28-.99.95-.99.29 0 .46.06.55.1l.3-.87a2.34 2.34 0 0 0-.96-.16c-.93 0-1.83.56-1.83 1.68v.9h-1.06v.86h1.06v5.69h1v-5.69h1.47v-.85zM136.37 30.8c1.78 0 2.97-1.34 2.97-3.37 0-2.04-1.2-3.4-2.97-3.4-1.76 0-2.96 1.36-2.96 3.4 0 2.03 1.2 3.37 2.96 3.37zm0-.9c-1.34 0-1.95-1.16-1.95-2.47 0-1.31.6-2.49 1.95-2.49 1.36 0 1.97 1.18 1.97 2.49 0 1.3-.61 2.47-1.97 2.47zM143.53 30.8c1.78 0 2.97-1.34 2.97-3.37 0-2.04-1.2-3.4-2.97-3.4-1.76 0-2.96 1.36-2.96 3.4 0 2.03 1.2 3.37 2.96 3.37zm0-.9c-1.34 0-1.95-1.16-1.95-2.47 0-1.31.6-2.49 1.95-2.49 1.36 0 1.97 1.18 1.97 2.49 0 1.3-.61 2.47-1.97 2.47z"/>
  <path fill="none" stroke="#fefefe" stroke-linejoin="round" stroke-miterlimit="2" d="M490.15 326.46h.97v-1h.12c.22.35.65 1.13 1.9 1.13 1.65 0 2.79-1.3 2.79-3.39 0-2.06-1.14-3.37-2.8-3.37-1.28 0-1.67.78-1.89 1.12h-.09v-3.22h-1v8.73zm.99-3.27c0-1.47.65-2.46 1.87-2.46 1.28 0 1.91 1.07 1.91 2.45 0 1.4-.65 2.51-1.9 2.51-1.22 0-1.88-1.02-1.88-2.5zM499.39 326.61c1.14 0 1.74-.61 1.94-1.04h.05v.89h1v-4.31c0-2.08-1.58-2.32-2.41-2.32-1 0-2.12.34-2.63 1.53l.96.34c.22-.47.74-.99 1.7-.99.93 0 1.38.5 1.38 1.33v.04c0 .48-.5.44-1.69.6-1.21.15-2.54.42-2.54 1.92 0 1.28 1 2.01 2.24 2.01zm.15-.9c-.8 0-1.38-.36-1.38-1.06 0-.77.7-1 1.48-1.1.43-.06 1.57-.18 1.74-.38v.92c0 .82-.64 1.62-1.84 1.62zM504.23 326.46h1v-4.14c0-.89.7-1.54 1.66-1.54.27 0 .54.05.61.07v-1.02l-.53-.02c-.78 0-1.46.44-1.7 1.1h-.07v-1h-.97v6.55z" transform="translate(-360.5 -238.8)"/>
  <path fill-rule="nonzero" d="M129.64 87.65h.97v-1h.12c.22.35.65 1.13 1.91 1.13 1.63 0 2.79-1.3 2.79-3.38 0-2.06-1.16-3.38-2.8-3.38-1.28 0-1.68.79-1.9 1.12h-.08v-3.21h-1v8.72zm.99-3.27c0-1.47.64-2.45 1.88-2.45 1.27 0 1.9 1.07 1.9 2.45 0 1.4-.64 2.5-1.9 2.5-1.21 0-1.88-1.02-1.88-2.5zM138.88 87.8c1.14 0 1.74-.6 1.94-1.04h.05v.9h1v-4.32c0-2.08-1.57-2.32-2.4-2.32-1 0-2.13.34-2.63 1.53l.95.35c.23-.48.74-1 1.7-1 .93 0 1.38.5 1.38 1.34v.03c0 .48-.5.45-1.68.6-1.21.16-2.54.42-2.54 1.92 0 1.29 1 2.02 2.23 2.02zm.16-.9c-.8 0-1.38-.35-1.38-1.06 0-.76.7-1 1.48-1.1.42-.05 1.56-.17 1.73-.38v.93c0 .81-.65 1.6-1.83 1.6zM143.73 87.65h1v-4.14c0-.89.7-1.53 1.65-1.53.27 0 .55.04.61.07v-1.03l-.53-.02c-.78 0-1.46.45-1.7 1.1h-.06v-.99h-.97v6.54z"/>
  <g>
    <path d="M141.84 66.87l-3.75 7.5-3.75-7.5c1.87 1.88 5.62 1.88 7.5 0z"/>
    <path fill="none" stroke="#000" d="M138.08 60.26v8.1" transform="translate(.01 .01)"/>
  </g>
  <g>
    <path fill="none" stroke="#000" stroke-width=".77" d="M8496 4641v6.44" transform="matrix(1 0 0 1.53247 -8357.93 -7076.38)"/>
  </g>
  <g>
    <path fill="none" stroke="#000" stroke-width="2.98" d="M493.1 242.14H-373" transform="matrix(.1978 0 0 .4312 91.58 -4.61)"/>
  </g>
  <g>
    <path fill-rule="nonzero" d="M135.58 57.94c1.26 0 1.68-.78 1.9-1.14h.12v1h.98v-8.72h-1.01v3.22h-.09c-.22-.34-.6-1.13-1.9-1.13-1.65 0-2.79 1.32-2.79 3.38 0 2.08 1.14 3.39 2.79 3.39zm.13-.9c-1.26 0-1.91-1.1-1.91-2.51 0-1.38.64-2.45 1.9-2.45 1.23 0 1.88.98 1.88 2.45 0 1.49-.66 2.5-1.87 2.5zM143.29 57.94c1.33 0 2.3-.66 2.62-1.65l-.98-.27c-.26.68-.85 1.02-1.64 1.02-1.18 0-2-.76-2.04-2.16H146v-.44c0-2.43-1.44-3.27-2.8-3.27-1.78 0-2.96 1.4-2.96 3.42 0 2 1.17 3.35 3.05 3.35zM141.25 54c.07-1.02.8-1.92 1.94-1.92 1.1 0 1.8.82 1.8 1.92h-3.74zM147.54 60.26h1.01V56.8h.08c.22.36.65 1.14 1.91 1.14 1.63 0 2.77-1.31 2.77-3.39 0-2.06-1.14-3.38-2.8-3.38-1.26 0-1.66.79-1.88 1.13h-.12v-1.04h-.97v9zm.99-5.73c0-1.47.64-2.45 1.87-2.45 1.28 0 1.9 1.07 1.9 2.45 0 1.4-.64 2.5-1.9 2.5-1.21 0-1.87-1.01-1.87-2.5zM157.59 57.94c1.33 0 2.3-.66 2.62-1.65l-.98-.27c-.26.68-.85 1.02-1.64 1.02-1.18 0-2-.76-2.04-2.16h4.75v-.44c0-2.43-1.44-3.27-2.8-3.27-1.78 0-2.96 1.4-2.96 3.42 0 2 1.17 3.35 3.05 3.35zM155.55 54c.07-1.02.8-1.92 1.94-1.92 1.1 0 1.8.82 1.8 1.92h-3.74zM162.85 53.87c0-1.14.7-1.79 1.67-1.79.92 0 1.5.61 1.5 1.63v4.1h1v-4.17c0-1.67-.9-2.47-2.21-2.47-1 0-1.61.44-1.91 1.11h-.08v-1.02h-.98v6.54h1.01v-3.93zM171.34 57.94c1.26 0 1.68-.78 1.9-1.14h.13v1h.97v-8.72h-1.01v3.22h-.08c-.23-.34-.62-1.13-1.9-1.13-1.66 0-2.8 1.32-2.8 3.38 0 2.08 1.14 3.39 2.79 3.39zm.13-.9c-1.26 0-1.9-1.1-1.9-2.51 0-1.38.63-2.45 1.9-2.45 1.22 0 1.87.98 1.87 2.45 0 1.49-.66 2.5-1.87 2.5zM180.95 52.73c-.32-.94-1.02-1.56-2.32-1.56-1.38 0-2.4.79-2.4 1.9 0 .9.53 1.5 1.73 1.78l1.09.27c.66.14.97.46.97.9 0 .57-.59 1.03-1.52 1.03-.83 0-1.35-.35-1.53-1.06l-.94.24c.22 1.12 1.14 1.7 2.48 1.7 1.52 0 2.56-.82 2.56-1.95 0-.91-.58-1.49-1.74-1.78l-.98-.24c-.76-.19-1.12-.44-1.12-.94 0-.57.6-.98 1.4-.98.88 0 1.24.48 1.42.94l.9-.25z"/>
    <g>
      <path d="M186.4 57.81l2.74-6.55c-1.73 1.2-3.55 1.2-5.46 0l2.73 6.55z"/>
    </g>
  </g>
  <g>
    <path fill-rule="nonzero" d="M25.18 36.73c-.31-.94-1.02-1.56-2.32-1.56-1.38 0-2.4.79-2.4 1.9 0 .9.53 1.5 1.73 1.78l1.1.26c.65.15.96.47.96.92 0 .56-.58 1.02-1.52 1.02-.83 0-1.34-.35-1.52-1.06l-.95.24c.23 1.12 1.14 1.7 2.48 1.7 1.53 0 2.56-.82 2.56-1.95 0-.91-.58-1.49-1.74-1.78l-.97-.24c-.77-.19-1.13-.44-1.13-.95 0-.56.6-.97 1.4-.97.88 0 1.24.48 1.42.94l.9-.25zM29.47 41.93c1.45 0 2.41-.88 2.58-2.04h-1c-.2.72-.79 1.14-1.58 1.14-1.19 0-1.95-.98-1.95-2.5 0-1.48.78-2.45 1.95-2.45.89 0 1.42.54 1.57 1.14h1.01c-.17-1.23-1.21-2.05-2.6-2.05-1.77 0-2.94 1.4-2.94 3.4 0 1.95 1.13 3.36 2.96 3.36zM33.52 41.8h1v-4.14c0-.89.7-1.53 1.65-1.53.28 0 .55.04.61.07v-1.03l-.53-.02c-.78 0-1.46.45-1.7 1.1h-.06v-.99h-.97v6.54zM37.98 41.8H39v-6.54h-1v6.54zm.5-7.63a.7.7 0 0 0 .73-.68.7.7 0 0 0-.72-.69.7.7 0 0 0-.71.69c0 .37.32.68.7.68zM40.83 44.26h1V40.8h.1c.2.36.64 1.14 1.9 1.14 1.63 0 2.77-1.3 2.77-3.38 0-2.06-1.14-3.38-2.8-3.38-1.26 0-1.66.79-1.88 1.12h-.12v-1.03h-.97v9zm.99-5.73c0-1.47.64-2.45 1.87-2.45 1.28 0 1.9 1.07 1.9 2.45 0 1.4-.64 2.5-1.9 2.5-1.21 0-1.87-1.02-1.87-2.5zM50.99 35.26h-1.4V33.7h-1v1.57h-1v.85h1v4.08c0 1.16.9 1.7 1.76 1.7.39 0 .63-.08.76-.12l-.2-.9c-.1 0-.23.04-.45.04-.44 0-.88-.13-.88-.98v-3.82h1.4v-.85zM60.23 36.76c0 .17-.06.31-.17.42a.63.63 0 0 1-.43.17c-.27 0-.47-.14-.6-.42-.11-.22-.16-.47-.16-.77 0-.79.28-1.46.84-2.03.1-.1.18-.15.22-.15.08 0 .12.03.12.12 0 .03-.05.1-.14.19-.52.52-.79 1.18-.79 1.94 0 .06 0 .1.03.14 0 0 0-.02.03-.04a.62.62 0 0 1 .45-.18c.16 0 .3.06.43.17.1.12.17.26.17.44zm-2.2 0c0 .17-.05.31-.17.42-.1.11-.25.17-.42.17-.27 0-.48-.14-.6-.42-.12-.22-.17-.47-.17-.77 0-.79.28-1.46.84-2.03.11-.1.18-.15.23-.15.07 0 .11.03.11.12 0 .03-.05.1-.13.19-.53.53-.8 1.18-.8 1.94 0 .06 0 .1.03.14l.04-.04a.66.66 0 0 1 .45-.18c.17 0 .31.06.42.17.12.12.17.26.17.44zM62.87 36.16c.24-.31.52-.55.83-.72.31-.17.66-.25 1.02-.25.84 0 1.45.29 1.85.89.38.59.59 1.41.59 2.48 0 .66-.1 1.25-.3 1.75-.2.52-.5.92-.88 1.2-.38.3-.85.44-1.39.44a2.4 2.4 0 0 1-1-.2 2.03 2.03 0 0 1-.76-.62l-.09.67h-.9v-9.08l1.03-.13v3.57zm1.47 4.95c.55 0 .97-.22 1.26-.64.29-.42.43-1.07.43-1.92 0-.84-.13-1.48-.4-1.9a1.25 1.25 0 0 0-1.12-.63c-.34 0-.64.1-.92.3-.27.19-.51.44-.72.74v3.2a2 2 0 0 0 .65.63c.25.14.53.22.82.22zM73.87 40.39c0 .25.04.44.12.56.09.12.22.2.41.26l-.25.74c-.63-.09-1.02-.39-1.19-.92-.23.3-.52.53-.88.69-.34.14-.73.23-1.15.23-.43 0-.8-.09-1.11-.26-.33-.15-.57-.4-.74-.7-.16-.3-.25-.64-.25-1.05 0-.67.27-1.17.78-1.53a4 4 0 0 1 2.27-.54h.95v-.54c0-.45-.13-.78-.4-.99-.26-.2-.65-.3-1.15-.3-.48 0-1.04.11-1.68.34l-.28-.78a5.9 5.9 0 0 1 2.13-.41c.79 0 1.39.18 1.8.55.42.37.62.89.62 1.54v3.1zm-2.67.76c.3 0 .62-.08.9-.24.3-.16.54-.38.73-.67v-1.67h-.94c-.68 0-1.17.12-1.49.35-.3.23-.45.58-.45 1.01 0 .82.4 1.22 1.25 1.22zM81 35.18a2.6 2.6 0 0 1 .9.14l-.14 2.2h-.85v-1.38h-.06c-.5 0-.93.17-1.27.53-.36.34-.64.88-.87 1.6V41h1.32v.8h-3.36V41h1.01v-4.9h-1v-.79h1.8l.18 1.54c.27-.57.58-.99.94-1.26.36-.28.83-.42 1.4-.42zM86.7 35.14c0 .8-.28 1.48-.84 2.03-.11.1-.18.17-.23.17-.07 0-.1-.04-.1-.12 0-.04.04-.1.12-.2.53-.52.8-1.17.8-1.94 0-.06-.02-.1-.03-.14l-.04.03a.66.66 0 0 1-.44.18c-.18 0-.32-.04-.43-.16a.55.55 0 0 1-.18-.44c0-.16.06-.3.18-.42.1-.12.25-.16.43-.16.26 0 .47.13.6.4.1.22.16.48.16.77zm-2.2 0c0 .8-.28 1.47-.84 2.03-.1.1-.18.17-.22.17-.08 0-.12-.04-.12-.12 0-.04.05-.1.15-.2.53-.52.8-1.17.8-1.94 0-.06-.02-.1-.03-.14l-.04.03a.66.66 0 0 1-.46.18c-.18 0-.32-.04-.43-.16a.59.59 0 0 1-.17-.44c0-.16.06-.3.17-.42.11-.12.25-.16.43-.16.27 0 .46.13.6.4.11.22.16.48.16.77zM92.33 41.8h1.01v-6.54h-1v6.54zm.5-7.63a.7.7 0 0 0 .73-.68.7.7 0 0 0-.72-.69.7.7 0 0 0-.71.69c0 .37.32.68.7.68zM99.81 36.73c-.31-.94-1.02-1.56-2.31-1.56-1.38 0-2.4.79-2.4 1.9 0 .9.52 1.5 1.72 1.78l1.1.26c.66.15.97.47.97.92 0 .56-.59 1.02-1.53 1.02-.82 0-1.34-.35-1.52-1.06l-.95.24c.23 1.12 1.14 1.7 2.49 1.7 1.52 0 2.55-.82 2.55-1.95 0-.91-.57-1.49-1.74-1.78l-.97-.24c-.77-.19-1.13-.44-1.13-.95 0-.56.6-.97 1.4-.97.88 0 1.24.48 1.42.94l.9-.25zM20.55 57.8h1v-4.14c0-.89.7-1.53 1.65-1.53.27 0 .55.04.61.07v-1.03l-.53-.02c-.78 0-1.46.45-1.7 1.1h-.06v-.99h-.97v6.54zM29.13 55.13a1.7 1.7 0 0 1-1.68 1.78c-.84 0-1.43-.6-1.43-1.57v-4.08h-1v4.15c0 1.67.88 2.48 2.1 2.48.99 0 1.64-.53 1.95-1.2h.06v1.11h1v-6.54h-1v3.87zM33 53.87c0-1.14.69-1.8 1.66-1.8.92 0 1.5.62 1.5 1.64v4.1h1v-4.17c0-1.67-.9-2.47-2.21-2.47-1 0-1.61.44-1.91 1.11h-.08v-1.02h-.98v6.54H33v-3.93zM41.87 57.8h1.24l.17-1.02h.11c.17.42.52 1.15 1.7 1.15 1.59 0 2.96-1.27 3.3-3.4.35-2.12-.6-3.36-2.18-3.36-1.21 0-1.78.74-2.08 1.15h-.07l.53-3.24h-1.27l-1.45 8.72zm1.8-3.27c.21-1.37.97-2.27 2.08-2.27 1.16 0 1.56.97 1.36 2.27-.23 1.32-.97 2.31-2.11 2.31-1.1 0-1.56-.93-1.33-2.31zM52.09 57.93c1.42 0 2.54-.7 3-1.76l-1.16-.22c-.33.62-.92.93-1.66.93-1.16 0-1.76-.54-1.54-1.97h4.67l.07-.44c.4-2.37-.86-3.3-2.35-3.3-1.83 0-3.25 1.39-3.59 3.4-.35 2.03.62 3.36 2.56 3.36zm-1.2-3.97c.19-.86 1.06-1.74 2.06-1.74s1.51.73 1.34 1.74h-3.4zM60.54 51.26h-1.41l.1-.59c.1-.58.4-.9 1.01-.9.27 0 .44.06.56.1l.46-1.03a2.95 2.95 0 0 0-1.03-.17c-1.04 0-2.05.6-2.24 1.82l-.12.77h-1.02l-.17 1.02h1l-.92 5.52h1.29l.91-5.52h1.43l.15-1.02zM63.3 57.93c1.81 0 3.22-1.32 3.55-3.32.33-2.06-.66-3.44-2.53-3.44-1.82 0-3.23 1.33-3.54 3.33-.34 2.05.65 3.43 2.52 3.43zm.07-1.06c-1.17 0-1.53-1.04-1.34-2.26.2-1.28.98-2.38 2.22-2.38 1.16 0 1.53 1.05 1.34 2.27-.21 1.29-1 2.37-2.22 2.37zM67.74 57.8h1.28l.66-4c.15-.85.9-1.47 1.8-1.47.27 0 .57.05.67.07l.2-1.21a3.7 3.7 0 0 0-.54-.04c-.77 0-1.5.45-1.85 1.14h-.07l.17-1.03h-1.22l-1.1 6.54zM74.94 57.93c1.43 0 2.54-.7 3.01-1.76l-1.16-.22c-.34.62-.93.93-1.67.93-1.15 0-1.75-.54-1.54-1.97h4.67l.07-.44c.4-2.37-.86-3.3-2.35-3.3-1.82 0-3.25 1.39-3.59 3.4-.34 2.03.63 3.36 2.56 3.36zm-1.19-3.97c.18-.86 1.06-1.74 2.05-1.74 1 0 1.52.73 1.35 1.74h-3.4zM84.66 57.8h1l1.42-5.03h.11l1.43 5.03h.98l2-6.54h-1.06l-1.42 5h-.06l-1.38-5H86.6l-1.39 5h-.07l-1.42-5h-1.05l2 6.54zM95.45 57.93c1.33 0 2.3-.66 2.62-1.64l-.98-.28c-.26.69-.85 1.02-1.64 1.02-1.18 0-2-.75-2.04-2.16h4.75v-.43c0-2.43-1.44-3.27-2.8-3.27-1.78 0-2.96 1.4-2.96 3.42 0 2 1.17 3.34 3.05 3.34zM93.41 54c.07-1.02.8-1.92 1.94-1.92 1.1 0 1.8.81 1.8 1.92H93.4zM20.55 73.8h1v-4.14c0-.89.7-1.53 1.65-1.53.27 0 .55.04.61.07v-1.03l-.53-.02c-.78 0-1.46.45-1.7 1.1h-.06v-.99h-.97v6.54zM29.13 71.13a1.7 1.7 0 0 1-1.68 1.78c-.84 0-1.43-.6-1.43-1.57v-4.08h-1v4.15c0 1.67.88 2.48 2.1 2.48.99 0 1.64-.53 1.95-1.2h.06v1.11h1v-6.54h-1v3.87zM33 69.87c0-1.14.69-1.8 1.66-1.8.92 0 1.5.62 1.5 1.64v4.1h1v-4.17c0-1.67-.9-2.47-2.21-2.47-1 0-1.61.44-1.91 1.11h-.08v-1.02h-.98v6.54H33v-3.93zM47.01 68.73c-.3-.94-1.02-1.56-2.31-1.56-1.38 0-2.4.79-2.4 1.9 0 .9.53 1.5 1.73 1.78l1.09.26c.66.15.97.47.97.92 0 .56-.59 1.02-1.52 1.02-.83 0-1.35-.35-1.53-1.06l-.95.24c.23 1.12 1.14 1.7 2.49 1.7 1.52 0 2.55-.82 2.55-1.95 0-.91-.57-1.49-1.74-1.78l-.97-.24c-.77-.19-1.13-.44-1.13-.95 0-.56.6-.97 1.4-.97.88 0 1.24.48 1.42.94l.9-.25zM51.3 73.93c1.46 0 2.42-.88 2.59-2.04h-1.01c-.2.72-.78 1.14-1.57 1.14-1.2 0-1.96-.98-1.96-2.5 0-1.48.78-2.45 1.96-2.45.88 0 1.41.54 1.57 1.14h1c-.16-1.23-1.2-2.05-2.59-2.05-1.77 0-2.95 1.4-2.95 3.4 0 1.95 1.13 3.36 2.97 3.36zM55.35 73.8h1.01v-4.14c0-.89.7-1.53 1.65-1.53.27 0 .55.04.6.07v-1.03l-.52-.02c-.78 0-1.46.45-1.7 1.1h-.06v-.99h-.98v6.54zM59.82 73.8h1v-6.54h-1v6.54zm.5-7.63a.7.7 0 0 0 .72-.68.7.7 0 0 0-.72-.69.7.7 0 0 0-.7.69c0 .37.32.68.7.68zM62.67 76.26h1V72.8h.09c.21.36.65 1.14 1.9 1.14 1.64 0 2.78-1.3 2.78-3.38 0-2.06-1.14-3.38-2.8-3.38-1.27 0-1.67.79-1.88 1.12h-.12v-1.03h-.97v9zm.98-5.73c0-1.47.65-2.45 1.87-2.45 1.29 0 1.91 1.07 1.91 2.45 0 1.4-.65 2.5-1.9 2.5-1.22 0-1.88-1.02-1.88-2.5zM72.82 67.26h-1.4V65.7h-1v1.57h-1v.85h1v4.08c0 1.16.91 1.7 1.77 1.7.38 0 .62-.08.75-.12l-.2-.9c-.09 0-.23.04-.45.04-.44 0-.87-.13-.87-.98v-3.82h1.4v-.85zM82.06 68.76c0 .17-.06.31-.17.42a.63.63 0 0 1-.43.17c-.26 0-.47-.14-.6-.42-.1-.22-.15-.47-.15-.77 0-.79.27-1.46.84-2.03.1-.1.18-.15.21-.15.09 0 .12.03.12.12 0 .03-.05.1-.13.19-.53.52-.8 1.18-.8 1.94 0 .06 0 .1.03.14l.04-.04a.62.62 0 0 1 .44-.18c.17 0 .31.06.43.17.11.12.17.26.17.44zm-2.2 0c0 .17-.04.31-.16.42-.11.11-.25.17-.42.17-.28 0-.48-.14-.61-.42-.11-.22-.16-.47-.16-.77 0-.79.28-1.46.84-2.03.1-.1.18-.15.23-.15.07 0 .1.03.1.12 0 .03-.04.1-.13.19-.52.53-.79 1.18-.79 1.94 0 .06 0 .1.03.14 0 0 0-.02.03-.04a.66.66 0 0 1 .46-.18c.17 0 .31.06.42.17.12.12.17.26.17.44zM87.5 64.59a4.4 4.4 0 0 1 1.76.34l-.33.77c-.4-.18-.87-.26-1.39-.26-.91 0-1.37.35-1.37 1.07v1.32h2.2l-.1.81h-2.1v5.16h-1.03v-5.16H83.6v-.81h1.55v-1.3c0-.38.11-.73.31-1.02.2-.3.48-.53.84-.68a2.8 2.8 0 0 1 1.22-.24zM93.53 67.19c.6 0 1.1.13 1.52.4.42.28.73.67.94 1.17.2.5.32 1.1.32 1.8 0 .66-.11 1.26-.33 1.77-.21.5-.53.9-.95 1.18a2.6 2.6 0 0 1-1.5.44 2.51 2.51 0 0 1-2.47-1.6c-.23-.5-.33-1.1-.33-1.78 0-.67.1-1.27.32-1.77s.54-.9.96-1.19a2.7 2.7 0 0 1 1.52-.42zm0 .84c-.56 0-.98.2-1.27.62-.29.42-.42 1.06-.42 1.92 0 .86.13 1.48.42 1.9.28.42.7.62 1.26.62.57 0 .99-.2 1.26-.62.28-.42.42-1.06.42-1.9 0-.86-.14-1.5-.42-1.92-.27-.42-.7-.62-1.25-.62zM100.92 67.19c.6 0 1.1.13 1.51.4.42.28.73.67.95 1.17.2.5.31 1.1.31 1.8 0 .66-.1 1.26-.32 1.77-.22.5-.53.9-.95 1.18a2.6 2.6 0 0 1-1.51.44 2.51 2.51 0 0 1-2.47-1.6c-.22-.5-.33-1.1-.33-1.78 0-.67.11-1.27.33-1.77.21-.5.54-.9.96-1.19a2.7 2.7 0 0 1 1.52-.42zm0 .84c-.56 0-.98.2-1.27.62-.29.42-.42 1.06-.42 1.92 0 .86.13 1.48.42 1.9.27.42.7.62 1.26.62s.98-.2 1.26-.62c.27-.42.42-1.06.42-1.9 0-.86-.15-1.5-.42-1.92-.28-.42-.7-.62-1.25-.62zM108.53 67.14c0 .8-.27 1.48-.84 2.03-.1.1-.18.17-.23.17-.07 0-.1-.04-.1-.12 0-.04.04-.1.13-.2.53-.52.79-1.17.79-1.94l-.02-.14-.04.03a.66.66 0 0 1-.44.18c-.18 0-.33-.04-.44-.16a.55.55 0 0 1-.18-.44c0-.16.06-.3.18-.42.11-.12.26-.16.44-.16.26 0 .46.13.6.4.1.22.15.48.15.77zm-2.2 0c0 .8-.27 1.47-.83 2.03-.11.1-.18.17-.22.17-.08 0-.12-.04-.12-.12 0-.04.05-.1.14-.2.53-.52.8-1.17.8-1.94 0-.06-.02-.1-.03-.14l-.03.03a.66.66 0 0 1-.46.18c-.18 0-.32-.04-.43-.16a.59.59 0 0 1-.17-.44c0-.16.06-.3.17-.42.1-.12.25-.16.43-.16.26 0 .46.13.6.4.1.22.16.48.16.77z"/>
  </g>
  <g>
    <path fill="none" stroke="#000" stroke-width="1.93" d="M493.1 242.14H-373" transform="matrix(.59116 0 0 .4312 230.3 257.4)"/>
  </g>
  <g>
    <path fill="none" stroke="#fefefe" stroke-linejoin="round" stroke-miterlimit="2" d="M488.84 317.73h-1.86v-2.09h-1.34v2.1h-1.32v1.13h1.32v5.45c0 1.52 1.23 2.25 2.36 2.25.5 0 .82-.09 1-.16l-.27-1.2c-.12.02-.3.07-.6.07-.58 0-1.15-.19-1.15-1.32v-5.1h1.86v-1.13zM494.43 326.64c1.78 0 3.07-.89 3.48-2.2l-1.3-.37c-.34.91-1.13 1.37-2.18 1.37-1.57 0-2.66-1.02-2.72-2.9h6.34v-.56c0-3.25-1.94-4.36-3.75-4.36-2.37 0-3.94 1.86-3.94 4.54 0 2.68 1.55 4.48 4.07 4.48zm-2.72-5.25c.1-1.36 1.05-2.57 2.59-2.57 1.45 0 2.38 1.1 2.38 2.57h-4.97zM506.27 319.69c-.42-1.24-1.36-2.07-3.09-2.07-1.84 0-3.2 1.04-3.2 2.52 0 1.2.71 2.01 2.32 2.39l1.45.34c.88.2 1.3.62 1.3 1.22 0 .75-.8 1.37-2.05 1.37-1.1 0-1.78-.47-2.02-1.41l-1.27.32c.3 1.48 1.53 2.27 3.31 2.27 2.03 0 3.41-1.1 3.41-2.61 0-1.22-.76-1.99-2.31-2.37l-1.3-.32c-1.03-.25-1.5-.6-1.5-1.27 0-.75.8-1.3 1.86-1.3 1.17 0 1.66.65 1.89 1.26l1.2-.34zM512.25 317.73h-1.86v-2.09h-1.34v2.1h-1.32v1.13h1.32v5.45c0 1.52 1.22 2.25 2.36 2.25.5 0 .82-.09 1-.16l-.27-1.2c-.12.02-.3.07-.6.07-.58 0-1.15-.19-1.15-1.32v-5.1h1.86v-1.13z" transform="translate(-136.52 -98.65)"/>
    <path fill-rule="nonzero" d="M352.33 219.09h-1.88v-2.1h-1.32v2.1h-1.33v1.13h1.33v5.44c0 1.54 1.21 2.26 2.35 2.26.51 0 .83-.1 1-.16l-.27-1.2c-.1.01-.3.06-.59.06-.59 0-1.17-.17-1.17-1.31v-5.09h1.88v-1.13zM357.9 227.98c1.79 0 3.08-.88 3.5-2.19l-1.3-.37c-.35.91-1.13 1.36-2.2 1.36-1.56 0-2.65-1-2.71-2.88h6.34v-.57c0-3.25-1.92-4.37-3.75-4.37-2.37 0-3.93 1.87-3.93 4.56 0 2.67 1.55 4.46 4.06 4.46zm-2.71-5.25c.1-1.36 1.06-2.56 2.6-2.56 1.45 0 2.38 1.1 2.38 2.56h-4.98zM369.76 221.04c-.42-1.25-1.36-2.08-3.1-2.08-1.83 0-3.2 1.05-3.2 2.53 0 1.2.71 2.01 2.31 2.38l1.46.35c.88.2 1.3.63 1.3 1.22 0 .75-.8 1.36-2.04 1.36-1.1 0-1.8-.47-2.03-1.41l-1.26.32c.3 1.49 1.52 2.27 3.3 2.27 2.04 0 3.42-1.1 3.42-2.6 0-1.22-.77-1.99-2.32-2.37l-1.3-.32c-1.02-.26-1.5-.6-1.5-1.27 0-.75.8-1.3 1.87-1.3 1.17 0 1.65.65 1.89 1.25l1.2-.33zM375.74 219.09h-1.88v-2.1h-1.32v2.1h-1.33v1.13h1.33v5.44c0 1.54 1.21 2.26 2.35 2.26.5 0 .83-.1 1-.16l-.27-1.2c-.1.01-.3.06-.59.06-.6 0-1.17-.17-1.17-1.31v-5.09h1.88v-1.13z"/>
  </g>
  <g>
    <path fill="#fff" stroke="#000" stroke-width="3.43" d="M298.57 235.18h138.26v55.66H298.57z" transform="matrix(.40503 0 0 .46714 -11.12 195.94)"/>
    <path fill="#fff" stroke="#000" stroke-width="3.43" d="M317 235.18h97v55.66h-97z" transform="matrix(.40503 0 0 .46714 213.76 195.94)"/>
    <path fill="none" stroke="#fefefe" stroke-linejoin="round" stroke-miterlimit="2" d="M482.99 326.64c1.93 0 3.2-1.18 3.43-2.73h-1.34c-.25.96-1.04 1.52-2.09 1.52-1.6 0-2.61-1.31-2.61-3.34 0-1.97 1.04-3.27 2.61-3.27 1.18 0 1.89.73 2.1 1.52h1.33c-.23-1.63-1.61-2.72-3.45-2.72-2.37 0-3.93 1.86-3.93 4.52 0 2.61 1.5 4.5 3.95 4.5zM488.38 314.82h1.34v11.64h-1.34zM495.83 326.64c1.77 0 3.07-.89 3.48-2.2l-1.3-.37c-.34.91-1.13 1.37-2.18 1.37-1.57 0-2.66-1.02-2.72-2.9h6.33v-.56c0-3.25-1.93-4.36-3.75-4.36-2.36 0-3.93 1.86-3.93 4.54 0 2.68 1.55 4.48 4.07 4.48zm-2.72-5.25c.1-1.36 1.05-2.57 2.58-2.57 1.46 0 2.4 1.1 2.4 2.57h-4.98zM504.06 326.66c1.52 0 2.32-.82 2.59-1.38h.07v1.18h1.34v-5.75c0-2.77-2.12-3.1-3.23-3.1-1.32 0-2.82.46-3.5 2.05l1.27.46c.3-.64 1-1.32 2.28-1.32 1.23 0 1.84.65 1.84 1.77v.05c0 .64-.66.59-2.25.8-1.62.2-3.39.56-3.39 2.56 0 1.7 1.32 2.68 2.98 2.68zm.2-1.2c-1.06 0-1.84-.48-1.84-1.41 0-1.02.93-1.34 1.98-1.48.57-.07 2.09-.23 2.32-.5v1.23c0 1.09-.87 2.16-2.46 2.16zM511.85 321.2c0-1.51.95-2.38 2.23-2.38 1.25 0 2 .81 2 2.18v5.46h1.34v-5.55c0-2.23-1.18-3.3-2.95-3.3-1.32 0-2.14.6-2.55 1.48h-.11v-1.36h-1.3v8.73h1.34v-5.25z" transform="translate(-360.24 -2.66)"/>
    <path fill-rule="nonzero" d="M122.75 323.98c1.94 0 3.22-1.18 3.44-2.72h-1.34c-.26.96-1.04 1.52-2.1 1.52-1.58 0-2.6-1.31-2.6-3.34 0-1.97 1.03-3.27 2.6-3.27 1.18 0 1.89.72 2.1 1.52h1.34c-.22-1.63-1.62-2.73-3.46-2.73-2.36 0-3.93 1.87-3.93 4.52 0 2.61 1.5 4.5 3.95 4.5zM128.2 312.12h1.27v11.68h-1.28zM135.59 323.98c1.78 0 3.07-.88 3.49-2.2l-1.3-.36c-.35.91-1.13 1.36-2.19 1.36-1.57 0-2.66-1-2.72-2.88h6.34v-.58c0-3.24-1.92-4.36-3.75-4.36-2.37 0-3.93 1.87-3.93 4.56 0 2.67 1.55 4.46 4.06 4.46zm-2.72-5.25c.1-1.36 1.06-2.56 2.6-2.56 1.45 0 2.38 1.09 2.38 2.56h-4.98zM143.82 324.01c1.52 0 2.32-.81 2.6-1.39h.06v1.18h1.34v-5.74c0-2.78-2.11-3.1-3.22-3.1-1.32 0-2.83.46-3.5 2.04l1.26.47c.3-.64 1-1.33 2.28-1.33 1.23 0 1.84.66 1.84 1.78v.04c0 .64-.66.6-2.24.8-1.62.21-3.4.56-3.4 2.56 0 1.72 1.33 2.7 2.98 2.7zm.2-1.21c-1.06 0-1.83-.47-1.83-1.41 0-1.01.93-1.33 1.98-1.47.56-.07 2.08-.23 2.3-.5v1.23c0 1.09-.86 2.15-2.44 2.15zM151.63 318.56c0-1.52.92-2.39 2.22-2.39 1.23 0 2 .82 2 2.18v5.45h1.34v-5.55c0-2.22-1.2-3.3-2.96-3.3-1.32 0-2.14.6-2.54 1.5h-.11v-1.37h-1.3v8.72h1.35v-5.24z"/>
  </g>
  <g>
    <path fill="#fff" stroke="#000" stroke-width="3.5" d="M285.86 235.18h170.9v55.66h-170.9z" transform="matrix(.38619 0 0 .46714 106.4 99.94)"/>
    <path fill="none" stroke="#fefefe" stroke-linejoin="round" stroke-miterlimit="2" d="M473.79 326.46h1.34v-5.52c0-1.19.93-2.05 2.2-2.05.36 0 .73.07.82.1v-1.37l-.7-.03c-1.05 0-1.96.6-2.28 1.46h-.09v-1.32h-1.3v8.73zM483.13 326.64c1.77 0 3.06-.89 3.47-2.2l-1.3-.37c-.33.91-1.12 1.37-2.17 1.37-1.58 0-2.66-1.02-2.73-2.9h6.34v-.56c0-3.25-1.93-4.36-3.75-4.36-2.36 0-3.93 1.86-3.93 4.54 0 2.68 1.54 4.48 4.07 4.48zm-2.73-5.25c.1-1.36 1.06-2.57 2.59-2.57 1.45 0 2.39 1.1 2.39 2.57h-4.98zM488.97 326.46h1.3v-1.34h.15c.3.47.87 1.52 2.55 1.52 2.18 0 3.7-1.75 3.7-4.52 0-2.75-1.52-4.5-3.73-4.5-1.7 0-2.22 1.04-2.52 1.5h-.11v-4.3h-1.34v11.64zm1.32-4.37c0-1.95.86-3.27 2.5-3.27 1.7 0 2.54 1.43 2.54 3.27 0 1.87-.86 3.35-2.54 3.35-1.62 0-2.5-1.37-2.5-3.35zM504.22 322.89a2.27 2.27 0 0 1-2.25 2.39c-1.12 0-1.91-.82-1.91-2.1v-5.45h-1.34v5.55c0 2.22 1.18 3.3 2.82 3.3 1.31 0 2.18-.71 2.59-1.6h.09v1.48h1.34v-8.73h-1.34v5.16zM508.01 326.46h1.34v-8.73h-1.34v8.73zm.69-10.18c.52 0 .95-.41.95-.91s-.43-.91-.95-.91c-.53 0-.96.4-.96.9s.43.92.95.92zM511.81 314.82h1.34v11.64h-1.34zM518.9 326.64c1.68 0 2.25-1.05 2.55-1.52h.15v1.34h1.3v-11.64h-1.34v4.3h-.11c-.3-.46-.82-1.5-2.53-1.5-2.2 0-3.72 1.75-3.72 4.5 0 2.77 1.52 4.52 3.7 4.52zm.18-1.2c-1.68 0-2.54-1.48-2.54-3.35 0-1.84.84-3.27 2.54-3.27 1.64 0 2.5 1.32 2.5 3.27 0 1.98-.88 3.35-2.5 3.35z" transform="translate(-248.99 -98.65)"/>
    <path fill-rule="nonzero" d="M224.8 227.8h1.35v-5.52c0-1.18.93-2.04 2.2-2.04.36 0 .73.06.8.1v-1.38l-.7-.02c-1.04 0-1.95.6-2.27 1.46h-.08v-1.32h-1.3v8.72zM234.14 227.98c1.77 0 3.07-.88 3.48-2.2l-1.3-.36c-.34.91-1.13 1.36-2.18 1.36-1.57 0-2.66-1-2.72-2.88h6.33v-.58c0-3.24-1.92-4.36-3.74-4.36-2.37 0-3.94 1.87-3.94 4.56 0 2.67 1.55 4.46 4.07 4.46zm-2.72-5.25c.1-1.36 1.05-2.56 2.59-2.56 1.45 0 2.38 1.09 2.38 2.56h-4.97zM239.98 227.8h1.3v-1.34h.16c.29.48.86 1.52 2.54 1.52 2.18 0 3.71-1.74 3.71-4.51 0-2.75-1.53-4.51-3.72-4.51-1.72 0-2.24 1.05-2.53 1.5h-.11v-4.29h-1.35v11.63zm1.31-4.36c0-1.96.87-3.27 2.52-3.27 1.7 0 2.54 1.43 2.54 3.27 0 1.87-.86 3.34-2.54 3.34-1.62 0-2.52-1.36-2.52-3.34zM255.23 224.24a2.26 2.26 0 0 1-2.24 2.38c-1.12 0-1.9-.82-1.9-2.1v-5.44h-1.35v5.54c0 2.22 1.18 3.3 2.81 3.3 1.32 0 2.18-.7 2.6-1.59h.08v1.47h1.34v-8.72h-1.34v5.16zM259.03 227.8h1.35v-8.72h-1.35v8.72zm.68-10.17c.52 0 .96-.42.96-.91 0-.5-.44-.92-.96-.92a.94.94 0 0 0-.95.92c0 .5.43.9.95.9zM262.88 216.12h1.28v11.68h-1.28zM269.92 227.98c1.68 0 2.24-1.04 2.54-1.52h.16v1.34h1.3v-11.63h-1.34v4.29h-.12c-.3-.45-.81-1.5-2.52-1.5-2.21 0-3.73 1.76-3.73 4.5 0 2.78 1.52 4.52 3.71 4.52zm.18-1.2c-1.68 0-2.55-1.47-2.55-3.34 0-1.84.85-3.27 2.55-3.27 1.63 0 2.5 1.31 2.5 3.27 0 1.98-.89 3.34-2.5 3.34z"/>
  </g>
  <g>
    <path fill="#fff" stroke="#000" stroke-width="3.5" d="M264 235.18h212.33v55.66H264z" transform="matrix(.38619 0 0 .46714 330.85 3.94)"/>
    <path fill="none" stroke="#fefefe" stroke-linejoin="round" stroke-miterlimit="2" d="M465.77 326.46h1.34v-5.52c0-1.19.93-2.05 2.2-2.05.36 0 .73.07.82.1v-1.37l-.7-.03c-1.05 0-1.95.6-2.27 1.46h-.1v-1.32h-1.29v8.73zM477.23 322.89a2.27 2.27 0 0 1-2.25 2.39c-1.12 0-1.91-.82-1.91-2.1v-5.45h-1.34v5.55c0 2.22 1.18 3.3 2.81 3.3 1.32 0 2.19-.71 2.6-1.6h.09v1.48h1.34v-8.73h-1.34v5.16zM482.36 321.2c0-1.51.94-2.38 2.23-2.38 1.24 0 2 .81 2 2.18v5.46h1.34v-5.55c0-2.23-1.19-3.3-2.95-3.3-1.32 0-2.14.6-2.55 1.48h-.11v-1.36h-1.3v8.73h1.34v-5.25zM491.42 320.21c.62 0 1.13-.5 1.13-1.13 0-.62-.51-1.13-1.13-1.13a1.14 1.14 0 1 0 0 2.27zm0 6.36c.62 0 1.13-.51 1.13-1.14 0-.62-.51-1.13-1.13-1.13-.63 0-1.14.51-1.14 1.13 0 .63.51 1.14 1.14 1.14zM496.73 321.2c0-1.51.95-2.38 2.23-2.38 1.25 0 2 .81 2 2.18v5.46h1.34v-5.55c0-2.23-1.19-3.3-2.95-3.3-1.32 0-2.14.6-2.55 1.48h-.11v-1.36h-1.3v8.73h1.34v-5.25zM508.3 326.64c2.37 0 3.96-1.8 3.96-4.5 0-2.73-1.6-4.52-3.96-4.52s-3.95 1.8-3.95 4.52c0 2.7 1.59 4.5 3.95 4.5zm0-1.2c-1.8 0-2.61-1.55-2.61-3.3 0-1.75.82-3.32 2.61-3.32 1.8 0 2.62 1.57 2.62 3.32 0 1.75-.82 3.3-2.62 3.3zM517.6 326.64c1.68 0 2.25-1.05 2.54-1.52h.16v1.34h1.3v-11.64h-1.34v4.3h-.12c-.3-.46-.82-1.5-2.52-1.5-2.2 0-3.73 1.75-3.73 4.5 0 2.77 1.52 4.52 3.7 4.52zm.18-1.2c-1.68 0-2.55-1.48-2.55-3.35 0-1.84.84-3.27 2.55-3.27 1.63 0 2.5 1.32 2.5 3.27 0 1.98-.89 3.35-2.5 3.35zM527.9 326.64c1.76 0 3.06-.89 3.47-2.2l-1.3-.37c-.34.91-1.13 1.37-2.18 1.37-1.57 0-2.66-1.02-2.72-2.9h6.34v-.56c0-3.25-1.94-4.36-3.75-4.36-2.37 0-3.94 1.86-3.94 4.54 0 2.68 1.55 4.48 4.07 4.48zm-2.73-5.25c.1-1.36 1.05-2.57 2.59-2.57 1.45 0 2.38 1.1 2.38 2.57h-4.97z" transform="translate(-24.73 -194.65)"/>
    <path fill-rule="nonzero" d="M441.05 131.8h1.34v-5.52c0-1.18.93-2.04 2.2-2.04.36 0 .73.06.81.1v-1.38l-.7-.02c-1.04 0-1.95.6-2.27 1.46h-.08v-1.32h-1.3v8.72zM452.5 128.24a2.26 2.26 0 0 1-2.25 2.38c-1.12 0-1.9-.82-1.9-2.1v-5.44H447v5.54c0 2.22 1.19 3.3 2.82 3.3 1.31 0 2.18-.7 2.6-1.59h.07v1.47h1.35v-8.72h-1.35v5.16zM457.64 126.56c0-1.52.93-2.39 2.23-2.39 1.23 0 2 .82 2 2.18v5.45h1.34v-5.55c0-2.22-1.2-3.3-2.96-3.3-1.33 0-2.14.6-2.54 1.5h-.11v-1.37h-1.3v8.72h1.34v-5.24zM466.69 125.56c.62 0 1.13-.5 1.13-1.13 0-.63-.5-1.14-1.13-1.14a1.14 1.14 0 0 0 0 2.27zm0 6.36a1.14 1.14 0 0 0 0-2.27c-.63 0-1.14.5-1.14 1.13 0 .62.51 1.14 1.14 1.14zM472.02 126.56c0-1.52.92-2.39 2.22-2.39 1.23 0 2 .82 2 2.18v5.45h1.34v-5.55c0-2.22-1.2-3.3-2.96-3.3-1.32 0-2.14.6-2.54 1.5h-.11v-1.37h-1.3v8.72h1.35v-5.24zM483.57 131.98c2.37 0 3.95-1.8 3.95-4.5 0-2.72-1.58-4.52-3.95-4.52-2.35 0-3.95 1.8-3.95 4.52 0 2.7 1.6 4.5 3.95 4.5zm0-1.2c-1.8 0-2.6-1.55-2.6-3.3 0-1.74.8-3.3 2.6-3.3s2.63 1.56 2.63 3.3c0 1.75-.82 3.3-2.63 3.3zM492.88 131.98c1.68 0 2.24-1.04 2.54-1.52h.16v1.34h1.3v-11.63h-1.35v4.29h-.11c-.3-.45-.82-1.5-2.53-1.5-2.2 0-3.73 1.76-3.73 4.5 0 2.78 1.52 4.52 3.72 4.52zm.17-1.2c-1.68 0-2.54-1.47-2.54-3.34 0-1.84.85-3.27 2.54-3.27 1.63 0 2.5 1.31 2.5 3.27 0 1.98-.88 3.34-2.5 3.34zM503.16 131.98c1.78 0 3.07-.88 3.49-2.2l-1.3-.36c-.35.91-1.13 1.36-2.19 1.36-1.57 0-2.66-1-2.72-2.88h6.34v-.58c0-3.24-1.92-4.36-3.75-4.36-2.37 0-3.93 1.87-3.93 4.56 0 2.67 1.55 4.46 4.06 4.46zm-2.72-5.25c.1-1.36 1.06-2.56 2.6-2.56 1.45 0 2.38 1.09 2.38 2.56h-4.98z"/>
  </g>
  <g>
    <path fill="#fff" stroke="#000" stroke-width="3.5" d="M313.2 235.18h113.93v55.66H313.2z" transform="matrix(.38619 0 0 .46714 218.85 3.94)"/>
    <path fill="none" stroke="#fefefe" stroke-linejoin="round" stroke-miterlimit="2" d="M487.35 326.46h1.34v-5.52c0-1.19.94-2.05 2.2-2.05.37 0 .74.07.83.1v-1.37l-.7-.03c-1.05 0-1.96.6-2.28 1.46h-.1v-1.32h-1.29v8.73zM498.8 322.89a2.27 2.27 0 0 1-2.24 2.39c-1.12 0-1.91-.82-1.91-2.1v-5.45h-1.34v5.55c0 2.22 1.18 3.3 2.82 3.3 1.31 0 2.18-.71 2.59-1.6h.09v1.48h1.34v-8.73h-1.34v5.16zM503.94 321.2c0-1.51.95-2.38 2.23-2.38 1.25 0 2 .81 2 2.18v5.46h1.34v-5.55c0-2.23-1.18-3.3-2.95-3.3-1.32 0-2.14.6-2.55 1.48h-.11v-1.36h-1.3v8.73h1.34v-5.25z" transform="translate(-136.73 -194.65)"/>
    <path fill-rule="nonzero" d="M350.63 131.8h1.34v-5.52c0-1.18.93-2.04 2.2-2.04.36 0 .73.06.81.1v-1.38l-.7-.02c-1.04 0-1.95.6-2.27 1.46h-.08v-1.32h-1.3v8.72zM362.07 128.24a2.26 2.26 0 0 1-2.24 2.38c-1.12 0-1.9-.82-1.9-2.1v-5.44h-1.35v5.54c0 2.22 1.19 3.3 2.82 3.3 1.31 0 2.18-.7 2.6-1.59h.07v1.47h1.35v-8.72h-1.35v5.16zM367.23 126.56c0-1.52.92-2.39 2.22-2.39 1.23 0 2 .82 2 2.18v5.45h1.34v-5.55c0-2.22-1.2-3.3-2.96-3.3-1.32 0-2.14.6-2.54 1.5h-.11v-1.37h-1.3v8.72h1.35v-5.24z"/>
  </g>
  <g>
    <path fill="none" stroke="#fefefe" stroke-linejoin="round" stroke-miterlimit="2" d="M464.19 326.46h1.3v-1.34h.15c.3.47.87 1.52 2.55 1.52 2.18 0 3.7-1.75 3.7-4.52 0-2.75-1.52-4.5-3.72-4.5-1.7 0-2.23 1.04-2.53 1.5h-.1v-4.3h-1.35v11.64zm1.32-4.37c0-1.95.86-3.27 2.5-3.27 1.7 0 2.54 1.43 2.54 3.27 0 1.87-.86 3.35-2.54 3.35-1.62 0-2.5-1.37-2.5-3.35zM479.44 322.89a2.27 2.27 0 0 1-2.25 2.39c-1.11 0-1.9-.82-1.9-2.1v-5.45h-1.35v5.55c0 2.22 1.18 3.3 2.82 3.3 1.32 0 2.18-.71 2.59-1.6h.09v1.48h1.34v-8.73h-1.34v5.16zM483.24 326.46h1.34v-8.73h-1.34v8.73zm.68-10.18c.52 0 .95-.41.95-.91s-.43-.91-.95-.91c-.53 0-.96.4-.96.9s.43.92.96.92zM487.03 314.82h1.34v11.64h-1.34zM494.12 326.64c1.68 0 2.25-1.05 2.55-1.52h.16v1.34h1.3v-11.64h-1.35v4.3h-.11c-.3-.46-.82-1.5-2.53-1.5-2.2 0-3.72 1.75-3.72 4.5 0 2.77 1.52 4.52 3.7 4.52zm.18-1.2c-1.68 0-2.54-1.48-2.54-3.35 0-1.84.84-3.27 2.54-3.27 1.64 0 2.5 1.32 2.5 3.27 0 1.98-.88 3.35-2.5 3.35zM502.11 320.21c.62 0 1.14-.5 1.14-1.13a1.14 1.14 0 0 0-2.27 0c0 .63.5 1.13 1.13 1.13zm0 6.36c.62 0 1.14-.51 1.14-1.14a1.14 1.14 0 0 0-2.27 0c0 .63.5 1.14 1.13 1.14zM509.88 317.73h-1.86v-2.09h-1.34v2.1h-1.32v1.13h1.32v5.45c0 1.52 1.22 2.25 2.36 2.25.5 0 .82-.09 1-.16l-.27-1.2c-.12.02-.3.07-.6.07-.58 0-1.15-.19-1.15-1.32v-5.1h1.86v-1.13zM515.47 326.64c1.77 0 3.07-.89 3.48-2.2l-1.3-.37c-.34.91-1.13 1.37-2.18 1.37-1.57 0-2.66-1.02-2.72-2.9h6.34v-.56c0-3.25-1.94-4.36-3.75-4.36-2.37 0-3.94 1.86-3.94 4.54 0 2.68 1.55 4.48 4.07 4.48zm-2.72-5.25c.1-1.36 1.05-2.57 2.59-2.57 1.45 0 2.38 1.1 2.38 2.57h-4.97zM527.31 319.69c-.42-1.24-1.36-2.07-3.09-2.07-1.84 0-3.2 1.04-3.2 2.52 0 1.2.71 2.01 2.32 2.39l1.45.34c.88.2 1.3.62 1.3 1.22 0 .75-.8 1.37-2.05 1.37-1.1 0-1.78-.47-2.02-1.41l-1.27.32c.3 1.48 1.53 2.27 3.31 2.27 2.03 0 3.41-1.1 3.41-2.61 0-1.22-.76-1.99-2.32-2.37l-1.3-.32c-1.02-.25-1.5-.6-1.5-1.27 0-.75.8-1.3 1.87-1.3 1.17 0 1.66.65 1.89 1.26l1.2-.34zM533.3 317.73h-1.87v-2.09h-1.34v2.1h-1.32v1.13h1.32v5.45c0 1.52 1.22 2.25 2.36 2.25.5 0 .82-.09 1-.16l-.27-1.2c-.12.02-.3.07-.6.07-.59 0-1.15-.19-1.15-1.32v-5.1h1.86v-1.13z" transform="translate(-248.39 -194.65)"/>
    <path fill-rule="nonzero" d="M215.8 131.8h1.3v-1.34h.16c.29.48.86 1.52 2.54 1.52 2.18 0 3.72-1.74 3.72-4.51 0-2.75-1.54-4.51-3.73-4.51-1.71 0-2.24 1.05-2.53 1.5h-.11v-4.29h-1.35v11.63zm1.32-4.36c0-1.96.86-3.27 2.5-3.27 1.7 0 2.55 1.43 2.55 3.27 0 1.87-.86 3.34-2.54 3.34-1.62 0-2.51-1.36-2.51-3.34zM231.05 128.24a2.26 2.26 0 0 1-2.24 2.38c-1.12 0-1.9-.82-1.9-2.1v-5.44h-1.35v5.54c0 2.22 1.18 3.3 2.82 3.3 1.3 0 2.17-.7 2.59-1.59h.08v1.47h1.34v-8.72h-1.34v5.16zM234.86 131.8h1.34v-8.72h-1.34v8.72zm.67-10.17c.53 0 .96-.42.96-.91 0-.5-.43-.92-.96-.92a.94.94 0 0 0-.95.92c0 .5.44.9.95.9zM238.7 120.12h1.28v11.68h-1.28zM245.74 131.98c1.68 0 2.24-1.04 2.55-1.52h.16v1.34h1.3v-11.63h-1.35v4.29h-.11c-.3-.45-.82-1.5-2.53-1.5-2.2 0-3.73 1.76-3.73 4.5 0 2.78 1.52 4.52 3.71 4.52zm.18-1.2c-1.68 0-2.55-1.47-2.55-3.34 0-1.84.85-3.27 2.55-3.27 1.63 0 2.5 1.31 2.5 3.27 0 1.98-.89 3.34-2.5 3.34zM253.72 125.56c.63 0 1.14-.5 1.14-1.13a1.14 1.14 0 0 0-2.27 0c0 .62.5 1.13 1.13 1.13zm0 6.36a1.14 1.14 0 0 0 0-2.27c-.62 0-1.13.5-1.13 1.13 0 .62.5 1.14 1.13 1.14zM261.5 123.08h-1.87v-2.1h-1.33v2.1h-1.33v1.14h1.33v5.44c0 1.54 1.21 2.26 2.35 2.26.51 0 .83-.1 1-.16l-.26-1.2c-.12.01-.3.06-.6.06-.59 0-1.16-.18-1.16-1.31v-5.09h1.87v-1.14zM267.08 131.98c1.78 0 3.07-.88 3.49-2.2l-1.3-.36c-.35.91-1.13 1.36-2.19 1.36-1.57 0-2.65-1-2.72-2.88h6.34v-.58c0-3.24-1.92-4.36-3.75-4.36-2.36 0-3.93 1.87-3.93 4.56 0 2.67 1.55 4.46 4.06 4.46zm-2.72-5.25c.1-1.36 1.06-2.56 2.6-2.56 1.45 0 2.38 1.09 2.38 2.56h-4.98zM278.93 125.04c-.42-1.25-1.36-2.08-3.09-2.08-1.84 0-3.2 1.05-3.2 2.52 0 1.2.7 2.02 2.3 2.39l1.46.35c.88.2 1.3.62 1.3 1.22 0 .75-.79 1.36-2.04 1.36-1.1 0-1.79-.47-2.03-1.41l-1.26.32c.3 1.49 1.52 2.27 3.31 2.27 2.03 0 3.4-1.1 3.4-2.6 0-1.22-.76-2-2.31-2.38l-1.3-.32c-1.02-.25-1.5-.59-1.5-1.26 0-.75.8-1.3 1.87-1.3 1.17 0 1.65.64 1.89 1.25l1.2-.33zM284.9 123.08h-1.86v-2.1h-1.33v2.1h-1.33v1.14h1.33v5.44c0 1.54 1.21 2.26 2.35 2.26.51 0 .83-.1 1-.16l-.26-1.2c-.12.01-.3.06-.6.06-.59 0-1.16-.18-1.16-1.31v-5.09h1.87v-1.14z"/>
  </g>
  <g>
    <path fill="none" stroke="#fefefe" stroke-linejoin="round" stroke-miterlimit="2" d="M477.68 326.46h1.34v-8.73h-1.34v8.73zm.69-10.18c.52 0 .95-.41.95-.91s-.43-.91-.95-.91c-.53 0-.96.4-.96.9s.43.92.95.92zM482.82 321.2c0-1.51.94-2.38 2.23-2.38 1.24 0 2 .81 2 2.18v5.46h1.34v-5.55c0-2.23-1.19-3.3-2.96-3.3-1.31 0-2.13.6-2.54 1.48h-.12v-1.36h-1.3v8.73h1.35v-5.25zM497.02 319.69c-.42-1.24-1.36-2.07-3.09-2.07-1.84 0-3.2 1.04-3.2 2.52 0 1.2.71 2.01 2.32 2.39l1.45.34c.88.2 1.3.62 1.3 1.22 0 .75-.8 1.37-2.05 1.37-1.1 0-1.78-.47-2.02-1.41l-1.27.32c.3 1.48 1.53 2.27 3.31 2.27 2.03 0 3.41-1.1 3.41-2.61 0-1.22-.76-1.99-2.31-2.37l-1.3-.32c-1.03-.25-1.5-.6-1.5-1.27 0-.75.8-1.3 1.86-1.3 1.17 0 1.66.65 1.89 1.26l1.2-.34zM503 317.73h-1.86v-2.09h-1.34v2.1h-1.32v1.13h1.32v5.45c0 1.52 1.22 2.25 2.36 2.25.5 0 .82-.09 1-.16l-.27-1.2c-.12.02-.3.07-.6.07-.58 0-1.15-.19-1.15-1.32v-5.1H503v-1.13zM507.6 326.66c1.51 0 2.31-.82 2.58-1.38h.07v1.18h1.34v-5.75c0-2.77-2.11-3.1-3.22-3.1-1.32 0-2.82.46-3.5 2.05l1.27.46c.3-.64 1-1.32 2.27-1.32 1.23 0 1.84.65 1.84 1.77v.05c0 .64-.66.59-2.25.8-1.62.2-3.38.56-3.38 2.56 0 1.7 1.31 2.68 2.97 2.68zm.2-1.2c-1.07 0-1.84-.48-1.84-1.41 0-1.02.93-1.34 1.97-1.48.57-.07 2.1-.23 2.32-.5v1.23c0 1.09-.86 2.16-2.45 2.16zM514.05 314.82h1.34v11.64h-1.34zM517.84 314.82h1.34v11.64h-1.34z" transform="translate(-248.61 -2.65)"/>
    <path fill-rule="nonzero" d="M229.08 323.8h1.34v-8.71h-1.34v8.72zm.67-10.17c.53 0 .96-.41.96-.91s-.43-.91-.96-.91a.94.94 0 0 0-.94.91c0 .5.43.91.94.91zM234.22 318.56c0-1.52.93-2.38 2.22-2.38 1.24 0 2 .81 2 2.17v5.46h1.35v-5.55c0-2.23-1.2-3.3-2.96-3.3-1.33 0-2.15.6-2.55 1.49h-.1v-1.36h-1.3v8.72h1.34v-5.25zM248.41 317.04c-.41-1.25-1.36-2.08-3.08-2.08-1.84 0-3.2 1.06-3.2 2.53 0 1.2.7 2.01 2.3 2.38l1.46.35c.88.2 1.3.63 1.3 1.22 0 .75-.8 1.36-2.04 1.36-1.1 0-1.8-.46-2.03-1.4l-1.27.31c.3 1.49 1.52 2.27 3.32 2.27 2.03 0 3.4-1.1 3.4-2.6 0-1.22-.76-1.99-2.32-2.37l-1.3-.32c-1.02-.26-1.5-.6-1.5-1.27 0-.75.8-1.3 1.88-1.3 1.16 0 1.64.65 1.88 1.26l1.2-.34zM254.4 315.09h-1.88v-2.1h-1.33v2.1h-1.32v1.13h1.32v5.44c0 1.54 1.22 2.26 2.36 2.26.5 0 .83-.1 1-.16l-.27-1.2c-.1.02-.3.06-.59.06-.6 0-1.17-.17-1.17-1.3v-5.1h1.87v-1.13zM258.98 324.02c1.52 0 2.32-.82 2.6-1.4h.06v1.19h1.34v-5.75c0-2.78-2.11-3.1-3.22-3.1-1.32 0-2.83.46-3.5 2.05l1.26.46c.3-.64 1-1.33 2.28-1.33 1.23 0 1.84.66 1.84 1.78v.05c0 .64-.66.59-2.24.8-1.62.2-3.4.56-3.4 2.56 0 1.71 1.33 2.69 2.98 2.69zm.2-1.22c-1.06 0-1.83-.46-1.83-1.4 0-1.02.93-1.34 1.98-1.48.56-.06 2.08-.22 2.3-.5v1.24c0 1.08-.86 2.14-2.44 2.14zM265.5 312.13h1.27v11.68h-1.28zM269.29 312.13h1.28v11.68h-1.28z"/>
  </g>
  <g>
    <path fill="none" stroke="#fefefe" stroke-linejoin="round" stroke-miterlimit="2" d="M360.38 317.56c2.1 0 3.15 1.52 3.15 4.55 0 .9-.13 1.69-.38 2.38a3.54 3.54 0 0 1-1.14 1.6c-.5.4-1.1.59-1.82.59-.91 0-1.64-.32-2.2-.96v4.07l-1.84.2v-12.2h1.6l.12 1.12c.32-.44.7-.78 1.13-1 .43-.23.89-.35 1.38-.35zm-.51 1.42c-.38 0-.73.12-1.05.34-.31.23-.59.53-.83.9v4.05c.43.65 1 .97 1.71.97.63 0 1.1-.25 1.42-.75.32-.51.48-1.3.48-2.37 0-1.1-.14-1.9-.43-2.39a1.4 1.4 0 0 0-1.3-.75zM372.62 324.33c0 .34.05.58.15.74.1.16.27.28.5.35l-.4 1.25a2.58 2.58 0 0 1-1.12-.36c-.3-.2-.53-.47-.68-.84-.31.4-.71.7-1.2.9a3.98 3.98 0 0 1-3.08-.03 2.37 2.37 0 0 1-.99-.94c-.23-.4-.34-.88-.34-1.41 0-.92.35-1.62 1.07-2.11.71-.5 1.73-.74 3.05-.74h1.23v-.56c0-.55-.16-.95-.49-1.2-.33-.25-.8-.38-1.43-.38-.3 0-.66.04-1.06.11-.4.08-.82.2-1.25.34l-.45-1.3a9.53 9.53 0 0 1 3.04-.59c1.14 0 2 .25 2.58.76.58.5.87 1.22.87 2.15v3.86zm-3.76 1a2.38 2.38 0 0 0 1.95-1.12v-1.92h-1.01c-.84 0-1.45.14-1.84.41-.38.28-.58.68-.58 1.2 0 .47.13.82.38 1.06.25.25.61.37 1.1.37zM380.02 325.17c.38 0 .75-.07 1.1-.2.34-.13.69-.31 1.03-.56l.86 1.19a4.78 4.78 0 0 1-5.3.53 3.64 3.64 0 0 1-1.46-1.59 5.33 5.33 0 0 1-.5-2.37c0-.89.17-1.68.5-2.38.34-.69.83-1.24 1.48-1.63.64-.4 1.4-.6 2.26-.6 1.16 0 2.17.35 3 1.05l-.84 1.15c-.7-.48-1.4-.72-2.12-.72-.72 0-1.29.26-1.7.78-.42.52-.63 1.3-.63 2.35 0 1.03.2 1.79.62 2.27.42.49.98.73 1.7.73zM385.75 314.31l1.83-.2v12.35h-1.83V314.3zm5.43 3.48h2.14l-3.5 3.88 3.87 4.79h-2.25l-3.72-4.75 3.46-3.92zM402.16 324.33c0 .34.05.58.15.74.1.16.27.28.5.35l-.4 1.25a2.57 2.57 0 0 1-1.12-.36c-.3-.2-.53-.47-.68-.84-.31.4-.71.7-1.2.9a3.98 3.98 0 0 1-3.08-.03 2.37 2.37 0 0 1-1-.94 2.8 2.8 0 0 1-.34-1.41c0-.92.36-1.62 1.07-2.11.72-.5 1.74-.74 3.05-.74h1.24v-.56c0-.55-.16-.95-.49-1.2-.33-.25-.8-.38-1.44-.38-.3 0-.65.04-1.05.11-.4.08-.82.2-1.25.34l-.45-1.3a9.55 9.55 0 0 1 3.03-.59c1.15 0 2 .25 2.59.76.58.5.87 1.22.87 2.15v3.86zm-3.76 1a2.38 2.38 0 0 0 1.95-1.12v-1.92h-1.02c-.83 0-1.44.14-1.83.41-.38.28-.58.68-.58 1.2 0 .47.13.82.38 1.06.25.25.61.37 1.1.37zM413.17 318.22c-.32.1-.69.18-1.09.23-.4.04-.88.06-1.43.06.53.23.92.53 1.18.89.26.36.39.8.39 1.3 0 .57-.14 1.08-.42 1.52a2.8 2.8 0 0 1-1.18 1.04c-.52.25-1.12.38-1.82.38-.47 0-.86-.05-1.19-.14a.85.85 0 0 0-.28.3.83.83 0 0 0-.1.41c0 .2.08.36.24.48.15.11.44.17.84.17h1.51a4 4 0 0 1 1.63.31c.48.21.85.5 1.12.87.28.37.41.78.41 1.23 0 .58-.17 1.07-.5 1.47-.33.41-.83.72-1.47.93-.65.22-1.44.32-2.36.32-.98 0-1.75-.1-2.3-.3a2.2 2.2 0 0 1-1.21-.88 2.82 2.82 0 0 1-.36-1.5h1.65c0 .33.06.59.19.78.12.2.34.33.67.43.32.09.78.14 1.37.14.88 0 1.51-.11 1.9-.32.38-.22.57-.53.57-.95a.9.9 0 0 0-.45-.8 2.3 2.3 0 0 0-1.24-.3h-1.48c-.53 0-.97-.07-1.32-.22a1.75 1.75 0 0 1-.8-.6 1.44 1.44 0 0 1-.25-.84c0-.3.08-.58.25-.86.16-.27.4-.5.72-.7-.52-.28-.9-.6-1.14-1a2.7 2.7 0 0 1-.36-1.43 2.84 2.84 0 0 1 1.74-2.68 4.38 4.38 0 0 1 1.88-.39c.66 0 1.22-.03 1.69-.1a6.36 6.36 0 0 0 2.3-.78l.5 1.53zm-4.47.61c-.57 0-1 .17-1.31.49-.3.32-.46.76-.46 1.3 0 .56.16 1 .46 1.33.3.32.75.49 1.33.49.54 0 .96-.16 1.24-.48.3-.32.44-.77.44-1.35 0-1.18-.57-1.78-1.7-1.78zM416.75 322.72c.05.84.3 1.48.72 1.9.43.42.98.63 1.65.63.4 0 .8-.06 1.15-.19a5.1 5.1 0 0 0 1.12-.56l.8 1.1a5.16 5.16 0 0 1-3.16 1.08 4.3 4.3 0 0 1-2.27-.57 3.62 3.62 0 0 1-1.43-1.6 5.51 5.51 0 0 1-.48-2.38c0-.87.16-1.65.48-2.34a3.7 3.7 0 0 1 3.47-2.23 3.4 3.4 0 0 1 3.28 2.02c.3.65.46 1.42.46 2.32 0 .3-.02.57-.04.82h-5.75zm2.07-3.8c-.6 0-1.08.22-1.44.64a3.16 3.16 0 0 0-.63 1.9h4a3.15 3.15 0 0 0-.52-1.88c-.33-.44-.8-.65-1.4-.65zM426.94 325.09a1.56 1.56 0 0 1 1.59-1.59 1.58 1.58 0 0 1 1.38 2.39 1.6 1.6 0 0 1-2.18.58 1.56 1.56 0 0 1-.79-1.38zM437.9 313.55c.35 0 .64.11.87.33.22.22.34.5.34.82 0 .33-.12.61-.34.83-.23.22-.52.34-.87.34-.36 0-.64-.12-.87-.34-.22-.22-.33-.5-.33-.83 0-.33.11-.6.34-.82.22-.22.5-.33.86-.33zm1.44 11.09c0 1.05-.22 1.94-.67 2.65a4.7 4.7 0 0 1-1.92 1.72c-.84.43-1.9.75-3.18.98l-.3-1.4c.92-.18 1.69-.42 2.3-.7a3.4 3.4 0 0 0 1.43-1.2c.33-.51.5-1.15.5-1.93v-5.62h-3.43v-1.35h5.26v6.85zM446.32 325.27c.58 0 1.04-.1 1.37-.3.34-.22.5-.5.5-.86 0-.25-.04-.46-.14-.61-.1-.16-.3-.31-.6-.45s-.74-.29-1.34-.44a7.89 7.89 0 0 1-1.55-.55c-.4-.2-.73-.47-.95-.8a2.08 2.08 0 0 1-.35-1.21c0-.5.15-.93.43-1.3.28-.38.68-.67 1.2-.88.53-.2 1.14-.3 1.84-.3a5.4 5.4 0 0 1 3.29 1l-.77 1.15a4.14 4.14 0 0 0-2.47-.76c-1.1 0-1.64.32-1.64.96 0 .22.06.4.19.54.12.14.34.27.64.39s.76.27 1.37.44a8.1 8.1 0 0 1 1.54.57c.4.21.7.48.93.82.22.34.33.78.33 1.3 0 .6-.17 1.1-.52 1.51-.35.4-.82.7-1.4.9-.57.2-1.2.29-1.9.29a5.8 5.8 0 0 1-2.03-.33 4.9 4.9 0 0 1-1.53-.9l.97-1.1a4.07 4.07 0 0 0 2.59.92zM456.48 317.56a3.49 3.49 0 0 1 3.45 2.14c.3.68.46 1.49.46 2.4 0 .93-.15 1.73-.46 2.42-.3.68-.75 1.22-1.34 1.6-.58.37-1.29.56-2.11.56-.84 0-1.54-.18-2.13-.55a3.46 3.46 0 0 1-1.33-1.58c-.3-.68-.46-1.49-.46-2.42 0-.9.15-1.7.46-2.4.3-.68.75-1.22 1.34-1.6.6-.38 1.3-.57 2.12-.57zm0 1.43c-.66 0-1.16.26-1.5.77-.33.51-.49 1.3-.49 2.37 0 1.06.16 1.85.5 2.36.32.51.82.77 1.49.77.66 0 1.16-.26 1.49-.77.33-.5.5-1.3.5-2.38 0-1.06-.17-1.85-.5-2.36-.33-.5-.83-.76-1.49-.76zM462.86 326.46v-8.67h1.58l.14 1.13a3.7 3.7 0 0 1 2.8-1.36c.8 0 1.4.23 1.8.67.42.45.62 1.08.62 1.91v6.32h-1.84v-5.4c0-.55-.03-.96-.1-1.25-.06-.29-.18-.5-.35-.64-.18-.13-.44-.2-.79-.2-.39 0-.76.12-1.1.36-.36.24-.66.54-.92.9v6.23h-1.84zM483.15 319.69c-.42-1.24-1.36-2.07-3.09-2.07-1.84 0-3.2 1.04-3.2 2.52 0 1.2.71 2.01 2.32 2.39l1.45.34c.88.2 1.3.62 1.3 1.22 0 .75-.8 1.37-2.05 1.37-1.1 0-1.78-.47-2.02-1.41l-1.28.32c.32 1.48 1.54 2.27 3.32 2.27 2.03 0 3.41-1.1 3.41-2.61 0-1.22-.76-1.99-2.31-2.37l-1.3-.32c-1.03-.25-1.5-.6-1.5-1.27 0-.75.8-1.3 1.86-1.3 1.17 0 1.66.65 1.89 1.26l1.2-.34zM488.88 326.64c1.93 0 3.2-1.18 3.43-2.73h-1.34c-.25.96-1.04 1.52-2.09 1.52-1.59 0-2.61-1.31-2.61-3.34 0-1.97 1.04-3.27 2.61-3.27 1.18 0 1.89.73 2.1 1.52h1.33c-.23-1.63-1.61-2.72-3.45-2.72-2.37 0-3.93 1.86-3.93 4.52 0 2.61 1.5 4.5 3.95 4.5zM494.27 326.46h1.34v-5.52c0-1.19.93-2.05 2.2-2.05.36 0 .73.07.82.1v-1.37l-.7-.03c-1.05 0-1.96.6-2.28 1.46h-.09v-1.32h-1.3v8.73zM500.22 326.46h1.34v-8.73h-1.34v8.73zm.68-10.18c.53 0 .96-.41.96-.91s-.43-.91-.96-.91c-.52 0-.95.4-.95.9s.43.92.95.92zM504.02 329.73h1.34v-4.61h.11c.3.47.86 1.52 2.55 1.52 2.18 0 3.7-1.75 3.7-4.52 0-2.75-1.52-4.5-3.73-4.5-1.7 0-2.22 1.04-2.52 1.5h-.16v-1.39h-1.3v12zm1.31-7.64c0-1.95.87-3.27 2.5-3.27 1.71 0 2.55 1.43 2.55 3.27 0 1.87-.86 3.35-2.55 3.35-1.6 0-2.5-1.37-2.5-3.35zM517.56 317.73h-1.86v-2.09h-1.34v2.1h-1.32v1.13h1.32v5.45c0 1.52 1.23 2.25 2.36 2.25.5 0 .82-.09 1-.16l-.27-1.2c-.12.02-.3.07-.6.07-.58 0-1.15-.19-1.15-1.32v-5.1h1.86v-1.13zM525.6 319.69c-.41-1.24-1.36-2.07-3.08-2.07-1.84 0-3.2 1.04-3.2 2.52 0 1.2.7 2.01 2.31 2.39l1.46.34c.88.2 1.3.62 1.3 1.22 0 .75-.8 1.37-2.05 1.37-1.1 0-1.79-.47-2.03-1.41l-1.27.32c.31 1.48 1.53 2.27 3.32 2.27 2.03 0 3.4-1.1 3.4-2.61 0-1.22-.75-1.99-2.31-2.37l-1.3-.32c-1.03-.25-1.5-.6-1.5-1.27 0-.75.8-1.3 1.87-1.3 1.17 0 1.65.65 1.88 1.26l1.2-.34zM528.77 326.55a1.03 1.03 0 0 0 0-2.05 1.03 1.03 0 0 0 0 2.05zm0-6.48c.56 0 1.02-.46 1.02-1.02s-.46-1.02-1.02-1.02a1.03 1.03 0 0 0 0 2.04zM540 326.64c1.68 0 2.25-1.05 2.54-1.52h.16v1.34h1.3v-11.64h-1.35v4.3h-.11c-.3-.46-.82-1.5-2.52-1.5-2.2 0-3.73 1.75-3.73 4.5 0 2.77 1.52 4.52 3.7 4.52zm.18-1.2c-1.68 0-2.55-1.48-2.55-3.35 0-1.84.84-3.27 2.55-3.27 1.63 0 2.5 1.32 2.5 3.27 0 1.98-.89 3.35-2.5 3.35zM550.29 326.64c1.77 0 3.07-.89 3.48-2.2l-1.3-.37c-.34.91-1.13 1.37-2.18 1.37-1.57 0-2.66-1.02-2.72-2.9h6.33v-.56c0-3.25-1.93-4.36-3.75-4.36-2.36 0-3.93 1.86-3.93 4.54 0 2.68 1.55 4.48 4.07 4.48zm-2.72-5.25c.09-1.36 1.05-2.57 2.58-2.57 1.46 0 2.39 1.1 2.39 2.57h-4.97zM555.95 329.73h1.34v-4.61h.11c.3.47.87 1.52 2.55 1.52 2.18 0 3.7-1.75 3.7-4.52 0-2.75-1.52-4.5-3.72-4.5-1.7 0-2.23 1.04-2.53 1.5h-.15v-1.39h-1.3v12zm1.32-7.64c0-1.95.86-3.27 2.5-3.27 1.7 0 2.54 1.43 2.54 3.27 0 1.87-.86 3.35-2.54 3.35-1.62 0-2.5-1.37-2.5-3.35zM569.36 326.64c1.77 0 3.07-.89 3.48-2.2l-1.3-.37c-.34.91-1.13 1.37-2.18 1.37-1.58 0-2.66-1.02-2.72-2.9h6.33v-.56c0-3.25-1.93-4.36-3.75-4.36-2.36 0-3.93 1.86-3.93 4.54 0 2.68 1.55 4.48 4.07 4.48zm-2.72-5.25c.09-1.36 1.05-2.57 2.58-2.57 1.46 0 2.39 1.1 2.39 2.57h-4.97zM576.36 321.2c0-1.51.94-2.38 2.23-2.38 1.24 0 2 .81 2 2.18v5.46h1.34v-5.55c0-2.23-1.2-3.3-2.96-3.3-1.32 0-2.13.6-2.54 1.48h-.12v-1.36h-1.3v8.73h1.35v-5.25zM587.68 326.64c1.68 0 2.25-1.05 2.54-1.52h.16v1.34h1.3v-11.64h-1.34v4.3h-.12c-.3-.46-.82-1.5-2.52-1.5-2.2 0-3.73 1.75-3.73 4.5 0 2.77 1.52 4.52 3.7 4.52zm.18-1.2c-1.68 0-2.55-1.48-2.55-3.35 0-1.84.84-3.27 2.55-3.27 1.63 0 2.5 1.32 2.5 3.27 0 1.98-.89 3.35-2.5 3.35zM597.97 326.64c1.77 0 3.07-.89 3.48-2.2l-1.3-.37c-.34.91-1.13 1.37-2.18 1.37-1.57 0-2.66-1.02-2.72-2.9h6.34v-.56c0-3.25-1.94-4.36-3.75-4.36-2.37 0-3.94 1.86-3.94 4.54 0 2.68 1.55 4.48 4.07 4.48zm-2.72-5.25c.1-1.36 1.05-2.57 2.59-2.57 1.45 0 2.38 1.1 2.38 2.57h-4.97zM604.97 321.2c0-1.51.94-2.38 2.23-2.38 1.24 0 2 .81 2 2.18v5.46h1.34v-5.55c0-2.23-1.19-3.3-2.95-3.3-1.32 0-2.14.6-2.55 1.48h-.11v-1.36h-1.3v8.73h1.34v-5.25zM616.54 326.64c1.93 0 3.2-1.18 3.43-2.73h-1.34c-.25.96-1.04 1.52-2.09 1.52-1.6 0-2.61-1.31-2.61-3.34 0-1.97 1.04-3.27 2.61-3.27 1.18 0 1.89.73 2.1 1.52h1.33c-.23-1.63-1.61-2.72-3.45-2.72-2.37 0-3.93 1.86-3.93 4.52 0 2.61 1.5 4.5 3.95 4.5zM621.93 326.46h1.34v-8.73h-1.34v8.73zm.68-10.18c.52 0 .95-.41.95-.91s-.43-.91-.95-.91-.96.4-.96.9.44.92.96.92zM629.38 326.64c1.77 0 3.07-.89 3.48-2.2l-1.3-.37c-.34.91-1.13 1.37-2.18 1.37-1.57 0-2.66-1.02-2.72-2.9H633v-.56c0-3.25-1.94-4.36-3.75-4.36-2.37 0-3.94 1.86-3.94 4.54 0 2.68 1.55 4.48 4.07 4.48zm-2.72-5.25c.09-1.36 1.05-2.57 2.59-2.57 1.45 0 2.38 1.1 2.38 2.57h-4.97zM641.22 319.69c-.42-1.24-1.36-2.07-3.09-2.07-1.84 0-3.2 1.04-3.2 2.52 0 1.2.71 2.01 2.32 2.39l1.45.34c.88.2 1.3.62 1.3 1.22 0 .75-.8 1.37-2.05 1.37-1.1 0-1.79-.47-2.02-1.41l-1.28.32c.32 1.48 1.54 2.27 3.32 2.27 2.03 0 3.41-1.1 3.41-2.61 0-1.22-.76-1.99-2.32-2.37l-1.3-.32c-1.03-.25-1.5-.6-1.5-1.27 0-.75.8-1.3 1.87-1.3 1.17 0 1.65.65 1.89 1.26l1.2-.34z" transform="translate(-232.97 53.34)"/>
    <path fill-rule="nonzero" d="M127.4 370.9c2.12 0 3.16 1.53 3.16 4.55 0 .9-.13 1.7-.39 2.38a3.38 3.38 0 0 1-1.12 1.6c-.5.4-1.12.6-1.82.6a2.8 2.8 0 0 1-2.2-.96v4.06l-1.85.2v-12.2h1.6l.11 1.12c.34-.43.7-.77 1.14-1 .43-.23.9-.34 1.38-.34zm-.49 1.43c-.38 0-.74.11-1.06.34-.3.22-.59.52-.83.9v4.06c.43.64 1.01.96 1.71.96.64 0 1.1-.26 1.43-.76.32-.5.48-1.3.48-2.36 0-1.1-.15-1.9-.43-2.4a1.4 1.4 0 0 0-1.3-.74zM139.65 377.67c0 .34.05.58.16.74.1.16.26.29.5.35l-.4 1.25a2.57 2.57 0 0 1-1.12-.35c-.3-.2-.53-.48-.69-.85-.3.4-.7.7-1.18.91-.48.2-1.01.3-1.59.3a3.2 3.2 0 0 1-1.5-.33 2.36 2.36 0 0 1-1-.94c-.22-.4-.35-.88-.35-1.41 0-.91.37-1.62 1.08-2.11.72-.5 1.72-.74 3.05-.74h1.23v-.58c0-.54-.16-.94-.48-1.2a2.45 2.45 0 0 0-1.44-.36c-.3 0-.65.03-1.05.1-.42.09-.83.2-1.25.34l-.46-1.3a8.3 8.3 0 0 1 3.04-.6c1.15.02 2.01.27 2.59.77.57.51.86 1.23.86 2.16v3.85zm-3.76 1a2.27 2.27 0 0 0 1.95-1.12v-1.92h-1c-.85 0-1.46.14-1.84.41-.39.3-.58.7-.58 1.22 0 .46.13.81.37 1.05.25.24.62.36 1.1.36zM147.05 378.5c.38 0 .75-.06 1.1-.19.34-.12.7-.32 1.04-.56l.85 1.19c-.38.33-.85.6-1.39.78-.54.21-1.09.3-1.65.3-.88 0-1.63-.19-2.27-.55a3.68 3.68 0 0 1-1.46-1.59 5.49 5.49 0 0 1-.5-2.37c0-.9.18-1.68.52-2.36.34-.7.83-1.25 1.47-1.65.64-.4 1.4-.6 2.27-.6 1.16 0 2.16.36 3 1.05l-.84 1.16c-.7-.5-1.4-.73-2.12-.73-.72 0-1.28.27-1.72.78-.41.53-.62 1.3-.62 2.35 0 1.03.2 1.8.62 2.28.42.48 1 .72 1.7.72zM152.78 367.66l1.84-.2v12.34h-1.84v-12.14zm5.43 3.47h2.14l-3.5 3.89 3.87 4.78h-2.24l-3.73-4.73 3.46-3.94zM169.19 377.67c0 .34.05.58.16.74.1.16.26.29.5.35l-.4 1.25a2.57 2.57 0 0 1-1.12-.35c-.3-.2-.53-.48-.7-.85-.3.4-.7.7-1.18.91-.48.2-1 .3-1.58.3a3.2 3.2 0 0 1-1.5-.33 2.36 2.36 0 0 1-1-.94c-.22-.4-.35-.88-.35-1.41 0-.91.37-1.62 1.07-2.11.72-.5 1.73-.74 3.06-.74h1.23v-.58c0-.54-.16-.94-.48-1.2a2.45 2.45 0 0 0-1.44-.36c-.3 0-.65.03-1.05.1-.42.09-.84.2-1.25.34l-.47-1.3a8.3 8.3 0 0 1 3.04-.6c1.16.02 2.02.27 2.6.77.57.51.86 1.23.86 2.16v3.85zm-3.76 1a2.27 2.27 0 0 0 1.95-1.12v-1.92h-1c-.85 0-1.46.14-1.85.41-.38.3-.57.7-.57 1.22 0 .46.13.81.37 1.05.25.24.62.36 1.1.36zM180.2 371.56c-.32.11-.68.2-1.08.23-.4.04-.88.06-1.43.06.51.24.91.53 1.17.9.26.35.38.78.38 1.3 0 .57-.12 1.08-.4 1.51-.28.45-.67.8-1.2 1.04-.5.26-1.1.39-1.8.39a4.2 4.2 0 0 1-1.19-.15c-.11.08-.2.18-.29.3a.97.97 0 0 0-.1.4c0 .21.09.37.25.49.14.1.43.17.83.17h1.52c.6 0 1.15.11 1.63.32.47.21.85.5 1.12.87a2 2 0 0 1 .4 1.23c0 .57-.16 1.05-.5 1.47-.33.4-.83.72-1.47.93-.65.2-1.44.32-2.36.32-.96 0-1.75-.1-2.3-.3a2.2 2.2 0 0 1-1.2-.89 2.77 2.77 0 0 1-.36-1.48h1.65c0 .32.06.57.17.76.13.2.36.34.68.44.32.1.78.12 1.37.12.88 0 1.52-.1 1.9-.32.39-.2.58-.52.58-.94 0-.34-.16-.6-.46-.8-.3-.2-.7-.29-1.23-.29h-1.5c-.52 0-.95-.08-1.3-.22a1.87 1.87 0 0 1-.8-.6 1.56 1.56 0 0 1 0-1.7c.16-.28.4-.52.72-.7a2.7 2.7 0 0 1-1.14-1c-.24-.4-.37-.87-.37-1.44a2.88 2.88 0 0 1 1.75-2.67 4.35 4.35 0 0 1 1.87-.39c.65 0 1.23-.05 1.7-.1a5.5 5.5 0 0 0 1.2-.3c.31-.13.7-.29 1.1-.48l.5 1.52zm-4.48.63c-.56 0-.99.16-1.3.48-.3.32-.46.75-.46 1.3s.16 1 .47 1.32c.3.34.75.5 1.33.5.54 0 .96-.16 1.24-.48.3-.32.44-.77.44-1.36 0-1.17-.58-1.76-1.72-1.76zM183.8 376.06c.04.85.28 1.49.72 1.9.41.42.97.64 1.63.64.41 0 .8-.06 1.17-.19.35-.13.72-.32 1.1-.58l.8 1.1a5.13 5.13 0 0 1-3.15 1.09c-.88 0-1.65-.19-2.27-.57a3.64 3.64 0 0 1-1.43-1.6 5.49 5.49 0 0 1-.48-2.37c0-.88.16-1.65.48-2.35a3.66 3.66 0 0 1 3.47-2.22 3.38 3.38 0 0 1 3.28 2.02c.3.65.45 1.42.45 2.31 0 .3-.01.58-.03.82h-5.74zm2.06-3.8c-.6 0-1.07.21-1.44.65a3.2 3.2 0 0 0-.64 1.9h4.02a3.19 3.19 0 0 0-.53-1.89c-.34-.43-.8-.65-1.41-.65zM193.98 378.43c0-.3.08-.55.2-.79a1.65 1.65 0 0 1 1.38-.8 1.6 1.6 0 0 1 1.6 1.59c0 .28-.08.56-.22.8-.15.25-.34.44-.58.59a1.65 1.65 0 0 1-1.6 0 1.58 1.58 0 0 1-.57-.6 1.7 1.7 0 0 1-.21-.8zM204.93 366.9c.37 0 .65.1.88.33.22.22.33.5.33.81 0 .34-.1.61-.33.83-.23.23-.51.34-.88.34-.35 0-.64-.11-.87-.34a1.1 1.1 0 0 1-.32-.83 1.16 1.16 0 0 1 1.18-1.15zm1.44 11.08c0 1.05-.23 1.93-.66 2.65a4.77 4.77 0 0 1-1.92 1.72c-.85.43-1.9.76-3.18.99l-.3-1.4c.92-.19 1.69-.43 2.3-.71a3.3 3.3 0 0 0 1.42-1.2c.34-.52.5-1.16.5-1.92v-5.62h-3.43v-1.36h5.27v6.85zM213.35 378.62c.58 0 1.04-.11 1.38-.32.33-.2.5-.48.5-.85 0-.24-.06-.45-.15-.6-.1-.17-.3-.31-.6-.46a7.59 7.59 0 0 0-1.34-.44 6.96 6.96 0 0 1-1.55-.55c-.4-.19-.72-.46-.94-.78a2.15 2.15 0 0 1-.36-1.23c0-.48.15-.92.44-1.3.27-.37.68-.66 1.2-.86.52-.21 1.13-.32 1.84-.32 1.28 0 2.38.33 3.28 1l-.77 1.16a4.79 4.79 0 0 0-1.15-.56c-.4-.15-.84-.21-1.32-.21-1.08 0-1.64.32-1.64.96 0 .22.06.4.19.54.13.15.33.27.64.39.3.12.77.27 1.37.44.63.18 1.14.37 1.54.58.4.2.72.48.93.82.22.33.33.76.33 1.3 0 .6-.17 1.1-.52 1.5-.36.41-.8.72-1.4.9-.57.2-1.2.3-1.9.3a5.6 5.6 0 0 1-2.02-.34c-.59-.2-1.1-.51-1.53-.9l.97-1.1c.36.29.74.51 1.19.67.43.18.9.26 1.39.26zM223.52 370.9c.83 0 1.53.2 2.12.57.6.36 1.03.9 1.33 1.58.3.67.45 1.47.45 2.4 0 .93-.14 1.73-.45 2.42a3.55 3.55 0 0 1-1.34 1.58c-.6.38-1.3.58-2.11.58a3.9 3.9 0 0 1-2.13-.56 3.3 3.3 0 0 1-1.33-1.57 5.94 5.94 0 0 1-.46-2.43c0-.9.16-1.7.46-2.39a3.58 3.58 0 0 1 3.46-2.17zm0 1.43c-.68 0-1.17.26-1.5.77-.33.51-.49 1.31-.49 2.37 0 1.07.16 1.85.48 2.36.34.52.83.77 1.5.77.66 0 1.17-.25 1.5-.77.33-.5.49-1.3.49-2.38 0-1.06-.16-1.84-.5-2.35-.32-.51-.81-.77-1.48-.77zM229.89 379.8v-8.67h1.58l.15 1.14c.35-.44.78-.77 1.26-1.01.5-.24 1-.35 1.54-.35.8 0 1.39.22 1.8.67.4.45.61 1.09.61 1.9v6.32H235v-5.4c0-.53-.03-.95-.1-1.24-.06-.3-.17-.5-.34-.64-.18-.14-.45-.2-.79-.2-.4 0-.77.1-1.12.35a4.1 4.1 0 0 0-.91.9v6.23h-1.84zM250.19 373.03c-.42-1.24-1.36-2.08-3.09-2.08-1.84 0-3.2 1.06-3.2 2.53 0 1.2.7 2.02 2.3 2.39l1.46.35c.88.2 1.3.62 1.3 1.21 0 .76-.79 1.36-2.04 1.36-1.1 0-1.79-.46-2.03-1.4l-1.26.32c.3 1.48 1.52 2.27 3.31 2.27 2.03 0 3.4-1.1 3.4-2.6 0-1.23-.76-2-2.31-2.38l-1.3-.32c-1.02-.25-1.5-.59-1.5-1.26 0-.75.8-1.3 1.87-1.3 1.17 0 1.65.64 1.89 1.25l1.2-.34zM255.91 379.98c1.94 0 3.22-1.19 3.44-2.72h-1.34c-.26.96-1.04 1.52-2.1 1.52-1.58 0-2.6-1.31-2.6-3.35 0-1.96 1.03-3.26 2.6-3.26 1.19 0 1.89.72 2.1 1.52h1.34c-.22-1.63-1.61-2.74-3.45-2.74-2.37 0-3.94 1.88-3.94 4.53 0 2.61 1.5 4.5 3.95 4.5zM261.3 379.8h1.35v-5.52c0-1.18.93-2.05 2.2-2.05.36 0 .73.07.8.1v-1.38l-.7-.01c-1.03 0-1.95.6-2.27 1.45h-.08v-1.3h-1.3v8.71zM267.26 379.8h1.35v-8.72h-1.35v8.72zm.67-10.17c.53 0 .96-.42.96-.92s-.43-.9-.96-.9a.94.94 0 0 0-.94.9c0 .5.43.92.94.92zM271.06 383.08h1.34v-4.62h.11c.3.48.87 1.52 2.55 1.52 2.17 0 3.7-1.75 3.7-4.51s-1.53-4.52-3.73-4.52c-1.7 0-2.23 1.06-2.52 1.5h-.16v-1.37h-1.3v12zm1.3-7.65c0-1.95.87-3.26 2.5-3.26 1.72 0 2.55 1.42 2.55 3.26 0 1.88-.86 3.35-2.54 3.35-1.62 0-2.5-1.36-2.5-3.35zM284.6 371.08h-1.87v-2.1h-1.33v2.1h-1.33v1.14h1.33v5.44c0 1.53 1.22 2.25 2.35 2.25.51 0 .83-.1 1.01-.16l-.27-1.2c-.11.02-.3.07-.6.07-.59 0-1.16-.18-1.16-1.31v-5.1h1.87v-1.13zM292.64 373.03c-.41-1.24-1.36-2.08-3.09-2.08-1.84 0-3.2 1.06-3.2 2.53 0 1.2.7 2.02 2.3 2.39l1.46.35c.88.2 1.3.62 1.3 1.21 0 .76-.78 1.36-2.03 1.36-1.1 0-1.8-.46-2.03-1.4l-1.27.32c.3 1.48 1.52 2.27 3.31 2.27 2.04 0 3.41-1.1 3.41-2.6 0-1.23-.77-2-2.32-2.38l-1.3-.32c-1.02-.25-1.5-.59-1.5-1.26 0-.75.8-1.3 1.87-1.3 1.17 0 1.65.64 1.9 1.25l1.2-.34zM295.8 379.9c.57 0 1.03-.47 1.03-1.03s-.46-1.02-1.02-1.02-1.03.46-1.03 1.02.47 1.03 1.03 1.03zm0-6.48c.57 0 1.03-.47 1.03-1.03s-.46-1.02-1.02-1.02-1.03.46-1.03 1.02.47 1.03 1.03 1.03zM307.04 379.98c1.68 0 2.24-1.04 2.54-1.52h.16v1.34h1.3v-11.63h-1.35v4.29h-.11c-.3-.45-.82-1.5-2.53-1.5-2.2 0-3.73 1.75-3.73 4.5 0 2.77 1.52 4.52 3.72 4.52zm.17-1.2c-1.68 0-2.54-1.47-2.54-3.35 0-1.84.85-3.26 2.54-3.26 1.63 0 2.5 1.31 2.5 3.26 0 1.99-.88 3.35-2.5 3.35zM317.32 379.98c1.78 0 3.07-.88 3.49-2.2l-1.3-.36c-.35.91-1.13 1.36-2.19 1.36-1.57 0-2.66-1-2.72-2.88h6.34v-.58c0-3.25-1.92-4.37-3.75-4.37-2.37 0-3.93 1.88-3.93 4.56 0 2.68 1.55 4.47 4.06 4.47zm-2.72-5.25c.1-1.36 1.06-2.56 2.6-2.56 1.45 0 2.38 1.09 2.38 2.56h-4.98zM322.99 383.08h1.34v-4.62h.12c.28.48.86 1.52 2.54 1.52 2.18 0 3.7-1.75 3.7-4.51s-1.52-4.52-3.73-4.52c-1.7 0-2.23 1.06-2.51 1.5h-.16v-1.37h-1.3v12zm1.31-7.65c0-1.95.87-3.26 2.5-3.26 1.71 0 2.54 1.42 2.54 3.26 0 1.88-.86 3.35-2.54 3.35-1.62 0-2.5-1.36-2.5-3.35zM336.39 379.98c1.77 0 3.07-.88 3.49-2.2l-1.3-.36c-.35.91-1.14 1.36-2.2 1.36-1.56 0-2.65-1-2.71-2.88H340v-.58c0-3.25-1.92-4.37-3.74-4.37-2.37 0-3.94 1.88-3.94 4.56 0 2.68 1.56 4.47 4.07 4.47zm-2.72-5.25c.1-1.36 1.05-2.56 2.59-2.56 1.46 0 2.38 1.09 2.38 2.56h-4.97zM343.4 374.55c0-1.52.93-2.38 2.23-2.38 1.23 0 2 .82 2 2.18v5.45h1.34v-5.55c0-2.22-1.2-3.3-2.96-3.3-1.33 0-2.14.6-2.54 1.5h-.12v-1.37h-1.3v8.72h1.35v-5.25zM354.72 379.98c1.68 0 2.24-1.04 2.54-1.52h.16v1.34h1.3v-11.63h-1.35v4.29h-.1c-.31-.45-.82-1.5-2.54-1.5-2.2 0-3.72 1.75-3.72 4.5 0 2.77 1.52 4.52 3.7 4.52zm.17-1.2c-1.68 0-2.54-1.47-2.54-3.35 0-1.84.85-3.26 2.54-3.26 1.64 0 2.5 1.31 2.5 3.26 0 1.99-.88 3.35-2.5 3.35zM365 379.98c1.78 0 3.07-.88 3.49-2.2l-1.3-.36c-.35.91-1.13 1.36-2.19 1.36-1.57 0-2.66-1-2.72-2.88h6.34v-.58c0-3.25-1.92-4.37-3.75-4.37-2.37 0-3.93 1.88-3.93 4.56 0 2.68 1.55 4.47 4.06 4.47zm-2.72-5.25c.1-1.36 1.06-2.56 2.6-2.56 1.45 0 2.38 1.09 2.38 2.56h-4.98zM372.02 374.55c0-1.52.92-2.38 2.22-2.38 1.23 0 2 .82 2 2.18v5.45h1.34v-5.55c0-2.22-1.2-3.3-2.96-3.3-1.32 0-2.14.6-2.54 1.5h-.11v-1.37h-1.3v8.72h1.35v-5.25zM383.57 379.98c1.94 0 3.22-1.19 3.44-2.72h-1.34c-.26.96-1.04 1.52-2.1 1.52-1.58 0-2.6-1.31-2.6-3.35 0-1.96 1.03-3.26 2.6-3.26 1.18 0 1.89.72 2.1 1.52H387c-.22-1.63-1.62-2.74-3.46-2.74-2.36 0-3.93 1.88-3.93 4.53 0 2.61 1.5 4.5 3.95 4.5zM388.97 379.8h1.34v-8.72h-1.34v8.72zm.67-10.17c.53 0 .96-.42.96-.92s-.43-.9-.96-.9a.94.94 0 0 0-.95.9c0 .5.44.92.95.92zM396.41 379.98c1.78 0 3.07-.88 3.49-2.2l-1.3-.36c-.35.91-1.13 1.36-2.19 1.36-1.57 0-2.66-1-2.72-2.88h6.34v-.58c0-3.25-1.92-4.37-3.75-4.37-2.37 0-3.93 1.88-3.93 4.56 0 2.68 1.55 4.47 4.06 4.47zm-2.72-5.25c.1-1.36 1.06-2.56 2.6-2.56 1.45 0 2.38 1.09 2.38 2.56h-4.98zM408.26 373.03c-.42-1.24-1.36-2.08-3.1-2.08-1.83 0-3.2 1.06-3.2 2.53 0 1.2.71 2.02 2.31 2.39l1.46.35c.88.2 1.3.62 1.3 1.21 0 .76-.79 1.36-2.04 1.36-1.1 0-1.79-.46-2.03-1.4l-1.26.32c.3 1.48 1.52 2.27 3.3 2.27 2.04 0 3.42-1.1 3.42-2.6 0-1.23-.77-2-2.32-2.38l-1.3-.32c-1.02-.25-1.5-.59-1.5-1.26 0-.75.8-1.3 1.87-1.3 1.17 0 1.65.64 1.89 1.25l1.2-.34z"/>
  </g>
  <g>
    <path d="M367.43 102.55l-5.63 11.25-5.62-11.25c2.8 2.82 8.43 2.82 11.25 0z"/>
    <path fill="none" stroke="#000" stroke-width="1.5" d="M361.8 43.8v61"/>
  </g>
  <g>
    <path d="M255.42 102.56l-5.62 11.25-5.63-11.25c2.82 2.81 8.44 2.81 11.25 0z"/>
    <path fill="none" stroke="#000" stroke-width="1.5" d="M361.8 71.8v2a8 8 0 0 1-8 8h-96a8 8 0 0 0-8 8v15"/>
  </g>
  <g>
    <path d="M255.42 198.56l-5.62 11.25-5.63-11.25c2.82 2.8 8.44 2.8 11.25 0z"/>
    <path fill="none" stroke="#000" stroke-width="1.5" d="M249.8 139.8v61"/>
  </g>
  <g>
    <path d="M255.42 294.55l-5.62 11.25-5.63-11.25c2.82 2.81 8.44 2.81 11.25 0z"/>
    <path fill="none" stroke="#000" stroke-width="1.5" d="M249.8 235.8v61"/>
  </g>
  <g>
    <path d="M143.42 294.55l-5.62 11.25-5.63-11.25c2.82 2.81 8.44 2.81 11.25 0z"/>
    <path fill="none" stroke="#000" stroke-width="1.5" d="M249.8 263.8v2a8 8 0 0 1-8 8h-96a8 8 0 0 0-8 8v15"/>
  </g>
  <g>
    <path d="M367.43 294.55l-5.63 11.25-5.62-11.25c2.8 2.81 8.43 2.81 11.25 0z"/>
    <path fill="none" stroke="#000" stroke-width="1.5" d="M249.8 263.8v2a8 8 0 0 0 8 8h96a8 8 0 0 1 8 8v15"/>
  </g>
  <g>
    <path fill="none" stroke="#fefefe" stroke-linejoin="round" stroke-miterlimit="2" d="M488.27 314.82h1.34v11.64h-1.34zM492.07 326.46h1.34v-8.73h-1.34v8.73zm.68-10.18c.52 0 .96-.41.96-.91s-.44-.91-.96-.91-.95.4-.95.9.43.92.95.92zM497.2 321.2c0-1.51.95-2.38 2.23-2.38 1.25 0 2 .81 2 2.18v5.46h1.34v-5.55c0-2.23-1.18-3.3-2.95-3.3-1.32 0-2.14.6-2.55 1.48h-.1v-1.36h-1.3v8.73h1.34v-5.25zM509.02 317.73h-1.86v-2.09h-1.34v2.1h-1.32v1.13h1.32v5.45c0 1.52 1.23 2.25 2.36 2.25.5 0 .82-.09 1-.16l-.27-1.2c-.11.02-.3.07-.59.07-.6 0-1.16-.19-1.16-1.32v-5.1h1.86v-1.13z" transform="translate(-137.48 -2.65)"/>
    <path fill-rule="nonzero" d="M350.85 312.13h1.28v11.68h-1.28zM354.6 323.8h1.34v-8.71h-1.34v8.72zm.67-10.17c.53 0 .96-.41.96-.91s-.43-.91-.96-.91a.94.94 0 0 0-.94.91c0 .5.43.91.94.91zM359.74 318.56c0-1.52.93-2.38 2.22-2.38 1.24 0 2 .81 2 2.17v5.46h1.35v-5.55c0-2.23-1.2-3.3-2.96-3.3-1.33 0-2.15.6-2.55 1.49h-.1v-1.36h-1.3v8.72h1.34v-5.25zM371.55 315.09h-1.87v-2.1h-1.33v2.1h-1.33v1.13h1.33v5.44c0 1.54 1.22 2.26 2.35 2.26.52 0 .84-.1 1.01-.16l-.27-1.2c-.11.02-.3.06-.6.06-.58 0-1.16-.17-1.16-1.3v-5.1h1.87v-1.13z"/>
  </g>
  <g>
    <path d="M367.43 198.55l-5.63 11.25-5.62-11.25c2.8 2.81 8.43 2.81 11.25 0z"/>
    <path fill="none" stroke="#000" stroke-width="1.5" d="M249.8 167.8v2a8 8 0 0 0 8 8h96a8 8 0 0 1 8 8v15"/>
  </g>
  <g>
    <path d="M479.43 102.56l-5.63 11.25-5.62-11.25c2.81 2.81 8.44 2.81 11.25 0z"/>
    <path fill="none" stroke="#000" stroke-width="1.5" d="M361.8 71.8v2a8 8 0 0 0 8 8h96a8 8 0 0 1 8 8v15"/>
  </g>
  <g>
    <path d="M479.43 294.55l-5.63 11.25-5.62-11.25c2.81 2.81 8.44 2.81 11.25 0z"/>
    <path fill="none" stroke="#000" stroke-width="1.5" d="M345.8 273.8h120a8 8 0 0 1 8 8v15"/>
  </g>
  <g>
    <path fill="none" stroke="#fefefe" stroke-linejoin="round" stroke-miterlimit="2" d="M481.47 326.46h1.3v-1.34h.15c.3.47.87 1.52 2.55 1.52 2.18 0 3.7-1.75 3.7-4.52 0-2.75-1.52-4.5-3.73-4.5-1.7 0-2.22 1.04-2.52 1.5h-.11v-4.3h-1.34v11.64zm1.32-4.37c0-1.95.86-3.27 2.5-3.27 1.7 0 2.54 1.43 2.54 3.27 0 1.87-.86 3.35-2.54 3.35-1.62 0-2.5-1.37-2.5-3.35zM496.72 322.89a2.27 2.27 0 0 1-2.25 2.39c-1.12 0-1.91-.82-1.91-2.1v-5.45h-1.34v5.55c0 2.22 1.18 3.3 2.82 3.3 1.31 0 2.18-.71 2.59-1.6h.09v1.48h1.34v-8.73h-1.34v5.16zM500.51 326.46h1.34v-8.73h-1.34v8.73zm.69-10.18c.52 0 .95-.41.95-.91s-.43-.91-.95-.91c-.53 0-.96.4-.96.9s.43.92.95.92zM504.31 314.82h1.34v11.64h-1.34zM511.4 326.64c1.68 0 2.25-1.05 2.55-1.52h.15v1.34h1.3v-11.64h-1.34v4.3h-.11c-.3-.46-.82-1.5-2.53-1.5-2.2 0-3.73 1.75-3.73 4.5 0 2.77 1.53 4.52 3.7 4.52zm.18-1.2c-1.68 0-2.54-1.48-2.54-3.35 0-1.84.84-3.27 2.54-3.27 1.64 0 2.5 1.32 2.5 3.27 0 1.98-.88 3.35-2.5 3.35z" transform="translate(-24.67 -2.65)"/>
    <path fill-rule="nonzero" d="M456.8 323.8h1.3v-1.34h.16c.29.48.86 1.52 2.54 1.52 2.18 0 3.71-1.74 3.71-4.5s-1.53-4.52-3.72-4.52c-1.72 0-2.24 1.06-2.53 1.5h-.11v-4.28h-1.35v11.63zm1.31-4.36c0-1.95.87-3.26 2.52-3.26 1.7 0 2.54 1.42 2.54 3.26 0 1.87-.86 3.34-2.54 3.34-1.62 0-2.52-1.36-2.52-3.34zM472.05 320.24a2.26 2.26 0 0 1-2.24 2.38c-1.12 0-1.9-.81-1.9-2.1v-5.43h-1.35v5.53c0 2.23 1.18 3.3 2.81 3.3 1.32 0 2.18-.7 2.6-1.58h.08v1.47h1.34v-8.72h-1.34v5.15zM475.85 323.8h1.35v-8.71h-1.35v8.72zm.68-10.17c.52 0 .96-.41.96-.91s-.44-.91-.96-.91a.94.94 0 0 0-.95.91c0 .5.43.91.95.91zM479.7 312.13h1.28v11.68h-1.28zM486.74 323.98c1.68 0 2.24-1.04 2.54-1.52h.16v1.35h1.3v-11.63h-1.34v4.28h-.12c-.3-.44-.81-1.5-2.52-1.5-2.21 0-3.73 1.76-3.73 4.51 0 2.77 1.52 4.51 3.71 4.51zm.18-1.2c-1.68 0-2.55-1.47-2.55-3.34 0-1.84.85-3.26 2.55-3.26 1.63 0 2.5 1.3 2.5 3.26 0 1.98-.89 3.34-2.5 3.34z"/>
  </g>
</svg>
