<?xml version="1.0" encoding="UTF-8" standalone="no"?>
<!DOCTYPE svg PUBLIC "-//W3C//DTD SVG 1.1//EN" "http://www.w3.org/Graphics/SVG/1.1/DTD/svg11.dtd">
<svg xmlns="http://www.w3.org/2000/svg" xmlns:xlink="http://www.w3.org/1999/xlink" fill-rule="evenodd" stroke-miterlimit="1.5" clip-rule="evenodd" viewBox="0 0 530 389">
  <path fill="none" d="M-8772.37-2367.1h32861.26v24204.4H-8772.37z"/>
  <path stroke="gray" stroke-opacity=".5" stroke-width=".2" d="M264 235.18h212.33v58.27H264z" transform="matrix(2.48668 0 0 6.6413 -655.58 -1561.03)"/>
  <path fill="#1a1a1a" d="M.9.88h528v360H.9z"/>
  <path stroke="#fff" stroke-width="3.5" d="M287.31 235.18h165.72v55.66H287.31z" transform="matrix(.38619 0 0 .46714 217.95 -92.96)"/>
  <path stroke="#fff" stroke-width="3.43" d="M296.1 235.18h143.2v55.66H296.1z" transform="matrix(.40503 0 0 .46714 99.98 195.04)"/>
  <path stroke="#fff" stroke-width="3.43" d="M308.53 235.18h118.51v55.66H308.53z" transform="matrix(.40503 0 0 .46714 323.94 195.04)"/>
  <path stroke="#fff" stroke-width="3.5" d="M313.2 235.18h113.93v55.66H313.2z" transform="matrix(.38619 0 0 .46714 217.95 99.04)"/>
  <use width="188.52" height="110.2" x="8.32" y="6.35" transform="matrix(.99745 0 0 .9928 0 0)" xlink:href="#_Image1"/>
  <path stroke="#fff" stroke-width="3.43" d="M264 235.18h212.33v55.66H264z" transform="matrix(.40503 0 0 .46714 99.98 3.04)"/>
  <path stroke="#fff" stroke-width="2.29" d="M264 235.18h79.01v38.53H264z" transform="matrix(.40503 0 0 .46714 13.97 -92.96)"/>
  <path stroke="#fff" stroke-width="2.29" d="M264 235.18h79.01v38.53H264z" transform="matrix(.40503 0 0 .46714 13.98 -36.4)"/>
  <path fill="#f2f2f2" fill-rule="nonzero" d="M342.86 35.08c1.93 0 3.21-1.18 3.44-2.72h-1.35c-.25.96-1.04 1.52-2.1 1.52-1.58 0-2.6-1.31-2.6-3.34 0-1.97 1.04-3.27 2.6-3.27 1.19 0 1.9.72 2.1 1.52h1.35c-.23-1.63-1.62-2.73-3.46-2.73-2.37 0-3.94 1.87-3.94 4.52 0 2.61 1.5 4.5 3.96 4.5zM349.6 29.66c0-1.52.96-2.39 2.28-2.39 1.27 0 2.02.79 2.02 2.18v5.45h1.34v-5.55c0-2.24-1.18-3.3-2.97-3.3-1.38 0-2.16.58-2.56 1.5h-.11v-4.28h-1.35V34.9h1.35v-5.24zM361.35 35.08c1.78 0 3.08-.88 3.5-2.2l-1.3-.36c-.36.91-1.14 1.36-2.2 1.36-1.56 0-2.65-1-2.72-2.88h6.34v-.58c0-3.24-1.92-4.36-3.74-4.36-2.37 0-3.94 1.87-3.94 4.56 0 2.67 1.55 4.46 4.06 4.46zm-2.72-5.25c.1-1.36 1.06-2.56 2.6-2.56 1.45 0 2.38 1.09 2.38 2.56h-4.98zM370.56 35.08c1.94 0 3.22-1.18 3.44-2.72h-1.34c-.26.96-1.04 1.52-2.1 1.52-1.58 0-2.6-1.31-2.6-3.34 0-1.97 1.03-3.27 2.6-3.27 1.18 0 1.89.72 2.1 1.52H374c-.22-1.63-1.62-2.73-3.46-2.73-2.36 0-3.93 1.87-3.93 4.52 0 2.61 1.5 4.5 3.95 4.5zM375.96 34.9h1.34v-3.26l.93-.88 3.26 4.14h1.71l-3.96-5 3.7-3.72h-1.67l-3.83 3.88h-.14v-6.79h-1.34V34.9z"/>
  <path fill="#fff" fill-rule="nonzero" d="M75.27 110.97h5.12v-.94h-4.06v-7.79h-1.06v8.73zM84.63 111.1c1.33 0 2.3-.66 2.61-1.64l-.97-.28c-.26.68-.85 1.02-1.64 1.02-1.18 0-2-.76-2.04-2.16h4.75v-.43c0-2.44-1.44-3.28-2.8-3.28-1.78 0-2.96 1.4-2.96 3.42 0 2 1.16 3.35 3.05 3.35zm-2.04-3.94c.07-1.02.79-1.92 1.94-1.92 1.1 0 1.79.82 1.79 1.92h-3.73zM91.52 113.56c1.57 0 2.83-.72 2.83-2.4v-6.73h-.97v1.03h-.1c-.22-.34-.63-1.13-1.91-1.13-1.66 0-2.8 1.32-2.8 3.33 0 2.05 1.2 3.2 2.78 3.2 1.28 0 1.68-.74 1.91-1.1h.09v1.33c0 1.1-.77 1.58-1.83 1.58-1.19 0-1.6-.62-1.87-.98l-.8.56c.4.69 1.2 1.31 2.67 1.31zm-.03-3.6c-1.26 0-1.91-.95-1.91-2.32 0-1.33.63-2.4 1.9-2.4 1.23 0 1.88.99 1.88 2.4 0 1.46-.66 2.32-1.87 2.32zM98.93 111.1c1.33 0 2.3-.66 2.62-1.64l-.98-.28c-.26.68-.85 1.02-1.64 1.02-1.18 0-2-.76-2.04-2.16h4.75v-.43c0-2.44-1.44-3.28-2.8-3.28-1.78 0-2.96 1.4-2.96 3.42 0 2 1.17 3.35 3.05 3.35zm-2.04-3.94c.07-1.02.8-1.92 1.94-1.92 1.1 0 1.8.82 1.8 1.92h-3.74zM104.19 107.03c0-1.14.7-1.79 1.67-1.79.92 0 1.5.62 1.5 1.64v4.09h1v-4.17c0-1.66-.9-2.47-2.21-2.47-1 0-1.61.45-1.91 1.12h-.09v-1.02h-.97v6.54h1.01v-3.94zM112.68 111.1c1.26 0 1.68-.78 1.9-1.14h.13v1h.97v-8.72h-1.01v3.22h-.08c-.23-.34-.62-1.13-1.9-1.13-1.66 0-2.8 1.32-2.8 3.39 0 2.07 1.14 3.38 2.79 3.38zm.13-.9c-1.26 0-1.9-1.1-1.9-2.5 0-1.39.63-2.46 1.9-2.46 1.22 0 1.87.99 1.87 2.45 0 1.5-.66 2.51-1.87 2.51zM131.68 23.23h-1.48v-.67c0-.65.28-.99.95-.99.29 0 .46.06.55.1l.3-.87a2.34 2.34 0 0 0-.96-.16c-.93 0-1.83.56-1.83 1.68v.9h-1.06v.86h1.06v5.69h1v-5.69h1.47v-.85zM135.47 29.9c1.78 0 2.97-1.34 2.97-3.37 0-2.04-1.2-3.4-2.97-3.4-1.76 0-2.96 1.36-2.96 3.4 0 2.03 1.2 3.37 2.96 3.37zm0-.9c-1.34 0-1.95-1.16-1.95-2.47 0-1.31.6-2.49 1.95-2.49 1.36 0 1.97 1.18 1.97 2.49 0 1.3-.61 2.47-1.97 2.47zM142.63 29.9c1.78 0 2.97-1.34 2.97-3.37 0-2.04-1.2-3.4-2.97-3.4-1.76 0-2.96 1.36-2.96 3.4 0 2.03 1.2 3.37 2.96 3.37zm0-.9c-1.34 0-1.95-1.16-1.95-2.47 0-1.31.6-2.49 1.95-2.49 1.36 0 1.97 1.18 1.97 2.49 0 1.3-.61 2.47-1.97 2.47zM128.74 86.75h.97v-1h.12c.22.35.65 1.13 1.91 1.13 1.63 0 2.79-1.3 2.79-3.38 0-2.06-1.16-3.38-2.8-3.38-1.28 0-1.68.79-1.9 1.12h-.08v-3.21h-1v8.72zm.99-3.27c0-1.47.64-2.45 1.88-2.45 1.27 0 1.9 1.07 1.9 2.45 0 1.4-.64 2.5-1.9 2.5-1.21 0-1.88-1.02-1.88-2.5zM137.98 86.9c1.14 0 1.74-.6 1.94-1.04h.05v.9h1.01v-4.32c0-2.08-1.58-2.32-2.41-2.32-1 0-2.13.34-2.63 1.53l.95.35c.23-.48.74-1 1.7-1 .93 0 1.38.5 1.38 1.34v.03c0 .48-.49.45-1.68.6-1.21.16-2.54.42-2.54 1.92 0 1.29 1 2.02 2.23 2.02zm.16-.9c-.8 0-1.38-.35-1.38-1.06 0-.76.7-1 1.48-1.1.42-.05 1.56-.17 1.73-.38v.93c0 .81-.65 1.6-1.83 1.6zM142.83 86.75h1v-4.14c0-.89.7-1.53 1.65-1.53.27 0 .55.04.61.07v-1.03l-.53-.02c-.78 0-1.46.45-1.7 1.1h-.06v-.99h-.97v6.54z"/>
  <path fill="#fff" d="M140.94 65.97l-3.75 7.5-3.75-7.5c1.87 1.88 5.62 1.88 7.5 0z"/>
  <path fill="none" stroke="#fff" d="M137.18 59.36v8.1" transform="translate(.01 .01)"/>
  <path fill="none" stroke="#fff" stroke-width=".77" d="M8496 4641v6.44" transform="matrix(1 0 0 1.53247 -8358.83 -7077.28)"/>
  <path fill="none" stroke="#fff" stroke-width="2.98" d="M493.1 242.14H-373" transform="matrix(.1978 0 0 .4312 90.68 -5.51)"/>
  <path fill="#e6e6e6" fill-rule="nonzero" d="M134.68 57.04c1.26 0 1.68-.78 1.9-1.14h.12v1h.98v-8.72h-1.01v3.22h-.09c-.22-.34-.6-1.13-1.9-1.13-1.65 0-2.79 1.32-2.79 3.38 0 2.08 1.14 3.39 2.79 3.39zm.13-.9c-1.26 0-1.9-1.1-1.9-2.51 0-1.38.63-2.45 1.9-2.45 1.22 0 1.87.98 1.87 2.45 0 1.49-.66 2.5-1.87 2.5zM142.39 57.04c1.33 0 2.3-.66 2.62-1.65l-.98-.27c-.26.68-.85 1.02-1.64 1.02-1.18 0-2-.76-2.04-2.16h4.75v-.44c0-2.43-1.44-3.27-2.8-3.27-1.78 0-2.96 1.4-2.96 3.42 0 2 1.17 3.35 3.05 3.35zm-2.04-3.94c.07-1.02.8-1.92 1.94-1.92 1.1 0 1.8.82 1.8 1.92h-3.74zM146.64 59.36h1.01V55.9h.08c.22.36.65 1.14 1.91 1.14 1.63 0 2.77-1.31 2.77-3.39 0-2.06-1.14-3.38-2.8-3.38-1.26 0-1.66.79-1.88 1.13h-.12v-1.04h-.97v9zm.99-5.73c0-1.47.64-2.45 1.87-2.45 1.28 0 1.9 1.07 1.9 2.45 0 1.4-.64 2.5-1.9 2.5-1.21 0-1.87-1.01-1.87-2.5zM156.7 57.04c1.32 0 2.3-.66 2.6-1.65l-.97-.27c-.26.68-.85 1.02-1.64 1.02-1.18 0-2-.76-2.04-2.16h4.75v-.44c0-2.43-1.44-3.27-2.8-3.27-1.78 0-2.96 1.4-2.96 3.42 0 2 1.17 3.35 3.05 3.35zm-2.05-3.94c.07-1.02.8-1.92 1.94-1.92 1.1 0 1.8.82 1.8 1.92h-3.74zM161.95 52.97c0-1.14.7-1.79 1.67-1.79.92 0 1.5.61 1.5 1.63v4.1h1v-4.17c0-1.67-.9-2.47-2.21-2.47-1 0-1.61.44-1.91 1.11h-.08v-1.02h-.98v6.54h1.01v-3.93zM170.44 57.04c1.26 0 1.68-.78 1.9-1.14h.13v1h.97v-8.72h-1.01v3.22h-.08c-.23-.34-.62-1.13-1.9-1.13-1.66 0-2.8 1.32-2.8 3.38 0 2.08 1.14 3.39 2.79 3.39zm.13-.9c-1.26 0-1.9-1.1-1.9-2.51 0-1.38.63-2.45 1.9-2.45 1.22 0 1.87.98 1.87 2.45 0 1.49-.66 2.5-1.87 2.5zM180.05 51.83c-.32-.94-1.02-1.56-2.32-1.56-1.38 0-2.4.79-2.4 1.9 0 .9.53 1.5 1.73 1.78l1.1.27c.65.14.96.46.96.9 0 .57-.59 1.03-1.52 1.03-.83 0-1.35-.35-1.53-1.06l-.94.24c.22 1.12 1.14 1.7 2.48 1.7 1.52 0 2.56-.82 2.56-1.95 0-.91-.58-1.49-1.74-1.78l-.98-.24c-.76-.19-1.12-.44-1.12-.94 0-.57.6-.98 1.4-.98.88 0 1.24.48 1.42.94l.9-.25z"/>
  <g>
    <path fill="#fff" d="M185.5 56.91l2.74-6.55c-1.73 1.2-3.55 1.2-5.46 0l2.73 6.55z"/>
  </g>
  <g>
    <path fill="#e6e6e6" fill-rule="nonzero" d="M24.28 35.83c-.31-.94-1.02-1.56-2.32-1.56-1.38 0-2.4.79-2.4 1.9 0 .9.53 1.5 1.73 1.78l1.1.26c.65.15.96.47.96.92 0 .56-.58 1.02-1.52 1.02-.83 0-1.34-.35-1.52-1.06l-.95.24c.23 1.12 1.14 1.7 2.48 1.7 1.53 0 2.56-.82 2.56-1.95 0-.91-.58-1.49-1.74-1.78l-.97-.24c-.77-.19-1.13-.44-1.13-.95 0-.56.6-.97 1.4-.97.88 0 1.24.48 1.42.94l.9-.25zM28.57 41.03c1.45 0 2.41-.88 2.58-2.04h-1c-.2.72-.79 1.14-1.58 1.14-1.19 0-1.95-.98-1.95-2.5 0-1.48.78-2.45 1.95-2.45.89 0 1.42.54 1.57 1.14h1.01c-.17-1.23-1.21-2.05-2.59-2.05-1.78 0-2.95 1.4-2.95 3.4 0 1.95 1.13 3.36 2.96 3.36zM32.62 40.9h1v-4.14c0-.89.7-1.53 1.65-1.53.28 0 .55.04.61.07v-1.03l-.53-.02c-.78 0-1.46.45-1.7 1.1h-.06v-.99h-.97v6.54zM37.08 40.9h1.01v-6.54h-1v6.54zm.5-7.63a.7.7 0 0 0 .73-.68.7.7 0 0 0-.72-.69.7.7 0 0 0-.7.69c0 .37.31.68.7.68zM39.93 43.36h1.01V39.9h.08c.22.36.65 1.14 1.91 1.14 1.63 0 2.77-1.3 2.77-3.38 0-2.06-1.14-3.38-2.8-3.38-1.26 0-1.66.79-1.88 1.12h-.12v-1.03h-.97v9zm.99-5.73c0-1.47.64-2.45 1.87-2.45 1.28 0 1.9 1.07 1.9 2.45 0 1.4-.64 2.5-1.9 2.5-1.21 0-1.87-1.02-1.87-2.5zM50.09 34.36h-1.4V32.8h-1v1.57h-1v.85h1v4.08c0 1.16.91 1.7 1.76 1.7.39 0 .63-.08.76-.12l-.2-.9c-.09 0-.23.04-.45.04-.44 0-.88-.13-.88-.98v-3.82h1.4v-.85zM59.33 35.86c0 .17-.06.31-.17.42a.63.63 0 0 1-.43.17c-.27 0-.47-.14-.6-.42-.11-.22-.16-.47-.16-.77 0-.79.28-1.46.84-2.03.1-.1.18-.15.22-.15.08 0 .12.03.12.12 0 .03-.05.1-.14.19-.52.52-.79 1.18-.79 1.94 0 .06 0 .1.03.14 0 0 0-.02.03-.04a.62.62 0 0 1 .45-.18c.16 0 .3.06.43.17.1.12.17.26.17.44zm-2.2 0c0 .17-.05.31-.17.42-.1.11-.25.17-.42.17-.27 0-.48-.14-.6-.42-.12-.22-.17-.47-.17-.77 0-.79.28-1.46.84-2.03.11-.1.18-.15.23-.15.07 0 .11.03.11.12 0 .03-.05.1-.13.19-.53.53-.8 1.18-.8 1.94 0 .06 0 .1.03.14l.04-.04a.66.66 0 0 1 .45-.18c.17 0 .31.06.42.17.12.12.17.26.17.44zM61.97 35.26c.24-.31.52-.55.83-.72.31-.17.66-.25 1.02-.25.84 0 1.45.29 1.85.89.38.59.59 1.41.59 2.48 0 .66-.1 1.25-.3 1.75-.2.52-.5.92-.88 1.2-.38.3-.85.44-1.39.44a2.4 2.4 0 0 1-1-.2 2.03 2.03 0 0 1-.76-.62l-.09.67h-.9v-9.08l1.03-.13v3.57zm1.47 4.95c.55 0 .97-.22 1.26-.64.29-.42.43-1.07.43-1.92 0-.84-.13-1.48-.4-1.9a1.25 1.25 0 0 0-1.12-.63c-.34 0-.64.1-.92.3-.27.19-.51.44-.72.74v3.2a2 2 0 0 0 .65.63c.25.14.53.22.82.22zM72.97 39.49c0 .25.04.44.12.56.09.12.22.2.41.26l-.25.74c-.63-.09-1.02-.39-1.19-.92-.23.3-.52.53-.88.69-.34.14-.73.23-1.15.23-.43 0-.8-.09-1.11-.26-.33-.15-.57-.4-.74-.7-.16-.3-.25-.64-.25-1.05 0-.67.27-1.17.78-1.53a4 4 0 0 1 2.27-.54h.95v-.54c0-.45-.13-.78-.4-.99-.26-.2-.65-.3-1.15-.3-.48 0-1.04.11-1.68.34l-.28-.78a5.9 5.9 0 0 1 2.13-.41c.79 0 1.39.18 1.8.55.42.37.62.89.62 1.54v3.1zm-2.67.76c.3 0 .62-.08.9-.24.3-.16.54-.38.73-.67v-1.67h-.94c-.68 0-1.17.12-1.49.35-.3.23-.45.58-.45 1.01 0 .82.4 1.22 1.25 1.22zM80.1 34.28a2.6 2.6 0 0 1 .9.14l-.14 2.2h-.85v-1.38h-.06c-.5 0-.93.17-1.27.53-.36.34-.64.88-.87 1.6v2.74h1.32v.8h-3.36v-.8h1.01v-4.9h-1v-.79h1.8l.18 1.54c.27-.57.58-.99.94-1.26.36-.28.83-.42 1.4-.42zM85.8 34.24c0 .8-.28 1.48-.84 2.03-.11.1-.18.17-.23.17-.07 0-.1-.04-.1-.12 0-.04.04-.1.12-.2.53-.52.8-1.17.8-1.94 0-.06-.02-.1-.03-.14l-.04.03a.66.66 0 0 1-.44.18c-.18 0-.32-.04-.43-.16a.55.55 0 0 1-.18-.44c0-.16.06-.3.18-.42.1-.12.25-.16.43-.16.26 0 .47.13.6.4.1.22.16.48.16.77zm-2.2 0c0 .8-.28 1.47-.84 2.03-.1.1-.18.17-.22.17-.08 0-.12-.04-.12-.12 0-.04.05-.1.15-.2.53-.52.8-1.17.8-1.94 0-.06-.02-.1-.03-.14l-.04.03a.66.66 0 0 1-.46.18c-.18 0-.32-.04-.43-.16a.59.59 0 0 1-.17-.44c0-.16.06-.3.17-.42.11-.12.25-.16.43-.16.27 0 .46.13.6.4.11.22.16.48.16.77zM91.43 40.9h1.01v-6.54h-1v6.54zm.5-7.63a.7.7 0 0 0 .73-.68.7.7 0 0 0-.72-.69.7.7 0 0 0-.71.69c0 .37.32.68.7.68zM98.91 35.83c-.31-.94-1.02-1.56-2.31-1.56-1.38 0-2.4.79-2.4 1.9 0 .9.52 1.5 1.72 1.78l1.1.26c.66.15.97.47.97.92 0 .56-.59 1.02-1.53 1.02-.82 0-1.34-.35-1.52-1.06l-.95.24c.23 1.12 1.14 1.7 2.49 1.7 1.52 0 2.55-.82 2.55-1.95 0-.91-.57-1.49-1.74-1.78l-.97-.24c-.77-.19-1.13-.44-1.13-.95 0-.56.6-.97 1.4-.97.88 0 1.24.48 1.42.94l.9-.25zM19.65 56.9h1v-4.14c0-.89.7-1.53 1.65-1.53.27 0 .55.04.61.07v-1.03l-.53-.02c-.78 0-1.46.45-1.7 1.1h-.06v-.99h-.97v6.54zM28.23 54.23A1.7 1.7 0 0 1 26.55 56c-.84 0-1.43-.6-1.43-1.57v-4.08h-1v4.15c0 1.67.88 2.48 2.1 2.48.99 0 1.64-.53 1.95-1.2h.06v1.11h1v-6.54h-1v3.87zM32.1 52.97c0-1.14.69-1.8 1.66-1.8.92 0 1.5.62 1.5 1.64v4.1h1v-4.17c0-1.67-.9-2.47-2.21-2.47-1 0-1.6.44-1.9 1.11h-.1v-1.02h-.97v6.54h1.01v-3.93zM40.97 56.9h1.24l.17-1.02h.11c.17.42.52 1.15 1.7 1.15 1.59 0 2.96-1.27 3.3-3.4.35-2.12-.6-3.36-2.18-3.36-1.21 0-1.78.74-2.08 1.15h-.07l.53-3.24h-1.27l-1.45 8.72zm1.8-3.27c.21-1.37.97-2.27 2.08-2.27 1.16 0 1.56.97 1.36 2.27-.23 1.32-.97 2.31-2.11 2.31-1.1 0-1.56-.93-1.33-2.31zM51.19 57.03c1.42 0 2.54-.7 3-1.76l-1.16-.22c-.33.62-.92.93-1.66.93-1.16 0-1.76-.54-1.54-1.97h4.67l.07-.44c.4-2.37-.86-3.3-2.35-3.3-1.83 0-3.25 1.39-3.59 3.4-.35 2.03.62 3.36 2.56 3.36zm-1.2-3.97c.19-.86 1.06-1.74 2.06-1.74s1.51.73 1.34 1.74H50zM59.64 50.36h-1.41l.1-.59c.1-.58.4-.9 1.01-.9.27 0 .44.06.56.1l.46-1.03a2.95 2.95 0 0 0-1.03-.17c-1.04 0-2.05.6-2.24 1.82l-.12.77h-1.02l-.17 1.02h1l-.92 5.52h1.29l.91-5.52h1.43l.15-1.02zM62.4 57.03c1.81 0 3.22-1.32 3.55-3.32.33-2.06-.66-3.44-2.53-3.44-1.82 0-3.23 1.33-3.54 3.33-.34 2.05.65 3.43 2.52 3.43zm.07-1.06c-1.17 0-1.53-1.04-1.34-2.26.2-1.28.98-2.38 2.22-2.38 1.16 0 1.53 1.05 1.34 2.27-.21 1.29-1 2.37-2.22 2.37zM66.84 56.9h1.28l.66-4c.15-.85.9-1.47 1.8-1.47.27 0 .57.05.67.07l.2-1.21a3.7 3.7 0 0 0-.54-.04c-.77 0-1.5.45-1.85 1.14H69l.17-1.03h-1.22l-1.1 6.54zM74.04 57.03c1.43 0 2.54-.7 3.01-1.76l-1.16-.22c-.34.62-.93.93-1.67.93-1.15 0-1.75-.54-1.54-1.97h4.67l.07-.44c.4-2.37-.86-3.3-2.35-3.3-1.82 0-3.25 1.39-3.59 3.4-.34 2.03.63 3.36 2.56 3.36zm-1.19-3.97c.18-.86 1.06-1.74 2.05-1.74 1 0 1.52.73 1.35 1.74h-3.4zM83.76 56.9h1l1.42-5.03h.11l1.43 5.03h.98l2-6.54h-1.06l-1.42 5h-.06l-1.38-5H85.7l-1.39 5h-.07l-1.42-5h-1.05l2 6.54zM94.55 57.03c1.33 0 2.3-.66 2.62-1.64l-.98-.28c-.26.69-.85 1.02-1.64 1.02-1.18 0-2-.75-2.04-2.16h4.75v-.43c0-2.43-1.44-3.27-2.8-3.27-1.78 0-2.96 1.4-2.96 3.42 0 2 1.17 3.34 3.05 3.34zm-2.04-3.93c.07-1.02.8-1.92 1.94-1.92 1.1 0 1.8.81 1.8 1.92H92.5zM19.65 72.9h1v-4.14c0-.89.7-1.53 1.65-1.53.27 0 .55.04.61.07v-1.03l-.53-.02c-.78 0-1.46.45-1.7 1.1h-.06v-.99h-.97v6.54zM28.23 70.23A1.7 1.7 0 0 1 26.55 72c-.84 0-1.43-.6-1.43-1.57v-4.08h-1v4.15c0 1.67.88 2.48 2.1 2.48.99 0 1.64-.53 1.95-1.2h.06v1.11h1v-6.54h-1v3.87zM32.1 68.97c0-1.14.69-1.8 1.66-1.8.92 0 1.5.62 1.5 1.64v4.1h1v-4.17c0-1.67-.9-2.47-2.21-2.47-1 0-1.6.44-1.9 1.11h-.1v-1.02h-.97v6.54h1.01v-3.93zM46.11 67.83c-.3-.94-1.02-1.56-2.31-1.56-1.38 0-2.4.79-2.4 1.9 0 .9.53 1.5 1.73 1.78l1.09.26c.66.15.97.47.97.92 0 .56-.59 1.02-1.52 1.02-.83 0-1.35-.35-1.53-1.06l-.95.24c.23 1.12 1.14 1.7 2.49 1.7 1.52 0 2.55-.82 2.55-1.95 0-.91-.57-1.49-1.74-1.78l-.97-.24c-.77-.19-1.13-.44-1.13-.95 0-.56.6-.97 1.4-.97.88 0 1.24.48 1.42.94l.9-.25zM50.4 73.03c1.46 0 2.42-.88 2.59-2.04h-1.01c-.2.72-.78 1.14-1.57 1.14-1.2 0-1.96-.98-1.96-2.5 0-1.48.78-2.45 1.96-2.45.88 0 1.41.54 1.57 1.14h1c-.16-1.23-1.2-2.05-2.59-2.05-1.77 0-2.95 1.4-2.95 3.4 0 1.95 1.13 3.36 2.97 3.36zM54.45 72.9h1.01v-4.14c0-.89.7-1.53 1.65-1.53.27 0 .55.04.6.07v-1.03l-.52-.02c-.78 0-1.46.45-1.7 1.1h-.06v-.99h-.98v6.54zM58.92 72.9h1v-6.54h-1v6.54zm.5-7.63a.7.7 0 0 0 .72-.68.7.7 0 0 0-.72-.69.7.7 0 0 0-.7.69c0 .37.32.68.7.68zM61.77 75.36h1V71.9h.09c.21.36.65 1.14 1.9 1.14 1.64 0 2.78-1.3 2.78-3.38 0-2.06-1.14-3.38-2.8-3.38-1.27 0-1.67.79-1.88 1.12h-.12v-1.03h-.97v9zm.98-5.73c0-1.47.65-2.45 1.87-2.45 1.29 0 1.91 1.07 1.91 2.45 0 1.4-.65 2.5-1.9 2.5-1.22 0-1.88-1.02-1.88-2.5zM71.92 66.36h-1.4V64.8h-1v1.57h-1v.85h1v4.08c0 1.16.91 1.7 1.77 1.7.38 0 .62-.08.75-.12l-.2-.9c-.09 0-.23.04-.45.04-.44 0-.87-.13-.87-.98v-3.82h1.4v-.85zM81.16 67.86c0 .17-.06.31-.17.42a.63.63 0 0 1-.43.17c-.26 0-.47-.14-.6-.42-.1-.22-.15-.47-.15-.77 0-.79.27-1.46.84-2.03.1-.1.18-.15.21-.15.09 0 .12.03.12.12 0 .03-.05.1-.13.19-.53.52-.8 1.18-.8 1.94 0 .06 0 .1.03.14l.04-.04a.62.62 0 0 1 .44-.18c.17 0 .31.06.43.17.11.12.17.26.17.44zm-2.2 0c0 .17-.04.31-.16.42-.11.11-.25.17-.42.17-.28 0-.48-.14-.61-.42-.11-.22-.16-.47-.16-.77 0-.79.28-1.46.84-2.03.1-.1.18-.15.23-.15.07 0 .1.03.1.12 0 .03-.04.1-.13.19-.52.53-.79 1.18-.79 1.94 0 .06 0 .1.03.14 0 0 0-.02.03-.04a.66.66 0 0 1 .46-.18c.17 0 .31.06.42.17.12.12.17.26.17.44zM86.6 63.69a4.4 4.4 0 0 1 1.76.34l-.33.77c-.4-.18-.87-.26-1.39-.26-.91 0-1.37.35-1.37 1.07v1.32h2.2l-.1.81h-2.1v5.16h-1.03v-5.16H82.7v-.81h1.55v-1.3c0-.38.11-.73.31-1.02.2-.3.48-.53.84-.68a2.8 2.8 0 0 1 1.22-.24zM92.63 66.29c.6 0 1.1.13 1.52.4.42.28.73.67.94 1.17.2.5.32 1.1.32 1.8 0 .66-.11 1.26-.33 1.77-.21.5-.53.9-.95 1.18a2.6 2.6 0 0 1-1.5.44 2.51 2.51 0 0 1-2.47-1.6c-.23-.5-.33-1.1-.33-1.78 0-.67.1-1.27.32-1.77s.54-.9.96-1.19a2.7 2.7 0 0 1 1.52-.42zm0 .84c-.56 0-.98.2-1.27.62-.29.42-.42 1.06-.42 1.92 0 .86.13 1.48.42 1.9.28.42.7.62 1.26.62.57 0 .99-.2 1.26-.62.28-.42.42-1.06.42-1.9 0-.86-.14-1.5-.42-1.92-.27-.42-.7-.62-1.25-.62zM100.02 66.29c.6 0 1.1.13 1.51.4.42.28.73.67.95 1.17.2.5.31 1.1.31 1.8 0 .66-.1 1.26-.32 1.77-.22.5-.53.9-.95 1.18a2.6 2.6 0 0 1-1.51.44 2.51 2.51 0 0 1-2.47-1.6c-.22-.5-.33-1.1-.33-1.78 0-.67.11-1.27.33-1.77.21-.5.54-.9.96-1.19a2.7 2.7 0 0 1 1.52-.42zm0 .84c-.56 0-.98.2-1.27.62-.29.42-.42 1.06-.42 1.92 0 .86.13 1.48.42 1.9.27.42.7.62 1.26.62s.98-.2 1.26-.62c.27-.42.42-1.06.42-1.9 0-.86-.15-1.5-.42-1.92-.28-.42-.7-.62-1.25-.62zM107.63 66.24c0 .8-.27 1.48-.84 2.03-.1.1-.18.17-.23.17-.07 0-.1-.04-.1-.12 0-.04.04-.1.13-.2.53-.52.79-1.17.79-1.94l-.02-.14-.04.03a.66.66 0 0 1-.44.18c-.18 0-.33-.04-.44-.16a.55.55 0 0 1-.18-.44c0-.16.06-.3.18-.42.11-.12.26-.16.44-.16.26 0 .46.13.6.4.1.22.15.48.15.77zm-2.2 0c0 .8-.27 1.47-.83 2.03-.11.1-.18.17-.22.17-.08 0-.12-.04-.12-.12 0-.04.05-.1.14-.2.53-.52.8-1.17.8-1.94 0-.06-.02-.1-.03-.14l-.03.03a.66.66 0 0 1-.46.18c-.18 0-.32-.04-.43-.16a.59.59 0 0 1-.17-.44c0-.16.06-.3.17-.42.1-.12.25-.16.43-.16.26 0 .46.13.6.4.1.22.16.48.16.77z"/>
  </g>
  <g>
    <path fill="none" stroke="#fff" stroke-width="1.93" d="M493.1 242.14H-373" transform="matrix(.59116 0 0 .4312 229.4 256.5)"/>
  </g>
  <g>
    <path fill="#f2f2f2" fill-rule="nonzero" d="M351.43 218.19h-1.88v-2.1h-1.32v2.1h-1.33v1.13h1.33v5.44c0 1.54 1.21 2.26 2.35 2.26.51 0 .83-.1 1-.16l-.27-1.2c-.1.01-.3.06-.59.06-.59 0-1.17-.17-1.17-1.31v-5.09h1.88v-1.13zM357.01 227.08c1.78 0 3.07-.88 3.49-2.19l-1.3-.37c-.35.91-1.13 1.36-2.19 1.36-1.57 0-2.66-1-2.72-2.88h6.34v-.57c0-3.25-1.92-4.37-3.75-4.37-2.37 0-3.93 1.87-3.93 4.56 0 2.67 1.55 4.46 4.06 4.46zm-2.72-5.25c.1-1.36 1.06-2.56 2.6-2.56 1.45 0 2.38 1.1 2.38 2.56h-4.98zM368.86 220.14c-.42-1.25-1.36-2.08-3.1-2.08-1.83 0-3.2 1.05-3.2 2.53 0 1.2.71 2.01 2.31 2.38l1.46.35c.88.2 1.3.63 1.3 1.22 0 .75-.79 1.36-2.04 1.36-1.1 0-1.79-.47-2.03-1.41l-1.26.32c.3 1.49 1.52 2.27 3.3 2.27 2.04 0 3.42-1.1 3.42-2.6 0-1.22-.77-1.99-2.32-2.37l-1.3-.32c-1.02-.26-1.5-.6-1.5-1.27 0-.75.8-1.3 1.87-1.3 1.17 0 1.65.65 1.89 1.25l1.2-.33zM374.84 218.19h-1.88v-2.1h-1.32v2.1h-1.33v1.13h1.33v5.44c0 1.54 1.21 2.26 2.35 2.26.51 0 .83-.1 1-.16l-.27-1.2c-.1.01-.3.06-.59.06-.59 0-1.17-.17-1.17-1.31v-5.09h1.88v-1.13z"/>
  </g>
  <g>
    <path stroke="#fff" stroke-width="3.43" d="M298.57 235.18h138.26v55.66H298.57z" transform="matrix(.40503 0 0 .46714 -12.02 195.04)"/>
    <path stroke="#fff" stroke-width="3.43" d="M317 235.18h97v55.66h-97z" transform="matrix(.40503 0 0 .46714 212.86 195.04)"/>
    <path fill="#f2f2f2" fill-rule="nonzero" d="M121.85 323.08c1.94 0 3.22-1.18 3.44-2.72h-1.34c-.26.96-1.04 1.52-2.1 1.52-1.58 0-2.6-1.31-2.6-3.34 0-1.97 1.03-3.27 2.6-3.27 1.18 0 1.89.72 2.1 1.52h1.34c-.22-1.63-1.62-2.73-3.46-2.73-2.36 0-3.93 1.87-3.93 4.52 0 2.61 1.5 4.5 3.95 4.5zM127.3 311.22h1.27v11.68h-1.28zM134.69 323.08c1.78 0 3.07-.88 3.49-2.2l-1.3-.36c-.35.91-1.13 1.36-2.19 1.36-1.57 0-2.66-1-2.72-2.88h6.34v-.58c0-3.24-1.92-4.36-3.75-4.36-2.37 0-3.93 1.87-3.93 4.56 0 2.67 1.55 4.46 4.06 4.46zm-2.72-5.25c.1-1.36 1.06-2.56 2.6-2.56 1.45 0 2.38 1.09 2.38 2.56h-4.98zM142.92 323.11c1.52 0 2.32-.81 2.6-1.39h.06v1.18h1.34v-5.74c0-2.78-2.11-3.1-3.22-3.1-1.32 0-2.83.46-3.5 2.04l1.26.47c.3-.64 1-1.33 2.28-1.33 1.23 0 1.84.66 1.84 1.78v.04c0 .64-.66.6-2.24.8-1.62.21-3.4.56-3.4 2.56 0 1.72 1.33 2.7 2.98 2.7zm.2-1.21c-1.06 0-1.83-.47-1.83-1.41 0-1.01.93-1.33 1.98-1.47.56-.07 2.08-.23 2.3-.5v1.23c0 1.09-.86 2.15-2.44 2.15zM150.73 317.66c0-1.52.92-2.39 2.22-2.39 1.23 0 2 .82 2 2.18v5.45h1.34v-5.55c0-2.22-1.2-3.3-2.96-3.3-1.32 0-2.14.6-2.54 1.5h-.11v-1.37h-1.3v8.72h1.35v-5.24z"/>
  </g>
  <g>
    <path stroke="#fff" stroke-width="3.5" d="M285.86 235.18h170.9v55.66h-170.9z" transform="matrix(.38619 0 0 .46714 105.5 99.04)"/>
    <path fill="#f2f2f2" fill-rule="nonzero" d="M223.9 226.9h1.35v-5.52c0-1.18.93-2.04 2.2-2.04.36 0 .73.06.8.1v-1.38l-.7-.02c-1.03 0-1.95.6-2.27 1.46h-.08v-1.32h-1.3v8.72zM233.24 227.08c1.77 0 3.07-.88 3.48-2.2l-1.3-.36c-.34.91-1.13 1.36-2.18 1.36-1.57 0-2.66-1-2.72-2.88h6.33v-.58c0-3.24-1.92-4.36-3.74-4.36-2.37 0-3.94 1.87-3.94 4.56 0 2.67 1.55 4.46 4.07 4.46zm-2.72-5.25c.1-1.36 1.05-2.56 2.59-2.56 1.45 0 2.38 1.09 2.38 2.56h-4.97zM239.08 226.9h1.3v-1.34h.16c.29.48.86 1.52 2.54 1.52 2.18 0 3.72-1.74 3.72-4.51 0-2.75-1.54-4.51-3.73-4.51-1.71 0-2.24 1.05-2.53 1.5h-.11v-4.29h-1.35v11.63zm1.32-4.36c0-1.96.86-3.27 2.5-3.27 1.7 0 2.55 1.43 2.55 3.27 0 1.87-.86 3.34-2.54 3.34-1.62 0-2.51-1.36-2.51-3.34zM254.33 223.34a2.26 2.26 0 0 1-2.24 2.38c-1.12 0-1.9-.82-1.9-2.1v-5.44h-1.35v5.54c0 2.22 1.18 3.3 2.81 3.3 1.32 0 2.18-.7 2.6-1.59h.08v1.47h1.34v-8.72h-1.34v5.16zM258.13 226.9h1.35v-8.72h-1.35v8.72zm.68-10.17c.52 0 .96-.42.96-.91 0-.5-.44-.92-.96-.92a.94.94 0 0 0-.95.92c0 .5.43.9.95.9zM261.98 215.22h1.28v11.68h-1.28zM269.02 227.08c1.68 0 2.24-1.04 2.55-1.52h.16v1.34h1.3v-11.63h-1.35v4.29h-.11c-.3-.45-.82-1.5-2.53-1.5-2.21 0-3.73 1.76-3.73 4.5 0 2.78 1.52 4.52 3.71 4.52zm.18-1.2c-1.68 0-2.55-1.47-2.55-3.34 0-1.84.85-3.27 2.55-3.27 1.63 0 2.5 1.31 2.5 3.27 0 1.98-.89 3.34-2.5 3.34z"/>
  </g>
  <g>
    <path stroke="#fff" stroke-width="3.5" d="M264 235.18h212.33v55.66H264z" transform="matrix(.38619 0 0 .46714 329.95 3.04)"/>
    <path fill="#f2f2f2" fill-rule="nonzero" d="M440.15 130.9h1.34v-5.52c0-1.18.93-2.04 2.2-2.04.36 0 .73.06.81.1v-1.38l-.7-.02c-1.04 0-1.95.6-2.27 1.46h-.08v-1.32h-1.3v8.72zM451.6 127.34a2.26 2.26 0 0 1-2.25 2.38c-1.12 0-1.9-.82-1.9-2.1v-5.44h-1.35v5.54c0 2.22 1.19 3.3 2.82 3.3 1.31 0 2.18-.7 2.6-1.59h.07v1.47h1.35v-8.72h-1.35v5.16zM456.74 125.66c0-1.52.93-2.39 2.23-2.39 1.23 0 2 .82 2 2.18v5.45h1.34v-5.55c0-2.22-1.2-3.3-2.96-3.3-1.33 0-2.14.6-2.54 1.5h-.11v-1.37h-1.3v8.72h1.34v-5.24zM465.79 124.66c.62 0 1.13-.5 1.13-1.13 0-.63-.5-1.14-1.13-1.14a1.14 1.14 0 0 0 0 2.27zm0 6.36a1.14 1.14 0 0 0 0-2.27c-.63 0-1.14.5-1.14 1.13 0 .62.51 1.14 1.14 1.14zM471.12 125.66c0-1.52.92-2.39 2.22-2.39 1.23 0 2 .82 2 2.18v5.45h1.34v-5.55c0-2.22-1.2-3.3-2.96-3.3-1.32 0-2.14.6-2.54 1.5h-.11v-1.37h-1.3v8.72h1.35v-5.24zM482.67 131.08c2.37 0 3.95-1.8 3.95-4.5 0-2.72-1.58-4.52-3.95-4.52-2.35 0-3.95 1.8-3.95 4.52 0 2.7 1.6 4.5 3.95 4.5zm0-1.2c-1.79 0-2.6-1.55-2.6-3.3 0-1.74.81-3.3 2.6-3.3 1.81 0 2.63 1.56 2.63 3.3 0 1.75-.82 3.3-2.63 3.3zM491.98 131.08c1.68 0 2.24-1.04 2.54-1.52h.16v1.34h1.3v-11.63h-1.35v4.29h-.1c-.31-.45-.83-1.5-2.54-1.5-2.2 0-3.73 1.76-3.73 4.5 0 2.78 1.52 4.52 3.72 4.52zm.17-1.2c-1.68 0-2.54-1.47-2.54-3.34 0-1.84.85-3.27 2.54-3.27 1.63 0 2.5 1.31 2.5 3.27 0 1.98-.88 3.34-2.5 3.34zM502.26 131.08c1.78 0 3.07-.88 3.49-2.2l-1.3-.36c-.35.91-1.13 1.36-2.19 1.36-1.57 0-2.66-1-2.72-2.88h6.34v-.58c0-3.24-1.92-4.36-3.75-4.36-2.37 0-3.93 1.87-3.93 4.56 0 2.67 1.55 4.46 4.06 4.46zm-2.72-5.25c.1-1.36 1.06-2.56 2.6-2.56 1.45 0 2.38 1.09 2.38 2.56h-4.98z"/>
  </g>
  <g>
    <path stroke="#fff" stroke-width="3.5" d="M313.2 235.18h113.93v55.66H313.2z" transform="matrix(.38619 0 0 .46714 217.95 3.04)"/>
    <path fill="#f2f2f2" fill-rule="nonzero" d="M349.73 130.9h1.35v-5.52c0-1.18.92-2.04 2.19-2.04.37 0 .73.06.81.1v-1.38l-.7-.02c-1.04 0-1.95.6-2.27 1.46h-.08v-1.32h-1.3v8.72zM361.17 127.34a2.26 2.26 0 0 1-2.24 2.38c-1.12 0-1.9-.82-1.9-2.1v-5.44h-1.34v5.54c0 2.22 1.18 3.3 2.81 3.3 1.31 0 2.18-.7 2.6-1.59h.07v1.47h1.35v-8.72h-1.35v5.16zM366.33 125.66c0-1.52.92-2.39 2.22-2.39 1.23 0 2 .82 2 2.18v5.45h1.34v-5.55c0-2.22-1.2-3.3-2.96-3.3-1.32 0-2.14.6-2.54 1.5h-.11v-1.37h-1.3v8.72h1.35v-5.24z"/>
  </g>
  <g>
    <path fill="#f2f2f2" fill-rule="nonzero" d="M214.9 130.9h1.3v-1.34h.16c.29.48.86 1.52 2.54 1.52 2.18 0 3.72-1.74 3.72-4.51 0-2.75-1.54-4.51-3.73-4.51-1.71 0-2.24 1.05-2.53 1.5h-.11v-4.29h-1.35v11.63zm1.32-4.36c0-1.96.86-3.27 2.5-3.27 1.7 0 2.55 1.43 2.55 3.27 0 1.87-.86 3.34-2.54 3.34-1.62 0-2.51-1.36-2.51-3.34zM230.15 127.34a2.26 2.26 0 0 1-2.24 2.38c-1.12 0-1.9-.82-1.9-2.1v-5.44h-1.35v5.54c0 2.22 1.18 3.3 2.82 3.3 1.3 0 2.17-.7 2.59-1.59h.08v1.47h1.34v-8.72h-1.34v5.16zM233.96 130.9h1.34v-8.72h-1.34v8.72zm.67-10.17c.53 0 .96-.42.96-.91 0-.5-.43-.92-.96-.92a.94.94 0 0 0-.95.92c0 .5.44.9.95.9zM237.8 119.22h1.28v11.68h-1.28zM244.84 131.08c1.68 0 2.24-1.04 2.55-1.52h.16v1.34h1.3v-11.63h-1.35v4.29h-.11c-.3-.45-.82-1.5-2.53-1.5-2.2 0-3.73 1.76-3.73 4.5 0 2.78 1.52 4.52 3.71 4.52zm.18-1.2c-1.68 0-2.55-1.47-2.55-3.34 0-1.84.85-3.27 2.55-3.27 1.63 0 2.5 1.31 2.5 3.27 0 1.98-.88 3.34-2.5 3.34zM252.82 124.66c.63 0 1.14-.5 1.14-1.13a1.14 1.14 0 0 0-2.27 0c0 .62.5 1.13 1.13 1.13zm0 6.36a1.14 1.14 0 0 0 0-2.27c-.62 0-1.13.5-1.13 1.13 0 .62.5 1.14 1.13 1.14zM260.6 122.18h-1.87v-2.1h-1.33v2.1h-1.33v1.14h1.33v5.44c0 1.54 1.22 2.26 2.35 2.26.51 0 .83-.1 1-.16l-.26-1.2c-.11.01-.3.06-.6.06-.59 0-1.16-.18-1.16-1.31v-5.09h1.87v-1.14zM266.18 131.08c1.78 0 3.07-.88 3.49-2.2l-1.3-.36c-.35.91-1.13 1.36-2.19 1.36-1.57 0-2.65-1-2.72-2.88h6.34v-.58c0-3.24-1.92-4.36-3.75-4.36-2.36 0-3.93 1.87-3.93 4.56 0 2.67 1.55 4.46 4.06 4.46zm-2.72-5.25c.1-1.36 1.06-2.56 2.6-2.56 1.45 0 2.38 1.09 2.38 2.56h-4.98zM278.03 124.14c-.42-1.25-1.36-2.08-3.09-2.08-1.84 0-3.2 1.05-3.2 2.52 0 1.2.7 2.02 2.3 2.39l1.46.35c.88.2 1.3.62 1.3 1.22 0 .75-.79 1.36-2.03 1.36-1.1 0-1.8-.47-2.04-1.41l-1.26.32c.3 1.49 1.52 2.27 3.31 2.27 2.03 0 3.4-1.1 3.4-2.6 0-1.22-.76-2-2.31-2.38l-1.3-.32c-1.02-.25-1.5-.59-1.5-1.26 0-.75.8-1.3 1.87-1.3 1.17 0 1.65.64 1.89 1.25l1.2-.33zM284 122.18h-1.86v-2.1h-1.33v2.1h-1.33v1.14h1.33v5.44c0 1.54 1.21 2.26 2.35 2.26.51 0 .83-.1 1-.16l-.26-1.2c-.12.01-.3.06-.6.06-.59 0-1.16-.18-1.16-1.31v-5.09H284v-1.14z"/>
  </g>
  <g>
    <path fill="#f2f2f2" fill-rule="nonzero" d="M228.18 322.9h1.34v-8.71h-1.34v8.72zm.67-10.17c.53 0 .96-.41.96-.91s-.43-.91-.96-.91a.94.94 0 0 0-.94.91c0 .5.43.91.94.91zM233.32 317.66c0-1.52.93-2.38 2.22-2.38 1.24 0 2 .81 2 2.17v5.46h1.35v-5.55c0-2.23-1.2-3.3-2.96-3.3-1.33 0-2.15.6-2.55 1.49h-.1v-1.36h-1.3v8.72h1.34v-5.25zM247.52 316.14c-.42-1.25-1.36-2.08-3.1-2.08-1.83 0-3.2 1.06-3.2 2.53 0 1.2.71 2.01 2.31 2.38l1.46.35c.88.2 1.3.63 1.3 1.22 0 .75-.8 1.36-2.04 1.36-1.1 0-1.8-.46-2.03-1.4l-1.26.31c.3 1.49 1.52 2.27 3.3 2.27 2.04 0 3.42-1.1 3.42-2.6 0-1.22-.77-1.99-2.32-2.37l-1.3-.32c-1.02-.26-1.5-.6-1.5-1.27 0-.75.8-1.3 1.87-1.3 1.17 0 1.65.65 1.89 1.26l1.2-.34zM253.5 314.19h-1.88v-2.1h-1.32v2.1h-1.33v1.13h1.33v5.44c0 1.54 1.21 2.26 2.35 2.26.5 0 .83-.1 1-.16l-.27-1.2c-.1.02-.3.06-.59.06-.6 0-1.17-.17-1.17-1.3v-5.1h1.88v-1.13zM258.08 323.12c1.52 0 2.32-.82 2.6-1.4h.06v1.19h1.34v-5.75c0-2.78-2.11-3.1-3.21-3.1-1.33 0-2.84.46-3.5 2.05l1.26.46c.3-.64.99-1.33 2.27-1.33 1.23 0 1.84.66 1.84 1.78v.05c0 .64-.66.59-2.24.8-1.62.2-3.4.56-3.4 2.56 0 1.71 1.33 2.69 2.98 2.69zm.2-1.22c-1.06 0-1.83-.46-1.83-1.4 0-1.02.93-1.34 1.98-1.48.56-.06 2.08-.22 2.3-.5v1.24c0 1.08-.86 2.14-2.44 2.14zM264.6 311.23h1.27v11.68h-1.28zM268.39 311.23h1.28v11.68h-1.28z"/>
  </g>
  <g>
    <path fill="#fff" fill-rule="nonzero" d="M126.5 370c2.12 0 3.16 1.53 3.16 4.55 0 .9-.13 1.7-.39 2.38a3.38 3.38 0 0 1-1.12 1.6c-.5.4-1.12.6-1.82.6a2.8 2.8 0 0 1-2.2-.96v4.06l-1.85.2v-12.2h1.6l.11 1.12c.34-.43.7-.77 1.14-1 .43-.23.9-.34 1.38-.34zm-.49 1.43c-.38 0-.74.11-1.06.34-.3.22-.59.52-.83.9v4.06c.43.64 1.01.96 1.71.96.64 0 1.1-.26 1.43-.76.32-.5.48-1.3.48-2.36 0-1.1-.15-1.9-.43-2.4a1.4 1.4 0 0 0-1.3-.74zM138.75 376.77c0 .34.05.58.16.74.1.16.26.29.5.35l-.4 1.25a2.57 2.57 0 0 1-1.12-.35c-.3-.2-.53-.48-.69-.85-.3.4-.7.7-1.18.91-.48.2-1.01.3-1.59.3a3.2 3.2 0 0 1-1.5-.33 2.36 2.36 0 0 1-1-.94c-.22-.4-.35-.88-.35-1.41 0-.91.37-1.62 1.08-2.11.72-.5 1.72-.74 3.05-.74h1.23v-.58c0-.54-.16-.94-.48-1.2a2.45 2.45 0 0 0-1.44-.36c-.3 0-.65.03-1.05.1-.42.09-.83.2-1.25.34l-.46-1.3a8.3 8.3 0 0 1 3.04-.6c1.15.02 2.01.27 2.59.77.57.51.86 1.23.86 2.16v3.85zm-3.76 1a2.27 2.27 0 0 0 1.95-1.12v-1.92h-1c-.85 0-1.46.14-1.84.41-.39.3-.58.7-.58 1.22 0 .46.13.81.37 1.05.25.24.62.36 1.1.36zM146.15 377.6c.38 0 .75-.06 1.1-.19.34-.12.7-.32 1.04-.56l.85 1.19c-.38.33-.85.6-1.39.78-.54.21-1.09.3-1.65.3-.88 0-1.63-.19-2.27-.55a3.68 3.68 0 0 1-1.46-1.59 5.49 5.49 0 0 1-.5-2.37c0-.9.18-1.68.52-2.36.34-.7.83-1.25 1.47-1.65.64-.4 1.4-.6 2.27-.6 1.16 0 2.16.36 3 1.05l-.84 1.16c-.7-.5-1.4-.73-2.12-.73-.72 0-1.28.27-1.72.78-.41.53-.62 1.3-.62 2.35 0 1.03.2 1.8.62 2.28.42.48 1 .72 1.7.72zM151.88 366.76l1.84-.2v12.34h-1.84v-12.14zm5.43 3.47h2.14l-3.5 3.89 3.87 4.78h-2.24l-3.73-4.73 3.46-3.94zM168.3 376.77c0 .34.04.58.15.74.1.16.26.29.5.35l-.4 1.25a2.57 2.57 0 0 1-1.12-.35c-.3-.2-.53-.48-.7-.85-.3.4-.7.7-1.18.91-.48.2-1 .3-1.58.3a3.2 3.2 0 0 1-1.5-.33 2.36 2.36 0 0 1-1-.94c-.22-.4-.35-.88-.35-1.41 0-.91.37-1.62 1.07-2.11.72-.5 1.73-.74 3.06-.74h1.23v-.58c0-.54-.16-.94-.48-1.2a2.45 2.45 0 0 0-1.44-.36c-.3 0-.65.03-1.05.1-.42.09-.84.2-1.25.34l-.47-1.3a8.3 8.3 0 0 1 3.04-.6c1.16.02 2.02.27 2.6.77.57.51.86 1.23.86 2.16v3.85zm-3.77 1a2.27 2.27 0 0 0 1.95-1.12v-1.92h-1c-.85 0-1.46.14-1.85.41-.38.3-.57.7-.57 1.22 0 .46.13.81.37 1.05.25.24.62.36 1.1.36zM179.3 370.66c-.32.11-.68.2-1.08.23-.4.04-.88.06-1.43.06.51.24.91.53 1.17.9.26.35.38.78.38 1.3 0 .57-.12 1.08-.4 1.51-.28.45-.67.8-1.2 1.04-.5.26-1.1.39-1.8.39a4.2 4.2 0 0 1-1.19-.15c-.1.08-.2.18-.29.3a.97.97 0 0 0-.1.4c0 .21.09.37.25.49.14.1.43.17.83.17h1.52c.6 0 1.15.11 1.63.32.47.21.85.5 1.12.87a2 2 0 0 1 .4 1.23c0 .57-.16 1.05-.5 1.47-.33.4-.83.72-1.47.93-.65.2-1.44.32-2.36.32-.96 0-1.75-.1-2.3-.3a2.2 2.2 0 0 1-1.2-.89 2.77 2.77 0 0 1-.36-1.48h1.65c0 .32.06.57.17.76.13.2.36.34.68.44.32.1.78.12 1.37.12.88 0 1.52-.1 1.9-.32.4-.2.58-.52.58-.94 0-.34-.16-.6-.46-.8-.3-.2-.7-.29-1.23-.29h-1.5c-.52 0-.95-.08-1.3-.22a1.87 1.87 0 0 1-.8-.6 1.56 1.56 0 0 1 0-1.7c.16-.28.4-.52.72-.7a2.7 2.7 0 0 1-1.14-1c-.24-.4-.37-.87-.37-1.44a2.88 2.88 0 0 1 1.75-2.67 4.35 4.35 0 0 1 1.87-.39c.65 0 1.23-.05 1.7-.1a5.5 5.5 0 0 0 1.2-.3c.31-.13.7-.29 1.1-.48l.5 1.52zm-4.48.63c-.56 0-.99.16-1.3.48-.3.32-.46.75-.46 1.3s.16 1 .47 1.32c.3.34.75.5 1.33.5.54 0 .96-.16 1.24-.48.3-.32.44-.77.44-1.36 0-1.17-.58-1.76-1.72-1.76zM182.9 375.16c.04.85.28 1.49.72 1.9.41.42.97.64 1.63.64.41 0 .8-.06 1.17-.19.35-.13.72-.32 1.1-.58l.8 1.1a5.13 5.13 0 0 1-3.15 1.09c-.88 0-1.65-.19-2.27-.57a3.64 3.64 0 0 1-1.43-1.6 5.49 5.49 0 0 1-.48-2.37c0-.88.16-1.65.48-2.35a3.66 3.66 0 0 1 3.47-2.22 3.38 3.38 0 0 1 3.28 2.02c.3.65.45 1.42.45 2.31 0 .3-.01.58-.03.82h-5.74zm2.06-3.8c-.6 0-1.07.21-1.44.65a3.2 3.2 0 0 0-.64 1.9h4.02a3.19 3.19 0 0 0-.53-1.89c-.34-.43-.8-.65-1.41-.65zM193.08 377.53c0-.3.08-.55.2-.79a1.65 1.65 0 0 1 1.38-.8 1.6 1.6 0 0 1 1.6 1.59c0 .28-.08.56-.22.8-.15.25-.34.44-.58.59a1.65 1.65 0 0 1-1.6 0 1.58 1.58 0 0 1-.57-.6 1.7 1.7 0 0 1-.21-.8zM204.03 366c.37 0 .65.1.88.33.22.22.33.5.33.81 0 .34-.1.61-.33.83-.23.23-.51.34-.88.34-.35 0-.64-.11-.87-.34a1.1 1.1 0 0 1-.32-.83 1.16 1.16 0 0 1 1.18-1.15zm1.44 11.08c0 1.05-.23 1.93-.66 2.65a4.77 4.77 0 0 1-1.92 1.72c-.85.43-1.9.76-3.18.99l-.3-1.4c.92-.19 1.69-.43 2.3-.71a3.3 3.3 0 0 0 1.42-1.2c.34-.52.5-1.16.5-1.92v-5.62h-3.43v-1.36h5.27v6.85zM212.45 377.72c.58 0 1.04-.11 1.38-.32.33-.2.5-.48.5-.85 0-.24-.06-.45-.15-.6-.1-.17-.3-.31-.6-.46a7.59 7.59 0 0 0-1.34-.44 6.96 6.96 0 0 1-1.55-.55c-.4-.19-.72-.46-.94-.78a2.15 2.15 0 0 1-.36-1.23c0-.48.15-.92.44-1.3.27-.37.68-.66 1.2-.86.52-.21 1.13-.32 1.84-.32 1.28 0 2.38.33 3.28 1l-.77 1.16a4.79 4.79 0 0 0-1.15-.56c-.4-.15-.84-.21-1.32-.21-1.08 0-1.64.32-1.64.96 0 .22.06.4.19.54.13.15.33.27.64.39.3.12.77.27 1.37.44.63.18 1.14.37 1.54.58.4.2.72.48.93.82.22.33.33.76.33 1.3 0 .6-.17 1.1-.52 1.5-.36.41-.8.72-1.4.9-.57.2-1.2.3-1.9.3a5.6 5.6 0 0 1-2.02-.34c-.59-.2-1.1-.51-1.53-.9l.97-1.1c.36.29.74.51 1.19.67.43.18.9.26 1.39.26zM222.62 370c.83 0 1.53.2 2.12.57.6.36 1.03.9 1.33 1.58.3.67.45 1.47.45 2.4 0 .93-.14 1.73-.45 2.42a3.55 3.55 0 0 1-1.34 1.58c-.6.38-1.3.58-2.11.58a3.9 3.9 0 0 1-2.13-.56 3.3 3.3 0 0 1-1.33-1.57 5.94 5.94 0 0 1-.46-2.43c0-.9.16-1.7.46-2.39a3.58 3.58 0 0 1 3.46-2.17zm0 1.43c-.68 0-1.17.26-1.5.77-.33.51-.49 1.31-.49 2.37 0 1.07.16 1.85.48 2.36.34.52.83.77 1.5.77.66 0 1.17-.25 1.5-.77.33-.5.49-1.3.49-2.38 0-1.06-.16-1.84-.5-2.35-.32-.51-.81-.77-1.48-.77zM228.99 378.9v-8.67h1.58l.15 1.14c.35-.44.78-.77 1.26-1.01.5-.24 1.01-.35 1.54-.35.8 0 1.39.22 1.8.67.4.45.61 1.09.61 1.9v6.32h-1.84v-5.4c0-.53-.03-.95-.1-1.24-.06-.3-.17-.5-.34-.64-.18-.14-.45-.2-.79-.2-.4 0-.77.1-1.12.35a4.1 4.1 0 0 0-.91.9v6.23h-1.84zM249.29 372.13c-.42-1.24-1.36-2.08-3.09-2.08-1.84 0-3.2 1.06-3.2 2.53 0 1.2.7 2.02 2.3 2.39l1.46.35c.88.2 1.3.62 1.3 1.21 0 .76-.79 1.36-2.04 1.36-1.1 0-1.79-.46-2.03-1.4l-1.26.32c.3 1.48 1.52 2.27 3.31 2.27 2.03 0 3.4-1.1 3.4-2.6 0-1.23-.76-2-2.31-2.38l-1.3-.32c-1.02-.25-1.5-.59-1.5-1.26 0-.75.8-1.3 1.87-1.3 1.17 0 1.65.64 1.89 1.25l1.2-.34zM255.01 379.08c1.94 0 3.22-1.19 3.44-2.72h-1.34c-.26.96-1.04 1.52-2.1 1.52-1.58 0-2.6-1.31-2.6-3.35 0-1.96 1.03-3.26 2.6-3.26 1.19 0 1.89.72 2.1 1.52h1.34c-.22-1.63-1.61-2.74-3.45-2.74-2.37 0-3.94 1.88-3.94 4.53 0 2.61 1.5 4.5 3.95 4.5zM260.4 378.9h1.35v-5.52c0-1.18.93-2.05 2.2-2.05.36 0 .73.07.81.1v-1.38l-.7-.01c-1.04 0-1.96.6-2.28 1.45h-.08v-1.3h-1.3v8.71zM266.36 378.9h1.35v-8.72h-1.35v8.72zm.67-10.17c.53 0 .96-.42.96-.92s-.43-.9-.96-.9a.94.94 0 0 0-.94.9c0 .5.43.92.94.92zM270.16 382.18h1.34v-4.62h.11c.3.48.87 1.52 2.55 1.52 2.17 0 3.7-1.75 3.7-4.51s-1.53-4.52-3.73-4.52c-1.7 0-2.23 1.06-2.52 1.5h-.16v-1.37h-1.3v12zm1.31-7.65c0-1.95.86-3.26 2.5-3.26 1.7 0 2.54 1.42 2.54 3.26 0 1.88-.86 3.35-2.54 3.35-1.62 0-2.5-1.36-2.5-3.35zM283.7 370.18h-1.87v-2.1h-1.33v2.1h-1.33v1.14h1.33v5.44c0 1.53 1.22 2.25 2.35 2.25.51 0 .83-.1 1.01-.16l-.27-1.2c-.11.02-.3.07-.6.07-.59 0-1.16-.18-1.16-1.31v-5.1h1.87v-1.13zM291.74 372.13c-.41-1.24-1.36-2.08-3.09-2.08-1.84 0-3.2 1.06-3.2 2.53 0 1.2.7 2.02 2.3 2.39l1.46.35c.88.2 1.3.62 1.3 1.21 0 .76-.78 1.36-2.03 1.36-1.1 0-1.8-.46-2.03-1.4l-1.27.32c.3 1.48 1.52 2.27 3.31 2.27 2.04 0 3.41-1.1 3.41-2.6 0-1.23-.77-2-2.32-2.38l-1.3-.32c-1.02-.25-1.5-.59-1.5-1.26 0-.75.8-1.3 1.87-1.3 1.17 0 1.65.64 1.9 1.25l1.2-.34zM294.9 379c.57 0 1.03-.47 1.03-1.03s-.46-1.02-1.02-1.02-1.03.46-1.03 1.02.47 1.03 1.03 1.03zm0-6.48c.57 0 1.03-.47 1.03-1.03s-.46-1.02-1.02-1.02-1.03.46-1.03 1.02.47 1.03 1.03 1.03zM306.14 379.08c1.68 0 2.24-1.04 2.54-1.52h.16v1.34h1.3v-11.63h-1.35v4.29h-.11c-.3-.45-.82-1.5-2.53-1.5-2.2 0-3.73 1.75-3.73 4.5 0 2.77 1.52 4.52 3.72 4.52zm.17-1.2c-1.68 0-2.54-1.47-2.54-3.35 0-1.84.85-3.26 2.54-3.26 1.63 0 2.5 1.31 2.5 3.26 0 1.99-.88 3.35-2.5 3.35zM316.42 379.08c1.78 0 3.07-.88 3.49-2.2l-1.3-.36c-.35.91-1.13 1.36-2.19 1.36-1.57 0-2.66-1-2.72-2.88h6.34v-.58c0-3.25-1.92-4.37-3.75-4.37-2.37 0-3.93 1.88-3.93 4.56 0 2.68 1.55 4.47 4.06 4.47zm-2.72-5.25c.1-1.36 1.06-2.56 2.6-2.56 1.45 0 2.38 1.09 2.38 2.56h-4.98zM322.09 382.18h1.34v-4.62h.12c.28.48.86 1.52 2.54 1.52 2.18 0 3.7-1.75 3.7-4.51s-1.52-4.52-3.73-4.52c-1.7 0-2.23 1.06-2.51 1.5h-.16v-1.37h-1.3v12zm1.31-7.65c0-1.95.87-3.26 2.5-3.26 1.71 0 2.54 1.42 2.54 3.26 0 1.88-.86 3.35-2.54 3.35-1.62 0-2.5-1.36-2.5-3.35zM335.49 379.08c1.77 0 3.07-.88 3.49-2.2l-1.3-.36c-.35.91-1.14 1.36-2.2 1.36-1.56 0-2.65-1-2.71-2.88h6.33v-.58c0-3.25-1.92-4.37-3.74-4.37-2.37 0-3.94 1.88-3.94 4.56 0 2.68 1.56 4.47 4.07 4.47zm-2.72-5.25c.1-1.36 1.05-2.56 2.59-2.56 1.46 0 2.38 1.09 2.38 2.56h-4.97zM342.5 373.65c0-1.52.93-2.38 2.23-2.38 1.23 0 2 .82 2 2.18v5.45h1.34v-5.55c0-2.22-1.2-3.3-2.96-3.3-1.33 0-2.14.6-2.54 1.5h-.12v-1.37h-1.3v8.72h1.35v-5.25zM353.82 379.08c1.68 0 2.24-1.04 2.54-1.52h.16v1.34h1.3v-11.63h-1.35v4.29h-.1c-.31-.45-.82-1.5-2.54-1.5-2.2 0-3.72 1.75-3.72 4.5 0 2.77 1.52 4.52 3.7 4.52zm.17-1.2c-1.68 0-2.54-1.47-2.54-3.35 0-1.84.85-3.26 2.54-3.26 1.64 0 2.5 1.31 2.5 3.26 0 1.99-.88 3.35-2.5 3.35zM364.1 379.08c1.78 0 3.07-.88 3.49-2.2l-1.3-.36c-.35.91-1.13 1.36-2.19 1.36-1.57 0-2.65-1-2.72-2.88h6.34v-.58c0-3.25-1.92-4.37-3.75-4.37-2.36 0-3.93 1.88-3.93 4.56 0 2.68 1.55 4.47 4.06 4.47zm-2.72-5.25c.1-1.36 1.06-2.56 2.6-2.56 1.45 0 2.38 1.09 2.38 2.56h-4.98zM371.12 373.65c0-1.52.92-2.38 2.22-2.38 1.23 0 2 .82 2 2.18v5.45h1.34v-5.55c0-2.22-1.2-3.3-2.96-3.3-1.32 0-2.14.6-2.54 1.5h-.11v-1.37h-1.3v8.72h1.35v-5.25zM382.67 379.08c1.94 0 3.22-1.19 3.44-2.72h-1.34c-.26.96-1.04 1.52-2.1 1.52-1.58 0-2.6-1.31-2.6-3.35 0-1.96 1.03-3.26 2.6-3.26 1.19 0 1.89.72 2.1 1.52h1.34c-.22-1.63-1.61-2.74-3.45-2.74-2.37 0-3.94 1.88-3.94 4.53 0 2.61 1.5 4.5 3.95 4.5zM388.07 378.9h1.34v-8.72h-1.34v8.72zm.67-10.17c.53 0 .96-.42.96-.92s-.43-.9-.96-.9a.94.94 0 0 0-.94.9c0 .5.43.92.94.92zM395.51 379.08c1.78 0 3.07-.88 3.49-2.2l-1.3-.36c-.35.91-1.13 1.36-2.19 1.36-1.57 0-2.65-1-2.72-2.88h6.34v-.58c0-3.25-1.92-4.37-3.75-4.37-2.36 0-3.93 1.88-3.93 4.56 0 2.68 1.55 4.47 4.06 4.47zm-2.72-5.25c.1-1.36 1.06-2.56 2.6-2.56 1.45 0 2.38 1.09 2.38 2.56h-4.98zM407.36 372.13c-.42-1.24-1.36-2.08-3.1-2.08-1.83 0-3.2 1.06-3.2 2.53 0 1.2.71 2.02 2.31 2.39l1.46.35c.88.2 1.3.62 1.3 1.21 0 .76-.79 1.36-2.04 1.36-1.1 0-1.79-.46-2.03-1.4l-1.26.32c.3 1.48 1.52 2.27 3.3 2.27 2.04 0 3.42-1.1 3.42-2.6 0-1.23-.77-2-2.32-2.38l-1.3-.32c-1.02-.25-1.5-.59-1.5-1.26 0-.75.8-1.3 1.87-1.3 1.17 0 1.65.64 1.89 1.25l1.2-.34z"/>
  </g>
  <g>
    <path fill="#fff" d="M366.53 101.65l-5.63 11.25-5.62-11.25c2.81 2.82 8.43 2.82 11.25 0z"/>
    <path fill="none" stroke="#fff" stroke-width="1.5" d="M360.9 42.9v61"/>
  </g>
  <g>
    <path fill="#fff" d="M254.52 101.66l-5.62 11.25-5.63-11.25c2.82 2.81 8.44 2.81 11.25 0z"/>
    <path fill="none" stroke="#fff" stroke-width="1.5" d="M360.9 70.9v2a8 8 0 0 1-8 8h-96a8 8 0 0 0-8 8v15"/>
  </g>
  <g>
    <path fill="#fff" d="M254.52 197.66l-5.62 11.25-5.63-11.25c2.82 2.8 8.44 2.8 11.25 0z"/>
    <path fill="none" stroke="#fff" stroke-width="1.5" d="M248.9 138.9v61"/>
  </g>
  <g>
    <path fill="#fff" d="M254.52 293.65l-5.62 11.25-5.63-11.25c2.82 2.81 8.44 2.81 11.25 0z"/>
    <path fill="none" stroke="#fff" stroke-width="1.5" d="M248.9 234.9v61"/>
  </g>
  <g>
    <path fill="#fff" d="M142.52 293.65l-5.62 11.25-5.63-11.25c2.82 2.82 8.44 2.82 11.25 0z"/>
    <path fill="none" stroke="#fff" stroke-width="1.5" d="M248.9 262.9v2a8 8 0 0 1-8 8h-96a8 8 0 0 0-8 8v15"/>
  </g>
  <g>
    <path fill="#fff" d="M366.53 293.65l-5.63 11.25-5.62-11.25c2.81 2.82 8.44 2.82 11.25 0z"/>
    <path fill="none" stroke="#fff" stroke-width="1.5" d="M248.9 262.9v2a8 8 0 0 0 8 8h96a8 8 0 0 1 8 8v15"/>
  </g>
  <g>
    <path fill="#f2f2f2" fill-rule="nonzero" d="M349.95 311.23h1.28v11.68h-1.28zM353.7 322.9h1.35v-8.71h-1.35v8.72zm.67-10.17c.53 0 .96-.41.96-.91s-.43-.91-.96-.91a.94.94 0 0 0-.94.91c0 .5.43.91.94.91zM358.84 317.66c0-1.52.93-2.38 2.22-2.38 1.24 0 2 .81 2 2.17v5.46h1.35v-5.55c0-2.23-1.2-3.3-2.96-3.3-1.33 0-2.15.6-2.55 1.49h-.1v-1.36h-1.3v8.72h1.34v-5.25zM370.65 314.19h-1.87v-2.1h-1.33v2.1h-1.33v1.13h1.33v5.44c0 1.54 1.22 2.26 2.35 2.26.52 0 .84-.1 1.01-.16l-.27-1.2c-.11.02-.3.06-.6.06-.58 0-1.16-.17-1.16-1.3v-5.1h1.87v-1.13z"/>
  </g>
  <g>
    <path fill="#fff" d="M366.53 197.65l-5.63 11.25-5.62-11.25c2.81 2.81 8.44 2.81 11.25 0z"/>
    <path fill="none" stroke="#fff" stroke-width="1.5" d="M248.9 166.9v2a8 8 0 0 0 8 8h96a8 8 0 0 1 8 8v15"/>
  </g>
  <g>
    <path fill="#fff" d="M478.53 101.66l-5.63 11.25-5.62-11.25c2.8 2.81 8.43 2.81 11.25 0z"/>
    <path fill="none" stroke="#fff" stroke-width="1.5" d="M360.9 70.9v2a8 8 0 0 0 8 8h96a8 8 0 0 1 8 8v15"/>
  </g>
  <g>
    <path fill="#fff" d="M478.53 293.65l-5.63 11.25-5.62-11.25c2.8 2.82 8.43 2.82 11.25 0z"/>
    <path fill="none" stroke="#fff" stroke-width="1.5" d="M344.9 272.9h120a8 8 0 0 1 8 8v15"/>
  </g>
  <g>
    <path fill="#f2f2f2" fill-rule="nonzero" d="M455.9 322.9h1.3v-1.34h.16c.29.48.86 1.52 2.54 1.52 2.18 0 3.71-1.74 3.71-4.5s-1.53-4.52-3.72-4.52c-1.72 0-2.24 1.06-2.53 1.5h-.11v-4.28h-1.35v11.63zm1.31-4.36c0-1.95.87-3.26 2.52-3.26 1.7 0 2.54 1.42 2.54 3.26 0 1.87-.86 3.34-2.54 3.34-1.62 0-2.52-1.36-2.52-3.34zM471.15 319.34a2.26 2.26 0 0 1-2.24 2.38c-1.12 0-1.9-.81-1.9-2.1v-5.43h-1.35v5.53c0 2.23 1.18 3.3 2.81 3.3 1.32 0 2.18-.7 2.6-1.58h.08v1.47h1.34v-8.72h-1.34v5.15zM474.95 322.9h1.35v-8.71h-1.35v8.72zm.68-10.17c.52 0 .96-.41.96-.91s-.44-.91-.96-.91a.94.94 0 0 0-.95.91c0 .5.43.91.95.91zM478.8 311.23h1.28v11.68h-1.28zM485.84 323.08c1.68 0 2.24-1.04 2.54-1.52h.16v1.35h1.3v-11.63h-1.34v4.28h-.12c-.3-.44-.81-1.5-2.52-1.5-2.21 0-3.73 1.76-3.73 4.51 0 2.77 1.52 4.51 3.71 4.51zm.18-1.2c-1.68 0-2.55-1.47-2.55-3.34 0-1.84.85-3.26 2.55-3.26 1.63 0 2.5 1.3 2.5 3.26 0 1.98-.89 3.34-2.5 3.34z"/>
  </g>
</svg>
